<?xml version="1.0" encoding="utf-8"?><svg viewBox="0 0 1148 402" xmlns="http://www.w3.org/2000/svg" xmlns:xlink="http://www.w3.org/1999/xlink"><style>:root>svg{display:none}:root>svg:target{display:block}</style><svg fill="none" viewBox="-1 -1 1135 396" id="image-left" xmlns="http://www.w3.org/2000/svg"><g filter="url(#afilter0_f_8_666)"><g filter="url(#afilter1_f_8_666)"><path d="M502.825-163.512c28.122 20.721-429.593 310.902-531.222 381.59-101.63 70.687-206.814 111.194-234.935 90.473-28.122-20.721 36.378-85.482 303.883-257.153 251.706-150.216 414.857-227.391 462.274-214.91z" fill="#FFA000"/></g><path d="M-240.523 216.217c-5.822-61.009 69.554-148.45 180.236-212.352C50.394-60.037 247.4-125.46 270.492-85.465c23.09 39.994-67.448 59.49-292.246 270.416-144.3 135.396-211.714 105.194-218.769 31.266z" fill="url(#apaint0_linear_8_666)"/><g filter="url(#afilter2_f_8_666)"><path d="M-67.72 52.51C-75.176-.936-17.104-73.87 70.995-124.733c88.099-50.864 176.311-63.011 197.027-27.13 20.715 35.881-49.736 108.885-157.447 186.698C10.925 104.937-58.688 117.273-67.721 52.51z" fill="url(#apaint1_linear_8_666)"/></g><ellipse cx="293.512" cy="-159.723" rx="184.198" ry="80.956" transform="rotate(150 293.512 -159.723)" fill="#C0618C"/><g filter="url(#afilter3_f_8_666)"><path d="M117.49-6.636C97.984-40.421 443.707-208.511 520.751-252.992c77.045-44.482 155.314-53.154 174.82-19.369 19.505 33.785-71.471 59.684-235.142 189.74C352.935 2.794 151.39 24.63 117.49-6.637z" fill="url(#apaint2_linear_8_666)"/></g><g filter="url(#afilter4_f_8_666)"><ellipse cx="431.811" cy="-227.177" rx="188.893" ry="82.356" transform="rotate(150 431.811 -227.177)" fill="#D07885"/></g><g filter="url(#afilter5_f_8_666)"><path d="M552.423-196.62c-7.296-49.631 60.258-125.104 150.885-168.573 90.627-43.47 170.009-38.475 177.305 11.155 7.295 49.631-6.263 89.397-96.89 132.866-90.627 43.47-224.004 74.183-231.3 24.552z" fill="url(#apaint3_linear_8_666)"/></g></g><defs><filter id="afilter0_f_8_666" x="-427.548" y="-594.38" width="1420.08" height="1020.76" filterUnits="userSpaceOnUse" color-interpolation-filters="sRGB"><feFlood flood-opacity="0" result="BackgroundImageFix"/><feBlend in="SourceGraphic" in2="BackgroundImageFix" result="shape"/><feGaussianBlur stdDeviation="22.5" result="effect1_foregroundBlur_8_666"/></filter><filter id="afilter1_f_8_666" x="-349.394" y="-244.821" width="933.461" height="638.792" filterUnits="userSpaceOnUse" color-interpolation-filters="sRGB"><feFlood flood-opacity="0" result="BackgroundImageFix"/><feBlend in="SourceGraphic" in2="BackgroundImageFix" result="shape"/><feGaussianBlur stdDeviation="40" result="effect1_foregroundBlur_8_666"/></filter><filter id="afilter2_f_8_666" x="-128.363" y="-232.481" width="460" height="387.351" filterUnits="userSpaceOnUse" color-interpolation-filters="sRGB"><feFlood flood-opacity="0" result="BackgroundImageFix"/><feBlend in="SourceGraphic" in2="BackgroundImageFix" result="shape"/><feGaussianBlur stdDeviation="30" result="effect1_foregroundBlur_8_666"/></filter><filter id="afilter3_f_8_666" x="-33.304" y="-442.964" width="881.484" height="599.879" filterUnits="userSpaceOnUse" color-interpolation-filters="sRGB"><feFlood flood-opacity="0" result="BackgroundImageFix"/><feBlend in="SourceGraphic" in2="BackgroundImageFix" result="shape"/><feGaussianBlur stdDeviation="75" result="effect1_foregroundBlur_8_666"/></filter><filter id="afilter4_f_8_666" x="63.082" y="-545.535" width="737.458" height="636.716" filterUnits="userSpaceOnUse" color-interpolation-filters="sRGB"><feFlood flood-opacity="0" result="BackgroundImageFix"/><feBlend in="SourceGraphic" in2="BackgroundImageFix" result="shape"/><feGaussianBlur stdDeviation="100" result="effect1_foregroundBlur_8_666"/></filter><filter id="afilter5_f_8_666" x="301.884" y="-644.79" width="830.416" height="723.691" filterUnits="userSpaceOnUse" color-interpolation-filters="sRGB"><feFlood flood-opacity="0" result="BackgroundImageFix"/><feBlend in="SourceGraphic" in2="BackgroundImageFix" result="shape"/><feGaussianBlur stdDeviation="125" result="effect1_foregroundBlur_8_666"/></filter><linearGradient id="apaint0_linear_8_666" x1="-170.117" y1="67.468" x2="57.816" y2="221.598" gradientUnits="userSpaceOnUse"><stop stop-color="#833693"/><stop offset=".995" stop-color="#F9BB56" stop-opacity=".5"/></linearGradient><linearGradient id="apaint1_linear_8_666" x1="22.222" y1="-64.776" x2="149.587" y2="33.394" gradientUnits="userSpaceOnUse"><stop stop-color="#FFDFFA"/><stop offset=".948" stop-color="#FFD009"/><stop offset="1" stop-color="#903E93"/></linearGradient><linearGradient id="apaint2_linear_8_666" x1="576.54" y1="-142.192" x2="514.615" y2="-249.45" gradientUnits="userSpaceOnUse"><stop stop-color="#903F93"/><stop offset=".495" stop-color="#D46B96"/><stop offset="1" stop-color="#FDBF64"/></linearGradient><linearGradient id="apaint3_linear_8_666" x1="457.315" y1="-178.164" x2="662.687" y2="-47.339" gradientUnits="userSpaceOnUse"><stop stop-color="#FFD009"/><stop offset=".677" stop-color="#C68456"/><stop offset="1" stop-color="#914093"/></linearGradient></defs></svg><svg fill="none" viewBox="-1 -1 48 48" id="image-open" xmlns="http://www.w3.org/2000/svg"><path d="M37.837.587c-1.65.352-2.79.972-3.978 2.17-.72.72-.905.962-1.24 1.64-.485.988-.602 1.449-.77 3.14-.343 3.434-.946 6.139-1.708 7.654-.302.587-.327.947-.092 1.181.234.235.594.21 1.155-.075 1.524-.762 4.304-1.382 7.763-1.725.737-.076 1.6-.21 1.926-.302 2.462-.728 4.388-2.939 4.94-5.677.193-.93.135-2.462-.125-3.358-.343-1.206-1.164-2.47-2.093-3.241-.637-.528-1.843-1.139-2.596-1.323-.77-.193-2.496-.235-3.182-.084zM6.183 2.279c-.645.05-1.248.226-1.952.586-.56.293-.845.502-1.23.93-1.424 1.549-1.726 3.718-.78 5.627.336.695-.108.21 6.516 6.992 6.975 7.135 6.43 6.549 6.816 7.336 1.407 2.88.05 6.783-2.897 8.307-1.382.712-1.65.762-4.338.77-2.655 0-2.797.025-4.061.678-1.583.813-2.764 2.328-3.182 4.07-.31 1.306-.168 2.897.368 4.112.72 1.641 2.311 2.99 4.12 3.508.846.243 2.378.252 3.216.026 2.076-.561 3.751-2.102 4.387-4.053.36-1.072.42-1.734.302-3.074-.168-1.809.025-2.956.712-4.354 1.582-3.216 6.104-4.59 8.91-2.697.226.151 2.612 2.429 5.3 5.05 7.98 7.804 7.738 7.587 8.408 7.93 1.934 1.013 4.27.687 5.778-.812 1.616-1.608 1.91-4.003.728-5.904-.175-.276-1.122-1.29-2.411-2.554-7.62-7.503-9.329-9.17-9.421-9.17a.418.418 0 00-.419.41c0 .127.436 1.458.972 2.949.837 2.328.98 2.805 1.013 3.366.042.595.033.67-.176.98-.904 1.365-2.964.611-5.552-2.018-1.465-1.5-2.11-2.354-3.416-4.547-1.508-2.538-1.792-2.823-4.413-4.389-1.935-1.155-3.4-2.252-4.54-3.408-1.967-2.001-2.88-3.634-2.578-4.639.226-.754.946-1.172 1.808-1.055.235.034 1.223.343 2.186.687 3.944 1.406 4.061 1.44 4.246 1.164.2-.293.343-.134-9.145-9.764-1.733-1.759-2.236-2.22-2.68-2.454a4.713 4.713 0 00-2.595-.586z" fill="#fff"/><path d="M25.133 17.578c-.862.277-1.499.855-1.884 1.692-.15.326-.193.561-.193 1.122 0 .636.025.779.277 1.273.318.645.77 1.088 1.432 1.398.41.193.578.218 1.306.218.795 0 .862-.017 1.365-.285a3.003 3.003 0 001.348-1.423c.184-.394.218-.586.218-1.181 0-.595-.034-.787-.218-1.18a2.893 2.893 0 00-1.39-1.433c-.452-.217-.661-.268-1.222-.293-.428-.017-.821.017-1.039.092z" fill="#fff"/></svg><svg fill="none" viewBox="-1 -1 1148 402" id="image-right" xmlns="http://www.w3.org/2000/svg"><g filter="url(#cfilter0_f_8_664)"><g filter="url(#cfilter1_f_8_664)"><path d="M662.278 368.928c-22.093-25.699 491.562-198.426 607.142-242.671 115.59-44.245 227.2-59.28 249.29-33.582 22.09 25.698-56.15 72.522-356.86 175.428-280.165 86.169-456.807 123.003-499.572 100.825z" fill="#FFA000"/></g><path d="M1473.99 174.633c-9.35 58.746-103.67 124.542-226.34 160.406-122.67 35.864-329.152 54.186-341.649 11.439-12.498-42.747 79.798-41.211 348.869-190.478 172.71-95.817 230.46-52.552 219.12 18.633z" fill="url(#cpaint0_linear_8_664)"/><g filter="url(#cfilter2_f_8_664)"><path d="M1266.78 290.853c-5.92 51.981-79.96 107.915-177.6 136.461-97.642 28.547-185.884 20.599-197.097-17.751-11.212-38.35 74.808-91.63 198.017-141.25 113.53-44.129 183.85-40.448 176.68 22.54z" fill="url(#cpaint1_linear_8_664)"/></g><ellipse cx="865.517" cy="411.364" rx="184.198" ry="78.073" transform="rotate(-16.297 865.517 411.364)" fill="#C0618C"/><g filter="url(#cfilter3_f_8_664)"><path d="M1073.24 305.856c10.56 36.11-364.872 118.451-450.26 143.416-85.389 24.964-163.169 15.929-173.726-20.181-10.558-36.11 83.734-40.509 273.863-127.038 124.87-56.83 325.033-33.1 350.123 3.803z" fill="url(#cpaint2_linear_8_664)"/></g><g filter="url(#cfilter4_f_8_664)"><path d="M321.573 407.939c4.733-16.009 314.829-58.441 387.542-70.884 72.713-12.443 127.821-9.552 123.088 6.457-4.734 16.009-63.16 33.515-245.673 59.318-164.752 18.814-259.082 21.258-264.957 5.109z" fill="#FFC203"/></g><ellipse cx="715.282" cy="444.504" rx="188.893" ry="79.423" transform="rotate(-16.297 715.282 444.504)" fill="#D07885"/><ellipse cx="618.799" cy="434.972" rx="127.132" ry="53.548" transform="rotate(-16.297 618.799 434.972)" fill="#fff"/><g filter="url(#cfilter5_f_8_664)"><path d="M606.209 389.212c-5.135 48.352-88.96 104.594-187.228 125.62-98.268 21.026-173.768-1.126-168.633-49.479 5.135-48.352 28.004-82.828 126.272-103.854 98.269-21.026 234.724-20.639 229.589 27.713z" fill="url(#cpaint3_linear_8_664)"/></g></g><defs><filter id="cfilter0_f_8_664" x="152.683" y="-25.718" width="1484.16" height="736.358" filterUnits="userSpaceOnUse" color-interpolation-filters="sRGB"><feFlood flood-opacity="0" result="BackgroundImageFix"/><feBlend in="SourceGraphic" in2="BackgroundImageFix" result="shape"/><feGaussianBlur stdDeviation="22.5" result="effect1_foregroundBlur_8_664"/></filter><filter id="cfilter1_f_8_664" x="581.586" y=".127" width="1020.62" height="455.118" filterUnits="userSpaceOnUse" color-interpolation-filters="sRGB"><feFlood flood-opacity="0" result="BackgroundImageFix"/><feBlend in="SourceGraphic" in2="BackgroundImageFix" result="shape"/><feGaussianBlur stdDeviation="40" result="effect1_foregroundBlur_8_664"/></filter><filter id="cfilter2_f_8_664" x="831.102" y="178.81" width="496.175" height="325.635" filterUnits="userSpaceOnUse" color-interpolation-filters="sRGB"><feFlood flood-opacity="0" result="BackgroundImageFix"/><feBlend in="SourceGraphic" in2="BackgroundImageFix" result="shape"/><feGaussianBlur stdDeviation="30" result="effect1_foregroundBlur_8_664"/></filter><filter id="cfilter3_f_8_664" x="298.455" y="118.071" width="925.002" height="495.312" filterUnits="userSpaceOnUse" color-interpolation-filters="sRGB"><feFlood flood-opacity="0" result="BackgroundImageFix"/><feBlend in="SourceGraphic" in2="BackgroundImageFix" result="shape"/><feGaussianBlur stdDeviation="75" result="effect1_foregroundBlur_8_664"/></filter><filter id="cfilter4_f_8_664" x="297.573" y="305.327" width="558.913" height="137.321" filterUnits="userSpaceOnUse" color-interpolation-filters="sRGB"><feFlood flood-opacity="0" result="BackgroundImageFix"/><feBlend in="SourceGraphic" in2="BackgroundImageFix" result="shape"/><feGaussianBlur stdDeviation="12" result="effect1_foregroundBlur_8_664"/></filter><filter id="cfilter5_f_8_664" x=".101" y="98.243" width="856.249" height="674.533" filterUnits="userSpaceOnUse" color-interpolation-filters="sRGB"><feFlood flood-opacity="0" result="BackgroundImageFix"/><feBlend in="SourceGraphic" in2="BackgroundImageFix" result="shape"/><feGaussianBlur stdDeviation="125" result="effect1_foregroundBlur_8_664"/></filter><linearGradient id="cpaint0_linear_8_664" x1="1369.42" y1="299.269" x2="1192.67" y2="98.948" gradientUnits="userSpaceOnUse"><stop stop-color="#833693"/><stop offset=".995" stop-color="#F9BB56" stop-opacity=".5"/></linearGradient><linearGradient id="cpaint1_linear_8_664" x1="1151.04" y1="381.559" x2="1055.18" y2="258.648" gradientUnits="userSpaceOnUse"><stop stop-color="#260040"/><stop offset=".245" stop-color="#903E93"/><stop offset="1" stop-color="#FFD009"/></linearGradient><linearGradient id="cpaint2_linear_8_664" x1="596.264" y1="332.643" x2="629.78" y2="447.283" gradientUnits="userSpaceOnUse"><stop stop-color="#903F93"/><stop offset=".495" stop-color="#D46B96"/><stop offset="1" stop-color="#FDBF64"/></linearGradient><linearGradient id="cpaint3_linear_8_664" x1="702.667" y1="392.731" x2="541.436" y2="219.573" gradientUnits="userSpaceOnUse"><stop stop-color="#FFD009"/><stop offset=".677" stop-color="#C68456"/><stop offset="1" stop-color="#914093"/></linearGradient></defs></svg></svg>