<?xml version="1.0" encoding="utf-8"?><svg width="1148" height="798" viewBox="0 0 1148 798" xmlns="http://www.w3.org/2000/svg" xmlns:xlink="http://www.w3.org/1999/xlink"><view id="image-left" viewBox="0 402 1135 396"/><svg width="1135" height="396" fill="none" viewBox="-1 -1 1135 396" y="402" xmlns="http://www.w3.org/2000/svg"><g filter="url(#afilter0_f_8_666)"><g filter="url(#afilter1_f_8_666)"><path d="M502.825-163.512c28.122 20.721-429.593 310.902-531.222 381.59-101.63 70.687-206.814 111.194-234.935 90.473-28.122-20.721 36.378-85.482 303.883-257.153 251.706-150.216 414.857-227.391 462.274-214.91z" fill="#FFA000"/></g><path d="M-240.523 216.217c-5.822-61.009 69.554-148.45 180.236-212.352C50.394-60.037 247.4-125.46 270.492-85.465c23.09 39.994-67.448 59.49-292.246 270.416-144.3 135.396-211.714 105.194-218.769 31.266z" fill="url(#apaint0_linear_8_666)"/><g filter="url(#afilter2_f_8_666)"><path d="M-67.72 52.51C-75.176-.936-17.104-73.87 70.995-124.733c88.099-50.864 176.311-63.011 197.027-27.13 20.715 35.881-49.736 108.885-157.447 186.698C10.925 104.937-58.688 117.273-67.721 52.51z" fill="url(#apaint1_linear_8_666)"/></g><ellipse cx="293.512" cy="-159.723" rx="184.198" ry="80.956" transform="rotate(150 293.512 -159.723)" fill="#C0618C"/><g filter="url(#afilter3_f_8_666)"><path d="M117.49-6.636C97.984-40.421 443.707-208.511 520.751-252.992c77.045-44.482 155.314-53.154 174.82-19.369 19.505 33.785-71.471 59.684-235.142 189.74C352.935 2.794 151.39 24.63 117.49-6.637z" fill="url(#apaint2_linear_8_666)"/></g><g filter="url(#afilter4_f_8_666)"><ellipse cx="431.811" cy="-227.177" rx="188.893" ry="82.356" transform="rotate(150 431.811 -227.177)" fill="#D07885"/></g><g filter="url(#afilter5_f_8_666)"><path d="M552.423-196.62c-7.296-49.631 60.258-125.104 150.885-168.573 90.627-43.47 170.009-38.475 177.305 11.155 7.295 49.631-6.263 89.397-96.89 132.866-90.627 43.47-224.004 74.183-231.3 24.552z" fill="url(#apaint3_linear_8_666)"/></g></g><defs><filter id="afilter0_f_8_666" x="-427.548" y="-594.38" width="1420.08" height="1020.76" filterUnits="userSpaceOnUse" color-interpolation-filters="sRGB"><feFlood flood-opacity="0" result="BackgroundImageFix"/><feBlend in="SourceGraphic" in2="BackgroundImageFix" result="shape"/><feGaussianBlur stdDeviation="22.5" result="effect1_foregroundBlur_8_666"/></filter><filter id="afilter1_f_8_666" x="-349.394" y="-244.821" width="933.461" height="638.792" filterUnits="userSpaceOnUse" color-interpolation-filters="sRGB"><feFlood flood-opacity="0" result="BackgroundImageFix"/><feBlend in="SourceGraphic" in2="BackgroundImageFix" result="shape"/><feGaussianBlur stdDeviation="40" result="effect1_foregroundBlur_8_666"/></filter><filter id="afilter2_f_8_666" x="-128.363" y="-232.481" width="460" height="387.351" filterUnits="userSpaceOnUse" color-interpolation-filters="sRGB"><feFlood flood-opacity="0" result="BackgroundImageFix"/><feBlend in="SourceGraphic" in2="BackgroundImageFix" result="shape"/><feGaussianBlur stdDeviation="30" result="effect1_foregroundBlur_8_666"/></filter><filter id="afilter3_f_8_666" x="-33.304" y="-442.964" width="881.484" height="599.879" filterUnits="userSpaceOnUse" color-interpolation-filters="sRGB"><feFlood flood-opacity="0" result="BackgroundImageFix"/><feBlend in="SourceGraphic" in2="BackgroundImageFix" result="shape"/><feGaussianBlur stdDeviation="75" result="effect1_foregroundBlur_8_666"/></filter><filter id="afilter4_f_8_666" x="63.082" y="-545.535" width="737.458" height="636.716" filterUnits="userSpaceOnUse" color-interpolation-filters="sRGB"><feFlood flood-opacity="0" result="BackgroundImageFix"/><feBlend in="SourceGraphic" in2="BackgroundImageFix" result="shape"/><feGaussianBlur stdDeviation="100" result="effect1_foregroundBlur_8_666"/></filter><filter id="afilter5_f_8_666" x="301.884" y="-644.79" width="830.416" height="723.691" filterUnits="userSpaceOnUse" color-interpolation-filters="sRGB"><feFlood flood-opacity="0" result="BackgroundImageFix"/><feBlend in="SourceGraphic" in2="BackgroundImageFix" result="shape"/><feGaussianBlur stdDeviation="125" result="effect1_foregroundBlur_8_666"/></filter><linearGradient id="apaint0_linear_8_666" x1="-170.117" y1="67.468" x2="57.816" y2="221.598" gradientUnits="userSpaceOnUse"><stop stop-color="#833693"/><stop offset=".995" stop-color="#F9BB56" stop-opacity=".5"/></linearGradient><linearGradient id="apaint1_linear_8_666" x1="22.222" y1="-64.776" x2="149.587" y2="33.394" gradientUnits="userSpaceOnUse"><stop stop-color="#FFDFFA"/><stop offset=".948" stop-color="#FFD009"/><stop offset="1" stop-color="#903E93"/></linearGradient><linearGradient id="apaint2_linear_8_666" x1="576.54" y1="-142.192" x2="514.615" y2="-249.45" gradientUnits="userSpaceOnUse"><stop stop-color="#903F93"/><stop offset=".495" stop-color="#D46B96"/><stop offset="1" stop-color="#FDBF64"/></linearGradient><linearGradient id="apaint3_linear_8_666" x1="457.315" y1="-178.164" x2="662.687" y2="-47.339" gradientUnits="userSpaceOnUse"><stop stop-color="#FFD009"/><stop offset=".677" stop-color="#C68456"/><stop offset="1" stop-color="#914093"/></linearGradient></defs></svg><view id="image-right" viewBox="0 0 1148 402"/><svg width="1148" height="402" fill="none" viewBox="-1 -1 1148 402" xmlns="http://www.w3.org/2000/svg"><g filter="url(#bfilter0_f_8_664)"><g filter="url(#bfilter1_f_8_664)"><path d="M662.278 368.928c-22.093-25.699 491.562-198.426 607.142-242.671 115.59-44.245 227.2-59.28 249.29-33.582 22.09 25.698-56.15 72.522-356.86 175.428-280.165 86.169-456.807 123.003-499.572 100.825z" fill="#FFA000"/></g><path d="M1473.99 174.633c-9.35 58.746-103.67 124.542-226.34 160.406-122.67 35.864-329.152 54.186-341.649 11.439-12.498-42.747 79.798-41.211 348.869-190.478 172.71-95.817 230.46-52.552 219.12 18.633z" fill="url(#bpaint0_linear_8_664)"/><g filter="url(#bfilter2_f_8_664)"><path d="M1266.78 290.853c-5.92 51.981-79.96 107.915-177.6 136.461-97.642 28.547-185.884 20.599-197.097-17.751-11.212-38.35 74.808-91.63 198.017-141.25 113.53-44.129 183.85-40.448 176.68 22.54z" fill="url(#bpaint1_linear_8_664)"/></g><ellipse cx="865.517" cy="411.364" rx="184.198" ry="78.073" transform="rotate(-16.297 865.517 411.364)" fill="#C0618C"/><g filter="url(#bfilter3_f_8_664)"><path d="M1073.24 305.856c10.56 36.11-364.872 118.451-450.26 143.416-85.389 24.964-163.169 15.929-173.726-20.181-10.558-36.11 83.734-40.509 273.863-127.038 124.87-56.83 325.033-33.1 350.123 3.803z" fill="url(#bpaint2_linear_8_664)"/></g><g filter="url(#bfilter4_f_8_664)"><path d="M321.573 407.939c4.733-16.009 314.829-58.441 387.542-70.884 72.713-12.443 127.821-9.552 123.088 6.457-4.734 16.009-63.16 33.515-245.673 59.318-164.752 18.814-259.082 21.258-264.957 5.109z" fill="#FFC203"/></g><ellipse cx="715.282" cy="444.504" rx="188.893" ry="79.423" transform="rotate(-16.297 715.282 444.504)" fill="#D07885"/><ellipse cx="618.799" cy="434.972" rx="127.132" ry="53.548" transform="rotate(-16.297 618.799 434.972)" fill="#fff"/><g filter="url(#bfilter5_f_8_664)"><path d="M606.209 389.212c-5.135 48.352-88.96 104.594-187.228 125.62-98.268 21.026-173.768-1.126-168.633-49.479 5.135-48.352 28.004-82.828 126.272-103.854 98.269-21.026 234.724-20.639 229.589 27.713z" fill="url(#bpaint3_linear_8_664)"/></g></g><defs><filter id="bfilter0_f_8_664" x="152.683" y="-25.718" width="1484.16" height="736.358" filterUnits="userSpaceOnUse" color-interpolation-filters="sRGB"><feFlood flood-opacity="0" result="BackgroundImageFix"/><feBlend in="SourceGraphic" in2="BackgroundImageFix" result="shape"/><feGaussianBlur stdDeviation="22.5" result="effect1_foregroundBlur_8_664"/></filter><filter id="bfilter1_f_8_664" x="581.586" y=".127" width="1020.62" height="455.118" filterUnits="userSpaceOnUse" color-interpolation-filters="sRGB"><feFlood flood-opacity="0" result="BackgroundImageFix"/><feBlend in="SourceGraphic" in2="BackgroundImageFix" result="shape"/><feGaussianBlur stdDeviation="40" result="effect1_foregroundBlur_8_664"/></filter><filter id="bfilter2_f_8_664" x="831.102" y="178.81" width="496.175" height="325.635" filterUnits="userSpaceOnUse" color-interpolation-filters="sRGB"><feFlood flood-opacity="0" result="BackgroundImageFix"/><feBlend in="SourceGraphic" in2="BackgroundImageFix" result="shape"/><feGaussianBlur stdDeviation="30" result="effect1_foregroundBlur_8_664"/></filter><filter id="bfilter3_f_8_664" x="298.455" y="118.071" width="925.002" height="495.312" filterUnits="userSpaceOnUse" color-interpolation-filters="sRGB"><feFlood flood-opacity="0" result="BackgroundImageFix"/><feBlend in="SourceGraphic" in2="BackgroundImageFix" result="shape"/><feGaussianBlur stdDeviation="75" result="effect1_foregroundBlur_8_664"/></filter><filter id="bfilter4_f_8_664" x="297.573" y="305.327" width="558.913" height="137.321" filterUnits="userSpaceOnUse" color-interpolation-filters="sRGB"><feFlood flood-opacity="0" result="BackgroundImageFix"/><feBlend in="SourceGraphic" in2="BackgroundImageFix" result="shape"/><feGaussianBlur stdDeviation="12" result="effect1_foregroundBlur_8_664"/></filter><filter id="bfilter5_f_8_664" x=".101" y="98.243" width="856.249" height="674.533" filterUnits="userSpaceOnUse" color-interpolation-filters="sRGB"><feFlood flood-opacity="0" result="BackgroundImageFix"/><feBlend in="SourceGraphic" in2="BackgroundImageFix" result="shape"/><feGaussianBlur stdDeviation="125" result="effect1_foregroundBlur_8_664"/></filter><linearGradient id="bpaint0_linear_8_664" x1="1369.42" y1="299.269" x2="1192.67" y2="98.948" gradientUnits="userSpaceOnUse"><stop stop-color="#833693"/><stop offset=".995" stop-color="#F9BB56" stop-opacity=".5"/></linearGradient><linearGradient id="bpaint1_linear_8_664" x1="1151.04" y1="381.559" x2="1055.18" y2="258.648" gradientUnits="userSpaceOnUse"><stop stop-color="#260040"/><stop offset=".245" stop-color="#903E93"/><stop offset="1" stop-color="#FFD009"/></linearGradient><linearGradient id="bpaint2_linear_8_664" x1="596.264" y1="332.643" x2="629.78" y2="447.283" gradientUnits="userSpaceOnUse"><stop stop-color="#903F93"/><stop offset=".495" stop-color="#D46B96"/><stop offset="1" stop-color="#FDBF64"/></linearGradient><linearGradient id="bpaint3_linear_8_664" x1="702.667" y1="392.731" x2="541.436" y2="219.573" gradientUnits="userSpaceOnUse"><stop stop-color="#FFD009"/><stop offset=".677" stop-color="#C68456"/><stop offset="1" stop-color="#914093"/></linearGradient></defs></svg></svg>