<?xml version="1.0" standalone="no"?>
<!DOCTYPE svg PUBLIC "-//W3C//DTD SVG 1.1//EN" "http://www.w3.org/Graphics/SVG/1.1/DTD/svg11.dtd" >
<svg xmlns="http://www.w3.org/2000/svg" xmlns:xlink="http://www.w3.org/1999/xlink" version="1.1">
<metadata>
Created by FontForge 20170731 at Fri Apr 21 13:14:31 2023
 By Aleksey,,,
Copyright 2017 Dinamo (Johannes Breyer, Fabian Harb). |DCNT
</metadata>
<defs>
<font id="Favorit-ExtendedLight" horiz-adv-x="1474" >
  <font-face 
    font-family="Favorit Extended Light"
    font-weight="300"
    font-stretch="semi-expanded"
    units-per-em="2048"
    panose-1="2 0 0 6 3 0 0 2 0 4"
    ascent="1536"
    descent="-512"
    x-height="1024"
    cap-height="1434"
    bbox="-1739 -512 5028 2157"
    underline-thickness="49"
    underline-position="-148"
    unicode-range="U+000D-FB02"
  />
<missing-glyph horiz-adv-x="1454" 
d="M164 0v1434h1126v-1434h-1126zM266 106h922v1221h-922v-1221z" />
    <glyph glyph-name="fi" unicode="fi" horiz-adv-x="1269" 
d="M332 0v907h-289v117h289v186q0 104 58 164t153 60h227v-117h-184q-63 0 -89 -32.5t-26 -110.5v-150h621v-1024h-140v907h-481v-907h-139zM940 1208v174h160v-174h-160z" />
    <glyph glyph-name="fl" unicode="fl" horiz-adv-x="1269" 
d="M332 0v907h-289v117h289v186q0 104 58 164t153 60h549v-1434h-140v1317h-366q-63 0 -89 -32.5t-26 -110.5v-150h299v-117h-299v-907h-139z" />
    <glyph glyph-name="f_f" unicode="ff" horiz-adv-x="1581" 
d="M332 0v907h-289v117h289v186q0 104 58 164t153 60h309v-117h-266q-63 0 -89 -32.5t-26 -110.5v-150h604v186q0 104 58 164t153 60h309v-117h-266q-63 0 -89 -32.5t-26 -110.5v-150h320v-117h-320v-907h-139v907h-604v-907h-139z" />
    <glyph glyph-name="f_f_i" unicode="ffi" horiz-adv-x="2095" 
d="M332 0v907h-289v117h289v186q0 104 58 164t153 60h309v-117h-266q-63 0 -89 -32.5t-26 -110.5v-150h584v186q0 104 58 164t153 60h309v-117h-266q-63 0 -89 -32.5t-26 -110.5v-150h723v-1024h-139v907h-584v-907h-139v907h-584v-907h-139zM1765 1208v174h160v-174h-160z
" />
    <glyph glyph-name="f_f_l" unicode="ffl" horiz-adv-x="2095" 
d="M332 0v907h-289v117h289v186q0 104 58 164t153 60h309v-117h-266q-63 0 -89 -32.5t-26 -110.5v-150h584v186q0 104 58 164t153 60h651v-1434h-139v1317h-469q-63 0 -89 -32.5t-26 -110.5v-150h319v-117h-319v-907h-139v907h-584v-907h-139z" />
    <glyph glyph-name=".notdef" horiz-adv-x="1454" 
d="M164 0v1434h1126v-1434h-1126zM266 106h922v1221h-922v-1221z" />
    <glyph glyph-name=".null" horiz-adv-x="0" 
 />
    <glyph glyph-name="nonmarkingreturn" horiz-adv-x="682" 
 />
    <glyph glyph-name="CR" unicode="&#xd;" horiz-adv-x="557" 
 />
    <glyph glyph-name="space" unicode=" " horiz-adv-x="569" 
 />
    <glyph glyph-name="exclam" unicode="!" horiz-adv-x="528" 
d="M233 420l-40 584v430h143v-430l-41 -584h-62zM174 0v184h178v-184h-178z" />
    <glyph glyph-name="quotedbl" unicode="&#x22;" horiz-adv-x="739" 
d="M180 1004l-39 266v164h133v-164l-49 -266h-45zM506 1004l-39 266v164h133v-164l-49 -266h-45z" />
    <glyph glyph-name="numbersign" unicode="#" horiz-adv-x="1603" 
d="M1509 930h-284l-109 -426h307v-117h-336l-96 -387h-141l96 387h-457l-100 -387h-141l98 387h-252v117h283l110 426h-305v117h334l100 387h142l-101 -387h453l98 387h142l-97 -387h256v-117zM977 504l104 426h-452l-111 -426h459z" />
    <glyph glyph-name="dollar" unicode="$" horiz-adv-x="1460" 
d="M1329 385q0 -190 -152 -297.5t-432 -107.5q-42 0 -104 4l-47 -230h-139l53 248q-202 42 -309 154.5t-111 294.5h164q4 -122 77.5 -202t207.5 -112l108 522l-45 9q-231 37 -331.5 125t-100.5 260q0 81 36 152t104 127.5t178.5 89t248.5 32.5q26 0 76 -4l49 229h139
l-53 -245q183 -41 289 -148.5t123 -271.5h-164q-13 108 -84.5 180.5t-189.5 103.5l-107 -505l55 -9q234 -37 347.5 -134.5t113.5 -264.5zM639 821l39 -6l106 502h-32h-33q-184 0 -292 -72.5t-108 -187.5q0 -99 76 -154.5t244 -81.5zM1178 379q0 101 -84 161.5t-271 90.5
l-43 8l-108 -520q23 -2 55 -2h33q211 0 314.5 68t103.5 194z" />
    <glyph glyph-name="percent" unicode="%" horiz-adv-x="1957" 
d="M82 1028q0 188 103 302t274 114t271.5 -113t100.5 -303q0 -188 -100.5 -301t-271.5 -113q-172 0 -274.5 113t-102.5 301zM408 0l1019 1434h140l-1020 -1434h-139zM455 717h8q115 0 178.5 90.5t63.5 220.5t-63.5 221.5t-178.5 91.5h-8q-115 0 -179.5 -91.5t-64.5 -221.5
q0 -83 26.5 -152.5t83 -114t134.5 -44.5zM1124 403q0 188 103 302t274 114t272 -113t101 -303q0 -188 -101 -300.5t-272 -112.5q-172 0 -274.5 112.5t-102.5 300.5zM1497 92h8q115 0 178.5 90.5t63.5 220.5q0 129 -63.5 221.5t-178.5 92.5h-8q-115 0 -179.5 -92.5
t-64.5 -221.5t64.5 -220t179.5 -91z" />
    <glyph glyph-name="ampersand" unicode="&#x26;" horiz-adv-x="1509" 
d="M131 379q0 124 63.5 217.5t172.5 130.5q-105 42 -165.5 130t-60.5 208q0 166 114.5 267.5t283.5 101.5h313v-138h-299q-113 0 -188.5 -68t-75.5 -184q0 -114 77 -180.5t199 -66.5h461v256h145v-256h277v-138h-277v-659h-651q-168 0 -278.5 103t-110.5 276zM567 137h459
v522h-461q-131 0 -208.5 -66t-77.5 -183q0 -132 76.5 -202.5t211.5 -70.5z" />
    <glyph glyph-name="quotesingle" unicode="'" horiz-adv-x="413" 
d="M180 1004l-39 266v164h133v-164l-49 -266h-45z" />
    <glyph glyph-name="parenleft" unicode="(" horiz-adv-x="829" 
d="M113 717q-1 210 48 395t136 319t212 214t269 86v-117q-157 -14 -278 -131t-187.5 -316.5t-66.5 -449.5q0 -249 66.5 -447.5t187.5 -316t278 -133.5v-117q-194 7 -347 140.5t-237 363t-81 510.5z" />
    <glyph glyph-name="parenright" unicode=")" horiz-adv-x="829" 
d="M717 717q2 -280 -82.5 -509t-237.5 -363t-346 -142v117q157 14 278 131t188 316.5t67 449.5q0 377 -147.5 624.5t-385.5 272.5v117q145 -5 270.5 -84.5t212.5 -213.5t136 -319.5t47 -396.5z" />
    <glyph glyph-name="asterisk" unicode="*" horiz-adv-x="952" 
d="M326 893l-84 59l135 193h-256v102h256l-135 193l86 59l149 -213l150 213l84 -59l-136 -193h256v-102h-256l136 -193l-86 -59l-150 213z" />
    <glyph glyph-name="plus" unicode="+" horiz-adv-x="1259" 
d="M561 31v428h-459v137h459v428h137v-428h459v-137h-459v-428h-137z" />
    <glyph glyph-name="comma" unicode="," horiz-adv-x="534" 
d="M100 -236v91h78q98 0 98 98v47h-114v205h215v-246q0 -92 -51.5 -143.5t-143.5 -51.5h-82z" />
    <glyph glyph-name="hyphen" unicode="-" horiz-adv-x="905" 
d="M156 563v113h594v-113h-594z" />
    <glyph glyph-name="period" unicode="." horiz-adv-x="512" 
d="M154 0v205h204v-205h-204z" />
    <glyph glyph-name="slash" unicode="/" horiz-adv-x="966" 
d="M78 0l661 1434h148l-662 -1434h-147z" />
    <glyph glyph-name="zero" unicode="0" horiz-adv-x="1525" 
d="M129 717q0 178 48.5 320t134.5 232t200.5 137.5t249.5 47.5q136 0 250.5 -47.5t201 -138t135 -232t48.5 -319.5t-48.5 -319.5t-135 -232t-201 -138t-250.5 -47.5t-250.5 47.5t-200 138t-134 232t-48.5 319.5zM748 117h28q71 0 136.5 18.5t128 63t108 111.5t73 171.5
t27.5 235.5t-27.5 235t-73 171t-108 111t-128 62t-136.5 17h-28q-58 1 -112.5 -12t-108.5 -40.5t-99 -75.5t-79 -112t-53.5 -155.5t-19.5 -200.5q0 -131 28 -235.5t73.5 -171t108 -111.5t127.5 -63.5t135 -18.5z" />
    <glyph glyph-name="one" unicode="1" horiz-adv-x="856" 
d="M514 1434h119v-1434h-139v1251l-431 -356v160z" />
    <glyph glyph-name="two" unicode="2" horiz-adv-x="1325" 
d="M276 139h924v-139h-1077v197l655 512q71 53 152 125q112 104 112 225q0 116 -101.5 187t-260.5 71h-29q-159 0 -256.5 -85.5t-103.5 -215.5h-154q6 193 155.5 315.5t373.5 122.5q231 0 377.5 -106t146.5 -285q0 -96 -39 -170q-35 -70 -94.5 -130t-175.5 -151z" />
    <glyph glyph-name="three" unicode="3" horiz-adv-x="1380" 
d="M119 365h153q12 -77 68 -134t141 -85.5t187 -28.5h28q175 0 286.5 76.5t111.5 197.5t-101.5 189.5t-281.5 68.5h-185v137h185q175 0 273.5 76t98.5 195q0 122 -103.5 191t-283.5 69h-28q-145 0 -251 -73.5t-118 -178.5h-154q3 166 156.5 277.5t384.5 111.5
q248 0 396.5 -107.5t148.5 -283.5q0 -123 -69 -208.5t-183 -131.5q111 -33 186.5 -119t75.5 -205q0 -193 -151 -306t-404 -113q-245 0 -401.5 105.5t-165.5 279.5z" />
    <glyph glyph-name="four" unicode="4" horiz-adv-x="1415" 
d="M1053 477h290v-135h-290v-342h-140v342h-847v168l811 924h176v-957zM203 477h710v805z" />
    <glyph glyph-name="five" unicode="5" horiz-adv-x="1327" 
d="M1206 455q0 -216 -152 -345.5t-403 -129.5q-153 0 -272.5 44.5t-195 133t-91.5 211.5h154q30 -119 136.5 -185.5t254.5 -66.5h29q181 0 287 91.5t106 240.5q0 139 -106 223t-277 84h-29q-110 0 -206.5 -42t-145.5 -120h-152l174 840h852v-142h-753l-111 -530
q137 131 391 131q220 0 365 -123t145 -315z" />
    <glyph glyph-name="six" unicode="6" horiz-adv-x="1439" 
d="M1298 471q0 -224 -158.5 -357.5t-416.5 -133.5q-286 0 -440 167.5t-154 501.5q-1 167 49.5 316.5t139.5 257.5t215 170.5t268 60.5q215 0 357.5 -97.5t164.5 -260.5h-154q-24 91 -117.5 156t-236.5 65h-29q-218 0 -363.5 -167t-164.5 -435q65 109 197 169t299 60
q149 0 271.5 -55.5t197.5 -164.5t75 -253zM1149 461q0 108 -57 188t-148.5 119t-202.5 39h-28q-114 0 -208 -39t-152 -118.5t-58 -186.5q0 -161 119.5 -253.5t298.5 -92.5h28q113 0 204 38.5t147.5 118t56.5 187.5z" />
    <glyph glyph-name="seven" unicode="7" horiz-adv-x="1234" 
d="M51 1434h1116v-158q-334 -172 -495.5 -471.5t-161.5 -763.5v-41h-148v59q0 432 163.5 752t445.5 481h-920v142z" />
    <glyph glyph-name="eight" unicode="8" horiz-adv-x="1347" 
d="M176 371q0 115 70.5 203t163.5 122q-52 13 -101 42t-90.5 72t-66.5 105t-25 132q0 177 154 292t393 115q240 0 393.5 -113.5t153.5 -293.5q0 -70 -25 -132t-66.5 -105t-90.5 -72t-101 -42q93 -34 163 -122t70 -203q0 -173 -139.5 -282t-357.5 -109t-358 109t-140 282z
M659 772h29q182 0 283.5 68.5t101.5 197.5q0 130 -103.5 204.5t-281.5 74.5h-29q-178 0 -281.5 -74.5t-103.5 -204.5q0 -129 101.5 -197.5t283.5 -68.5zM659 117h29q151 0 243.5 72.5t92.5 189.5t-91.5 187.5t-244.5 70.5h-29q-153 0 -244 -70.5t-91 -187.5q0 -118 91 -190
t244 -72z" />
    <glyph glyph-name="nine" unicode="9" horiz-adv-x="1441" 
d="M143 963q0 224 158.5 357.5t417.5 133.5q286 0 440 -168t154 -502q1 -167 -49.5 -316.5t-139.5 -257.5t-215 -170t-268 -60q-215 0 -357.5 97.5t-164.5 260.5h153q24 -91 118 -156t237 -65h28q218 0 364 167t165 435q-65 -109 -197 -169.5t-299 -60.5q-149 0 -272 55.5
t-198 165t-75 253.5zM293 973q0 -161 117.5 -253.5t289.5 -92.5h29q114 0 208 39t152 118.5t58 186.5q0 161 -119.5 253.5t-298.5 92.5h-29q-112 0 -203.5 -38.5t-147.5 -118t-56 -187.5z" />
    <glyph glyph-name="colon" unicode=":" horiz-adv-x="512" 
d="M154 0v205h204v-205h-204zM154 819v205h204v-205h-204z" />
    <glyph glyph-name="semicolon" unicode=";" horiz-adv-x="602" 
d="M215 819v205h205v-205h-205zM143 -236v91h78q98 0 98 98v47h-114v205h215v-246q0 -92 -51.5 -143.5t-143.5 -51.5h-82z" />
    <glyph glyph-name="less" unicode="&#x3c;" horiz-adv-x="1216" 
d="M1055 946v-153l-738 -263l738 -264v-160l-953 363v115z" />
    <glyph glyph-name="equal" unicode="=" horiz-adv-x="1421" 
d="M164 645v137h1093v-137h-1093zM164 270v138h1093v-138h-1093z" />
    <glyph glyph-name="greater" unicode="&#x3e;" horiz-adv-x="1216" 
d="M162 944l952 -362v-115l-952 -363v154l737 262l-737 264v160z" />
    <glyph glyph-name="question" unicode="?" horiz-adv-x="1091" 
d="M295 420v260q0 92 36 128t128 36h172q107 0 172 67.5t65 165.5q0 96 -70 159.5t-188 63.5h-520v134h549q155 0 262 -102t107 -253q0 -165 -104.5 -266.5t-274.5 -101.5h-131q-41 0 -55.5 -16.5t-14.5 -53.5v-221h-133zM272 0v184h179v-184h-179z" />
    <glyph glyph-name="at" unicode="@" horiz-adv-x="2146" 
d="M117 635q-2 154 47.5 291t140.5 240.5t212.5 179t267 113.5t300.5 36q195 2 369.5 -55.5t300 -158.5t197.5 -246t69 -310q2 -104 -28 -193t-80 -150t-115 -104.5t-134 -63.5t-136 -19h-152v157q-29 -71 -122.5 -124.5t-209.5 -53.5q-189 0 -314.5 120.5t-125.5 319.5
q0 196 125 313t315 117q115 0 200.5 -44t131.5 -119v143h127v-713h19q51 0 98 10.5t96.5 39t85.5 73t59 119.5t23 172q0 192 -100.5 341t-282.5 230.5t-416 81.5q-176 2 -330 -51.5t-265.5 -150t-174.5 -237t-61 -304.5q0 -363 230 -568.5t626 -205.5h553v-117h-563
q-216 -2 -396.5 56.5t-312 169.5t-204 281.5t-70.5 383.5zM1047 291h16q131 0 222 90t91 233q0 145 -92 229.5t-221 84.5h-16q-132 0 -219 -83t-87 -231q0 -146 85.5 -234.5t220.5 -88.5z" />
    <glyph glyph-name="A" unicode="A" horiz-adv-x="1591" 
d="M1419 0l-190 393h-873l-190 -393h-156l701 1434h172l698 -1434h-162zM424 530h737l-368 762z" />
    <glyph glyph-name="B" unicode="B" horiz-adv-x="1576" 
d="M217 0v1434h754q190 0 311 -105t121 -274q0 -110 -62 -198.5t-151 -127.5q103 -26 175.5 -118t72.5 -222q0 -171 -128.5 -280t-314.5 -109h-778zM367 795h573q148 0 229.5 68t81.5 192q0 110 -83 175.5t-228 65.5h-573v-501zM367 137h587q150 0 241 72t91 188
q0 121 -90 190.5t-242 69.5h-587v-520z" />
    <glyph glyph-name="C" unicode="C" horiz-adv-x="1650" 
d="M119 717q0 157 54 293t151.5 234t239.5 154t310 56q280 0 459.5 -132t208.5 -329h-164q-33 151 -166 237.5t-321 86.5h-33q-133 0 -244 -46t-186 -126.5t-116.5 -190.5t-41.5 -237q0 -169 70.5 -305t205.5 -215.5t312 -79.5h33q190 0 322 84t165 239h164
q-31 -206 -211 -333t-457 -127q-229 0 -401.5 95t-263 261.5t-90.5 380.5z" />
    <glyph glyph-name="D" unicode="D" horiz-adv-x="1693" 
d="M217 0v1434h625q338 0 533.5 -191t195.5 -526t-195.5 -526t-533.5 -191h-625zM367 137h454q281 0 439.5 150t158.5 430q0 279 -158.5 429t-439.5 150h-454v-1159z" />
    <glyph glyph-name="E" unicode="E" horiz-adv-x="1531" 
d="M367 137h1056v-137h-1206v1434h1186v-138h-1036v-491h913v-137h-913v-531z" />
    <glyph glyph-name="F" unicode="F" horiz-adv-x="1429" 
d="M217 0v1434h1145v-138h-995v-532h880v-137h-880v-627h-150z" />
    <glyph glyph-name="G" unicode="G" horiz-adv-x="1738" 
d="M119 717q0 160 54.5 296t153 233.5t244 152.5t320.5 55q309 0 490 -133.5t196 -347.5h-164q-8 66 -40 125t-90.5 109.5t-155 80t-220.5 29.5h-33q-276 0 -440 -160t-164 -440q0 -279 165 -439.5t439 -160.5h33q254 0 403.5 112t149.5 277v61h-563v138h547q75 0 114 -38
t39 -112v-555h-137v209q-29 -40 -76.5 -77.5t-117 -73t-168 -57t-209.5 -21.5q-177 0 -322 54t-243 151t-151.5 233t-53.5 299z" />
    <glyph glyph-name="H" unicode="H" horiz-adv-x="1734" 
d="M217 0v1434h150v-648h1001v648h150v-1434h-150v649h-1001v-649h-150z" />
    <glyph glyph-name="I" unicode="I" horiz-adv-x="583" 
d="M217 0v1434h150v-1434h-150z" />
    <glyph glyph-name="J" unicode="J" horiz-adv-x="940" 
d="M57 0v137h303q122 0 174 52t52 173v1072h149v-1096q0 -165 -89 -251.5t-249 -86.5h-340z" />
    <glyph glyph-name="K" unicode="K" horiz-adv-x="1581" 
d="M1364 0l-659 725l-338 -287v-438h-150v1434h150v-816l952 816h219l-719 -611l752 -823h-207z" />
    <glyph glyph-name="L" unicode="L" horiz-adv-x="1413" 
d="M217 0v1434h150v-1297h1011v-137h-1161z" />
    <glyph glyph-name="M" unicode="M" horiz-adv-x="2123" 
d="M1657 1434h250v-1434h-150v1317l-600 -1317h-192l-598 1311v-1311h-150v1434h252l594 -1303z" />
    <glyph glyph-name="N" unicode="N" horiz-adv-x="1728" 
d="M1362 1434h149v-1434h-188l-956 1233v-1233h-150v1434h189l956 -1231v1231z" />
    <glyph glyph-name="O" unicode="O" horiz-adv-x="1779" 
d="M119 717q-3 218 99 388.5t278.5 261t394.5 87.5q219 3 395 -87.5t277 -260.5t98 -389q0 -220 -100 -389t-274.5 -258.5t-395.5 -89.5t-395.5 89.5t-275.5 258.5t-101 389zM874 117h33q124 0 234 42t191.5 117.5t129 189.5t47.5 251t-47.5 251t-129 189.5t-191.5 117.5
t-234 42h-33q-125 0 -235 -42t-192 -117.5t-129.5 -189.5t-47.5 -251t47.5 -251t129.5 -189.5t192 -117.5t235 -42z" />
    <glyph glyph-name="P" unicode="P" horiz-adv-x="1499" 
d="M217 0v1434h719q213 0 348 -114t135 -308q0 -198 -134.5 -311t-348.5 -113h-569v-588h-150zM367 725h538q178 0 270.5 73.5t92.5 213.5t-92.5 212t-270.5 72h-538v-571z" />
    <glyph glyph-name="Q" unicode="Q" horiz-adv-x="1779" 
d="M809 -195v181q-151 15 -278 73.5t-218.5 151.5t-142.5 223t-51 283q-3 218 99 388.5t278.5 261t394.5 87.5q219 3 395 -87.5t277 -260.5t98 -389q0 -155 -52 -286.5t-145 -225.5t-222.5 -151.5t-283.5 -69.5v-101q0 -60 23.5 -82t85.5 -22h373v-137h-453q-75 0 -126.5 47
t-51.5 116zM874 117h33q124 0 234 42t191.5 117.5t129 189.5t47.5 251t-47.5 251t-129 189.5t-191.5 117.5t-234 42h-33q-125 0 -235 -42t-192 -117.5t-129.5 -189.5t-47.5 -251t47.5 -251t129.5 -189.5t192 -117.5t235 -42z" />
    <glyph glyph-name="R" unicode="R" horiz-adv-x="1601" 
d="M217 0v1434h758q194 0 321 -111.5t127 -280.5q0 -130 -65 -224t-162 -126q86 0 142.5 -57t56.5 -154v-481h-150v430q0 99 -38 133.5t-146 34.5h-694v-598h-150zM367 735h577q152 0 240 78.5t88 208.5q0 129 -86.5 201.5t-241.5 72.5h-577v-561z" />
    <glyph glyph-name="S" unicode="S" 
d="M92 451h164q6 -163 129.5 -248.5t345.5 -85.5h33q211 0 314.5 68t103.5 194q0 101 -84 161.5t-271 90.5l-223 37q-231 37 -331.5 125t-100.5 260q0 81 36 152t104 127.5t178.5 89t248.5 32.5q276 0 438.5 -117t184.5 -323h-164q-20 146 -135.5 224.5t-306.5 78.5h-33
q-185 0 -292 -72.5t-107 -187.5q0 -99 75.5 -154.5t243.5 -81.5l229 -37q234 -37 347.5 -134.5t113.5 -264.5q0 -190 -151.5 -297.5t-431.5 -107.5q-309 0 -482 121t-176 350z" />
    <glyph glyph-name="T" unicode="T" horiz-adv-x="1423" 
d="M637 0v1296h-604v138h1358v-138h-605v-1296h-149z" />
    <glyph glyph-name="U" unicode="U" horiz-adv-x="1617" 
d="M199 565v869h149v-852q0 -227 114 -346t331 -119h32q217 0 331 119t114 346v852h149v-869q0 -272 -159 -428.5t-451 -156.5q-296 0 -453 155t-157 430z" />
    <glyph glyph-name="V" unicode="V" horiz-adv-x="1605" 
d="M1423 1434h172l-690 -1434h-203l-692 1434h176l621 -1301z" />
    <glyph glyph-name="W" unicode="W" horiz-adv-x="2127" 
d="M1935 1434h156l-434 -1434h-223l-369 1266l-379 -1266h-223l-420 1434h156l383 -1299l391 1299h198l381 -1307z" />
    <glyph glyph-name="X" unicode="X" horiz-adv-x="1478" 
d="M1452 0h-199l-516 616l-518 -616h-194l616 731l-586 703h199l487 -582l492 582h194l-589 -699z" />
    <glyph glyph-name="Y" unicode="Y" horiz-adv-x="1427" 
d="M1212 1434h191l-615 -820v-614h-149v614l-614 820h192l500 -672z" />
    <glyph glyph-name="Z" unicode="Z" horiz-adv-x="1394" 
d="M295 137h1012v-137h-1219v131l991 1165h-970v138h1177v-131z" />
    <glyph glyph-name="bracketleft" unicode="[" horiz-adv-x="757" 
d="M203 -297v2028h497v-117h-364v-1794h364v-117h-497z" />
    <glyph glyph-name="backslash" unicode="\" horiz-adv-x="972" 
d="M741 0l-661 1434h153l662 -1434h-154z" />
    <glyph glyph-name="bracketright" unicode="]" horiz-adv-x="757" 
d="M555 1731v-2028h-498v117h365v1794h-365v117h498z" />
    <glyph glyph-name="asciicircum" unicode="^" horiz-adv-x="1208" 
d="M1114 584h-143l-371 725l-364 -725h-140l424 850h166z" />
    <glyph glyph-name="underscore" unicode="_" horiz-adv-x="1331" 
d="M143 -117v117h1045v-117h-1045z" />
    <glyph glyph-name="grave" unicode="`" horiz-adv-x="440" 
d="M276 1167l-221 267h174l158 -267h-111z" />
    <glyph glyph-name="a" unicode="a" horiz-adv-x="1224" 
d="M102 285q0 144 101 221t284 88l431 24v41q0 129 -83 199t-233 70h-33q-117 0 -200 -53t-95 -138h-143q15 133 142 220t313 87q222 0 346.5 -107t124.5 -282v-430q0 -107 14 -225h-129q-14 82 -14 166q-49 -78 -165.5 -132t-268.5 -54q-185 0 -288.5 84t-103.5 221z
M508 96h29q94 0 180 37.5t143.5 112t57.5 168.5v90l-365 -19q-163 -10 -236 -57t-73 -135q0 -94 66 -145.5t198 -51.5z" />
    <glyph glyph-name="b" unicode="b" horiz-adv-x="1394" 
d="M317 164v-164h-139v1434h139v-578q58 87 171.5 137.5t263.5 50.5q239 0 386.5 -140.5t147.5 -391.5q0 -243 -150 -387.5t-388 -144.5q-140 0 -252.5 48t-178.5 136zM725 96h29q176 0 283.5 110.5t107.5 305.5t-107.5 305.5t-283.5 110.5h-29q-179 0 -293.5 -112.5
t-114.5 -303.5t114.5 -303.5t293.5 -112.5z" />
    <glyph glyph-name="c" unicode="c" horiz-adv-x="1247" 
d="M106 512q0 111 39.5 209t110 169.5t174 112.5t225.5 41q201 0 334.5 -94t155.5 -254h-144q-20 108 -109.5 170t-221.5 62h-29q-123 0 -213.5 -58t-135 -151t-44.5 -207t44.5 -207t135 -151t213.5 -58h29q125 0 215 66t116 166h144q-22 -152 -158 -250t-332 -98
q-258 0 -403.5 145.5t-145.5 386.5z" />
    <glyph glyph-name="d" unicode="d" horiz-adv-x="1394" 
d="M109 512q0 251 149.5 391.5t394.5 140.5q280 0 424 -188v578h140v-1434h-140v164q-66 -87 -179.5 -135.5t-250.5 -48.5q-237 0 -387.5 145t-150.5 387zM641 96h29q179 0 293 112.5t114 303.5t-114 303.5t-293 112.5h-29q-176 0 -283.5 -110.5t-107.5 -305.5t107.5 -305.5
t283.5 -110.5z" />
    <glyph glyph-name="e" unicode="e" horiz-adv-x="1249" 
d="M1141 551v-55h-891q6 -190 118.5 -295t268.5 -105h29q110 0 201 55t118 142h143q-28 -141 -159 -227t-316 -86q-158 0 -279.5 60.5t-193 184t-71.5 295.5q0 122 43.5 223t117 166t170.5 100t205 35q223 0 359.5 -136t136.5 -357zM256 612h735q-6 146 -100.5 231
t-231.5 85h-28q-156 0 -253.5 -84t-121.5 -232z" />
    <glyph glyph-name="f" unicode="f" horiz-adv-x="837" 
d="M332 0v907h-289v117h289v186q0 104 58 164t153 60h309v-117h-266q-63 0 -89 -32.5t-26 -110.5v-150h320v-117h-320v-907h-139z" />
    <glyph glyph-name="g" unicode="g" horiz-adv-x="1366" 
d="M80 -143h147q26 -92 126 -141.5t253 -49.5h29q184 0 299 98t115 281v150q-66 -87 -171.5 -141t-248.5 -54q-239 0 -379.5 132.5t-140.5 389.5q0 126 43.5 227t117.5 164.5t167.5 97t197.5 33.5q84 0 153.5 -17t119 -47.5t80.5 -58t61 -63.5v166h139v-995
q0 -211 -148.5 -345.5t-418.5 -134.5q-236 0 -379 84.5t-162 223.5zM625 117h28q159 0 277.5 113t118.5 292t-113.5 292.5t-271.5 113.5h-29q-81 0 -149.5 -24.5t-122 -72.5t-83.5 -127.5t-30 -181.5q0 -202 103 -303.5t272 -101.5z" />
    <glyph glyph-name="h" unicode="h" horiz-adv-x="1333" 
d="M178 0v1434h139v-588q140 198 422 198q198 0 314 -117t116 -304v-623h-139v573q0 167 -76 261t-223 94h-29q-155 0 -270 -117.5t-115 -294.5v-516h-139z" />
    <glyph glyph-name="i" unicode="i" horiz-adv-x="495" 
d="M178 0v1024h139v-1024h-139zM166 1208v174h160v-174h-160z" />
    <glyph glyph-name="j" unicode="j" horiz-adv-x="516" 
d="M-264 -338v117h340q70 0 96.5 26.5t26.5 96.5v1122h139v-1126q0 -100 -58 -168t-151 -68h-393zM176 1208v174h160v-174h-160z" />
    <glyph glyph-name="k" unicode="k" horiz-adv-x="1228" 
d="M1014 0l-473 516l-224 -176v-340h-139v1434h139v-947l658 537h207l-533 -422l559 -602h-194z" />
    <glyph glyph-name="l" unicode="l" horiz-adv-x="495" 
d="M178 0v1434h139v-1434h-139z" />
    <glyph glyph-name="m" unicode="m" horiz-adv-x="2127" 
d="M178 0v1024h139v-156q123 176 392 176q133 0 235.5 -59t149.5 -166q61 112 170 168.5t243 56.5q225 0 341 -118.5t116 -317.5v-608h-139v580q0 163 -79 255.5t-230 92.5h-29q-153 0 -249.5 -115.5t-96.5 -304.5v-508h-140v580q0 163 -77 255.5t-224 92.5h-28
q-158 0 -256.5 -115.5t-98.5 -304.5v-508h-139z" />
    <glyph glyph-name="n" unicode="n" horiz-adv-x="1333" 
d="M178 0v1024h139v-188q53 90 164 149t258 59q198 0 314 -117t116 -304v-623h-139v573q0 167 -76 261t-223 94h-29q-155 0 -270 -117.5t-115 -294.5v-516h-139z" />
    <glyph glyph-name="o" unicode="o" horiz-adv-x="1335" 
d="M106 512q0 240 156 386t406 146q248 0 404.5 -146t156.5 -386t-156.5 -386t-404.5 -146q-250 0 -406 146t-156 386zM653 96h29q175 0 290 114t115 302t-115 302t-290 114h-29q-178 0 -291.5 -113.5t-113.5 -302.5t113.5 -302.5t291.5 -113.5z" />
    <glyph glyph-name="p" unicode="p" horiz-adv-x="1394" 
d="M178 -410v1434h139v-170q55 86 172.5 138t251.5 52q244 0 394.5 -144t150.5 -388q0 -249 -151 -390.5t-387 -141.5q-150 0 -261 49t-170 133v-572h-139zM725 96h29q176 0 283.5 110.5t107.5 305.5t-107.5 305.5t-283.5 110.5h-29q-179 0 -293.5 -112.5t-114.5 -303.5
t114.5 -303.5t293.5 -112.5z" />
    <glyph glyph-name="q" unicode="q" horiz-adv-x="1392" 
d="M1075 -410v578q-65 -86 -174.5 -137t-255.5 -51q-152 0 -273 60.5t-193.5 183t-72.5 288.5q0 242 152 387t393 145q139 0 250 -51t174 -139v170h139v-1434h-139zM639 96h29q179 0 293 112.5t114 303.5t-114 303.5t-293 112.5h-29q-176 0 -283.5 -110.5t-107.5 -305.5
t107.5 -305.5t283.5 -110.5z" />
    <glyph glyph-name="r" unicode="r" horiz-adv-x="854" 
d="M178 0v1024h129v-197q43 100 129.5 148.5t225.5 48.5h149v-141h-145q-167 0 -258 -90.5t-91 -257.5v-535h-139z" />
    <glyph glyph-name="s" unicode="s" horiz-adv-x="1138" 
d="M90 307h143q7 -101 94 -156t222 -55h29q140 0 218 43.5t78 122.5q0 70 -54.5 109.5t-184.5 64.5l-170 33q-166 32 -246 97.5t-80 181.5q0 144 118 220t308 76q220 0 339.5 -85.5t131.5 -241.5h-143q-9 93 -92 152t-223 59h-29q-122 0 -195 -47.5t-73 -116.5
q0 -70 47.5 -101.5t197.5 -62.5l160 -31q163 -31 246.5 -103.5t83.5 -193.5q0 -138 -120 -215t-333 -77q-217 0 -340.5 87t-132.5 240z" />
    <glyph glyph-name="t" unicode="t" horiz-adv-x="872" 
d="M305 231v676h-274v117h274v332h139v-332h340v-117h-340v-647q0 -79 31.5 -111t106.5 -32h247v-117h-313q-102 0 -156.5 60.5t-54.5 170.5z" />
    <glyph glyph-name="u" unicode="u" horiz-adv-x="1316" 
d="M166 387v637h139v-592q0 -169 69.5 -252.5t217.5 -83.5h29q157 0 267.5 112t110.5 290v526h140v-1024h-140v193q-60 -98 -169 -155.5t-257 -57.5q-194 0 -300.5 109t-106.5 298z" />
    <glyph glyph-name="v" unicode="v" horiz-adv-x="1202" 
d="M1018 1024h153l-491 -1024h-160l-487 1024h160l407 -879z" />
    <glyph glyph-name="w" unicode="w" horiz-adv-x="1781" 
d="M1593 1024h150l-383 -1024h-166l-303 850l-305 -850h-164l-383 1024h149l322 -866l311 866h137l326 -881z" />
    <glyph glyph-name="x" unicode="x" horiz-adv-x="1169" 
d="M1124 0h-186l-356 414l-359 -414h-178l449 514l-439 510h187l346 -401l348 401h178l-438 -504z" />
    <glyph glyph-name="y" unicode="y" horiz-adv-x="1241" 
d="M117 -338v117h346q61 0 83.5 23t22.5 83v187l-522 952h160l432 -793l422 793h156l-508 -944v-209q0 -209 -209 -209h-383z" />
    <glyph glyph-name="z" unicode="z" horiz-adv-x="1116" 
d="M274 121h760v-121h-944v123l729 780h-719v121h904v-123z" />
    <glyph glyph-name="braceleft" unicode="{" horiz-adv-x="780" 
d="M289 6v434q0 83 -21.5 113.5t-81.5 30.5h-108v266h108q60 0 81.5 30t21.5 113v432q0 162 54 234t181 72h195v-117h-174q-75 0 -99 -32.5t-24 -127.5v-543q0 -174 -164 -174h-47v-41h47q164 0 164 -174v-542q0 -95 24 -127.5t99 -32.5h174v-117h-195q-127 0 -181 70
t-54 233z" />
    <glyph glyph-name="bar" unicode="|" horiz-adv-x="542" 
d="M203 -174v1782h137v-1782h-137z" />
    <glyph glyph-name="braceright" unicode="}" horiz-adv-x="778" 
d="M489 1430v-435q0 -83 21.5 -113t81.5 -30h108v-266h-108q-60 0 -81.5 -30.5t-21.5 -113.5v-432q0 -162 -54 -233.5t-181 -71.5h-195v117h174q75 0 99 32.5t24 127.5v542q0 174 164 174h47v41h-47q-164 0 -164 174v543q0 95 -24 127.5t-99 32.5h-174v117h195
q127 0 181 -70t54 -233z" />
    <glyph glyph-name="asciitilde" unicode="~" horiz-adv-x="1144" 
d="M643 752l-182 69q-59 23 -94 23q-39 0 -58.5 -28.5t-19.5 -94.5h-111v20q0 103 52.5 159t140.5 56q19 0 39.5 -3t37.5 -8t29.5 -9.5t24 -9t12.5 -4.5l186 -74q67 -25 93 -25q39 0 58 28.5t19 94.5h109v-20q0 -102 -48.5 -158.5t-133.5 -56.5q-64 0 -154 41z" />
    <glyph glyph-name="uni00A0" unicode="&#xa0;" horiz-adv-x="569" 
 />
    <glyph glyph-name="exclamdown" unicode="&#xa1;" horiz-adv-x="491" 
d="M276 604l41 -584v-430h-143v430l41 584h61zM336 1024v-184h-178v184h178z" />
    <glyph glyph-name="cent" unicode="&#xa2;" horiz-adv-x="1265" 
d="M1008 328h143q-34 -161 -160.5 -254.5t-322.5 -93.5q-33 0 -60 2l-45 -228h-129l49 250q-173 49 -270.5 185.5t-97.5 322.5q0 233 148.5 382.5t404.5 149.5h22l45 226h129l-49 -242q142 -31 230.5 -118.5t101.5 -213.5h-143q-18 79 -72 136t-139 81l-160 -809h24h21
q125 0 214.5 63.5t115.5 160.5zM508 127l160 801h-11q-191 0 -296 -118.5t-105 -297.5q0 -138 65 -241.5t187 -143.5z" />
    <glyph glyph-name="sterling" unicode="&#xa3;" horiz-adv-x="1304" 
d="M399 137h822v-137h-1117v137h93q77 0 115.5 43t49.5 137l29 289l-282 -59v129l297 63l28 267q24 219 122 323.5t292 104.5h272v-138h-278q-134 0 -192.5 -72.5t-74.5 -228.5l-24 -225l319 68v-129l-331 -70l-33 -303q-8 -80 -31 -123.5t-76 -75.5z" />
    <glyph glyph-name="currency" unicode="&#xa4;" horiz-adv-x="1587" 
d="M1260 322l194 -195l-90 -90l-193 184q-158 -139 -380 -139q-224 0 -377 135l-189 -180l-90 90l189 188q-97 139 -97 310q0 166 95 301l-187 186l90 90l187 -178q158 133 379 133q108 0 207.5 -35.5t175.5 -99.5l190 180l90 -90l-190 -190q90 -133 90 -297
q0 -178 -94 -303zM1212 625q0 175 -117.5 285t-293.5 110h-21q-176 0 -293.5 -110t-117.5 -285q0 -173 123.5 -289.5t298.5 -116.5h10q175 0 293 114.5t118 291.5z" />
    <glyph glyph-name="yen" unicode="&#xa5;" horiz-adv-x="1513" 
d="M1448 1434l-498 -664l295 61v-129l-407 -84l-4 -4v-165l350 71v-129l-350 -72v-319h-150v289l-356 -72v129l356 72v168l-418 -86v129l352 73l-548 732h192l500 -672l495 672h191z" />
    <glyph glyph-name="brokenbar" unicode="&#xa6;" horiz-adv-x="555" 
d="M209 881v727h137v-727h-137zM209 -174v747h137v-747h-137z" />
    <glyph glyph-name="section" unicode="&#xa7;" horiz-adv-x="1191" 
d="M188 -123v137h498q92 0 144.5 36t52.5 104q0 61 -42 100t-134 59l-258 56q-343 75 -343 290q0 172 183 275q-117 77 -117 223q0 126 92.5 201.5t245.5 75.5h459v-138h-457q-93 0 -145 -35.5t-52 -103.5q0 -121 177 -160l258 -55q342 -74 342 -291q0 -174 -183 -274
q117 -77 117 -223q0 -126 -92.5 -201.5t-245.5 -75.5h-500zM948 631q0 132 -235 184l-283 62q-99 -42 -139.5 -90.5t-40.5 -106.5q0 -132 235 -184l283 -62q99 42 139.5 90.5t40.5 106.5z" />
    <glyph glyph-name="dieresis" unicode="&#xa8;" horiz-adv-x="720" 
d="M59 1208v164h158v-164h-158zM504 1208v164h158v-164h-158z" />
    <glyph glyph-name="copyright" unicode="&#xa9;" horiz-adv-x="2113" 
d="M115 717q-2 107 30.5 210t92.5 191.5t147 163t191 126.5t227.5 80.5t253.5 27.5q130 1 253.5 -27.5t227.5 -80.5t191 -126.5t147 -163t92.5 -191.5t30.5 -210q3 -159 -70.5 -308t-199 -258t-302 -173t-370.5 -60q-155 -2 -301 38t-261.5 114.5t-202.5 174t-133 221.5
t-44 251zM1892 717q2 140 -62.5 269.5t-175.5 224t-267.5 150t-329.5 52.5q-173 3 -330.5 -52.5t-268.5 -150t-175.5 -224t-61.5 -269.5q-3 -140 61.5 -269.5t175.5 -224.5t268.5 -150.5t330.5 -52.5q173 -3 329.5 52.5t267.5 150.5t175.5 224.5t62.5 269.5zM651 723
q0 182 112 293.5t296 111.5q144 0 242.5 -72.5t117.5 -191.5h-133q-9 66 -73.5 114t-153.5 48h-10q-114 0 -191.5 -85.5t-77.5 -217.5t76 -212.5t193 -80.5h10q86 0 152 46.5t81 115.5h133q-30 -127 -128.5 -195.5t-237.5 -68.5q-178 0 -293 104.5t-115 290.5z" />
    <glyph glyph-name="ordfeminine" unicode="&#xaa;" horiz-adv-x="849" 
d="M127 1014q0 82 59.5 128.5t163.5 57.5l221 21v18q0 50 -43 79.5t-110 29.5h-6q-64 0 -110 -27.5t-46 -73.5h-121q6 90 87.5 143.5t195.5 53.5t194 -57.5t80 -151.5v-258q0 -83 6 -127h-110q-10 52 -10 84q-30 -40 -94.5 -67t-137.5 -27q-95 0 -157 48t-62 126zM377 936h6
q84 0 136 35.5t52 101.5v62l-188 -17q-135 -14 -135 -96q0 -40 35.5 -63t93.5 -23z" />
    <glyph glyph-name="guillemotleft" unicode="&#xab;" horiz-adv-x="1185" 
d="M645 1024l-383 -438l385 -443h-172l-389 441l389 440h170zM705 586l385 -443h-172l-390 441l390 440h169z" />
    <glyph glyph-name="logicalnot" unicode="&#xac;" horiz-adv-x="1310" 
d="M999 266v293h-833v137h977v-430h-144z" />
    <glyph glyph-name="uni00AD" unicode="&#xad;" horiz-adv-x="905" 
d="M156 563v113h594v-113h-594z" />
    <glyph glyph-name="registered" unicode="&#xae;" horiz-adv-x="2113" 
d="M115 717q-2 107 30.5 210t92.5 191.5t147 163t191 126.5t227.5 80.5t253.5 27.5q130 1 253.5 -27.5t227.5 -80.5t191 -126.5t147 -163t92.5 -191.5t30.5 -210q3 -159 -70.5 -308t-199 -258t-302 -173t-370.5 -60q-155 -2 -301 38t-261.5 114.5t-202.5 174t-133 221.5
t-44 251zM1892 717q2 140 -62.5 269.5t-175.5 224t-267.5 150t-329.5 52.5q-173 3 -330.5 -52.5t-268.5 -150t-175.5 -224t-61.5 -269.5q-3 -140 61.5 -269.5t175.5 -224.5t268.5 -150.5t330.5 -52.5q173 -3 329.5 52.5t267.5 150.5t175.5 224.5t62.5 269.5zM766 342v770
h360q123 0 200 -60t77 -151q0 -77 -40.5 -127t-98.5 -67q62 -2 95.5 -38t33.5 -108v-219h-129v203q0 96 -101 96h-268v-299h-129zM895 743h205q174 0 174 134q0 68 -43 98.5t-131 30.5h-205v-263z" />
    <glyph glyph-name="macron" unicode="&#xaf;" horiz-adv-x="755" 
d="M61 1208v113h633v-113h-633z" />
    <glyph glyph-name="degree" unicode="&#xb0;" horiz-adv-x="970" 
d="M106 1075q0 162 108.5 270.5t270.5 108.5q161 0 270 -109.5t109 -269.5t-109 -269.5t-270 -109.5q-162 0 -270.5 108.5t-108.5 270.5zM737 1075q0 107 -74 183.5t-178 76.5q-103 0 -177.5 -76.5t-74.5 -183.5q0 -106 74.5 -183t177.5 -77q104 0 178 77t74 183z" />
    <glyph glyph-name="plusminus" unicode="&#xb1;" horiz-adv-x="1380" 
d="M621 307v285h-457v137h457v295h139v-295h457v-137h-457v-285h-139zM164 0v137h1053v-137h-1053z" />
    <glyph glyph-name="twosuperior" unicode="&#xb2;" horiz-adv-x="796" 
d="M84 850v141l299 217q123 90 154.5 127t35.5 99q0 59 -48 96t-122 37h-10q-67 0 -122.5 -37.5t-55.5 -93.5h-127q0 102 92 167.5t221 65.5q133 0 217 -62.5t84 -172.5q-4 -60 -27.5 -105.5t-59 -78t-105.5 -83.5l-297 -215h498v-102h-627z" />
    <glyph glyph-name="threesuperior" unicode="&#xb3;" horiz-adv-x="806" 
d="M76 1063h125q6 -54 56 -87.5t128 -33.5h10q87 0 142 38t55 103q0 59 -49.5 93t-128.5 34h-131v97h135q79 0 123.5 32.5t44.5 92.5q0 65 -49 100t-136 35h-10q-77 0 -125 -31.5t-53 -81.5h-125q0 98 91 156.5t222 58.5q132 0 221 -60t89 -165q0 -62 -42 -112t-112 -75
q76 -23 118 -72t42 -114q0 -103 -97 -167t-229 -64q-131 0 -223 61.5t-92 161.5z" />
    <glyph glyph-name="acute" unicode="&#xb4;" horiz-adv-x="440" 
d="M53 1167l158 267h174l-221 -267h-111z" />
    <glyph glyph-name="mu" unicode="&#xb5;" horiz-adv-x="1386" 
d="M207 -410v1434h133v-635q0 -297 317 -297h21q149 0 259 106t110 273v553h133v-1024h-133v193q-47 -103 -154.5 -158t-259.5 -55q-181 0 -293 86v-476h-133z" />
    <glyph glyph-name="paragraph" unicode="&#xb6;" horiz-adv-x="1417" 
d="M512 -410v1076h-41q-174 0 -286.5 112.5t-112.5 272.5t111.5 271.5t275.5 111.5h858v-117h-184v-1727h-140v1727h-342v-1727h-139z" />
    <glyph glyph-name="periodcentered" unicode="&#xb7;" horiz-adv-x="516" 
d="M156 594v205h204v-205h-204z" />
    <glyph glyph-name="cedilla" unicode="&#xb8;" horiz-adv-x="495" 
d="M61 -461v115h156q55 0 87 22t32 64q0 41 -32 62.5t-87 21.5h-59v207h96v-123q78 0 133 -49t55 -125q0 -89 -60 -142t-167 -53h-154z" />
    <glyph glyph-name="onesuperior" unicode="&#xb9;" horiz-adv-x="583" 
d="M328 850v649l-281 -192v127l320 225h77v-809h-116z" />
    <glyph glyph-name="ordmasculine" unicode="&#xba;" horiz-adv-x="884" 
d="M113 1141q0 137 90 220t239 83t239.5 -83t90.5 -220q0 -136 -90.5 -218.5t-239.5 -82.5t-239 82t-90 219zM438 936h11q91 0 144.5 56t53.5 149q0 94 -54.5 150.5t-146.5 56.5h-8q-92 0 -146 -57t-54 -150t53.5 -149t146.5 -56z" />
    <glyph glyph-name="guillemotright" unicode="&#xbb;" horiz-adv-x="1185" 
d="M268 1024l389 -440l-389 -441h-170l383 439l-385 442h172zM711 1024l389 -440l-389 -441h-170l383 439l-385 442h172z" />
    <glyph glyph-name="onequarter" unicode="&#xbc;" horiz-adv-x="1871" 
d="M330 625v649l-281 -193v127l320 226h77v-809h-116zM215 0l1020 1434h141l-1020 -1434h-141zM1479 0v197h-471v114l458 498h127v-510h142v-102h-142v-197h-114zM1126 299h353v360z" />
    <glyph glyph-name="onehalf" unicode="&#xbd;" horiz-adv-x="1857" 
d="M330 625v649l-281 -193v127l320 226h77v-809h-116zM215 0l1020 1434h141l-1020 -1434h-141zM1094 0v141l299 217q123 90 154.5 127t35.5 99q0 59 -48 96t-122 37h-10q-67 0 -122.5 -37.5t-55.5 -93.5h-127q0 102 92 167.5t221 65.5q133 0 217 -62.5t84 -172.5
q-4 -60 -27.5 -105.5t-59 -78t-105.5 -83.5l-297 -215h497v-102h-626z" />
    <glyph glyph-name="threequarters" unicode="&#xbe;" horiz-adv-x="2048" 
d="M76 838h125q6 -54 56 -87.5t128 -33.5h10q87 0 142 38t55 103q0 59 -49.5 93t-128.5 34h-131v96h135q79 0 123.5 32.5t44.5 92.5q0 66 -48.5 100.5t-136.5 34.5h-10q-77 0 -125 -31t-53 -81h-125q0 98 91 156.5t222 58.5q132 0 221 -60t89 -165q0 -62 -41.5 -111
t-112.5 -76q76 -23 118 -71.5t42 -114.5q0 -103 -97 -167.5t-229 -64.5q-130 0 -222.5 62.5t-92.5 161.5zM438 0l1020 1434h141l-1019 -1434h-142zM1702 0v197h-471v114l459 498h127v-510h141v-102h-141v-197h-115zM1350 299h352v360z" />
    <glyph glyph-name="questiondown" unicode="&#xbf;" horiz-adv-x="1069" 
d="M786 604v-260q0 -92 -35.5 -128t-127.5 -36h-172q-107 0 -172.5 -67.5t-65.5 -165.5q0 -96 70 -159.5t188 -63.5h520v-134h-549q-155 0 -261.5 102t-106.5 253q0 165 104.5 266.5t274.5 101.5h131q41 0 55 16t14 54v221h133zM809 1024v-184h-178v184h178z" />
    <glyph glyph-name="Agrave" unicode="&#xc0;" horiz-adv-x="1591" 
d="M1419 0l-190 393h-873l-190 -393h-156l701 1434h172l698 -1434h-162zM424 530h737l-368 762zM741 1567l-221 256h193l159 -256h-131z" />
    <glyph glyph-name="Aacute" unicode="&#xc1;" horiz-adv-x="1591" 
d="M1419 0l-190 393h-873l-190 -393h-156l701 1434h172l698 -1434h-162zM424 530h737l-368 762zM750 1567l159 256h193l-221 -256h-131z" />
    <glyph glyph-name="Acircumflex" unicode="&#xc2;" horiz-adv-x="1591" 
d="M1419 0l-190 393h-873l-190 -393h-156l701 1434h172l698 -1434h-162zM424 530h737l-368 762zM399 1567l297 256h201l297 -256h-147l-250 153l-250 -153h-148z" />
    <glyph glyph-name="Atilde" unicode="&#xc3;" horiz-adv-x="1591" 
d="M1419 0l-190 393h-873l-190 -393h-156l701 1434h172l698 -1434h-162zM424 530h737l-368 762zM791 1636l-70 43q-32 21 -55.5 29t-59.5 8q-106 0 -106 -129h-115v27q0 99 58.5 159t164.5 60q49 0 83 -10.5t79 -36.5l74 -45l22 -15q37 -23 62 -33t59 -10q105 0 105 129h114
v-26q0 -100 -57.5 -159.5t-161.5 -59.5q-61 0 -91.5 11.5t-104.5 57.5z" />
    <glyph glyph-name="Adieresis" unicode="&#xc4;" horiz-adv-x="1591" 
d="M1419 0l-190 393h-873l-190 -393h-156l701 1434h172l698 -1434h-162zM424 530h737l-368 762zM479 1597v164h172v-164h-172zM901 1597v164h172v-164h-172z" />
    <glyph glyph-name="Aring" unicode="&#xc5;" horiz-adv-x="1591" 
d="M1419 0l-190 393h-873l-190 -393h-156l701 1434h172l698 -1434h-162zM424 530h737l-368 762zM584 1745q0 73 62.5 125.5t148.5 52.5t148.5 -52.5t62.5 -125.5q0 -71 -62.5 -124.5t-148.5 -53.5t-148.5 53.5t-62.5 124.5zM897 1745q0 37 -28 60.5t-72 23.5q-45 0 -75 -24
t-30 -60t30 -60t75 -24q44 0 72 23.5t28 60.5z" />
    <glyph glyph-name="AE" unicode="&#xc6;" horiz-adv-x="2334" 
d="M1417 137h850v-137h-981l-55 393h-782l-285 -393h-182l1040 1434h1122v-138h-891l70 -491h760v-137h-742zM547 530h663l-108 768z" />
    <glyph glyph-name="Ccedilla" unicode="&#xc7;" horiz-adv-x="1650" 
d="M119 717q0 157 54 293t151.5 234t239.5 154t310 56q280 0 459.5 -132t208.5 -329h-164q-33 151 -166 237.5t-321 86.5h-33q-133 0 -244 -46t-186 -126.5t-116.5 -190.5t-41.5 -237q0 -169 70.5 -305t205.5 -215.5t312 -79.5h33q190 0 322 84t165 239h164
q-31 -206 -211 -333t-457 -127q-229 0 -401.5 95t-263 261.5t-90.5 380.5zM729 -461v115h156q55 0 87 22t32 64q0 41 -32 62.5t-87 21.5h-60v207h97v-123q78 0 133 -49t55 -125q0 -89 -60 -142t-167 -53h-154z" />
    <glyph glyph-name="Egrave" unicode="&#xc8;" horiz-adv-x="1531" 
d="M367 137h1056v-137h-1206v1434h1186v-138h-1036v-491h913v-137h-913v-531zM756 1567l-221 256h192l160 -256h-131z" />
    <glyph glyph-name="Eacute" unicode="&#xc9;" horiz-adv-x="1531" 
d="M367 137h1056v-137h-1206v1434h1186v-138h-1036v-491h913v-137h-913v-531zM764 1567l160 256h192l-221 -256h-131z" />
    <glyph glyph-name="Ecircumflex" unicode="&#xca;" horiz-adv-x="1531" 
d="M367 137h1056v-137h-1206v1434h1186v-138h-1036v-491h913v-137h-913v-531zM414 1567l297 256h200l297 -256h-147l-250 153l-250 -153h-147z" />
    <glyph glyph-name="Edieresis" unicode="&#xcb;" horiz-adv-x="1531" 
d="M367 137h1056v-137h-1206v1434h1186v-138h-1036v-491h913v-137h-913v-531zM494 1597v164h172v-164h-172zM915 1597v164h172v-164h-172z" />
    <glyph glyph-name="Igrave" unicode="&#xcc;" horiz-adv-x="583" 
d="M217 0v1434h150v-1434h-150zM238 1567l-222 256h193l160 -256h-131z" />
    <glyph glyph-name="Iacute" unicode="&#xcd;" horiz-adv-x="583" 
d="M217 0v1434h150v-1434h-150zM246 1567l160 256h192l-221 -256h-131z" />
    <glyph glyph-name="Icircumflex" unicode="&#xce;" horiz-adv-x="583" 
d="M217 0v1434h150v-1434h-150zM-104 1567l297 256h200l297 -256h-147l-250 153l-250 -153h-147z" />
    <glyph glyph-name="Idieresis" unicode="&#xcf;" horiz-adv-x="583" 
d="M217 0v1434h150v-1434h-150zM-25 1597v164h172v-164h-172zM397 1597v164h172v-164h-172z" />
    <glyph glyph-name="Eth" unicode="&#xd0;" horiz-adv-x="1708" 
d="M231 0v1434h625q338 0 533.5 -191t195.5 -526t-195.5 -526t-533.5 -191h-625zM381 137h455q281 0 439.5 150t158.5 430q0 279 -158.5 429t-439.5 150h-455v-1159zM80 653v127h655v-127h-655z" />
    <glyph glyph-name="Ntilde" unicode="&#xd1;" horiz-adv-x="1728" 
d="M1362 1434h149v-1434h-188l-956 1233v-1233h-150v1434h189l956 -1231v1231zM858 1636l-70 43q-32 21 -55 29t-59 8q-107 0 -107 -129h-114v27q0 99 58.5 159t164.5 60q49 0 83 -10.5t79 -36.5l73 -45l23 -15q37 -23 62 -33t59 -10q104 0 104 129h115v-26
q0 -100 -57.5 -159.5t-161.5 -59.5q-61 0 -92.5 11.5t-104.5 57.5z" />
    <glyph glyph-name="Ograve" unicode="&#xd2;" horiz-adv-x="1779" 
d="M119 717q-3 218 99 388.5t278.5 261t394.5 87.5q219 3 395 -87.5t277 -260.5t98 -389q0 -220 -100 -389t-274.5 -258.5t-395.5 -89.5t-395.5 89.5t-275.5 258.5t-101 389zM874 117h33q124 0 234 42t191.5 117.5t129 189.5t47.5 251t-47.5 251t-129 189.5t-191.5 117.5
t-234 42h-33q-125 0 -235 -42t-192 -117.5t-129.5 -189.5t-47.5 -251t47.5 -251t129.5 -189.5t192 -117.5t235 -42zM836 1567l-222 256h193l160 -256h-131z" />
    <glyph glyph-name="Oacute" unicode="&#xd3;" horiz-adv-x="1779" 
d="M119 717q-3 218 99 388.5t278.5 261t394.5 87.5q219 3 395 -87.5t277 -260.5t98 -389q0 -220 -100 -389t-274.5 -258.5t-395.5 -89.5t-395.5 89.5t-275.5 258.5t-101 389zM874 117h33q124 0 234 42t191.5 117.5t129 189.5t47.5 251t-47.5 251t-129 189.5t-191.5 117.5
t-234 42h-33q-125 0 -235 -42t-192 -117.5t-129.5 -189.5t-47.5 -251t47.5 -251t129.5 -189.5t192 -117.5t235 -42zM844 1567l160 256h192l-221 -256h-131z" />
    <glyph glyph-name="Ocircumflex" unicode="&#xd4;" horiz-adv-x="1779" 
d="M119 717q-3 218 99 388.5t278.5 261t394.5 87.5q219 3 395 -87.5t277 -260.5t98 -389q0 -220 -100 -389t-274.5 -258.5t-395.5 -89.5t-395.5 89.5t-275.5 258.5t-101 389zM874 117h33q124 0 234 42t191.5 117.5t129 189.5t47.5 251t-47.5 251t-129 189.5t-191.5 117.5
t-234 42h-33q-125 0 -235 -42t-192 -117.5t-129.5 -189.5t-47.5 -251t47.5 -251t129.5 -189.5t192 -117.5t235 -42zM494 1567l297 256h200l297 -256h-147l-250 153l-250 -153h-147z" />
    <glyph glyph-name="Otilde" unicode="&#xd5;" horiz-adv-x="1779" 
d="M119 717q-3 218 99 388.5t278.5 261t394.5 87.5q219 3 395 -87.5t277 -260.5t98 -389q0 -220 -100 -389t-274.5 -258.5t-395.5 -89.5t-395.5 89.5t-275.5 258.5t-101 389zM874 117h33q124 0 234 42t191.5 117.5t129 189.5t47.5 251t-47.5 251t-129 189.5t-191.5 117.5
t-234 42h-33q-125 0 -235 -42t-192 -117.5t-129.5 -189.5t-47.5 -251t47.5 -251t129.5 -189.5t192 -117.5t235 -42zM885 1636l-70 43q-32 21 -55.5 29t-59.5 8q-106 0 -106 -129h-115v27q0 99 58.5 159t164.5 60q49 0 83 -10.5t79 -36.5l74 -45l23 -15q38 -24 62 -33.5
t58 -9.5q105 0 105 129h114v-26q0 -100 -57.5 -159.5t-161.5 -59.5q-61 0 -91.5 11.5t-104.5 57.5z" />
    <glyph glyph-name="Odieresis" unicode="&#xd6;" horiz-adv-x="1779" 
d="M119 717q-3 218 99 388.5t278.5 261t394.5 87.5q219 3 395 -87.5t277 -260.5t98 -389q0 -220 -100 -389t-274.5 -258.5t-395.5 -89.5t-395.5 89.5t-275.5 258.5t-101 389zM874 117h33q124 0 234 42t191.5 117.5t129 189.5t47.5 251t-47.5 251t-129 189.5t-191.5 117.5
t-234 42h-33q-125 0 -235 -42t-192 -117.5t-129.5 -189.5t-47.5 -251t47.5 -251t129.5 -189.5t192 -117.5t235 -42zM573 1597v164h172v-164h-172zM995 1597v164h172v-164h-172z" />
    <glyph glyph-name="multiply" unicode="&#xd7;" horiz-adv-x="1198" 
d="M1059 219l-92 -104l-369 321l-369 -319l-88 102l353 307l-355 308l92 106l369 -322l369 320l88 -102l-355 -308z" />
    <glyph glyph-name="Oslash" unicode="&#xd8;" horiz-adv-x="1798" 
d="M129 717q-3 218 99 388.5t278.5 261t394.5 87.5q219 3 395 -87.5t277 -260.5t98 -389q0 -220 -100 -389t-274.5 -258.5t-395.5 -89.5t-395.5 89.5t-275.5 258.5t-101 389zM885 117h33q124 0 234 42t191.5 117.5t129 189.5t47.5 251t-47.5 251t-129 189.5t-191.5 117.5
t-234 42h-33q-125 0 -235 -42t-192 -117.5t-129.5 -189.5t-47.5 -251t47.5 -251t129.5 -189.5t192 -117.5t235 -42zM227 -47l-94 100l1430 1436l94 -100z" />
    <glyph glyph-name="Ugrave" unicode="&#xd9;" horiz-adv-x="1617" 
d="M199 565v869h149v-852q0 -227 114 -346t331 -119h32q217 0 331 119t114 346v852h149v-869q0 -272 -159 -428.5t-451 -156.5q-296 0 -453 155t-157 430zM754 1567l-222 256h193l160 -256h-131z" />
    <glyph glyph-name="Uacute" unicode="&#xda;" horiz-adv-x="1617" 
d="M199 565v869h149v-852q0 -227 114 -346t331 -119h32q217 0 331 119t114 346v852h149v-869q0 -272 -159 -428.5t-451 -156.5q-296 0 -453 155t-157 430zM762 1567l160 256h192l-221 -256h-131z" />
    <glyph glyph-name="Ucircumflex" unicode="&#xdb;" horiz-adv-x="1617" 
d="M199 565v869h149v-852q0 -227 114 -346t331 -119h32q217 0 331 119t114 346v852h149v-869q0 -272 -159 -428.5t-451 -156.5q-296 0 -453 155t-157 430zM412 1567l297 256h200l297 -256h-147l-250 153l-250 -153h-147z" />
    <glyph glyph-name="Udieresis" unicode="&#xdc;" horiz-adv-x="1617" 
d="M199 565v869h149v-852q0 -227 114 -346t331 -119h32q217 0 331 119t114 346v852h149v-869q0 -272 -159 -428.5t-451 -156.5q-296 0 -453 155t-157 430zM492 1597v164h172v-164h-172zM913 1597v164h172v-164h-172z" />
    <glyph glyph-name="Yacute" unicode="&#xdd;" horiz-adv-x="1427" 
d="M1212 1434h191l-615 -820v-614h-149v614l-614 820h192l500 -672zM670 1567l159 256h193l-221 -256h-131z" />
    <glyph glyph-name="Thorn" unicode="&#xde;" horiz-adv-x="1527" 
d="M217 0v1434h150v-310h569q213 0 348 -110t135 -297q0 -191 -134.5 -300.5t-348.5 -109.5h-569v-307h-150zM367 444h538q178 0 270.5 69.5t92.5 203.5q0 131 -92.5 200.5t-270.5 69.5h-538v-543z" />
    <glyph glyph-name="germandbls" unicode="&#xdf;" horiz-adv-x="1269" 
d="M178 -379v1366q0 203 130 335t349 132q210 0 332.5 -107.5t122.5 -263.5q0 -116 -66 -202.5t-149 -114.5q43 -10 87.5 -36.5t85 -68t66 -105t25.5 -136.5q0 -199 -127.5 -309.5t-331.5 -110.5h-217v127h189q162 0 254 79t92 218q0 126 -89.5 200t-242.5 74h-203v119h193
q79 0 139 21.5t95 58.5t52 82t17 98q0 116 -86 188t-227 72h-21q-147 0 -241.5 -94t-94.5 -268v-1354h-133z" />
    <glyph glyph-name="agrave" unicode="&#xe0;" horiz-adv-x="1224" 
d="M102 285q0 144 101 221t284 88l431 24v41q0 129 -83 199t-233 70h-33q-117 0 -200 -53t-95 -138h-143q15 133 142 220t313 87q222 0 346.5 -107t124.5 -282v-430q0 -107 14 -225h-129q-14 82 -14 166q-49 -78 -165.5 -132t-268.5 -54q-185 0 -288.5 84t-103.5 221z
M508 96h29q94 0 180 37.5t143.5 112t57.5 168.5v90l-365 -19q-163 -10 -236 -57t-73 -135q0 -94 66 -145.5t198 -51.5zM551 1167l-221 267h174l158 -267h-111z" />
    <glyph glyph-name="aacute" unicode="&#xe1;" horiz-adv-x="1224" 
d="M102 285q0 144 101 221t284 88l431 24v41q0 129 -83 199t-233 70h-33q-117 0 -200 -53t-95 -138h-143q15 133 142 220t313 87q222 0 346.5 -107t124.5 -282v-430q0 -107 14 -225h-129q-14 82 -14 166q-49 -78 -165.5 -132t-268.5 -54q-185 0 -288.5 84t-103.5 221z
M508 96h29q94 0 180 37.5t143.5 112t57.5 168.5v90l-365 -19q-163 -10 -236 -57t-73 -135q0 -94 66 -145.5t198 -51.5zM551 1167l158 267h174l-221 -267h-111z" />
    <glyph glyph-name="acircumflex" unicode="&#xe2;" horiz-adv-x="1224" 
d="M102 285q0 144 101 221t284 88l431 24v41q0 129 -83 199t-233 70h-33q-117 0 -200 -53t-95 -138h-143q15 133 142 220t313 87q222 0 346.5 -107t124.5 -282v-430q0 -107 14 -225h-129q-14 82 -14 166q-49 -78 -165.5 -132t-268.5 -54q-185 0 -288.5 84t-103.5 221z
M508 96h29q94 0 180 37.5t143.5 112t57.5 168.5v90l-365 -19q-163 -10 -236 -57t-73 -135q0 -94 66 -145.5t198 -51.5zM207 1167l321 267h158l322 -267h-142l-260 160l-260 -160h-139z" />
    <glyph glyph-name="atilde" unicode="&#xe3;" horiz-adv-x="1224" 
d="M102 285q0 144 101 221t284 88l431 24v41q0 129 -83 199t-233 70h-33q-117 0 -200 -53t-95 -138h-143q15 133 142 220t313 87q222 0 346.5 -107t124.5 -282v-430q0 -107 14 -225h-129q-14 82 -14 166q-49 -78 -165.5 -132t-268.5 -54q-185 0 -288.5 84t-103.5 221z
M508 96h29q94 0 180 37.5t143.5 112t57.5 168.5v90l-365 -19q-163 -10 -236 -57t-73 -135q0 -94 66 -145.5t198 -51.5zM600 1239l-65 43q-61 39 -115 39q-48 0 -74.5 -34t-26.5 -97h-112v27q0 99 58.5 159t152.5 60q88 0 164 -52l69 -45q7 -3 17 -12q66 -35 94 -40
q16 -3 33 -3q47 0 71.5 34t24.5 97h113v-26q0 -97 -59.5 -158.5t-145.5 -61.5q-95 0 -199 70z" />
    <glyph glyph-name="adieresis" unicode="&#xe4;" horiz-adv-x="1224" 
d="M102 285q0 144 101 221t284 88l431 24v41q0 129 -83 199t-233 70h-33q-117 0 -200 -53t-95 -138h-143q15 133 142 220t313 87q222 0 346.5 -107t124.5 -282v-430q0 -107 14 -225h-129q-14 82 -14 166q-49 -78 -165.5 -132t-268.5 -54q-185 0 -288.5 84t-103.5 221z
M508 96h29q94 0 180 37.5t143.5 112t57.5 168.5v90l-365 -19q-163 -10 -236 -57t-73 -135q0 -94 66 -145.5t198 -51.5zM305 1208v164h158v-164h-158zM750 1208v164h157v-164h-157z" />
    <glyph glyph-name="aring" unicode="&#xe5;" horiz-adv-x="1224" 
d="M102 285q0 144 101 221t284 88l431 24v41q0 129 -83 199t-233 70h-33q-117 0 -200 -53t-95 -138h-143q15 133 142 220t313 87q222 0 346.5 -107t124.5 -282v-430q0 -107 14 -225h-129q-14 82 -14 166q-49 -78 -165.5 -132t-268.5 -54q-185 0 -288.5 84t-103.5 221z
M508 96h29q94 0 180 37.5t143.5 112t57.5 168.5v90l-365 -19q-163 -10 -236 -57t-73 -135q0 -94 66 -145.5t198 -51.5zM385 1360q0 75 65.5 132.5t155.5 57.5q89 0 156 -58t67 -132q0 -78 -66.5 -134.5t-156.5 -56.5q-91 0 -156 56.5t-65 134.5zM723 1360q0 43 -32 69.5
t-83 26.5t-83.5 -26.5t-32.5 -69.5t32.5 -69.5t83.5 -26.5t83 26.5t32 69.5z" />
    <glyph glyph-name="ae" unicode="&#xe6;" horiz-adv-x="2058" 
d="M102 285q0 143 102.5 220.5t282.5 88.5l431 24v41q0 129 -83 199t-233 70h-33q-117 0 -200 -53t-95 -138h-143q15 133 142 220t313 87q320 0 426 -213q73 103 189 158t253 55q223 0 359.5 -136t136.5 -357v-55h-893q9 -189 120.5 -294.5t268.5 -105.5h29q110 0 201 55
t118 142h143q-28 -141 -159 -227t-316 -86q-160 0 -282 62.5t-189 182.5q-69 -119 -194 -182t-303 -63q-185 0 -288.5 84t-103.5 221zM1063 612h737q-6 146 -100.5 231t-231.5 85h-28q-154 0 -253 -85.5t-124 -230.5zM508 96h29q94 0 180 37.5t143.5 112t57.5 168.5v90
l-365 -19q-164 -10 -236.5 -56.5t-72.5 -135.5q0 -94 66 -145.5t198 -51.5z" />
    <glyph glyph-name="ccedilla" unicode="&#xe7;" horiz-adv-x="1247" 
d="M106 512q0 111 39.5 209t110 169.5t174 112.5t225.5 41q201 0 334.5 -94t155.5 -254h-144q-20 108 -109.5 170t-221.5 62h-29q-123 0 -213.5 -58t-135 -151t-44.5 -207t44.5 -207t135 -151t213.5 -58h29q125 0 215 66t116 166h144q-22 -152 -158 -250t-332 -98
q-258 0 -403.5 145.5t-145.5 386.5zM483 -461v115h156q55 0 87 22t32 64q0 41 -32 62.5t-87 21.5h-59v207h96v-123q78 0 133 -49t55 -125q0 -89 -60 -142t-167 -53h-154z" />
    <glyph glyph-name="egrave" unicode="&#xe8;" horiz-adv-x="1249" 
d="M1141 551v-55h-891q6 -190 118.5 -295t268.5 -105h29q110 0 201 55t118 142h143q-28 -141 -159 -227t-316 -86q-158 0 -279.5 60.5t-193 184t-71.5 295.5q0 122 43.5 223t117 166t170.5 100t205 35q223 0 359.5 -136t136.5 -357zM256 612h735q-6 146 -100.5 231
t-231.5 85h-28q-156 0 -253.5 -84t-121.5 -232zM592 1167l-221 267h174l157 -267h-110z" />
    <glyph glyph-name="eacute" unicode="&#xe9;" horiz-adv-x="1249" 
d="M1141 551v-55h-891q6 -190 118.5 -295t268.5 -105h29q110 0 201 55t118 142h143q-28 -141 -159 -227t-316 -86q-158 0 -279.5 60.5t-193 184t-71.5 295.5q0 122 43.5 223t117 166t170.5 100t205 35q223 0 359.5 -136t136.5 -357zM256 612h735q-6 146 -100.5 231
t-231.5 85h-28q-156 0 -253.5 -84t-121.5 -232zM592 1167l158 267h174l-222 -267h-110z" />
    <glyph glyph-name="ecircumflex" unicode="&#xea;" horiz-adv-x="1249" 
d="M1141 551v-55h-891q6 -190 118.5 -295t268.5 -105h29q110 0 201 55t118 142h143q-28 -141 -159 -227t-316 -86q-158 0 -279.5 60.5t-193 184t-71.5 295.5q0 122 43.5 223t117 166t170.5 100t205 35q223 0 359.5 -136t136.5 -357zM256 612h735q-6 146 -100.5 231
t-231.5 85h-28q-156 0 -253.5 -84t-121.5 -232zM248 1167l321 267h158l322 -267h-142l-260 160l-260 -160h-139z" />
    <glyph glyph-name="edieresis" unicode="&#xeb;" horiz-adv-x="1249" 
d="M1141 551v-55h-891q6 -190 118.5 -295t268.5 -105h29q110 0 201 55t118 142h143q-28 -141 -159 -227t-316 -86q-158 0 -279.5 60.5t-193 184t-71.5 295.5q0 122 43.5 223t117 166t170.5 100t205 35q223 0 359.5 -136t136.5 -357zM256 612h735q-6 146 -100.5 231
t-231.5 85h-28q-156 0 -253.5 -84t-121.5 -232zM346 1208v164h158v-164h-158zM791 1208v164h157v-164h-157z" />
    <glyph glyph-name="igrave" unicode="&#xec;" horiz-adv-x="495" 
d="M178 0v1024h139v-1024h-139zM193 1167l-222 267h174l158 -267h-110z" />
    <glyph glyph-name="iacute" unicode="&#xed;" horiz-adv-x="495" 
d="M178 0v1024h139v-1024h-139zM193 1167l157 267h174l-221 -267h-110z" />
    <glyph glyph-name="icircumflex" unicode="&#xee;" horiz-adv-x="495" 
d="M178 0v1024h139v-1024h-139zM-152 1167l322 267h158l321 -267h-141l-260 160l-260 -160h-140z" />
    <glyph glyph-name="idieresis" unicode="&#xef;" horiz-adv-x="495" 
d="M178 0v1024h139v-1024h-139zM-53 1208v164h157v-164h-157zM391 1208v164h158v-164h-158z" />
    <glyph glyph-name="eth" unicode="&#xf0;" horiz-adv-x="1361" 
d="M1233 629q0 -316 -144.5 -482.5t-426.5 -166.5q-251 0 -402 138.5t-151 360.5q0 217 151.5 355.5t401.5 138.5q119 0 238.5 -48t184.5 -147q-39 257 -233 408l-236 -125l-49 96l172 92q-153 72 -344 72q-28 0 -55 -2v117q310 6 524 -117l236 125l51 -101l-184 -98
q130 -108 198 -266.5t68 -349.5zM1079 479q0 118 -59 206t-150.5 130.5t-199.5 42.5h-21q-177 0 -288 -99.5t-111 -279.5q0 -182 111.5 -283.5t287.5 -101.5h21q108 0 199.5 43.5t150.5 133t59 208.5z" />
    <glyph glyph-name="ntilde" unicode="&#xf1;" horiz-adv-x="1333" 
d="M178 0v1024h139v-188q53 90 164 149t258 59q198 0 314 -117t116 -304v-623h-139v573q0 167 -76 261t-223 94h-29q-155 0 -270 -117.5t-115 -294.5v-516h-139zM684 1239l-66 43q-61 39 -114 39q-48 0 -74.5 -34t-26.5 -97h-112v27q0 99 58.5 159t152.5 60q88 0 164 -52
l69 -45q7 -3 17 -12q66 -35 94 -40q16 -3 33 -3q47 0 71.5 34t24.5 97h112v-26q0 -97 -59 -158.5t-145 -61.5q-95 0 -199 70z" />
    <glyph glyph-name="ograve" unicode="&#xf2;" horiz-adv-x="1335" 
d="M106 512q0 240 156 386t406 146q248 0 404.5 -146t156.5 -386t-156.5 -386t-404.5 -146q-250 0 -406 146t-156 386zM653 96h29q175 0 290 114t115 302t-115 302t-290 114h-29q-178 0 -291.5 -113.5t-113.5 -302.5t113.5 -302.5t291.5 -113.5zM612 1167l-221 267h174
l158 -267h-111z" />
    <glyph glyph-name="oacute" unicode="&#xf3;" horiz-adv-x="1335" 
d="M106 512q0 240 156 386t406 146q248 0 404.5 -146t156.5 -386t-156.5 -386t-404.5 -146q-250 0 -406 146t-156 386zM653 96h29q175 0 290 114t115 302t-115 302t-290 114h-29q-178 0 -291.5 -113.5t-113.5 -302.5t113.5 -302.5t291.5 -113.5zM612 1167l158 267h174
l-221 -267h-111z" />
    <glyph glyph-name="ocircumflex" unicode="&#xf4;" horiz-adv-x="1335" 
d="M106 512q0 240 156 386t406 146q248 0 404.5 -146t156.5 -386t-156.5 -386t-404.5 -146q-250 0 -406 146t-156 386zM653 96h29q175 0 290 114t115 302t-115 302t-290 114h-29q-178 0 -291.5 -113.5t-113.5 -302.5t113.5 -302.5t291.5 -113.5zM268 1167l322 267h158
l321 -267h-141l-260 160l-260 -160h-140z" />
    <glyph glyph-name="otilde" unicode="&#xf5;" horiz-adv-x="1335" 
d="M106 512q0 240 156 386t406 146q248 0 404.5 -146t156.5 -386t-156.5 -386t-404.5 -146q-250 0 -406 146t-156 386zM653 96h29q175 0 290 114t115 302t-115 302t-290 114h-29q-178 0 -291.5 -113.5t-113.5 -302.5t113.5 -302.5t291.5 -113.5zM662 1239l-66 43
q-61 39 -115 39q-47 0 -73.5 -34t-26.5 -97h-113v27q0 99 58.5 159t152.5 60q88 0 164 -52l70 -45q6 -2 16 -12q66 -35 94 -40q16 -3 33 -3q47 0 71.5 34t24.5 97h113v-26q0 -97 -59.5 -158.5t-145.5 -61.5q-49 0 -94 15t-104 55z" />
    <glyph glyph-name="odieresis" unicode="&#xf6;" horiz-adv-x="1335" 
d="M106 512q0 240 156 386t406 146q248 0 404.5 -146t156.5 -386t-156.5 -386t-404.5 -146q-250 0 -406 146t-156 386zM653 96h29q175 0 290 114t115 302t-115 302t-290 114h-29q-178 0 -291.5 -113.5t-113.5 -302.5t113.5 -302.5t291.5 -113.5zM367 1208v164h157v-164h-157
zM811 1208v164h158v-164h-158z" />
    <glyph glyph-name="divide" unicode="&#xf7;" horiz-adv-x="1380" 
d="M610 778v176h162v-176h-162zM164 459v137h1053v-137h-1053zM610 100v176h162v-176h-162z" />
    <glyph glyph-name="oslash" unicode="&#xf8;" horiz-adv-x="1341" 
d="M109 512q0 240 155.5 386t405.5 146q248 0 404.5 -146t156.5 -386t-156.5 -386t-404.5 -146q-250 0 -405.5 146t-155.5 386zM655 96h29q176 0 291 114t115 302t-115 302t-291 114h-29q-178 0 -291.5 -113.5t-113.5 -302.5t113.5 -302.5t291.5 -113.5zM236 -49l-84 82
l970 1038l84 -82z" />
    <glyph glyph-name="ugrave" unicode="&#xf9;" horiz-adv-x="1316" 
d="M166 387v637h139v-592q0 -169 69.5 -252.5t217.5 -83.5h29q157 0 267.5 112t110.5 290v526h140v-1024h-140v193q-60 -98 -169 -155.5t-257 -57.5q-194 0 -300.5 109t-106.5 298zM598 1167l-221 267h174l158 -267h-111z" />
    <glyph glyph-name="uacute" unicode="&#xfa;" horiz-adv-x="1316" 
d="M166 387v637h139v-592q0 -169 69.5 -252.5t217.5 -83.5h29q157 0 267.5 112t110.5 290v526h140v-1024h-140v193q-60 -98 -169 -155.5t-257 -57.5q-194 0 -300.5 109t-106.5 298zM598 1167l158 267h174l-221 -267h-111z" />
    <glyph glyph-name="ucircumflex" unicode="&#xfb;" horiz-adv-x="1316" 
d="M166 387v637h139v-592q0 -169 69.5 -252.5t217.5 -83.5h29q157 0 267.5 112t110.5 290v526h140v-1024h-140v193q-60 -98 -169 -155.5t-257 -57.5q-194 0 -300.5 109t-106.5 298zM254 1167l321 267h158l322 -267h-142l-260 160l-260 -160h-139z" />
    <glyph glyph-name="udieresis" unicode="&#xfc;" horiz-adv-x="1316" 
d="M166 387v637h139v-592q0 -169 69.5 -252.5t217.5 -83.5h29q157 0 267.5 112t110.5 290v526h140v-1024h-140v193q-60 -98 -169 -155.5t-257 -57.5q-194 0 -300.5 109t-106.5 298zM352 1208v164h158v-164h-158zM797 1208v164h157v-164h-157z" />
    <glyph glyph-name="yacute" unicode="&#xfd;" horiz-adv-x="1241" 
d="M117 -338v117h346q61 0 83.5 23t22.5 83v187l-522 952h160l432 -793l422 793h156l-508 -944v-209q0 -209 -209 -209h-383zM578 1167l157 267h174l-221 -267h-110z" />
    <glyph glyph-name="thorn" unicode="&#xfe;" horiz-adv-x="1394" 
d="M178 -410v1844h139v-580q55 86 172.5 138t251.5 52q244 0 394.5 -144t150.5 -388q0 -249 -151 -390.5t-387 -141.5q-150 0 -261 49t-170 133v-572h-139zM725 96h29q176 0 283.5 110.5t107.5 305.5t-107.5 305.5t-283.5 110.5h-29q-179 0 -293.5 -112.5t-114.5 -303.5
t114.5 -303.5t293.5 -112.5z" />
    <glyph glyph-name="ydieresis" unicode="&#xff;" horiz-adv-x="1241" 
d="M117 -338v117h346q61 0 83.5 23t22.5 83v187l-522 952h160l432 -793l422 793h156l-508 -944v-209q0 -209 -209 -209h-383zM332 1208v164h157v-164h-157zM776 1208v164h158v-164h-158z" />
    <glyph glyph-name="Amacron" unicode="&#x100;" horiz-adv-x="1591" 
d="M1419 0l-190 393h-873l-190 -393h-156l701 1434h172l698 -1434h-162zM424 530h737l-368 762zM465 1595v117h682v-117h-682z" />
    <glyph glyph-name="amacron" unicode="&#x101;" horiz-adv-x="1224" 
d="M102 285q0 144 101 221t284 88l431 24v41q0 129 -83 199t-233 70h-33q-117 0 -200 -53t-95 -138h-143q15 133 142 220t313 87q222 0 346.5 -107t124.5 -282v-430q0 -107 14 -225h-129q-14 82 -14 166q-49 -78 -165.5 -132t-268.5 -54q-185 0 -288.5 84t-103.5 221z
M508 96h29q94 0 180 37.5t143.5 112t57.5 168.5v90l-365 -19q-163 -10 -236 -57t-73 -135q0 -94 66 -145.5t198 -51.5zM258 1208v113h633v-113h-633z" />
    <glyph glyph-name="Abreve" unicode="&#x102;" horiz-adv-x="1591" 
d="M1419 0l-190 393h-873l-190 -393h-156l701 1434h172l698 -1434h-162zM424 530h737l-368 762zM451 1843h122q12 -78 71 -121t153 -43t155 44.5t68 119.5h123q-3 -121 -102 -198.5t-244 -77.5q-144 0 -242 77t-104 199z" />
    <glyph glyph-name="abreve" unicode="&#x103;" horiz-adv-x="1224" 
d="M102 285q0 144 101 221t284 88l431 24v41q0 129 -83 199t-233 70h-33q-117 0 -200 -53t-95 -138h-143q15 133 142 220t313 87q222 0 346.5 -107t124.5 -282v-430q0 -107 14 -225h-129q-14 82 -14 166q-49 -78 -165.5 -132t-268.5 -54q-185 0 -288.5 84t-103.5 221z
M508 96h29q94 0 180 37.5t143.5 112t57.5 168.5v90l-365 -19q-163 -10 -236 -57t-73 -135q0 -94 66 -145.5t198 -51.5zM250 1456h110q9 -79 77.5 -130.5t168.5 -51.5q99 0 166.5 51t79.5 131h111q-3 -118 -106 -202.5t-251 -84.5q-149 0 -251 84t-105 203z" />
    <glyph glyph-name="Aogonek" unicode="&#x104;" horiz-adv-x="1591" 
d="M1419 0l-190 393h-873l-190 -393h-156l701 1434h172l698 -1434h-162zM424 530h737l-368 762zM1284 -240q0 75 63 144t177 116l57 -20q-190 -107 -190 -205q0 -78 125 -78h92v-116h-92q-116 0 -174 41t-58 118z" />
    <glyph glyph-name="aogonek" unicode="&#x105;" horiz-adv-x="1224" 
d="M102 285q0 144 101 221t284 88l431 24v41q0 129 -83 199t-233 70h-33q-117 0 -200 -53t-95 -138h-143q15 133 142 220t313 87q222 0 346.5 -107t124.5 -282v-430q0 -107 14 -225h-129q-14 82 -14 166q-49 -78 -165.5 -132t-268.5 -54q-185 0 -288.5 84t-103.5 221z
M508 96h29q94 0 180 37.5t143.5 112t57.5 168.5v90l-365 -19q-163 -10 -236 -57t-73 -135q0 -94 66 -145.5t198 -51.5zM774 -240q0 75 63 144t177 116l57 -20q-190 -107 -190 -205q0 -78 125 -78h92v-116h-92q-116 0 -174 41t-58 118z" />
    <glyph glyph-name="Cacute" unicode="&#x106;" horiz-adv-x="1650" 
d="M119 717q0 157 54 293t151.5 234t239.5 154t310 56q280 0 459.5 -132t208.5 -329h-164q-33 151 -166 237.5t-321 86.5h-33q-133 0 -244 -46t-186 -126.5t-116.5 -190.5t-41.5 -237q0 -169 70.5 -305t205.5 -215.5t312 -79.5h33q190 0 322 84t165 239h164
q-31 -206 -211 -333t-457 -127q-229 0 -401.5 95t-263 261.5t-90.5 380.5zM827 1567l160 256h193l-222 -256h-131z" />
    <glyph glyph-name="cacute" unicode="&#x107;" horiz-adv-x="1247" 
d="M106 512q0 111 39.5 209t110 169.5t174 112.5t225.5 41q201 0 334.5 -94t155.5 -254h-144q-20 108 -109.5 170t-221.5 62h-29q-123 0 -213.5 -58t-135 -151t-44.5 -207t44.5 -207t135 -151t213.5 -58h29q125 0 215 66t116 166h144q-22 -152 -158 -250t-332 -98
q-258 0 -403.5 145.5t-145.5 386.5zM600 1167l158 267h174l-221 -267h-111z" />
    <glyph glyph-name="Ccircumflex" unicode="&#x108;" horiz-adv-x="1650" 
d="M119 717q0 157 54 293t151.5 234t239.5 154t310 56q280 0 459.5 -132t208.5 -329h-164q-33 151 -166 237.5t-321 86.5h-33q-133 0 -244 -46t-186 -126.5t-116.5 -190.5t-41.5 -237q0 -169 70.5 -305t205.5 -215.5t312 -79.5h33q190 0 322 84t165 239h164
q-31 -206 -211 -333t-457 -127q-229 0 -401.5 95t-263 261.5t-90.5 380.5zM477 1567l297 256h201l297 -256h-148l-250 153l-249 -153h-148z" />
    <glyph glyph-name="ccircumflex" unicode="&#x109;" horiz-adv-x="1247" 
d="M106 512q0 111 39.5 209t110 169.5t174 112.5t225.5 41q201 0 334.5 -94t155.5 -254h-144q-20 108 -109.5 170t-221.5 62h-29q-123 0 -213.5 -58t-135 -151t-44.5 -207t44.5 -207t135 -151t213.5 -58h29q125 0 215 66t116 166h144q-22 -152 -158 -250t-332 -98
q-258 0 -403.5 145.5t-145.5 386.5zM256 1167l322 267h157l322 -267h-142l-260 160l-260 -160h-139z" />
    <glyph glyph-name="Cdotaccent" unicode="&#x10a;" horiz-adv-x="1650" 
d="M119 717q0 157 54 293t151.5 234t239.5 154t310 56q280 0 459.5 -132t208.5 -329h-164q-33 151 -166 237.5t-321 86.5h-33q-133 0 -244 -46t-186 -126.5t-116.5 -190.5t-41.5 -237q0 -169 70.5 -305t205.5 -215.5t312 -79.5h33q190 0 322 84t165 239h164
q-31 -206 -211 -333t-457 -127q-229 0 -401.5 95t-263 261.5t-90.5 380.5zM795 1597v175h159v-175h-159z" />
    <glyph glyph-name="cdotaccent" unicode="&#x10b;" horiz-adv-x="1247" 
d="M106 512q0 111 39.5 209t110 169.5t174 112.5t225.5 41q201 0 334.5 -94t155.5 -254h-144q-20 108 -109.5 170t-221.5 62h-29q-123 0 -213.5 -58t-135 -151t-44.5 -207t44.5 -207t135 -151t213.5 -58h29q125 0 215 66t116 166h144q-22 -152 -158 -250t-332 -98
q-258 0 -403.5 145.5t-145.5 386.5zM573 1208v174h160v-174h-160z" />
    <glyph glyph-name="Ccaron" unicode="&#x10c;" horiz-adv-x="1650" 
d="M119 717q0 157 54 293t151.5 234t239.5 154t310 56q280 0 459.5 -132t208.5 -329h-164q-33 151 -166 237.5t-321 86.5h-33q-133 0 -244 -46t-186 -126.5t-116.5 -190.5t-41.5 -237q0 -169 70.5 -305t205.5 -215.5t312 -79.5h33q190 0 322 84t165 239h164
q-31 -206 -211 -333t-457 -127q-229 0 -401.5 95t-263 261.5t-90.5 380.5zM774 1567l-276 256h147l229 -152l230 152h147l-276 -256h-201z" />
    <glyph glyph-name="ccaron" unicode="&#x10d;" horiz-adv-x="1247" 
d="M106 512q0 111 39.5 209t110 169.5t174 112.5t225.5 41q201 0 334.5 -94t155.5 -254h-144q-20 108 -109.5 170t-221.5 62h-29q-123 0 -213.5 -58t-135 -151t-44.5 -207t44.5 -207t135 -151t213.5 -58h29q125 0 215 66t116 166h144q-22 -152 -158 -250t-332 -98
q-258 0 -403.5 145.5t-145.5 386.5zM578 1167l-322 267h141l260 -160l261 160h139l-322 -267h-157z" />
    <glyph glyph-name="Dcaron" unicode="&#x10e;" horiz-adv-x="1693" 
d="M217 0v1434h625q338 0 533.5 -191t195.5 -526t-195.5 -526t-533.5 -191h-625zM367 137h454q281 0 439.5 150t158.5 430q0 279 -158.5 429t-439.5 150h-454v-1159zM713 1567l-277 256h148l229 -152l229 152h148l-277 -256h-200z" />
    <glyph glyph-name="dcaron" unicode="&#x10f;" horiz-adv-x="1437" 
d="M109 512q0 251 149.5 391.5t394.5 140.5q280 0 424 -188v578h140v-1434h-140v164q-66 -87 -179.5 -135.5t-250.5 -48.5q-237 0 -387.5 145t-150.5 387zM641 96h29q179 0 293 112.5t114 303.5t-114 303.5t-293 112.5h-29q-176 0 -283.5 -110.5t-107.5 -305.5t107.5 -305.5
t283.5 -110.5zM1337 1106v76h37q44 0 63 18.5t19 59.5v20h-84v154h168v-174q0 -69 -44.5 -111.5t-117.5 -42.5h-41z" />
    <glyph glyph-name="Dcroat" unicode="&#x110;" horiz-adv-x="1708" 
d="M231 0v1434h625q338 0 533.5 -191t195.5 -526t-195.5 -526t-533.5 -191h-625zM381 137h455q281 0 439.5 150t158.5 430q0 279 -158.5 429t-439.5 150h-455v-1159zM80 653v127h655v-127h-655z" />
    <glyph glyph-name="dcroat" unicode="&#x111;" horiz-adv-x="1394" 
d="M109 512q0 251 149.5 391.5t394.5 140.5q280 0 424 -188v578h140v-1434h-140v164q-66 -87 -179.5 -135.5t-250.5 -48.5q-237 0 -387.5 145t-150.5 387zM641 96h29q179 0 293 112.5t114 303.5t-114 303.5t-293 112.5h-29q-176 0 -283.5 -110.5t-107.5 -305.5t107.5 -305.5
t283.5 -110.5zM651 1180v106h752v-106h-752z" />
    <glyph glyph-name="Emacron" unicode="&#x112;" horiz-adv-x="1531" 
d="M367 137h1056v-137h-1206v1434h1186v-138h-1036v-491h913v-137h-913v-531zM479 1595v117h682v-117h-682z" />
    <glyph glyph-name="emacron" unicode="&#x113;" horiz-adv-x="1249" 
d="M1141 551v-55h-891q6 -190 118.5 -295t268.5 -105h29q110 0 201 55t118 142h143q-28 -141 -159 -227t-316 -86q-158 0 -279.5 60.5t-193 184t-71.5 295.5q0 122 43.5 223t117 166t170.5 100t205 35q223 0 359.5 -136t136.5 -357zM256 612h735q-6 146 -100.5 231
t-231.5 85h-28q-156 0 -253.5 -84t-121.5 -232zM299 1208v113h633v-113h-633z" />
    <glyph glyph-name="Ebreve" unicode="&#x114;" horiz-adv-x="1531" 
d="M367 137h1056v-137h-1206v1434h1186v-138h-1036v-491h913v-137h-913v-531zM465 1843h123q12 -78 70.5 -121t152.5 -43t155 44.5t68 119.5h123q-3 -121 -102 -198.5t-244 -77.5q-144 0 -242 77t-104 199z" />
    <glyph glyph-name="ebreve" unicode="&#x115;" horiz-adv-x="1249" 
d="M1141 551v-55h-891q6 -190 118.5 -295t268.5 -105h29q110 0 201 55t118 142h143q-28 -141 -159 -227t-316 -86q-158 0 -279.5 60.5t-193 184t-71.5 295.5q0 122 43.5 223t117 166t170.5 100t205 35q223 0 359.5 -136t136.5 -357zM256 612h735q-6 146 -100.5 231
t-231.5 85h-28q-156 0 -253.5 -84t-121.5 -232zM291 1456h110q9 -79 77.5 -130.5t168.5 -51.5q99 0 166.5 51t79.5 131h111q-3 -118 -106 -202.5t-251 -84.5q-149 0 -251 84t-105 203z" />
    <glyph glyph-name="Edotaccent" unicode="&#x116;" horiz-adv-x="1531" 
d="M367 137h1056v-137h-1206v1434h1186v-138h-1036v-491h913v-137h-913v-531zM731 1597v175h160v-175h-160z" />
    <glyph glyph-name="edotaccent" unicode="&#x117;" horiz-adv-x="1249" 
d="M1141 551v-55h-891q6 -190 118.5 -295t268.5 -105h29q110 0 201 55t118 142h143q-28 -141 -159 -227t-316 -86q-158 0 -279.5 60.5t-193 184t-71.5 295.5q0 122 43.5 223t117 166t170.5 100t205 35q223 0 359.5 -136t136.5 -357zM256 612h735q-6 146 -100.5 231
t-231.5 85h-28q-156 0 -253.5 -84t-121.5 -232zM565 1208v174h160v-174h-160z" />
    <glyph glyph-name="Eogonek" unicode="&#x118;" horiz-adv-x="1531" 
d="M367 137h1056v-137h-1206v1434h1186v-138h-1036v-491h913v-137h-913v-531zM1126 -240q0 75 63 144t177 116l57 -20q-190 -107 -190 -205q0 -78 125 -78h92v-116h-92q-116 0 -174 41t-58 118z" />
    <glyph glyph-name="eogonek" unicode="&#x119;" horiz-adv-x="1249" 
d="M1141 551v-55h-891q6 -190 118.5 -295t268.5 -105h29q110 0 201 55t118 142h143q-28 -141 -159 -227t-316 -86q-158 0 -279.5 60.5t-193 184t-71.5 295.5q0 122 43.5 223t117 166t170.5 100t205 35q223 0 359.5 -136t136.5 -357zM256 612h735q-6 146 -100.5 231
t-231.5 85h-28q-156 0 -253.5 -84t-121.5 -232zM522 -240q0 75 63 144t177 116l57 -20q-190 -107 -190 -205q0 -78 125 -78h92v-116h-92q-116 0 -174 41t-58 118z" />
    <glyph glyph-name="Ecaron" unicode="&#x11a;" horiz-adv-x="1531" 
d="M367 137h1056v-137h-1206v1434h1186v-138h-1036v-491h913v-137h-913v-531zM711 1567l-277 256h148l229 -152l229 152h148l-277 -256h-200z" />
    <glyph glyph-name="ecaron" unicode="&#x11b;" horiz-adv-x="1249" 
d="M1141 551v-55h-891q6 -190 118.5 -295t268.5 -105h29q110 0 201 55t118 142h143q-28 -141 -159 -227t-316 -86q-158 0 -279.5 60.5t-193 184t-71.5 295.5q0 122 43.5 223t117 166t170.5 100t205 35q223 0 359.5 -136t136.5 -357zM256 612h735q-6 146 -100.5 231
t-231.5 85h-28q-156 0 -253.5 -84t-121.5 -232zM569 1167l-321 267h141l260 -160l260 160h140l-322 -267h-158z" />
    <glyph glyph-name="Gcircumflex" unicode="&#x11c;" horiz-adv-x="1738" 
d="M119 717q0 160 54.5 296t153 233.5t244 152.5t320.5 55q309 0 490 -133.5t196 -347.5h-164q-8 66 -40 125t-90.5 109.5t-155 80t-220.5 29.5h-33q-276 0 -440 -160t-164 -440q0 -279 165 -439.5t439 -160.5h33q254 0 403.5 112t149.5 277v61h-563v138h547q75 0 114 -38
t39 -112v-555h-137v209q-29 -40 -76.5 -77.5t-117 -73t-168 -57t-209.5 -21.5q-177 0 -322 54t-243 151t-151.5 233t-53.5 299zM496 1567l297 256h200l297 -256h-147l-250 153l-250 -153h-147z" />
    <glyph glyph-name="gcircumflex" unicode="&#x11d;" horiz-adv-x="1366" 
d="M80 -143h147q26 -92 126 -141.5t253 -49.5h29q184 0 299 98t115 281v150q-66 -87 -171.5 -141t-248.5 -54q-239 0 -379.5 132.5t-140.5 389.5q0 126 43.5 227t117.5 164.5t167.5 97t197.5 33.5q84 0 153.5 -17t119 -47.5t80.5 -58t61 -63.5v166h139v-995
q0 -211 -148.5 -345.5t-418.5 -134.5q-236 0 -379 84.5t-162 223.5zM625 117h28q159 0 277.5 113t118.5 292t-113.5 292.5t-271.5 113.5h-29q-81 0 -149.5 -24.5t-122 -72.5t-83.5 -127.5t-30 -181.5q0 -202 103 -303.5t272 -101.5zM238 1167l321 267h158l321 -267h-141
l-260 160l-260 -160h-139z" />
    <glyph glyph-name="Gbreve" unicode="&#x11e;" horiz-adv-x="1738" 
d="M119 717q0 160 54.5 296t153 233.5t244 152.5t320.5 55q309 0 490 -133.5t196 -347.5h-164q-8 66 -40 125t-90.5 109.5t-155 80t-220.5 29.5h-33q-276 0 -440 -160t-164 -440q0 -279 165 -439.5t439 -160.5h33q254 0 403.5 112t149.5 277v61h-563v138h547q75 0 114 -38
t39 -112v-555h-137v209q-29 -40 -76.5 -77.5t-117 -73t-168 -57t-209.5 -21.5q-177 0 -322 54t-243 151t-151.5 233t-53.5 299zM547 1843h123q12 -78 70.5 -121t152.5 -43t155 44.5t68 119.5h123q-3 -121 -102 -198.5t-244 -77.5q-144 0 -242 77t-104 199z" />
    <glyph glyph-name="gbreve" unicode="&#x11f;" horiz-adv-x="1366" 
d="M80 -143h147q26 -92 126 -141.5t253 -49.5h29q184 0 299 98t115 281v150q-66 -87 -171.5 -141t-248.5 -54q-239 0 -379.5 132.5t-140.5 389.5q0 126 43.5 227t117.5 164.5t167.5 97t197.5 33.5q84 0 153.5 -17t119 -47.5t80.5 -58t61 -63.5v166h139v-995
q0 -211 -148.5 -345.5t-418.5 -134.5q-236 0 -379 84.5t-162 223.5zM625 117h28q159 0 277.5 113t118.5 292t-113.5 292.5t-271.5 113.5h-29q-81 0 -149.5 -24.5t-122 -72.5t-83.5 -127.5t-30 -181.5q0 -202 103 -303.5t272 -101.5zM281 1456h110q9 -79 77.5 -130.5
t168.5 -51.5q99 0 166.5 51t79.5 131h110q-3 -118 -105.5 -202.5t-250.5 -84.5q-149 0 -251 84t-105 203z" />
    <glyph glyph-name="Gdotaccent" unicode="&#x120;" horiz-adv-x="1738" 
d="M119 717q0 160 54.5 296t153 233.5t244 152.5t320.5 55q309 0 490 -133.5t196 -347.5h-164q-8 66 -40 125t-90.5 109.5t-155 80t-220.5 29.5h-33q-276 0 -440 -160t-164 -440q0 -279 165 -439.5t439 -160.5h33q254 0 403.5 112t149.5 277v61h-563v138h547q75 0 114 -38
t39 -112v-555h-137v209q-29 -40 -76.5 -77.5t-117 -73t-168 -57t-209.5 -21.5q-177 0 -322 54t-243 151t-151.5 233t-53.5 299zM813 1597v175h160v-175h-160z" />
    <glyph glyph-name="gdotaccent" unicode="&#x121;" horiz-adv-x="1366" 
d="M80 -143h147q26 -92 126 -141.5t253 -49.5h29q184 0 299 98t115 281v150q-66 -87 -171.5 -141t-248.5 -54q-239 0 -379.5 132.5t-140.5 389.5q0 126 43.5 227t117.5 164.5t167.5 97t197.5 33.5q84 0 153.5 -17t119 -47.5t80.5 -58t61 -63.5v166h139v-995
q0 -211 -148.5 -345.5t-418.5 -134.5q-236 0 -379 84.5t-162 223.5zM625 117h28q159 0 277.5 113t118.5 292t-113.5 292.5t-271.5 113.5h-29q-81 0 -149.5 -24.5t-122 -72.5t-83.5 -127.5t-30 -181.5q0 -202 103 -303.5t272 -101.5zM555 1208v174h160v-174h-160z" />
    <glyph glyph-name="uni0122" unicode="&#x122;" horiz-adv-x="1738" 
d="M119 717q0 160 54.5 296t153 233.5t244 152.5t320.5 55q309 0 490 -133.5t196 -347.5h-164q-8 66 -40 125t-90.5 109.5t-155 80t-220.5 29.5h-33q-276 0 -440 -160t-164 -440q0 -279 165 -439.5t439 -160.5h33q254 0 403.5 112t149.5 277v61h-563v138h547q75 0 114 -38
t39 -112v-555h-137v209q-29 -40 -76.5 -77.5t-117 -73t-168 -57t-209.5 -21.5q-177 0 -322 54t-243 151t-151.5 233t-53.5 299zM774 -512v76h37q44 0 63 18.5t19 59.5v20h-84v154h168v-174q0 -69 -44.5 -111.5t-117.5 -42.5h-41z" />
    <glyph glyph-name="uni0123" unicode="&#x123;" horiz-adv-x="1366" 
d="M80 -143h147q26 -92 126 -141.5t253 -49.5h29q184 0 299 98t115 281v150q-66 -87 -171.5 -141t-248.5 -54q-239 0 -379.5 132.5t-140.5 389.5q0 126 43.5 227t117.5 164.5t167.5 97t197.5 33.5q84 0 153.5 -17t119 -47.5t80.5 -58t61 -63.5v166h139v-995
q0 -211 -148.5 -345.5t-418.5 -134.5q-236 0 -379 84.5t-162 223.5zM625 117h28q159 0 277.5 113t118.5 292t-113.5 292.5t-271.5 113.5h-29q-81 0 -149.5 -24.5t-122 -72.5t-83.5 -127.5t-30 -181.5q0 -202 103 -303.5t272 -101.5zM758 1550v-75h-37q-44 0 -63 -18.5
t-19 -59.5v-21h84v-153h-168v174q0 69 44.5 111t117.5 42h41z" />
    <glyph glyph-name="Hcircumflex" unicode="&#x124;" horiz-adv-x="1734" 
d="M217 0v1434h150v-648h1001v648h150v-1434h-150v649h-1001v-649h-150zM471 1567l297 256h201l297 -256h-148l-250 153l-250 -153h-147z" />
    <glyph glyph-name="hcircumflex" unicode="&#x125;" horiz-adv-x="1333" 
d="M178 0v1434h139v-588q140 198 422 198q198 0 314 -117t116 -304v-623h-139v573q0 167 -76 261t-223 94h-29q-155 0 -270 -117.5t-115 -294.5v-516h-139zM-152 1536l322 266h158l321 -266h-141l-260 160l-260 -160h-140z" />
    <glyph glyph-name="Hbar" unicode="&#x126;" horiz-adv-x="1792" 
d="M246 0v1434h149v-648h1002v648h149v-1434h-149v649h-1002v-649h-149zM57 1063v127h1678v-127h-1678z" />
    <glyph glyph-name="hbar" unicode="&#x127;" horiz-adv-x="1333" 
d="M178 0v1434h139v-588q140 198 422 198q198 0 314 -117t116 -304v-623h-139v573q0 167 -76 261t-223 94h-29q-155 0 -270 -117.5t-115 -294.5v-516h-139zM-6 1180v106h751v-106h-751z" />
    <glyph glyph-name="Itilde" unicode="&#x128;" horiz-adv-x="583" 
d="M217 0v1434h150v-1434h-150zM287 1636l-70 43q-32 21 -55.5 29t-59.5 8q-106 0 -106 -129h-115v27q0 99 58.5 159t164.5 60q49 0 83 -10.5t79 -36.5l74 -45l22 -15q37 -23 62 -33t59 -10q105 0 105 129h114v-26q0 -100 -57.5 -159.5t-161.5 -59.5q-61 0 -91.5 11.5
t-104.5 57.5z" />
    <glyph glyph-name="itilde" unicode="&#x129;" horiz-adv-x="495" 
d="M178 0v1024h139v-1024h-139zM242 1239l-66 43q-61 39 -115 39q-47 0 -73.5 -34t-26.5 -97h-113v27q0 99 58.5 159t152.5 60q88 0 164 -52l70 -45q6 -2 16 -12q3 -2 9 -5q62 -33 95 -37q11 -1 23 -1q47 0 71.5 34t24.5 97h113v-26q0 -97 -59.5 -158.5t-145.5 -61.5
q-49 0 -94 15t-104 55z" />
    <glyph glyph-name="Imacron" unicode="&#x12a;" horiz-adv-x="583" 
d="M217 0v1434h150v-1434h-150zM-39 1595v117h682v-117h-682z" />
    <glyph glyph-name="imacron" unicode="&#x12b;" horiz-adv-x="495" 
d="M178 0v1024h139v-1024h-139zM-100 1208v113h632v-113h-632z" />
    <glyph glyph-name="Ibreve" unicode="&#x12c;" horiz-adv-x="583" 
d="M217 0v1434h150v-1434h-150zM-53 1843h123q12 -78 70.5 -121t152.5 -43t155 44.5t68 119.5h123q-3 -121 -102 -198.5t-244 -77.5q-144 0 -242 77t-104 199z" />
    <glyph glyph-name="ibreve" unicode="&#x12d;" horiz-adv-x="495" 
d="M178 0v1024h139v-1024h-139zM-109 1456h111q9 -79 77.5 -130.5t168.5 -51.5q99 0 166.5 51t79.5 131h110q-3 -118 -105.5 -202.5t-250.5 -84.5q-149 0 -251.5 84t-105.5 203z" />
    <glyph glyph-name="Iogonek" unicode="&#x12e;" horiz-adv-x="583" 
d="M217 0v1434h150v-1434h-150zM70 -240q0 75 62.5 144t176.5 116l58 -20q-191 -108 -191 -205q0 -78 125 -78h92v-116h-92q-231 0 -231 159z" />
    <glyph glyph-name="iogonek" unicode="&#x12f;" horiz-adv-x="495" 
d="M178 0v1024h139v-1024h-139zM166 1208v174h160v-174h-160zM20 -240q0 75 63 144t177 116l57 -20q-190 -107 -190 -205q0 -78 125 -78h92v-116h-92q-116 0 -174 41t-58 118z" />
    <glyph glyph-name="Idotaccent" unicode="&#x130;" horiz-adv-x="583" 
d="M217 0v1434h150v-1434h-150zM213 1597v175h160v-175h-160z" />
    <glyph glyph-name="dotlessi" unicode="&#x131;" horiz-adv-x="495" 
d="M178 0v1024h139v-1024h-139z" />
    <glyph glyph-name="IJ" unicode="&#x132;" horiz-adv-x="1325" 
d="M162 0v137h583q122 0 174 52t52 173v1072h149v-1096q0 -165 -88 -251.5t-250 -86.5h-620zM162 403v1031h149v-1031h-149z" />
    <glyph glyph-name="ij" unicode="&#x133;" horiz-adv-x="1132" 
d="M170 1208v174h160v-174h-160zM805 1208v174h160v-174h-160zM178 -338v117h514q70 0 96.5 26.5t26.5 96.5v1122h139v-1126q0 -100 -58 -168t-151 -68h-567zM178 0v1024h139v-1024h-139z" />
    <glyph glyph-name="Jcircumflex" unicode="&#x134;" horiz-adv-x="940" 
d="M57 0v137h303q122 0 174 52t52 173v1072h149v-1096q0 -165 -89 -251.5t-249 -86.5h-340zM264 1567l297 256h201l297 -256h-148l-249 153l-250 -153h-148z" />
    <glyph glyph-name="jcircumflex" unicode="&#x135;" horiz-adv-x="516" 
d="M-264 -338v117h340q70 0 96.5 26.5t26.5 96.5v1122h139v-1126q0 -100 -58 -168t-151 -68h-393zM-141 1167l321 267h158l321 -267h-141l-260 160l-260 -160h-139z" />
    <glyph glyph-name="uni0136" unicode="&#x136;" horiz-adv-x="1581" 
d="M1364 0l-659 725l-338 -287v-438h-150v1434h150v-816l952 816h219l-719 -611l752 -823h-207zM743 -512v76h37q44 0 63 18.5t19 59.5v20h-84v154h168v-174q0 -69 -44.5 -111.5t-117.5 -42.5h-41z" />
    <glyph glyph-name="uni0137" unicode="&#x137;" horiz-adv-x="1228" 
d="M1014 0l-473 516l-224 -176v-340h-139v1434h139v-947l658 537h207l-533 -422l559 -602h-194zM510 -512v76h37q44 0 63 18.5t19 59.5v20h-84v154h168v-174q0 -69 -44.5 -111.5t-117.5 -42.5h-41z" />
    <glyph glyph-name="Lacute" unicode="&#x139;" horiz-adv-x="1413" 
d="M217 0v1434h150v-1297h1011v-137h-1161zM256 1567l160 256h192l-221 -256h-131z" />
    <glyph glyph-name="lacute" unicode="&#x13a;" horiz-adv-x="495" 
d="M178 0v1434h139v-1434h-139zM193 1577l157 266h174l-221 -266h-110z" />
    <glyph glyph-name="uni013B" unicode="&#x13b;" horiz-adv-x="1413" 
d="M217 0v1434h150v-1297h1011v-137h-1161zM680 -512v76h37q44 0 63 18.5t19 59.5v20h-84v154h168v-174q0 -69 -44.5 -111.5t-117.5 -42.5h-41z" />
    <glyph glyph-name="uni013C" unicode="&#x13c;" horiz-adv-x="495" 
d="M178 0v1434h139v-1434h-139zM129 -512v76h37q44 0 63 18.5t19 59.5v20h-84v154h168v-174q0 -69 -44.5 -111.5t-117.5 -42.5h-41z" />
    <glyph glyph-name="Lcaron" unicode="&#x13d;" horiz-adv-x="1413" 
d="M217 0v1434h150v-1297h1011v-137h-1161zM702 1106v76h37q44 0 63 18.5t19 59.5v20h-84v154h168v-174q0 -69 -44.5 -111.5t-117.5 -42.5h-41z" />
    <glyph glyph-name="lcaron" unicode="&#x13e;" horiz-adv-x="538" 
d="M178 0v1434h139v-1434h-139zM426 1106v76h37q44 0 63 18.5t19 59.5v20h-84v154h168v-174q0 -69 -44.5 -111.5t-117.5 -42.5h-41z" />
    <glyph glyph-name="Ldot" unicode="&#x13f;" horiz-adv-x="1415" 
d="M217 0v1434h150v-1297h1011v-137h-1161zM823 653v205h205v-205h-205z" />
    <glyph glyph-name="ldot" unicode="&#x140;" horiz-adv-x="643" 
d="M178 0v1434h139v-1434h-139zM467 612v205h205v-205h-205z" />
    <glyph glyph-name="Lslash" unicode="&#x141;" horiz-adv-x="1449" 
d="M254 0v1434h149v-1297h1012v-137h-1161zM68 463v149l878 416v-147z" />
    <glyph glyph-name="lslash" unicode="&#x142;" horiz-adv-x="630" 
d="M250 0v1434h139v-1434h-139zM51 614v140l543 272v-137z" />
    <glyph glyph-name="Nacute" unicode="&#x143;" horiz-adv-x="1728" 
d="M1362 1434h149v-1434h-188l-956 1233v-1233h-150v1434h189l956 -1231v1231zM817 1567l160 256h192l-221 -256h-131z" />
    <glyph glyph-name="nacute" unicode="&#x144;" horiz-adv-x="1333" 
d="M178 0v1024h139v-188q53 90 164 149t258 59q198 0 314 -117t116 -304v-623h-139v573q0 167 -76 261t-223 94h-29q-155 0 -270 -117.5t-115 -294.5v-516h-139zM635 1167l158 267h174l-222 -267h-110z" />
    <glyph glyph-name="uni0145" unicode="&#x145;" horiz-adv-x="1728" 
d="M1362 1434h149v-1434h-188l-956 1233v-1233h-150v1434h189l956 -1231v1231zM745 -512v76h37q44 0 63 18.5t19 59.5v20h-84v154h168v-174q0 -69 -44.5 -111.5t-117.5 -42.5h-41z" />
    <glyph glyph-name="uni0146" unicode="&#x146;" horiz-adv-x="1333" 
d="M178 0v1024h139v-188q53 90 164 149t258 59q198 0 314 -117t116 -304v-623h-139v573q0 167 -76 261t-223 94h-29q-155 0 -270 -117.5t-115 -294.5v-516h-139zM551 -512v76h37q44 0 63 18.5t19 59.5v20h-84v154h168v-174q0 -69 -44.5 -111.5t-117.5 -42.5h-41z" />
    <glyph glyph-name="Ncaron" unicode="&#x147;" horiz-adv-x="1728" 
d="M1362 1434h149v-1434h-188l-956 1233v-1233h-150v1434h189l956 -1231v1231zM764 1567l-277 256h148l229 -152l230 152h147l-276 -256h-201z" />
    <glyph glyph-name="ncaron" unicode="&#x148;" horiz-adv-x="1333" 
d="M178 0v1024h139v-188q53 90 164 149t258 59q198 0 314 -117t116 -304v-623h-139v573q0 167 -76 261t-223 94h-29q-155 0 -270 -117.5t-115 -294.5v-516h-139zM612 1167l-321 267h141l260 -160l260 160h140l-322 -267h-158z" />
    <glyph glyph-name="Eng" unicode="&#x14a;" horiz-adv-x="1728" 
d="M958 -358v137h291q62 0 87.5 23.5t25.5 84.5v66l-995 1280v-1233h-150v1434h189l956 -1233v1233h149v-1557q0 -110 -58 -172.5t-163 -62.5h-332z" />
    <glyph glyph-name="eng" unicode="&#x14b;" horiz-adv-x="1333" 
d="M676 -338v117h252q62 0 82 20.5t20 81.5v692q0 167 -76 261t-223 94h-29q-155 0 -270 -117.5t-115 -294.5v-516h-139v1024h139v-186q50 89 163 147.5t259 58.5q198 0 314 -117t116 -304v-777q0 -88 -45.5 -136t-134.5 -48h-313z" />
    <glyph glyph-name="Omacron" unicode="&#x14c;" horiz-adv-x="1779" 
d="M119 717q-3 218 99 388.5t278.5 261t394.5 87.5q219 3 395 -87.5t277 -260.5t98 -389q0 -220 -100 -389t-274.5 -258.5t-395.5 -89.5t-395.5 89.5t-275.5 258.5t-101 389zM874 117h33q124 0 234 42t191.5 117.5t129 189.5t47.5 251t-47.5 251t-129 189.5t-191.5 117.5
t-234 42h-33q-125 0 -235 -42t-192 -117.5t-129.5 -189.5t-47.5 -251t47.5 -251t129.5 -189.5t192 -117.5t235 -42zM559 1595v117h682v-117h-682z" />
    <glyph glyph-name="omacron" unicode="&#x14d;" horiz-adv-x="1335" 
d="M106 512q0 240 156 386t406 146q248 0 404.5 -146t156.5 -386t-156.5 -386t-404.5 -146q-250 0 -406 146t-156 386zM653 96h29q175 0 290 114t115 302t-115 302t-290 114h-29q-178 0 -291.5 -113.5t-113.5 -302.5t113.5 -302.5t291.5 -113.5zM319 1208v113h633v-113h-633
z" />
    <glyph glyph-name="Obreve" unicode="&#x14e;" horiz-adv-x="1779" 
d="M119 717q-3 218 99 388.5t278.5 261t394.5 87.5q219 3 395 -87.5t277 -260.5t98 -389q0 -220 -100 -389t-274.5 -258.5t-395.5 -89.5t-395.5 89.5t-275.5 258.5t-101 389zM874 117h33q124 0 234 42t191.5 117.5t129 189.5t47.5 251t-47.5 251t-129 189.5t-191.5 117.5
t-234 42h-33q-125 0 -235 -42t-192 -117.5t-129.5 -189.5t-47.5 -251t47.5 -251t129.5 -189.5t192 -117.5t235 -42zM545 1843h123q12 -78 70.5 -121t152.5 -43t155 44.5t68 119.5h123q-3 -121 -102 -198.5t-244 -77.5q-144 0 -242 77t-104 199z" />
    <glyph glyph-name="obreve" unicode="&#x14f;" horiz-adv-x="1335" 
d="M106 512q0 240 156 386t406 146q248 0 404.5 -146t156.5 -386t-156.5 -386t-404.5 -146q-250 0 -406 146t-156 386zM653 96h29q175 0 290 114t115 302t-115 302t-290 114h-29q-178 0 -291.5 -113.5t-113.5 -302.5t113.5 -302.5t291.5 -113.5zM311 1456h111
q9 -79 77.5 -130.5t168.5 -51.5q99 0 166 51t79 131h111q-3 -118 -105.5 -202.5t-250.5 -84.5q-149 0 -251.5 84t-105.5 203z" />
    <glyph glyph-name="Ohungarumlaut" unicode="&#x150;" horiz-adv-x="1779" 
d="M119 717q-3 218 99 388.5t278.5 261t394.5 87.5q219 3 395 -87.5t277 -260.5t98 -389q0 -220 -100 -389t-274.5 -258.5t-395.5 -89.5t-395.5 89.5t-275.5 258.5t-101 389zM874 117h33q124 0 234 42t191.5 117.5t129 189.5t47.5 251t-47.5 251t-129 189.5t-191.5 117.5
t-234 42h-33q-125 0 -235 -42t-192 -117.5t-129.5 -189.5t-47.5 -251t47.5 -251t129.5 -189.5t192 -117.5t235 -42zM618 1567l160 256h193l-221 -256h-132zM1044 1567l160 256h193l-221 -256h-132z" />
    <glyph glyph-name="ohungarumlaut" unicode="&#x151;" horiz-adv-x="1335" 
d="M106 512q0 240 156 386t406 146q248 0 404.5 -146t156.5 -386t-156.5 -386t-404.5 -146q-250 0 -406 146t-156 386zM653 96h29q175 0 290 114t115 302t-115 302t-290 114h-29q-178 0 -291.5 -113.5t-113.5 -302.5t113.5 -302.5t291.5 -113.5zM416 1167l157 267h175
l-222 -267h-110zM803 1167l158 267h174l-222 -267h-110z" />
    <glyph glyph-name="OE" unicode="&#x152;" horiz-adv-x="2826" 
d="M119 717q-3 218 99 388.5t278.5 261t394.5 87.5q198 0 357.5 -75.5t262.5 -217.5v273h1186v-138h-1036v-491h913v-137h-913v-531h1057v-137h-1207v272q-102 -145 -261 -218.5t-359 -73.5q-221 0 -395.5 89.5t-275.5 258.5t-101 389zM874 117h33q124 0 234 42t191.5 117.5
t129 189.5t47.5 251t-47.5 251t-129 189.5t-191.5 117.5t-234 42h-33q-125 0 -235 -42t-192 -117.5t-129.5 -189.5t-47.5 -251t47.5 -251t129.5 -189.5t192 -117.5t235 -42z" />
    <glyph glyph-name="oe" unicode="&#x153;" horiz-adv-x="2205" 
d="M106 512q0 240 155.5 386t404.5 146q164 0 291 -68t196 -192q65 123 185 191.5t264 68.5q223 0 359 -136t136 -357v-55h-870q9 -189 113.5 -294.5t252.5 -105.5h29q110 0 201.5 55t118.5 142h143q-28 -141 -158.5 -227t-316.5 -86q-155 0 -273 66.5t-184 193.5
q-69 -124 -196 -192t-291 -68q-249 0 -404.5 146t-155.5 386zM653 96h29q175 0 290 114t115 302t-115 302t-290 114h-29q-178 0 -291.5 -113.5t-113.5 -302.5t113.5 -302.5t291.5 -113.5zM1233 612h715q-6 146 -100.5 231t-231.5 85h-29q-146 0 -237.5 -83.5t-116.5 -232.5z
" />
    <glyph glyph-name="Racute" unicode="&#x154;" horiz-adv-x="1601" 
d="M217 0v1434h758q194 0 321 -111.5t127 -280.5q0 -130 -65 -224t-162 -126q86 0 142.5 -57t56.5 -154v-481h-150v430q0 99 -38 133.5t-146 34.5h-694v-598h-150zM367 735h577q152 0 240 78.5t88 208.5q0 129 -86.5 201.5t-241.5 72.5h-577v-561zM682 1567l160 256h192
l-221 -256h-131z" />
    <glyph glyph-name="racute" unicode="&#x155;" horiz-adv-x="854" 
d="M178 0v1024h129v-197q43 100 129.5 148.5t225.5 48.5h149v-141h-145q-167 0 -258 -90.5t-91 -257.5v-535h-139zM426 1167l158 267h174l-221 -267h-111z" />
    <glyph glyph-name="uni0156" unicode="&#x156;" horiz-adv-x="1601" 
d="M217 0v1434h758q194 0 321 -111.5t127 -280.5q0 -130 -65 -224t-162 -126q86 0 142.5 -57t56.5 -154v-481h-150v430q0 99 -38 133.5t-146 34.5h-694v-598h-150zM367 735h577q152 0 240 78.5t88 208.5q0 129 -86.5 201.5t-241.5 72.5h-577v-561zM688 -512v76h37
q44 0 63 18.5t19 59.5v20h-84v154h168v-174q0 -69 -44.5 -111.5t-117.5 -42.5h-41z" />
    <glyph glyph-name="uni0157" unicode="&#x157;" horiz-adv-x="854" 
d="M178 0v1024h129v-197q43 100 129.5 148.5t225.5 48.5h149v-141h-145q-167 0 -258 -90.5t-91 -257.5v-535h-139zM139 -512v76h37q44 0 63 18.5t19 59.5v20h-84v154h168v-174q0 -69 -44.5 -111.5t-117.5 -42.5h-41z" />
    <glyph glyph-name="Rcaron" unicode="&#x158;" horiz-adv-x="1601" 
d="M217 0v1434h758q194 0 321 -111.5t127 -280.5q0 -130 -65 -224t-162 -126q86 0 142.5 -57t56.5 -154v-481h-150v430q0 99 -38 133.5t-146 34.5h-694v-598h-150zM367 735h577q152 0 240 78.5t88 208.5q0 129 -86.5 201.5t-241.5 72.5h-577v-561zM629 1567l-277 256h148
l229 -152l229 152h148l-277 -256h-200z" />
    <glyph glyph-name="rcaron" unicode="&#x159;" horiz-adv-x="854" 
d="M178 0v1024h129v-197q43 100 129.5 148.5t225.5 48.5h149v-141h-145q-167 0 -258 -90.5t-91 -257.5v-535h-139zM403 1167l-321 267h141l260 -160l260 160h140l-322 -267h-158z" />
    <glyph glyph-name="Sacute" unicode="&#x15a;" 
d="M92 451h164q6 -163 129.5 -248.5t345.5 -85.5h33q211 0 314.5 68t103.5 194q0 101 -84 161.5t-271 90.5l-223 37q-231 37 -331.5 125t-100.5 260q0 81 36 152t104 127.5t178.5 89t248.5 32.5q276 0 438.5 -117t184.5 -323h-164q-20 146 -135.5 224.5t-306.5 78.5h-33
q-185 0 -292 -72.5t-107 -187.5q0 -99 75.5 -154.5t243.5 -81.5l229 -37q234 -37 347.5 -134.5t113.5 -264.5q0 -190 -151.5 -297.5t-431.5 -107.5q-309 0 -482 121t-176 350zM694 1567l160 256h193l-222 -256h-131z" />
    <glyph glyph-name="sacute" unicode="&#x15b;" horiz-adv-x="1138" 
d="M90 307h143q7 -101 94 -156t222 -55h29q140 0 218 43.5t78 122.5q0 70 -54.5 109.5t-184.5 64.5l-170 33q-166 32 -246 97.5t-80 181.5q0 144 118 220t308 76q220 0 339.5 -85.5t131.5 -241.5h-143q-9 93 -92 152t-223 59h-29q-122 0 -195 -47.5t-73 -116.5
q0 -70 47.5 -101.5t197.5 -62.5l160 -31q163 -31 246.5 -103.5t83.5 -193.5q0 -138 -120 -215t-333 -77q-217 0 -340.5 87t-132.5 240zM508 1167l158 267h174l-222 -267h-110z" />
    <glyph glyph-name="Scircumflex" unicode="&#x15c;" 
d="M92 451h164q6 -163 129.5 -248.5t345.5 -85.5h33q211 0 314.5 68t103.5 194q0 101 -84 161.5t-271 90.5l-223 37q-231 37 -331.5 125t-100.5 260q0 81 36 152t104 127.5t178.5 89t248.5 32.5q276 0 438.5 -117t184.5 -323h-164q-20 146 -135.5 224.5t-306.5 78.5h-33
q-185 0 -292 -72.5t-107 -187.5q0 -99 75.5 -154.5t243.5 -81.5l229 -37q234 -37 347.5 -134.5t113.5 -264.5q0 -190 -151.5 -297.5t-431.5 -107.5q-309 0 -482 121t-176 350zM344 1567l297 256h201l297 -256h-148l-250 153l-249 -153h-148z" />
    <glyph glyph-name="scircumflex" unicode="&#x15d;" horiz-adv-x="1138" 
d="M90 307h143q7 -101 94 -156t222 -55h29q140 0 218 43.5t78 122.5q0 70 -54.5 109.5t-184.5 64.5l-170 33q-166 32 -246 97.5t-80 181.5q0 144 118 220t308 76q220 0 339.5 -85.5t131.5 -241.5h-143q-9 93 -92 152t-223 59h-29q-122 0 -195 -47.5t-73 -116.5
q0 -70 47.5 -101.5t197.5 -62.5l160 -31q163 -31 246.5 -103.5t83.5 -193.5q0 -138 -120 -215t-333 -77q-217 0 -340.5 87t-132.5 240zM164 1167l321 267h158l322 -267h-142l-260 160l-260 -160h-139z" />
    <glyph glyph-name="Scedilla" unicode="&#x15e;" 
d="M92 451h164q6 -163 129.5 -248.5t345.5 -85.5h33q211 0 314.5 68t103.5 194q0 101 -84 161.5t-271 90.5l-223 37q-231 37 -331.5 125t-100.5 260q0 81 36 152t104 127.5t178.5 89t248.5 32.5q276 0 438.5 -117t184.5 -323h-164q-20 146 -135.5 224.5t-306.5 78.5h-33
q-185 0 -292 -72.5t-107 -187.5q0 -99 75.5 -154.5t243.5 -81.5l229 -37q234 -37 347.5 -134.5t113.5 -264.5q0 -190 -151.5 -297.5t-431.5 -107.5q-309 0 -482 121t-176 350zM590 -461v115h155q55 0 87 22t32 64q0 41 -32 62.5t-87 21.5h-59v207h96v-123q78 0 133.5 -49
t55.5 -125q0 -89 -60.5 -142t-167.5 -53h-153z" />
    <glyph glyph-name="scedilla" unicode="&#x15f;" horiz-adv-x="1138" 
d="M90 307h143q7 -101 94 -156t222 -55h29q140 0 218 43.5t78 122.5q0 70 -54.5 109.5t-184.5 64.5l-170 33q-166 32 -246 97.5t-80 181.5q0 144 118 220t308 76q220 0 339.5 -85.5t131.5 -241.5h-143q-9 93 -92 152t-223 59h-29q-122 0 -195 -47.5t-73 -116.5
q0 -70 47.5 -101.5t197.5 -62.5l160 -31q163 -31 246.5 -103.5t83.5 -193.5q0 -138 -120 -215t-333 -77q-217 0 -340.5 87t-132.5 240zM408 -461v115h155q55 0 87 22t32 64q0 41 -32 62.5t-87 21.5h-59v207h96v-123q78 0 133 -49t55 -125q0 -89 -60 -142t-167 -53h-153z" />
    <glyph glyph-name="Scaron" unicode="&#x160;" 
d="M92 451h164q6 -163 129.5 -248.5t345.5 -85.5h33q211 0 314.5 68t103.5 194q0 101 -84 161.5t-271 90.5l-223 37q-231 37 -331.5 125t-100.5 260q0 81 36 152t104 127.5t178.5 89t248.5 32.5q276 0 438.5 -117t184.5 -323h-164q-20 146 -135.5 224.5t-306.5 78.5h-33
q-185 0 -292 -72.5t-107 -187.5q0 -99 75.5 -154.5t243.5 -81.5l229 -37q234 -37 347.5 -134.5t113.5 -264.5q0 -190 -151.5 -297.5t-431.5 -107.5q-309 0 -482 121t-176 350zM641 1567l-276 256h147l229 -152l230 152h147l-276 -256h-201z" />
    <glyph glyph-name="scaron" unicode="&#x161;" horiz-adv-x="1138" 
d="M90 307h143q7 -101 94 -156t222 -55h29q140 0 218 43.5t78 122.5q0 70 -54.5 109.5t-184.5 64.5l-170 33q-166 32 -246 97.5t-80 181.5q0 144 118 220t308 76q220 0 339.5 -85.5t131.5 -241.5h-143q-9 93 -92 152t-223 59h-29q-122 0 -195 -47.5t-73 -116.5
q0 -70 47.5 -101.5t197.5 -62.5l160 -31q163 -31 246.5 -103.5t83.5 -193.5q0 -138 -120 -215t-333 -77q-217 0 -340.5 87t-132.5 240zM485 1167l-321 267h141l260 -160l260 160h140l-322 -267h-158z" />
    <glyph glyph-name="uni0162" unicode="&#x162;" horiz-adv-x="1423" 
d="M637 0v1296h-604v138h1358v-138h-605v-1296h-149zM567 -461v115h156q55 0 87 22t32 64q0 41 -32 62.5t-87 21.5h-59v207h96v-123q78 0 133 -49t55 -125q0 -89 -60 -142t-167 -53h-154z" />
    <glyph glyph-name="uni0163" unicode="&#x163;" horiz-adv-x="872" 
d="M305 231v676h-274v117h274v332h139v-332h340v-117h-340v-647q0 -79 31.5 -111t106.5 -32h247v-117h-313q-102 0 -156.5 60.5t-54.5 170.5zM305 -461v115h156q55 0 87 22t32 64q0 41 -32 62.5t-87 21.5h-60v207h97v-123q78 0 133 -49t55 -125q0 -89 -60 -142t-167 -53
h-154z" />
    <glyph glyph-name="Tcaron" unicode="&#x164;" horiz-adv-x="1423" 
d="M637 0v1296h-604v138h1358v-138h-605v-1296h-149zM612 1567l-276 256h147l230 -152l229 152h148l-277 -256h-201z" />
    <glyph glyph-name="tcaron" unicode="&#x165;" horiz-adv-x="872" 
d="M305 231v676h-274v117h274v332h139v-332h340v-117h-340v-647q0 -79 31.5 -111t106.5 -32h247v-117h-313q-102 0 -156.5 60.5t-54.5 170.5zM799 1106v76h37q44 0 63 18.5t19 59.5v20h-84v154h167v-174q0 -69 -44 -111.5t-117 -42.5h-41z" />
    <glyph glyph-name="Tbar" unicode="&#x166;" horiz-adv-x="1495" 
d="M672 0v1296h-604v138h1357v-138h-604v-1296h-149zM225 713v127h1045v-127h-1045z" />
    <glyph glyph-name="tbar" unicode="&#x167;" horiz-adv-x="911" 
d="M336 231v676h-275v117h275v332h139v-332h340v-117h-340v-647q0 -79 31 -111t106 -32h248v-117h-313q-102 0 -156.5 60.5t-54.5 170.5zM61 512v106h752v-106h-752z" />
    <glyph glyph-name="Utilde" unicode="&#x168;" horiz-adv-x="1617" 
d="M199 565v869h149v-852q0 -227 114 -346t331 -119h32q217 0 331 119t114 346v852h149v-869q0 -272 -159 -428.5t-451 -156.5q-296 0 -453 155t-157 430zM803 1636l-70 43q-32 21 -55.5 29t-59.5 8q-106 0 -106 -129h-115v27q0 99 59 159t165 60q49 0 82.5 -10.5
t78.5 -36.5l74 -45l23 -15q38 -24 62 -33.5t58 -9.5q105 0 105 129h115v-26q0 -100 -58 -159.5t-162 -59.5q-61 0 -91.5 11.5t-104.5 57.5z" />
    <glyph glyph-name="utilde" unicode="&#x169;" horiz-adv-x="1316" 
d="M166 387v637h139v-592q0 -169 69.5 -252.5t217.5 -83.5h29q157 0 267.5 112t110.5 290v526h140v-1024h-140v193q-60 -98 -169 -155.5t-257 -57.5q-194 0 -300.5 109t-106.5 298zM647 1239l-65 43q-61 39 -115 39q-47 0 -73.5 -34t-26.5 -97h-113v27q0 99 58.5 159
t152.5 60q88 0 164 -52l69 -45q7 -3 17 -12q66 -35 94 -40q16 -3 33 -3q47 0 71.5 34t24.5 97h113v-26q0 -97 -59.5 -158.5t-145.5 -61.5q-95 0 -199 70z" />
    <glyph glyph-name="Umacron" unicode="&#x16a;" horiz-adv-x="1617" 
d="M199 565v869h149v-852q0 -227 114 -346t331 -119h32q217 0 331 119t114 346v852h149v-869q0 -272 -159 -428.5t-451 -156.5q-296 0 -453 155t-157 430zM477 1595v117h682v-117h-682z" />
    <glyph glyph-name="umacron" unicode="&#x16b;" horiz-adv-x="1316" 
d="M166 387v637h139v-592q0 -169 69.5 -252.5t217.5 -83.5h29q157 0 267.5 112t110.5 290v526h140v-1024h-140v193q-60 -98 -169 -155.5t-257 -57.5q-194 0 -300.5 109t-106.5 298zM305 1208v113h633v-113h-633z" />
    <glyph glyph-name="Ubreve" unicode="&#x16c;" horiz-adv-x="1617" 
d="M199 565v869h149v-852q0 -227 114 -346t331 -119h32q217 0 331 119t114 346v852h149v-869q0 -272 -159 -428.5t-451 -156.5q-296 0 -453 155t-157 430zM463 1843h123q12 -78 70.5 -121t152.5 -43t155 44.5t68 119.5h123q-3 -121 -102 -198.5t-244 -77.5q-144 0 -242 77
t-104 199z" />
    <glyph glyph-name="ubreve" unicode="&#x16d;" horiz-adv-x="1316" 
d="M166 387v637h139v-592q0 -169 69.5 -252.5t217.5 -83.5h29q157 0 267.5 112t110.5 290v526h140v-1024h-140v193q-60 -98 -169 -155.5t-257 -57.5q-194 0 -300.5 109t-106.5 298zM297 1456h111q9 -79 77 -130.5t168 -51.5q99 0 166.5 51t79.5 131h111q-3 -118 -106 -202.5
t-251 -84.5q-149 0 -251 84t-105 203z" />
    <glyph glyph-name="Uring" unicode="&#x16e;" horiz-adv-x="1617" 
d="M199 565v869h149v-852q0 -227 114 -346t331 -119h32q217 0 331 119t114 346v852h149v-869q0 -272 -159 -428.5t-451 -156.5q-296 0 -453 155t-157 430zM596 1745q0 73 62.5 125.5t148.5 52.5t148.5 -52.5t62.5 -125.5q0 -71 -62.5 -124.5t-148.5 -53.5t-148.5 53.5
t-62.5 124.5zM909 1745q0 37 -28 60.5t-72 23.5q-45 0 -74.5 -23.5t-29.5 -60.5t29.5 -60.5t74.5 -23.5q44 0 72 23.5t28 60.5z" />
    <glyph glyph-name="uring" unicode="&#x16f;" horiz-adv-x="1316" 
d="M166 387v637h139v-592q0 -169 69.5 -252.5t217.5 -83.5h29q157 0 267.5 112t110.5 290v526h140v-1024h-140v193q-60 -98 -169 -155.5t-257 -57.5q-194 0 -300.5 109t-106.5 298zM432 1360q0 75 65.5 132.5t155.5 57.5q89 0 156.5 -58t67.5 -132q0 -78 -67 -134.5
t-157 -56.5q-91 0 -156 56.5t-65 134.5zM770 1360q0 43 -32 69.5t-83 26.5t-83.5 -26.5t-32.5 -69.5t32.5 -69.5t83.5 -26.5t83 26.5t32 69.5z" />
    <glyph glyph-name="Uhungarumlaut" unicode="&#x170;" horiz-adv-x="1617" 
d="M199 565v869h149v-852q0 -227 114 -346t331 -119h32q217 0 331 119t114 346v852h149v-869q0 -272 -159 -428.5t-451 -156.5q-296 0 -453 155t-157 430zM537 1567l159 256h193l-221 -256h-131zM963 1567l159 256h193l-221 -256h-131z" />
    <glyph glyph-name="uhungarumlaut" unicode="&#x171;" horiz-adv-x="1316" 
d="M166 387v637h139v-592q0 -169 69.5 -252.5t217.5 -83.5h29q157 0 267.5 112t110.5 290v526h140v-1024h-140v193q-60 -98 -169 -155.5t-257 -57.5q-194 0 -300.5 109t-106.5 298zM401 1167l158 267h174l-221 -267h-111zM788 1167l158 267h174l-221 -267h-111z" />
    <glyph glyph-name="Uogonek" unicode="&#x172;" horiz-adv-x="1617" 
d="M199 565v869h149v-852q0 -227 114 -346t331 -119h32q217 0 331 119t114 346v852h149v-869q0 -272 -159 -428.5t-451 -156.5q-296 0 -453 155t-157 430zM705 -240q0 75 62.5 144t176.5 116l57 -20q-190 -107 -190 -205q0 -78 125 -78h92v-116h-92q-231 0 -231 159z" />
    <glyph glyph-name="uogonek" unicode="&#x173;" horiz-adv-x="1316" 
d="M166 387v637h139v-592q0 -169 69.5 -252.5t217.5 -83.5h29q157 0 267.5 112t110.5 290v526h140v-1024h-140v193q-60 -98 -169 -155.5t-257 -57.5q-194 0 -300.5 109t-106.5 298zM842 -240q0 75 62.5 144t176.5 116l58 -20q-191 -108 -191 -205q0 -78 125 -78h92v-116h-92
q-231 0 -231 159z" />
    <glyph glyph-name="Wcircumflex" unicode="&#x174;" horiz-adv-x="2127" 
d="M1935 1434h156l-434 -1434h-223l-369 1266l-379 -1266h-223l-420 1434h156l383 -1299l391 1299h198l381 -1307zM670 1567l297 256h200l297 -256h-147l-250 153l-250 -153h-147z" />
    <glyph glyph-name="wcircumflex" unicode="&#x175;" horiz-adv-x="1781" 
d="M1593 1024h150l-383 -1024h-166l-303 850l-305 -850h-164l-383 1024h149l322 -866l311 866h137l326 -881zM492 1167l321 267h158l321 -267h-141l-260 160l-260 -160h-139z" />
    <glyph glyph-name="Ycircumflex" unicode="&#x176;" horiz-adv-x="1427" 
d="M1212 1434h191l-615 -820v-614h-149v614l-614 820h192l500 -672zM319 1567l297 256h201l297 -256h-147l-250 153l-250 -153h-148z" />
    <glyph glyph-name="ycircumflex" unicode="&#x177;" horiz-adv-x="1241" 
d="M117 -338v117h346q61 0 83.5 23t22.5 83v187l-522 952h160l432 -793l422 793h156l-508 -944v-209q0 -209 -209 -209h-383zM233 1167l322 267h158l321 -267h-141l-260 160l-260 -160h-140z" />
    <glyph glyph-name="Ydieresis" unicode="&#x178;" horiz-adv-x="1427" 
d="M1212 1434h191l-615 -820v-614h-149v614l-614 820h192l500 -672zM399 1597v164h172v-164h-172zM821 1597v164h172v-164h-172z" />
    <glyph glyph-name="Zacute" unicode="&#x179;" horiz-adv-x="1394" 
d="M295 137h1012v-137h-1219v131l991 1165h-970v138h1177v-131zM651 1567l160 256h193l-222 -256h-131z" />
    <glyph glyph-name="zacute" unicode="&#x17a;" horiz-adv-x="1116" 
d="M274 121h760v-121h-944v123l729 780h-719v121h904v-123zM508 1167l158 267h174l-222 -267h-110z" />
    <glyph glyph-name="Zdotaccent" unicode="&#x17b;" horiz-adv-x="1394" 
d="M295 137h1012v-137h-1219v131l991 1165h-970v138h1177v-131zM618 1597v175h160v-175h-160z" />
    <glyph glyph-name="zdotaccent" unicode="&#x17c;" horiz-adv-x="1116" 
d="M274 121h760v-121h-944v123l729 780h-719v121h904v-123zM481 1208v174h160v-174h-160z" />
    <glyph glyph-name="Zcaron" unicode="&#x17d;" horiz-adv-x="1394" 
d="M295 137h1012v-137h-1219v131l991 1165h-970v138h1177v-131zM598 1567l-276 256h147l229 -152l230 152h147l-276 -256h-201z" />
    <glyph glyph-name="zcaron" unicode="&#x17e;" horiz-adv-x="1116" 
d="M274 121h760v-121h-944v123l729 780h-719v121h904v-123zM485 1167l-321 267h141l260 -160l260 160h140l-322 -267h-158z" />
    <glyph glyph-name="florin" unicode="&#x192;" horiz-adv-x="962" 
d="M551 1055l-23 -144h326v-127h-344l-127 -823q-32 -200 -110 -285.5t-246 -85.5h-150v138h133q62 0 101.5 12t65.5 42.5t39.5 73t25.5 113.5l125 815h-265v127h285l23 150q34 209 111.5 291t246.5 82h143v-138h-133q-60 0 -98.5 -12t-64 -42.5t-39 -73t-25.5 -113.5z" />
    <glyph glyph-name="uni01E2" unicode="&#x1e2;" horiz-adv-x="2334" 
d="M1417 137h850v-137h-981l-55 393h-782l-285 -393h-182l1040 1434h1122v-138h-891l70 -491h760v-137h-742zM547 530h663l-108 768zM1141 1595v117h682v-117h-682z" />
    <glyph glyph-name="uni01E3" unicode="&#x1e3;" horiz-adv-x="2058" 
d="M102 285q0 143 102.5 220.5t282.5 88.5l431 24v41q0 129 -83 199t-233 70h-33q-117 0 -200 -53t-95 -138h-143q15 133 142 220t313 87q320 0 426 -213q73 103 189 158t253 55q223 0 359.5 -136t136.5 -357v-55h-893q9 -189 120.5 -294.5t268.5 -105.5h29q110 0 201 55
t118 142h143q-28 -141 -159 -227t-316 -86q-160 0 -282 62.5t-189 182.5q-69 -119 -194 -182t-303 -63q-185 0 -288.5 84t-103.5 221zM1063 612h737q-6 146 -100.5 231t-231.5 85h-28q-154 0 -253 -85.5t-124 -230.5zM508 96h29q94 0 180 37.5t143.5 112t57.5 168.5v90
l-365 -19q-164 -10 -236.5 -56.5t-72.5 -135.5q0 -94 66 -145.5t198 -51.5zM680 1208v113h633v-113h-633z" />
    <glyph glyph-name="Aringacute" unicode="&#x1fa;" horiz-adv-x="1591" 
d="M1419 0l-190 393h-873l-190 -393h-156l701 1434h172l698 -1434h-162zM424 530h737l-368 762zM750 1976l84 181h151l-127 -181h-108zM586 1745q0 73 62.5 125.5t148.5 52.5t148.5 -52.5t62.5 -125.5q0 -71 -62.5 -124.5t-148.5 -53.5t-148.5 53.5t-62.5 124.5zM899 1745
q0 37 -28.5 60.5t-71.5 23.5q-47 0 -76 -23.5t-29 -60.5t29 -60.5t76 -23.5q43 0 71.5 23.5t28.5 60.5z" />
    <glyph glyph-name="aringacute" unicode="&#x1fb;" horiz-adv-x="1224" 
d="M102 285q0 144 101 221t284 88l431 24v41q0 129 -83 199t-233 70h-33q-117 0 -200 -53t-95 -138h-143q15 133 142 220t313 87q222 0 346.5 -107t124.5 -282v-430q0 -107 14 -225h-129q-14 82 -14 166q-49 -78 -165.5 -132t-268.5 -54q-185 0 -288.5 84t-103.5 221z
M508 96h29q94 0 180 37.5t143.5 112t57.5 168.5v90l-365 -19q-163 -10 -236 -57t-73 -135q0 -94 66 -145.5t198 -51.5zM559 1614l117 266h170l-180 -266h-107zM389 1360q0 75 65.5 132.5t155.5 57.5q89 0 156.5 -58t67.5 -132q0 -78 -67 -134.5t-157 -56.5q-91 0 -156 56.5
t-65 134.5zM727 1360q0 43 -32 69.5t-83 26.5t-83.5 -26.5t-32.5 -69.5t32.5 -69.5t83.5 -26.5t83 26.5t32 69.5z" />
    <glyph glyph-name="AEacute" unicode="&#x1fc;" horiz-adv-x="2334" 
d="M1417 137h850v-137h-981l-55 393h-782l-285 -393h-182l1040 1434h1122v-138h-891l70 -491h760v-137h-742zM547 530h663l-108 768zM1425 1567l160 256h193l-222 -256h-131z" />
    <glyph glyph-name="aeacute" unicode="&#x1fd;" horiz-adv-x="2058" 
d="M102 285q0 143 102.5 220.5t282.5 88.5l431 24v41q0 129 -83 199t-233 70h-33q-117 0 -200 -53t-95 -138h-143q15 133 142 220t313 87q320 0 426 -213q73 103 189 158t253 55q223 0 359.5 -136t136.5 -357v-55h-893q9 -189 120.5 -294.5t268.5 -105.5h29q110 0 201 55
t118 142h143q-28 -141 -159 -227t-316 -86q-160 0 -282 62.5t-189 182.5q-69 -119 -194 -182t-303 -63q-185 0 -288.5 84t-103.5 221zM1063 612h737q-6 146 -100.5 231t-231.5 85h-28q-154 0 -253 -85.5t-124 -230.5zM508 96h29q94 0 180 37.5t143.5 112t57.5 168.5v90
l-365 -19q-164 -10 -236.5 -56.5t-72.5 -135.5q0 -94 66 -145.5t198 -51.5zM973 1167l157 267h175l-222 -267h-110z" />
    <glyph glyph-name="Oslashacute" unicode="&#x1fe;" horiz-adv-x="1798" 
d="M129 717q-3 218 99 388.5t278.5 261t394.5 87.5q219 3 395 -87.5t277 -260.5t98 -389q0 -220 -100 -389t-274.5 -258.5t-395.5 -89.5t-395.5 89.5t-275.5 258.5t-101 389zM885 117h33q124 0 234 42t191.5 117.5t129 189.5t47.5 251t-47.5 251t-129 189.5t-191.5 117.5
t-234 42h-33q-125 0 -235 -42t-192 -117.5t-129.5 -189.5t-47.5 -251t47.5 -251t129.5 -189.5t192 -117.5t235 -42zM227 -47l-94 100l1430 1436l94 -100zM854 1567l160 256h192l-221 -256h-131z" />
    <glyph glyph-name="oslashacute" unicode="&#x1ff;" horiz-adv-x="1341" 
d="M109 512q0 240 155.5 386t405.5 146q248 0 404.5 -146t156.5 -386t-156.5 -386t-404.5 -146q-250 0 -405.5 146t-155.5 386zM655 96h29q176 0 291 114t115 302t-115 302t-291 114h-29q-178 0 -291.5 -113.5t-113.5 -302.5t113.5 -302.5t291.5 -113.5zM236 -49l-84 82
l970 1038l84 -82zM614 1167l158 267h174l-221 -267h-111z" />
    <glyph glyph-name="uni0218" unicode="&#x218;" 
d="M92 451h164q6 -163 129.5 -248.5t345.5 -85.5h33q211 0 314.5 68t103.5 194q0 101 -84 161.5t-271 90.5l-223 37q-231 37 -331.5 125t-100.5 260q0 81 36 152t104 127.5t178.5 89t248.5 32.5q276 0 438.5 -117t184.5 -323h-164q-20 146 -135.5 224.5t-306.5 78.5h-33
q-185 0 -292 -72.5t-107 -187.5q0 -99 75.5 -154.5t243.5 -81.5l229 -37q234 -37 347.5 -134.5t113.5 -264.5q0 -190 -151.5 -297.5t-431.5 -107.5q-309 0 -482 121t-176 350zM616 -512v76h37q44 0 63 18.5t19 59.5v20h-84v154h168v-174q0 -69 -44.5 -111.5t-117.5 -42.5
h-41z" />
    <glyph glyph-name="uni0219" unicode="&#x219;" horiz-adv-x="1138" 
d="M90 307h143q7 -101 94 -156t222 -55h29q140 0 218 43.5t78 122.5q0 70 -54.5 109.5t-184.5 64.5l-170 33q-166 32 -246 97.5t-80 181.5q0 144 118 220t308 76q220 0 339.5 -85.5t131.5 -241.5h-143q-9 93 -92 152t-223 59h-29q-122 0 -195 -47.5t-73 -116.5
q0 -70 47.5 -101.5t197.5 -62.5l160 -31q163 -31 246.5 -103.5t83.5 -193.5q0 -138 -120 -215t-333 -77q-217 0 -340.5 87t-132.5 240zM434 -512v76h37q44 0 63 18.5t19 59.5v20h-84v154h168v-174q0 -69 -44.5 -111.5t-117.5 -42.5h-41z" />
    <glyph glyph-name="uni021A" unicode="&#x21a;" horiz-adv-x="1423" 
d="M637 0v1296h-604v138h1358v-138h-605v-1296h-149zM594 -512v76h37q44 0 63 18.5t19 59.5v20h-84v154h168v-174q0 -69 -44.5 -111.5t-117.5 -42.5h-41z" />
    <glyph glyph-name="uni021B" unicode="&#x21b;" horiz-adv-x="872" 
d="M305 231v676h-274v117h274v332h139v-332h340v-117h-340v-647q0 -79 31.5 -111t106.5 -32h247v-117h-313q-102 0 -156.5 60.5t-54.5 170.5zM332 -512v76h37q44 0 63 18.5t19 59.5v20h-84v154h168v-174q0 -69 -44.5 -111.5t-117.5 -42.5h-41z" />
    <glyph glyph-name="uni0226" unicode="&#x226;" horiz-adv-x="1591" 
d="M1419 0l-190 393h-873l-190 -393h-156l701 1434h172l698 -1434h-162zM424 530h737l-368 762zM717 1597v175h160v-175h-160z" />
    <glyph glyph-name="uni0227" unicode="&#x227;" horiz-adv-x="1224" 
d="M102 285q0 144 101 221t284 88l431 24v41q0 129 -83 199t-233 70h-33q-117 0 -200 -53t-95 -138h-143q15 133 142 220t313 87q222 0 346.5 -107t124.5 -282v-430q0 -107 14 -225h-129q-14 82 -14 166q-49 -78 -165.5 -132t-268.5 -54q-185 0 -288.5 84t-103.5 221z
M508 96h29q94 0 180 37.5t143.5 112t57.5 168.5v90l-365 -19q-163 -10 -236 -57t-73 -135q0 -94 66 -145.5t198 -51.5zM524 1208v174h160v-174h-160z" />
    <glyph glyph-name="uni0232" unicode="&#x232;" horiz-adv-x="1427" 
d="M1212 1434h191l-615 -820v-614h-149v614l-614 820h192l500 -672zM385 1595v117h682v-117h-682z" />
    <glyph glyph-name="uni0233" unicode="&#x233;" horiz-adv-x="1241" 
d="M117 -338v117h346q61 0 83.5 23t22.5 83v187l-522 952h160l432 -793l422 793h156l-508 -944v-209q0 -209 -209 -209h-383zM285 1208v113h633v-113h-633z" />
    <glyph glyph-name="uni0237" unicode="&#x237;" horiz-adv-x="516" 
d="M-264 -338v117h340q70 0 96.5 26.5t26.5 96.5v1122h139v-1126q0 -100 -58 -168t-151 -68h-393z" />
    <glyph glyph-name="circumflex" unicode="&#x2c6;" horiz-adv-x="890" 
d="M45 1167l322 267h157l322 -267h-141l-261 160l-260 -160h-139z" />
    <glyph glyph-name="caron" unicode="&#x2c7;" horiz-adv-x="923" 
d="M383 1167l-322 267h142l260 -160l260 160h139l-321 -267h-158z" />
    <glyph glyph-name="breve" unicode="&#x2d8;" horiz-adv-x="802" 
d="M45 1456h111q9 -79 77 -130.5t168 -51.5q99 0 166.5 51t79.5 131h111q-3 -118 -106 -202.5t-251 -84.5q-149 0 -251 84t-105 203z" />
    <glyph glyph-name="dotaccent" unicode="&#x2d9;" horiz-adv-x="278" 
d="M59 1208v174h160v-174h-160z" />
    <glyph glyph-name="ring" unicode="&#x2da;" horiz-adv-x="563" 
d="M59 1360q0 74 66 132t156 58q89 0 156 -58t67 -132q0 -78 -66.5 -134.5t-156.5 -56.5q-91 0 -156.5 56.5t-65.5 134.5zM397 1360q0 43 -31.5 69.5t-82.5 26.5t-84 -26.5t-33 -69.5t33 -69.5t84 -26.5t82.5 26.5t31.5 69.5z" />
    <glyph glyph-name="ogonek" unicode="&#x2db;" horiz-adv-x="442" 
d="M57 -240q0 75 63 144t177 116l57 -20q-190 -107 -190 -205q0 -78 125 -78h92v-116h-92q-116 0 -174 41t-58 118z" />
    <glyph glyph-name="tilde" unicode="&#x2dc;" horiz-adv-x="894" 
d="M442 1239l-65 43q-61 39 -115 39q-47 0 -73.5 -34t-26.5 -97h-113v27q0 99 58.5 159t152.5 60q88 0 164 -52l70 -45q6 -2 16 -12q66 -35 94 -40q16 -3 33 -3q47 0 71.5 34t24.5 97h113v-26q0 -97 -59.5 -158.5t-145.5 -61.5q-95 0 -199 70z" />
    <glyph glyph-name="hungarumlaut" unicode="&#x2dd;" horiz-adv-x="860" 
d="M70 1167l157 267h174l-221 -267h-110zM457 1167l157 267h174l-221 -267h-110z" />
    <glyph glyph-name="gravecomb" unicode="&#x300;" horiz-adv-x="0" 
d="M-164 1167l-221 267h174l158 -267h-111z" />
    <glyph glyph-name="acutecomb" unicode="&#x301;" horiz-adv-x="0" 
d="M-387 1167l158 267h174l-221 -267h-111z" />
    <glyph glyph-name="uni0302" unicode="&#x302;" horiz-adv-x="0" 
d="M-846 1167l322 267h157l322 -267h-141l-260 160l-261 -160h-139z" />
    <glyph glyph-name="tildecomb" unicode="&#x303;" horiz-adv-x="0" 
d="M-453 1239l-65 43q-61 39 -115 39q-47 0 -73.5 -34t-26.5 -97h-113v27q0 99 58.5 159t152.5 60q88 0 164 -52l70 -45q6 -2 16 -12q3 -2 9 -5q62 -33 95 -37q11 -1 23 -1q47 0 71.5 34t24.5 97h113v-26q0 -97 -59.5 -158.5t-145.5 -61.5q-95 0 -199 70z" />
    <glyph glyph-name="uni0304" unicode="&#x304;" horiz-adv-x="0" 
d="M-694 1208v113h633v-113h-633z" />
    <glyph glyph-name="uni0306" unicode="&#x306;" horiz-adv-x="0" 
d="M-758 1456h111q9 -79 77.5 -130.5t168.5 -51.5q99 0 166 51t79 131h111q-3 -118 -105.5 -202.5t-250.5 -84.5q-149 0 -251.5 84t-105.5 203z" />
    <glyph glyph-name="uni0307" unicode="&#x307;" horiz-adv-x="0" 
d="M-219 1208v174h160v-174h-160z" />
    <glyph glyph-name="uni0308" unicode="&#x308;" horiz-adv-x="0" 
d="M-662 1208v164h158v-164h-158zM-217 1208v164h158v-164h-158z" />
    <glyph glyph-name="uni030A" unicode="&#x30a;" horiz-adv-x="0" 
d="M-504 1360q0 75 65.5 132.5t155.5 57.5q89 0 156.5 -58t67.5 -132q0 -78 -67 -134.5t-157 -56.5q-91 0 -156 56.5t-65 134.5zM-166 1360q0 43 -32 69.5t-83 26.5t-83.5 -26.5t-32.5 -69.5t32.5 -69.5t83.5 -26.5t83 26.5t32 69.5z" />
    <glyph glyph-name="uni030B" unicode="&#x30b;" horiz-adv-x="0" 
d="M-791 1167l158 267h174l-221 -267h-111zM-403 1167l157 267h174l-221 -267h-110z" />
    <glyph glyph-name="uni030C" unicode="&#x30c;" horiz-adv-x="0" 
d="M-541 1167l-321 267h141l260 -160l260 160h140l-322 -267h-158z" />
    <glyph glyph-name="uni0312" unicode="&#x312;" horiz-adv-x="0" 
d="M8 1550v-75h-37q-44 0 -63 -18.5t-19 -59.5v-21h84v-153h-168v174q0 69 44.5 111t117.5 42h41z" />
    <glyph glyph-name="dotbelowcomb" unicode="&#x323;" horiz-adv-x="0" 
d="M-219 -338v154h158v-154h-158z" />
    <glyph glyph-name="uni0326" unicode="&#x326;" horiz-adv-x="0" 
d="M-264 -512v76h37q44 0 63 18.5t19 59.5v20h-84v154h168v-174q0 -69 -44.5 -111.5t-117.5 -42.5h-41z" />
    <glyph glyph-name="uni0327" unicode="&#x327;" horiz-adv-x="0" 
d="M-434 -461v115h155q55 0 87 22t32 64q0 41 -32 62.5t-87 21.5h-59v207h96v-123q78 0 133.5 -49t55.5 -125q0 -89 -60.5 -142t-167.5 -53h-153z" />
    <glyph glyph-name="uni0328" unicode="&#x328;" horiz-adv-x="0" 
d="M-385 -240q0 75 63 144t177 116l57 -20q-191 -108 -191 -205q0 -78 125 -78h93v-116h-93q-231 0 -231 159z" />
    <glyph glyph-name="uni0335" unicode="&#x335;" horiz-adv-x="0" 
d="M-1106 715v127h1045v-127h-1045z" />
    <glyph glyph-name="uni0336" unicode="&#x336;" horiz-adv-x="0" 
d="M-1739 1063v127h1678v-127h-1678z" />
    <glyph glyph-name="uni0337" unicode="&#x337;" horiz-adv-x="0" 
d="M-604 614v140l543 272v-137z" />
    <glyph glyph-name="uni0338" unicode="&#x338;" horiz-adv-x="0" 
d="M-1491 -47l-94 100l1429 1436l95 -100z" />
    <glyph glyph-name="uni0394" unicode="&#x394;" horiz-adv-x="1544" 
d="M858 1434l641 -1307v-127h-1454v127l639 1307h174zM770 1300l-559 -1163h1120z" />
    <glyph glyph-name="uni03A9" unicode="&#x3a9;" horiz-adv-x="1845" 
d="M162 0v137h276q-134 92 -210 249t-76 341q-3 214 99 382t278.5 257.5t394.5 87.5q217 2 393.5 -87.5t278.5 -257.5t98 -382q0 -184 -76 -341t-211 -249h276v-137h-555v137q182 43 298 205t116 385q2 128 -47.5 241t-133 189t-194 119t-227.5 41h-33q-166 0 -303 -71.5
t-219 -207.5t-82 -311q0 -226 113.5 -386.5t300.5 -203.5v-137h-555z" />
    <glyph glyph-name="uni03BC" unicode="&#x3bc;" horiz-adv-x="1329" 
d="M178 -410v1434h133v-635q0 -297 318 -297h20q149 0 259 106t110 273v553h133v-1024h-133v193q-47 -103 -154.5 -158t-259.5 -55q-181 0 -293 86v-476h-133z" />
    <glyph glyph-name="pi" unicode="&#x3c0;" horiz-adv-x="1558" 
d="M311 0v907h-274v117h1423v-117h-276v-692q0 -51 22.5 -74.5t69.5 -23.5h184v-117h-194q-219 0 -219 215v692h-598v-907h-138z" />
    <glyph glyph-name="Wgrave" unicode="&#x1e80;" horiz-adv-x="2127" 
d="M1935 1434h156l-434 -1434h-223l-369 1266l-379 -1266h-223l-420 1434h156l383 -1299l391 1299h198l381 -1307zM1012 1567l-221 256h192l160 -256h-131z" />
    <glyph glyph-name="wgrave" unicode="&#x1e81;" horiz-adv-x="1781" 
d="M1593 1024h150l-383 -1024h-166l-303 850l-305 -850h-164l-383 1024h149l322 -866l311 866h137l326 -881zM836 1167l-222 267h174l158 -267h-110z" />
    <glyph glyph-name="Wacute" unicode="&#x1e82;" horiz-adv-x="2127" 
d="M1935 1434h156l-434 -1434h-223l-369 1266l-379 -1266h-223l-420 1434h156l383 -1299l391 1299h198l381 -1307zM1020 1567l160 256h192l-221 -256h-131z" />
    <glyph glyph-name="wacute" unicode="&#x1e83;" horiz-adv-x="1781" 
d="M1593 1024h150l-383 -1024h-166l-303 850l-305 -850h-164l-383 1024h149l322 -866l311 866h137l326 -881zM836 1167l157 267h174l-221 -267h-110z" />
    <glyph glyph-name="Wdieresis" unicode="&#x1e84;" horiz-adv-x="2127" 
d="M1935 1434h156l-434 -1434h-223l-369 1266l-379 -1266h-223l-420 1434h156l383 -1299l391 1299h198l381 -1307zM750 1597v164h172v-164h-172zM1171 1597v164h172v-164h-172z" />
    <glyph glyph-name="wdieresis" unicode="&#x1e85;" horiz-adv-x="1781" 
d="M1593 1024h150l-383 -1024h-166l-303 850l-305 -850h-164l-383 1024h149l322 -866l311 866h137l326 -881zM590 1208v164h158v-164h-158zM1034 1208v164h158v-164h-158z" />
    <glyph glyph-name="uni1E9E" unicode="&#x1e9e;" horiz-adv-x="1552" 
d="M1438 391q0 -173 -128 -282t-315 -109h-391v137h350q158 0 245 68.5t87 200.5q0 115 -90.5 183t-241.5 68h-350v138h281q140 0 223.5 68.5t83.5 183.5q0 118 -82.5 183.5t-224.5 65.5h-518v-1296h-150v1434h696q187 0 308.5 -103t121.5 -274q0 -101 -50.5 -181.5
t-133.5 -123.5q121 -29 200 -127t79 -234z" />
    <glyph glyph-name="uni1EA0" unicode="&#x1ea0;" horiz-adv-x="1591" 
d="M1419 0l-190 393h-873l-190 -393h-156l701 1434h172l698 -1434h-162zM424 530h737l-368 762zM713 -338v154h157v-154h-157z" />
    <glyph glyph-name="uni1EA1" unicode="&#x1ea1;" horiz-adv-x="1224" 
d="M102 285q0 144 101 221t284 88l431 24v41q0 129 -83 199t-233 70h-33q-117 0 -200 -53t-95 -138h-143q15 133 142 220t313 87q222 0 346.5 -107t124.5 -282v-430q0 -107 14 -225h-129q-14 82 -14 166q-49 -78 -165.5 -132t-268.5 -54q-185 0 -288.5 84t-103.5 221z
M508 96h29q94 0 180 37.5t143.5 112t57.5 168.5v90l-365 -19q-163 -10 -236 -57t-73 -135q0 -94 66 -145.5t198 -51.5zM506 -338v154h158v-154h-158z" />
    <glyph glyph-name="uni1EB8" unicode="&#x1eb8;" horiz-adv-x="1531" 
d="M367 137h1056v-137h-1206v1434h1186v-138h-1036v-491h913v-137h-913v-531zM741 -338v154h158v-154h-158z" />
    <glyph glyph-name="uni1EB9" unicode="&#x1eb9;" horiz-adv-x="1249" 
d="M1141 551v-55h-891q6 -190 118.5 -295t268.5 -105h29q110 0 201 55t118 142h143q-28 -141 -159 -227t-316 -86q-158 0 -279.5 60.5t-193 184t-71.5 295.5q0 122 43.5 223t117 166t170.5 100t205 35q223 0 359.5 -136t136.5 -357zM256 612h735q-6 146 -100.5 231
t-231.5 85h-28q-156 0 -253.5 -84t-121.5 -232zM569 -338v154h158v-154h-158z" />
    <glyph glyph-name="uni1ECA" unicode="&#x1eca;" horiz-adv-x="583" 
d="M217 0v1434h150v-1434h-150zM213 -338v154h158v-154h-158z" />
    <glyph glyph-name="uni1ECB" unicode="&#x1ecb;" horiz-adv-x="495" 
d="M178 0v1024h139v-1024h-139zM166 1208v174h160v-174h-160zM168 -338v154h158v-154h-158z" />
    <glyph glyph-name="uni1ECC" unicode="&#x1ecc;" horiz-adv-x="1779" 
d="M119 717q-3 218 99 388.5t278.5 261t394.5 87.5q219 3 395 -87.5t277 -260.5t98 -389q0 -220 -100 -389t-274.5 -258.5t-395.5 -89.5t-395.5 89.5t-275.5 258.5t-101 389zM874 117h33q124 0 234 42t191.5 117.5t129 189.5t47.5 251t-47.5 251t-129 189.5t-191.5 117.5
t-234 42h-33q-125 0 -235 -42t-192 -117.5t-129.5 -189.5t-47.5 -251t47.5 -251t129.5 -189.5t192 -117.5t235 -42zM811 -338v154h158v-154h-158z" />
    <glyph glyph-name="uni1ECD" unicode="&#x1ecd;" horiz-adv-x="1335" 
d="M106 512q0 240 156 386t406 146q248 0 404.5 -146t156.5 -386t-156.5 -386t-404.5 -146q-250 0 -406 146t-156 386zM653 96h29q175 0 290 114t115 302t-115 302t-290 114h-29q-178 0 -291.5 -113.5t-113.5 -302.5t113.5 -302.5t291.5 -113.5zM590 -338v154h158v-154h-158
z" />
    <glyph glyph-name="uni1EE4" unicode="&#x1ee4;" horiz-adv-x="1617" 
d="M199 565v869h149v-852q0 -227 114 -346t331 -119h32q217 0 331 119t114 346v852h149v-869q0 -272 -159 -428.5t-451 -156.5q-296 0 -453 155t-157 430zM729 -338v154h158v-154h-158z" />
    <glyph glyph-name="uni1EE5" unicode="&#x1ee5;" horiz-adv-x="1316" 
d="M166 387v637h139v-592q0 -169 69.5 -252.5t217.5 -83.5h29q157 0 267.5 112t110.5 290v526h140v-1024h-140v193q-60 -98 -169 -155.5t-257 -57.5q-194 0 -300.5 109t-106.5 298zM580 -338v154h157v-154h-157z" />
    <glyph glyph-name="Ygrave" unicode="&#x1ef2;" horiz-adv-x="1427" 
d="M1212 1434h191l-615 -820v-614h-149v614l-614 820h192l500 -672zM662 1567l-222 256h193l160 -256h-131z" />
    <glyph glyph-name="ygrave" unicode="&#x1ef3;" horiz-adv-x="1241" 
d="M117 -338v117h346q61 0 83.5 23t22.5 83v187l-522 952h160l432 -793l422 793h156l-508 -944v-209q0 -209 -209 -209h-383zM578 1167l-222 267h174l158 -267h-110z" />
    <glyph glyph-name="uni2002" unicode="&#x2002;" horiz-adv-x="1024" 
 />
    <glyph glyph-name="uni2003" unicode="&#x2003;" horiz-adv-x="2048" 
 />
    <glyph glyph-name="uni2009" unicode="&#x2009;" horiz-adv-x="256" 
 />
    <glyph glyph-name="uni200A" unicode="&#x200a;" horiz-adv-x="153" 
 />
    <glyph glyph-name="endash" unicode="&#x2013;" horiz-adv-x="1355" 
d="M156 563v113h1044v-113h-1044z" />
    <glyph glyph-name="emdash" unicode="&#x2014;" horiz-adv-x="2134" 
d="M156 563v113h1822v-113h-1822z" />
    <glyph glyph-name="quoteleft" unicode="&#x2018;" horiz-adv-x="552" 
d="M430 1382v-90h-78q-98 0 -98 -98v-47h115v-205h-215v246q0 92 51 143t143 51h82z" />
    <glyph glyph-name="quoteright" unicode="&#x2019;" horiz-adv-x="550" 
d="M137 952v90h78q98 0 98 99v47h-114v205h215v-246q0 -92 -51.5 -143.5t-143.5 -51.5h-82z" />
    <glyph glyph-name="quotesinglbase" unicode="&#x201a;" horiz-adv-x="534" 
d="M100 -236v91h78q98 0 98 98v47h-114v205h215v-246q0 -92 -51.5 -143.5t-143.5 -51.5h-82z" />
    <glyph glyph-name="quotedblleft" unicode="&#x201c;" horiz-adv-x="995" 
d="M872 1382v-90h-77q-99 0 -99 -98v-47h115v-205h-215v246q0 92 51.5 143t143.5 51h81zM430 1382v-90h-78q-98 0 -98 -98v-47h115v-205h-215v246q0 93 50.5 143.5t143.5 50.5h82z" />
    <glyph glyph-name="quotedblright" unicode="&#x201d;" horiz-adv-x="970" 
d="M137 952v90h78q98 0 98 99v47h-114v205h215v-246q0 -92 -51.5 -143.5t-143.5 -51.5h-82zM557 952v90h78q98 0 98 99v47h-115v205h216v-246q0 -92 -51.5 -143.5t-143.5 -51.5h-82z" />
    <glyph glyph-name="quotedblbase" unicode="&#x201e;" horiz-adv-x="976" 
d="M100 -236v91h78q98 0 98 98v47h-114v205h215v-246q0 -92 -51.5 -143.5t-143.5 -51.5h-82zM543 -236v91h78q98 0 98 98v47h-115v205h215v-246q0 -93 -50.5 -144t-143.5 -51h-82z" />
    <glyph glyph-name="dagger" unicode="&#x2020;" horiz-adv-x="1206" 
d="M535 -174v1124h-422v117h422v541h137v-541h422v-117h-422v-1124h-137z" />
    <glyph glyph-name="daggerdbl" unicode="&#x2021;" horiz-adv-x="1206" 
d="M535 -174v539h-422v116h422v469h-422v117h422v541h137v-541h422v-117h-422v-469h422v-116h-422v-539h-137z" />
    <glyph glyph-name="bullet" unicode="&#x2022;" horiz-adv-x="1081" 
d="M172 717q0 143 108 245.5t261 102.5t260.5 -102.5t107.5 -245.5q0 -141 -108 -244.5t-260 -103.5t-260.5 103.5t-108.5 244.5z" />
    <glyph glyph-name="ellipsis" unicode="&#x2026;" horiz-adv-x="1761" 
d="M154 0v205h204v-205h-204zM778 0v205h205v-205h-205zM1403 0v205h205v-205h-205z" />
    <glyph glyph-name="perthousand" unicode="&#x2030;" horiz-adv-x="2576" 
d="M459 614q-172 0 -274.5 113t-102.5 301t103 302t274 114t271.5 -113t100.5 -303q0 -188 -100.5 -301t-271.5 -113zM1427 1434h140l-1020 -1434h-139zM455 717h8q115 0 178.5 90.5t63.5 220.5t-63.5 221.5t-178.5 91.5h-8q-115 0 -179.5 -91.5t-64.5 -221.5
q0 -83 26.5 -152.5t83 -114t134.5 -44.5zM2497 403q0 -188 -101 -300.5t-272 -112.5q-103 0 -183.5 42.5t-130.5 121.5q-48 -79 -127 -121.5t-182 -42.5q-172 0 -274.5 112.5t-102.5 300.5t103 302t274 114q103 0 182 -42.5t127 -121.5q50 79 130.5 121.5t183.5 42.5
q171 0 272 -114t101 -302zM1747 403q0 129 -63.5 221.5t-178.5 92.5h-8q-115 0 -179.5 -92.5t-64.5 -221.5t64.5 -220t179.5 -91h8q115 0 178.5 90.5t63.5 220.5zM2370 403q0 129 -63.5 221.5t-178.5 92.5h-8q-115 0 -179.5 -92.5t-64.5 -221.5t64.5 -220t179.5 -91h8
q115 0 178.5 90.5t63.5 220.5z" />
    <glyph glyph-name="guilsinglleft" unicode="&#x2039;" horiz-adv-x="743" 
d="M262 586l385 -443h-172l-389 441l389 440h170z" />
    <glyph glyph-name="guilsinglright" unicode="&#x203a;" horiz-adv-x="743" 
d="M268 1024l389 -440l-389 -441h-172l385 443l-383 438h170z" />
    <glyph glyph-name="fraction" unicode="&#x2044;" horiz-adv-x="423" 
d="M-369 0l1020 1434h142l-1020 -1434h-142z" />
    <glyph glyph-name="uni2070" unicode="&#x2070;" horiz-adv-x="917" 
d="M84 1253q0 188 103 302t274 114t272 -114t101 -302t-101 -300.5t-272 -112.5q-172 0 -274.5 112.5t-102.5 300.5zM457 942h8q115 0 178.5 90.5t63.5 220.5q0 129 -63.5 221.5t-178.5 92.5h-8q-115 0 -179.5 -92.5t-64.5 -221.5t64.5 -220t179.5 -91z" />
    <glyph glyph-name="uni2074" unicode="&#x2074;" horiz-adv-x="829" 
d="M518 850v197h-471v114l459 498h127v-510h141v-102h-141v-197h-115zM166 1149h352v360z" />
    <glyph glyph-name="uni2075" unicode="&#x2075;" horiz-adv-x="790" 
d="M61 1057h125q7 -54 62.5 -84.5t136.5 -30.5h8q83 0 137 46t54 118q0 71 -51.5 110t-137.5 39h-6q-101 0 -184 -59h-109l90 463h510v-103h-420l-53 -253q76 55 193 55q132 0 212.5 -69.5t80.5 -178.5q0 -122 -92 -196t-230 -74q-141 0 -228.5 57.5t-97.5 159.5z" />
    <glyph glyph-name="uni2076" unicode="&#x2076;" horiz-adv-x="845" 
d="M84 1231q0 197 105.5 317.5t265.5 120.5q140 0 221.5 -65t91.5 -150h-121q-14 48 -65 79.5t-123 31.5h-13q-98 0 -168.5 -78.5t-82.5 -208.5q29 51 101 83t159 32q125 0 213 -74t88 -191q0 -126 -91 -207t-243 -81q-157 0 -247.5 104t-90.5 287zM422 942h6q87 0 147 50
t60 124q0 75 -57 124.5t-146 49.5h-6q-88 0 -146.5 -49.5t-58.5 -124.5q0 -76 56 -125t145 -49z" />
    <glyph glyph-name="uni2077" unicode="&#x2077;" horiz-adv-x="686" 
d="M195 850v74q0 211 94 366q96 159 221 266h-473v103h616v-109q-86 -71 -157 -151q-77 -89 -127 -210.5t-50 -264.5v-74h-124z" />
    <glyph glyph-name="uni2078" unicode="&#x2078;" horiz-adv-x="788" 
d="M100 1057q0 67 42.5 116.5t115.5 73.5q-75 24 -122.5 77.5t-47.5 119.5q0 104 85 164.5t222 60.5q138 0 224 -60.5t86 -164.5q0 -67 -47 -120t-123 -77q68 -20 108.5 -71.5t40.5 -118.5q0 -100 -85 -158.5t-208 -58.5t-207 58.5t-84 158.5zM387 1305h10q77 0 130 35
t53 94q0 61 -51 97t-128 36h-10q-77 0 -127.5 -36t-50.5 -97q0 -60 49.5 -94.5t124.5 -34.5zM387 942h10q69 0 115.5 36.5t46.5 96.5q0 57 -48 94t-114 37h-10q-68 0 -115 -37t-47 -94q0 -60 46.5 -96.5t115.5 -36.5z" />
    <glyph glyph-name="uni2079" unicode="&#x2079;" horiz-adv-x="845" 
d="M78 1044h121q14 -42 66 -71t122 -29h12q97 0 168.5 79t83.5 208q-31 -51 -102 -83t-158 -32l-20 -2q-117 0 -199 76.5t-82 189.5q0 126 91 207.5t243 81.5q157 0 247.5 -104t90.5 -287q0 -197 -105.5 -317.5t-265.5 -120.5q-140 0 -223 64.5t-90 139.5zM414 1219h6
q88 0 146.5 49.5t58.5 124.5q0 76 -56 125t-145 49h-6q-87 0 -147 -50t-60 -124q0 -75 57 -124.5t146 -49.5z" />
    <glyph glyph-name="Euro" unicode="&#x20ac;" horiz-adv-x="1617" 
d="M1348 420h143q-22 -207 -170 -323.5t-391 -116.5q-222 0 -378 112.5t-222 319.5l-228 -45v127l197 38q-11 68 -14 162l-183 -35v127l189 37q25 295 195 463t444 168q243 0 391 -116.5t170 -323.5h-143q-20 148 -125 225.5t-285 77.5h-20q-198 0 -325.5 -123t-158.5 -342
l506 100v-127l-514 -102v-6q0 -85 12 -158l416 80v-127l-385 -74q54 -155 170 -238t279 -83h20q180 0 285 77.5t125 225.5z" />
    <glyph glyph-name="uni2105" unicode="&#x2105;" horiz-adv-x="1622" 
d="M84 1135q0 143 86.5 226t226.5 83q113 0 196 -55.5t95 -147.5h-127q-10 49 -54 78t-106 29h-6q-91 0 -138.5 -58.5t-47.5 -154.5q0 -93 47 -146t139 -53h6q60 0 102.5 27.5t55.5 76.5h125q-12 -92 -94.5 -146t-196.5 -54q-143 0 -226 77t-83 218zM217 0l1020 1434h141
l-1020 -1434h-141zM885 291q0 137 90 220t239 83t239.5 -83t90.5 -220q0 -136 -90.5 -218.5t-239.5 -82.5t-239 82t-90 219zM1210 86h11q93 0 145.5 56t52.5 149t-54 150t-146 57h-9q-92 0 -146 -57t-54 -150t53.5 -149t146.5 -56z" />
    <glyph glyph-name="uni2113" unicode="&#x2113;" horiz-adv-x="978" 
d="M489 117h293v-117h-331q-96 0 -141.5 53t-45.5 162v223l-168 -90v133l168 90v535q0 166 84 257t236 91q81 0 147 -29.5t107 -79t62.5 -110.5t21.5 -127q0 -161 -94 -292.5t-271 -219.5l-154 -84v-309q0 -45 20 -65.5t66 -20.5zM403 1108v-463l66 35q311 156 311 416
q0 115 -53 178t-143 63q-86 0 -133.5 -58t-47.5 -171z" />
    <glyph glyph-name="uni2116" unicode="&#x2116;" horiz-adv-x="2488" 
d="M1714 1141q0 137 90.5 220t239.5 83t239.5 -83t90.5 -220q0 -136 -90.5 -218.5t-239.5 -82.5t-239.5 82.5t-90.5 218.5zM1368 203v1231h150v-1434h-189l-956 1233v-1233h-150v1434h189zM1839 1141q0 -93 54.5 -149t146.5 -56h10q92 0 145.5 56t53.5 149q0 94 -54.5 150.5
t-146.5 56.5h-8q-92 0 -146.5 -57t-54.5 -150zM1729 621v96h630v-96h-630z" />
    <glyph glyph-name="uni2117" unicode="&#x2117;" horiz-adv-x="2113" 
d="M115 717q-2 107 30.5 210t92.5 191.5t147 163t191 126.5t227.5 80.5t253.5 27.5q130 1 253.5 -27.5t227.5 -80.5t191 -126.5t147 -163t92.5 -191.5t30.5 -210q3 -159 -70.5 -308t-199 -258t-302 -173t-370.5 -60q-155 -2 -301 38t-261.5 114.5t-202.5 174t-133 221.5
t-44 251zM1892 717q2 140 -62.5 269.5t-175.5 224t-267.5 150t-329.5 52.5q-173 3 -330.5 -52.5t-268.5 -150t-175.5 -224t-61.5 -269.5q-3 -140 61.5 -269.5t175.5 -224.5t268.5 -150.5t330.5 -52.5q173 -3 329.5 52.5t267.5 150.5t175.5 224.5t62.5 269.5zM815 342v770
h350q124 0 205.5 -60t81.5 -175q0 -114 -82 -174t-207 -60h-219v-301h-129zM944 750h203q176 0 176 129q0 70 -45 98.5t-131 28.5h-203v-256z" />
    <glyph glyph-name="trademark" unicode="&#x2122;" horiz-adv-x="2258" 
d="M78 1327v107h788v-107h-329v-672h-129v672h-330zM1874 1434h199v-779h-129v654l-285 -654h-143l-295 650v-650h-129v779h200l295 -650z" />
    <glyph glyph-name="Omega" unicode="&#x2126;" horiz-adv-x="1820" 
d="M150 0v137h276q-135 92 -211 249t-76 341q-3 214 99 382t278.5 257.5t394.5 87.5q217 2 393.5 -87.5t278.5 -257.5t98 -382q0 -184 -76 -341t-210 -249h276v-137h-555v137q182 43 298 205t116 385q2 128 -47.5 241t-133 189t-194 119t-227.5 41h-33q-166 0 -303 -71.5
t-219 -207.5t-82 -311q0 -226 113.5 -386.5t300.5 -203.5v-137h-555z" />
    <glyph glyph-name="onethird" unicode="&#x2153;" horiz-adv-x="1861" 
d="M330 625v649l-281 -193v127l320 226h77v-809h-116zM215 0l1020 1434h141l-1020 -1434h-141zM1083 213h125q6 -54 56.5 -87.5t128.5 -33.5h10q86 0 141 38t55 103q0 59 -49.5 93t-128.5 34h-131v97h135q79 0 123.5 32.5t44.5 92.5q0 65 -48.5 100t-135.5 35h-10
q-77 0 -125 -31.5t-53 -81.5h-125q0 98 91 156.5t222 58.5q132 0 220.5 -60t88.5 -165q0 -62 -41.5 -111.5t-111.5 -74.5q75 -23 117 -72t42 -115q0 -103 -96.5 -167t-228.5 -64q-131 0 -223.5 61.5t-92.5 161.5z" />
    <glyph glyph-name="twothirds" unicode="&#x2154;" horiz-adv-x="2021" 
d="M86 625v141l299 217q123 90 154.5 127t35.5 98q0 59 -47.5 96t-121.5 37h-11q-68 0 -123 -36.5t-55 -94.5h-127q0 103 91.5 168.5t221.5 65.5q133 0 217.5 -63t84.5 -173q-6 -85 -47 -137t-146 -129l-297 -215h498v-102h-627zM428 0l1020 1434h141l-1020 -1434h-141z
M1296 213h125q6 -54 56.5 -87.5t128.5 -33.5h10q86 0 141 38t55 103q0 59 -49.5 93t-128.5 34h-131v97h135q79 0 123.5 32.5t44.5 92.5q0 65 -48.5 100t-135.5 35h-10q-77 0 -125 -31.5t-53 -81.5h-125q0 98 91 156.5t222 58.5q132 0 220.5 -60t88.5 -165
q0 -62 -41.5 -111.5t-111.5 -74.5q75 -23 117 -72t42 -115q0 -103 -96.5 -167t-228.5 -64q-131 0 -223.5 61.5t-92.5 161.5z" />
    <glyph glyph-name="uni2155" unicode="&#x2155;" horiz-adv-x="1853" 
d="M330 625v649l-281 -193v127l320 226h77v-809h-116zM215 0l1020 1434h141l-1020 -1434h-141zM1069 207h125q7 -54 62.5 -84.5t136.5 -30.5h8q83 0 136.5 46t53.5 118q0 71 -51 110.5t-137 39.5h-6q-100 0 -185 -60h-108l90 463h510v-102h-420l-53 -254q76 55 192 55
q132 0 212.5 -69.5t80.5 -178.5q0 -122 -91.5 -196t-229.5 -74q-141 0 -228.5 57.5t-97.5 159.5z" />
    <glyph glyph-name="uni2156" unicode="&#x2156;" horiz-adv-x="2013" 
d="M86 625v141l299 217q123 90 154.5 127t35.5 98q0 59 -47.5 96t-121.5 37h-11q-68 0 -123 -36.5t-55 -94.5h-127q0 103 91.5 168.5t221.5 65.5q133 0 217.5 -63t84.5 -173q-6 -85 -47 -137t-146 -129l-297 -215h498v-102h-627zM428 0l1020 1434h141l-1020 -1434h-141z
M1282 207h125q7 -54 62.5 -84.5t136.5 -30.5h8q83 0 136.5 46t53.5 118q0 71 -51 110.5t-137 39.5h-6q-100 0 -185 -60h-108l90 463h510v-102h-420l-53 -254q76 55 192 55q132 0 212.5 -69.5t80.5 -178.5q0 -122 -91.5 -196t-229.5 -74q-141 0 -228.5 57.5t-97.5 159.5z" />
    <glyph glyph-name="uni2157" unicode="&#x2157;" horiz-adv-x="2029" 
d="M76 838h125q6 -54 56 -87.5t128 -33.5h10q87 0 142 38t55 103q0 59 -49.5 93t-128.5 34h-131v96h135q79 0 123.5 32.5t44.5 92.5q0 66 -48.5 100.5t-136.5 34.5h-10q-77 0 -125 -31t-53 -81h-125q0 98 91 156.5t222 58.5q132 0 221 -60t89 -165q0 -62 -41.5 -111
t-112.5 -76q76 -23 118 -71.5t42 -114.5q0 -103 -97 -167.5t-229 -64.5q-130 0 -222.5 62.5t-92.5 161.5zM438 0l1020 1434h141l-1019 -1434h-142zM1292 207h125q7 -54 62.5 -84.5t136.5 -30.5h8q83 0 137 46t54 118q0 71 -51.5 110.5t-137.5 39.5h-6q-99 0 -184 -60h-109
l90 463h510v-102h-420l-53 -254q76 55 193 55q132 0 212 -69.5t80 -178.5q0 -122 -91.5 -196t-229.5 -74q-141 0 -228.5 57.5t-97.5 159.5z" />
    <glyph glyph-name="uni2158" unicode="&#x2158;" horiz-adv-x="2017" 
d="M518 625v196h-471v115l459 498h127v-510h141v-103h-141v-196h-115zM166 924h352v360zM461 0l1020 1434h141l-1020 -1434h-141zM1315 207h125q7 -54 62.5 -84.5t135.5 -30.5h9q83 0 136.5 46t53.5 118q0 71 -51 110.5t-137 39.5h-7q-99 0 -184 -60h-108l90 463h510v-102
h-420l-53 -254q76 55 192 55q132 0 212.5 -69.5t80.5 -178.5q0 -122 -92 -196t-230 -74q-140 0 -227.5 57.5t-97.5 159.5z" />
    <glyph glyph-name="uni2159" unicode="&#x2159;" horiz-adv-x="1912" 
d="M330 625v649l-281 -193v127l320 226h77v-809h-116zM215 0l1020 1434h141l-1020 -1434h-141zM1092 381q0 197 105 317.5t265 120.5q140 0 222 -65t92 -150h-121q-14 48 -65.5 79.5t-123.5 31.5h-12q-98 0 -169 -78.5t-83 -208.5q29 51 101 83t159 32q125 0 213 -73.5
t88 -190.5q0 -126 -90.5 -207.5t-242.5 -81.5q-157 0 -247.5 104t-90.5 287zM1430 92h6q87 0 146.5 49.5t59.5 124.5t-56.5 124.5t-145.5 49.5h-6q-88 0 -146.5 -49.5t-58.5 -124.5q0 -76 56 -125t145 -49z" />
    <glyph glyph-name="uni215A" unicode="&#x215a;" horiz-adv-x="2064" 
d="M61 831h125q7 -54 62.5 -84t136.5 -30h8q83 0 137 46.5t54 117.5t-51.5 110t-137.5 39h-6q-101 0 -184 -59h-109l90 463h510v-103h-420l-53 -254q77 56 193 56q132 0 212.5 -69.5t80.5 -178.5q0 -120 -92.5 -195.5t-229.5 -75.5q-141 0 -228.5 57.5t-97.5 159.5zM422 0
l1020 1434h141l-1020 -1434h-141zM1298 381q0 197 105.5 317.5t265.5 120.5q140 0 221.5 -65t91.5 -150h-120q-14 48 -65.5 79.5t-123.5 31.5h-12q-98 0 -169 -78.5t-83 -208.5q29 51 101 83t159 32q125 0 213 -73.5t88 -190.5q0 -126 -91 -207.5t-243 -81.5
q-157 0 -247.5 104t-90.5 287zM1636 92h6q87 0 147 50t60 124q0 75 -56.5 124.5t-145.5 49.5h-7q-88 0 -146 -49.5t-58 -124.5q0 -76 55.5 -125t144.5 -49z" />
    <glyph glyph-name="oneeighth" unicode="&#x215b;" horiz-adv-x="1849" 
d="M330 625v649l-281 -193v127l320 226h77v-809h-116zM215 0l1020 1434h141l-1020 -1434h-141zM1108 207q0 67 42.5 116.5t115.5 73.5q-75 24 -122.5 77.5t-47.5 119.5q0 104 85 164.5t222 60.5t223 -60.5t86 -164.5q0 -67 -47 -120t-123 -77q68 -20 109 -71.5t41 -118.5
q0 -100 -85 -158.5t-208 -58.5t-207 58.5t-84 158.5zM1395 455h10q77 0 129.5 35t52.5 94q0 61 -50.5 97t-127.5 36h-10q-77 0 -127.5 -36t-50.5 -97q0 -60 49.5 -94.5t124.5 -34.5zM1395 92h10q69 0 115.5 36.5t46.5 96.5q0 57 -48 94t-114 37h-10q-68 0 -115 -37t-47 -94
q0 -60 46.5 -96.5t115.5 -36.5z" />
    <glyph glyph-name="threeeighths" unicode="&#x215c;" horiz-adv-x="2025" 
d="M76 838h125q6 -54 56 -87.5t128 -33.5h10q87 0 142 38t55 103q0 59 -49.5 93t-128.5 34h-131v96h135q79 0 123.5 32.5t44.5 92.5q0 66 -48.5 100.5t-136.5 34.5h-10q-77 0 -125 -31t-53 -81h-125q0 98 91 156.5t222 58.5q132 0 221 -60t89 -165q0 -62 -41.5 -111
t-112.5 -76q76 -23 118 -71.5t42 -114.5q0 -103 -97 -167.5t-229 -64.5q-130 0 -222.5 62.5t-92.5 161.5zM438 0l1020 1434h141l-1019 -1434h-142zM1331 207q0 67 42.5 116.5t115.5 73.5q-75 24 -122.5 77.5t-47.5 119.5q0 104 85 164.5t222 60.5t223 -60.5t86 -164.5
q0 -67 -47 -120t-123 -77q68 -20 109 -71.5t41 -118.5q0 -100 -85 -158.5t-208 -58.5t-207 58.5t-84 158.5zM1618 455h10q77 0 129.5 35t52.5 94q0 61 -50.5 97t-127.5 36h-10q-77 0 -127.5 -36t-50.5 -97q0 -60 49.5 -94.5t124.5 -34.5zM1618 92h10q69 0 115.5 36.5
t46.5 96.5q0 57 -48 94t-114 37h-10q-68 0 -115 -37t-47 -94q0 -60 46.5 -96.5t115.5 -36.5z" />
    <glyph glyph-name="fiveeighths" unicode="&#x215d;" horiz-adv-x="2000" 
d="M61 831h125q7 -54 62.5 -84t136.5 -30h8q83 0 137 46.5t54 117.5t-51.5 110t-137.5 39h-6q-101 0 -184 -59h-109l90 463h510v-103h-420l-53 -254q77 56 193 56q132 0 212.5 -69.5t80.5 -178.5q0 -120 -92.5 -195.5t-229.5 -75.5q-141 0 -228.5 57.5t-97.5 159.5zM422 0
l1020 1434h141l-1020 -1434h-141zM1315 207q0 67 42.5 116.5t115.5 73.5q-75 24 -122.5 77.5t-47.5 119.5q0 104 85 164.5t222 60.5t223 -60.5t86 -164.5q0 -67 -47 -120t-123 -77q68 -20 108.5 -71.5t40.5 -118.5q0 -100 -84.5 -158.5t-207.5 -58.5t-207 58.5t-84 158.5z
M1602 455h10q77 0 129.5 35t52.5 94q0 61 -50.5 97t-127.5 36h-10q-77 0 -128 -36t-51 -97q0 -60 50 -94.5t125 -34.5zM1602 92h10q69 0 115.5 36.5t46.5 96.5q0 57 -48 94t-114 37h-10q-68 0 -115 -37t-47 -94q0 -60 46.5 -96.5t115.5 -36.5z" />
    <glyph glyph-name="seveneighths" unicode="&#x215e;" horiz-adv-x="1761" 
d="M195 625v73q0 212 94 367q96 159 221 266h-473v103h616v-109q-86 -71 -157 -151q-77 -87 -127 -210t-50 -266v-73h-124zM231 0l1020 1434h142l-1020 -1434h-142zM1124 207q0 67 42.5 116.5t115.5 73.5q-75 24 -122.5 77.5t-47.5 119.5q0 104 85 164.5t222 60.5
q138 0 224 -60.5t86 -164.5q0 -67 -47 -120t-123 -77q68 -20 108.5 -71.5t40.5 -118.5q0 -100 -85 -158.5t-208 -58.5t-207 58.5t-84 158.5zM1411 455h10q77 0 130 35t53 94q0 61 -51 97t-128 36h-10q-77 0 -127.5 -36t-50.5 -97q0 -60 49.5 -94.5t124.5 -34.5zM1411 92h10
q69 0 115.5 36.5t46.5 96.5q0 57 -48 94t-114 37h-10q-68 0 -115 -37t-47 -94q0 -60 46.5 -96.5t115.5 -36.5z" />
    <glyph glyph-name="uni215F" unicode="&#x215f;" horiz-adv-x="1007" 
d="M330 625v649l-281 -193v127l320 226h77v-809h-116zM215 0l1020 1434h141l-1020 -1434h-141z" />
    <glyph glyph-name="uni2160" unicode="&#x2160;" horiz-adv-x="1087" 
d="M109 0v117h364v1200h-364v117h870v-117h-365v-1200h365v-117h-870z" />
    <glyph glyph-name="uni2161" unicode="&#x2161;" horiz-adv-x="1794" 
d="M109 0v117h364v1200h-364v117h1577v-117h-365v-1200h365v-117h-1577zM614 117h566v1200h-566v-1200z" />
    <glyph glyph-name="uni2162" unicode="&#x2162;" horiz-adv-x="2500" 
d="M109 0v117h364v1200h-364v117h2283v-117h-364v-1200h364v-117h-2283zM614 117h566v1200h-566v-1200zM1321 117h565v1200h-565v-1200z" />
    <glyph glyph-name="uni2163" unicode="&#x2163;" horiz-adv-x="2533" 
d="M119 0v117h364v1200h-364v117h1290v-117h-244l445 -1106l442 1106h-244v117h652v-117h-260l-482 -1200h414v-117h-2013zM625 117h872l-481 1200h-391v-1200z" />
    <glyph glyph-name="uni2164" unicode="&#x2164;" horiz-adv-x="1849" 
d="M379 0v117h434l-481 1200h-262v117h655v-117h-244l445 -1106l442 1106h-244v117h656v-117h-264l-482 -1200h436v-117h-1091z" />
    <glyph glyph-name="uni2165" unicode="&#x2165;" horiz-adv-x="2537" 
d="M379 0v117h434l-481 1200h-262v117h655v-117h-244l445 -1106l442 1106h-244v117h1291v-117h-365v-1200h365v-117h-2036zM1034 117h875v1200h-393z" />
    <glyph glyph-name="uni2166" unicode="&#x2166;" horiz-adv-x="3241" 
d="M379 0v117h434l-481 1200h-262v117h655v-117h-244l445 -1106l442 1106h-244v117h1995v-117h-364v-1200h364v-117h-2740zM1034 117h875v1200h-393zM2050 117h563v1200h-563v-1200z" />
    <glyph glyph-name="uni2167" unicode="&#x2167;" horiz-adv-x="3946" 
d="M379 0v117h434l-481 1200h-262v117h655v-117h-244l445 -1106l442 1106h-244v117h2700v-117h-365v-1200h365v-117h-3445zM1034 117h875v1200h-393zM2050 117h563v1200h-563v-1200zM2755 117h563v1200h-563v-1200z" />
    <glyph glyph-name="uni2168" unicode="&#x2168;" horiz-adv-x="2420" 
d="M109 0v117h364v1200h-364v117h2189v-117h-248l-455 -592l465 -608h258v-117h-2209zM614 117h344l465 604l-454 596h-355v-1200zM1511 836l371 481h-739zM1126 117h760l-379 495z" />
    <glyph glyph-name="uni2169" unicode="&#x2169;" horiz-adv-x="1822" 
d="M102 0v117h258l465 604l-454 596h-248v117h1577v-117h-248l-455 -592l465 -608h258v-117h-1618zM913 836l371 481h-739zM528 117h760l-379 495z" />
    <glyph glyph-name="uni216C" unicode="&#x216c;" horiz-adv-x="1648" 
d="M109 0v117h344v1200h-344v117h829v-117h-344v-1200h817v403h141v-520h-1443z" />
    <glyph glyph-name="uni216D" unicode="&#x216d;" horiz-adv-x="1712" 
d="M123 717q-2 156 52.5 293t152.5 235.5t242 154.5t313 54q177 0 312.5 -55.5t215.5 -159.5v195h137v-441h-137q-40 156 -182.5 250t-335.5 94h-21q-187 0 -327.5 -85.5t-211.5 -225t-71 -309.5q-2 -169 70 -310t214 -227.5t326 -83.5h21q197 0 339.5 91.5t178.5 252.5h137
v-440h-137v184q-82 -98 -218.5 -151t-309.5 -53q-169 -3 -313 53.5t-242 156t-152.5 236t-52.5 291.5z" />
    <glyph glyph-name="uni216E" unicode="&#x216e;" horiz-adv-x="1841" 
d="M109 0v117h346v1200h-346v117h770q250 0 439.5 -87t294.5 -249.5t105 -378.5q0 -223 -104.5 -386.5t-292 -248t-436.5 -84.5h-776zM592 117h242q359 0 552 152t193 446q0 290 -187.5 446t-537.5 156h-262v-1200z" />
    <glyph glyph-name="uni216F" unicode="&#x216f;" horiz-adv-x="2547" 
d="M109 0v117h344v1200h-344v119h577l590 -1270l590 1270h573v-119h-344v-1200h344v-117h-686v117h205v1188l-606 -1305h-158l-604 1305v-1188h205v-117h-686z" />
    <glyph glyph-name="arrowleft" unicode="&#x2190;" horiz-adv-x="1894" 
d="M678 84l-637 637l637 637l98 -98l-469 -469h1526v-140h-1526l469 -469z" />
    <glyph glyph-name="arrowup" unicode="&#x2191;" horiz-adv-x="1622" 
d="M741 0v1249l-469 -469l-98 99l637 637l637 -637l-98 -99l-469 469v-1249h-140z" />
    <glyph glyph-name="arrowright" unicode="&#x2192;" horiz-adv-x="1894" 
d="M1217 1358l636 -637l-636 -637l-99 98l469 469h-1526v140h1526l-469 469z" />
    <glyph glyph-name="arrowdown" unicode="&#x2193;" horiz-adv-x="1622" 
d="M881 1434v-1250l469 469l98 -98l-637 -637l-637 637l98 98l469 -469v1250h140z" />
    <glyph glyph-name="uni2196" unicode="&#x2196;" horiz-adv-x="1331" 
d="M1128 311l-882 883v-662h-140v902h902v-140h-664l885 -882z" />
    <glyph glyph-name="uni2197" unicode="&#x2197;" horiz-adv-x="1331" 
d="M100 412l883 882h-661v140h901v-902h-140v664l-882 -883z" />
    <glyph glyph-name="uni2198" unicode="&#x2198;" horiz-adv-x="1331" 
d="M201 1120l882 -882v661h140v-899h-901v137h663l-883 885z" />
    <glyph glyph-name="uni2199" unicode="&#x2199;" horiz-adv-x="1331" 
d="M1229 1022l-885 -885h664v-137h-902v899h140v-663l884 884z" />
    <glyph glyph-name="uni21A4" unicode="&#x21a4;" horiz-adv-x="2052" 
d="M698 84l-637 637l637 637l99 -98l-469 -469h1413v442h137v-1024h-137v442h-1413l469 -469z" />
    <glyph glyph-name="uni21A5" unicode="&#x21a5;" horiz-adv-x="1755" 
d="M367 0v133h442v1116l-469 -469l-98 99l637 637l637 -637l-99 -99l-469 469v-1116h443v-133h-1024z" />
    <glyph glyph-name="uni21A6" unicode="&#x21a6;" horiz-adv-x="2052" 
d="M1354 1358l637 -637l-637 -637l-99 98l469 469h-1413v-442h-137v1024h137v-442h1413l-469 469z" />
    <glyph glyph-name="uni21A7" unicode="&#x21a7;" horiz-adv-x="1755" 
d="M1391 1434v-134h-443v-1116l469 469l99 -98l-637 -637l-637 637l98 98l469 -469v1116h-442v134h1024z" />
    <glyph glyph-name="uni21B0" unicode="&#x21b0;" horiz-adv-x="2007" 
d="M1696 0v651h-1389l469 -469l-98 -98l-637 637l637 637l98 -98l-469 -469h1526v-791h-137z" />
    <glyph glyph-name="uni21B1" unicode="&#x21b1;" horiz-adv-x="2007" 
d="M174 0v791h1526l-469 469l98 98l637 -637l-637 -637l-98 98l469 469h-1389v-651h-137z" />
    <glyph glyph-name="uni21B2" unicode="&#x21b2;" horiz-adv-x="2007" 
d="M1833 1434v-791h-1526l469 -469l-98 -98l-637 637l637 637l98 -99l-469 -469h1389v652h137z" />
    <glyph glyph-name="uni21B3" unicode="&#x21b3;" horiz-adv-x="2007" 
d="M311 1434v-652h1389l-469 469l98 99l637 -637l-637 -637l-98 98l469 469h-1526v791h137z" />
    <glyph glyph-name="partialdiff" unicode="&#x2202;" horiz-adv-x="1349" 
d="M109 494q0 220 148.5 359.5t383.5 139.5q136 0 243.5 -39t172.5 -116l-19 69q-55 204 -196.5 307t-339.5 103q-129 0 -236 -31v137q99 31 238 31q226 0 389 -110t243.5 -297t80.5 -429q0 -315 -150.5 -476.5t-407.5 -161.5q-253 0 -401.5 140.5t-148.5 373.5zM655 117h11
q175 0 289 98t114 277q0 183 -109 278.5t-294 95.5h-21q-184 0 -286.5 -94.5t-102.5 -277.5q0 -182 108 -279.5t291 -97.5z" />
    <glyph glyph-name="Delta" unicode="&#x2206;" horiz-adv-x="1609" 
d="M891 1434l641 -1307v-127h-1454v127l639 1307h174zM803 1300l-559 -1163h1120z" />
    <glyph glyph-name="product" unicode="&#x220f;" horiz-adv-x="1660" 
d="M346 0v1296h-272v138h1513v-138h-272v-1296h-148v1296h-673v-1296h-148z" />
    <glyph glyph-name="summation" unicode="&#x2211;" horiz-adv-x="1257" 
d="M1137 1434v-138h-828l502 -579l-516 -580h842v-137h-1026v139l510 574l-510 587v134h1026z" />
    <glyph glyph-name="minus" unicode="&#x2212;" horiz-adv-x="1380" 
d="M164 461v137h1053v-137h-1053z" />
    <glyph glyph-name="uni2215" unicode="&#x2215;" horiz-adv-x="931" 
d="M66 0l661 1434h147l-661 -1434h-147z" />
    <glyph glyph-name="uni2219" unicode="&#x2219;" horiz-adv-x="1179" 
d="M221 717q0 143 108 245.5t261 102.5t260.5 -102.5t107.5 -245.5q0 -141 -108 -244.5t-260 -103.5t-260.5 103.5t-108.5 244.5z" />
    <glyph glyph-name="radical" unicode="&#x221a;" horiz-adv-x="1581" 
d="M1501 1434v-134h-477l-365 -1300h-172l-430 1024h150l364 -872l351 1282h579z" />
    <glyph glyph-name="infinity" unicode="&#x221e;" horiz-adv-x="1961" 
d="M127 737q0 172 116.5 280.5t293.5 108.5q107 0 182 -34q74 -33 129 -84.5t135 -155.5q76 94 131 149q125 125 313 125q175 0 291.5 -109t116.5 -280q0 -173 -116 -281t-292 -108q-109 0 -182 33q-71 30 -126 81t-136 152q-61 -76 -100 -117t-91.5 -78t-112 -52.5
t-142.5 -18.5q-177 0 -293.5 108t-116.5 281zM537 481h10q56 0 101.5 15.5t89.5 51.5t79.5 77.5t87.5 111.5q-65 91 -113.5 142t-110 82.5t-134.5 31.5h-10q-128 0 -199.5 -67.5t-71.5 -188.5q0 -122 71.5 -189t199.5 -67zM1417 481h10q128 0 198.5 66.5t70.5 189.5
t-70.5 189.5t-198.5 66.5h-10q-73 0 -134.5 -31.5t-110 -82.5t-113.5 -142q52 -70 87.5 -111.5t79.5 -77.5t89.5 -51.5t101.5 -15.5z" />
    <glyph glyph-name="integral" unicode="&#x222b;" horiz-adv-x="886" 
d="M33 -205v137h112q126 0 175 54t49 188v870q0 390 354 390h129v-138h-113q-126 0 -174.5 -53.5t-48.5 -187.5v-871q0 -389 -354 -389h-129z" />
    <glyph glyph-name="approxequal" unicode="&#x2248;" horiz-adv-x="1335" 
d="M621 668q-98 41 -134 54t-59 13q-69 0 -97 -36.5t-28 -108.5h-137v51q0 103 67.5 169.5t178.5 66.5q47 0 113.5 -23t189.5 -76q155 -67 192 -67q69 0 97 33t28 102h137v-51q0 -104 -64 -165t-181 -61q-47 0 -111.5 22.5t-191.5 76.5zM621 279q-98 41 -134 54t-59 13
q-68 0 -96.5 -37t-28.5 -108h-137v51q0 103 67.5 169t178.5 66q48 0 115 -23t188 -75q100 -42 134.5 -54.5t57.5 -12.5q69 0 97 33t28 102h137v-51q0 -105 -64 -165.5t-181 -60.5q-47 0 -111.5 22.5t-191.5 76.5z" />
    <glyph glyph-name="notequal" unicode="&#x2260;" horiz-adv-x="1421" 
d="M1257 645h-428l-90 -237h518v-138h-571l-92 -239h-148l93 239h-375v138h428l90 237h-518v137h569l94 242h148l-92 -242h374v-137z" />
    <glyph glyph-name="lessequal" unicode="&#x2264;" horiz-adv-x="1406" 
d="M1245 1044v-145l-889 -242l889 -241v-150l-1093 312v155zM152 47v137h1093v-137h-1093z" />
    <glyph glyph-name="greaterequal" unicode="&#x2265;" horiz-adv-x="1406" 
d="M162 1044l1093 -311v-155l-1093 -312v146l889 241l-889 242v149zM162 47v137h1093v-137h-1093z" />
    <glyph glyph-name="angleleft" unicode="&#x2329;" horiz-adv-x="800" 
d="M616 -174l-577 891l577 891h152l-571 -887l571 -895h-152z" />
    <glyph glyph-name="angleright" unicode="&#x232a;" horiz-adv-x="800" 
d="M184 1608l578 -891l-578 -891h-151l571 887l-571 895h151z" />
    <glyph glyph-name="uni2460" unicode="&#x2460;" horiz-adv-x="2088" 
d="M102 717q-2 107 30.5 210t92.5 191.5t147 163t191 126.5t227.5 80.5t253.5 27.5q194 2 370.5 -62t302.5 -172t199.5 -256.5t70.5 -308.5q3 -159 -70.5 -308t-199.5 -258t-302.5 -173t-370.5 -60q-194 -4 -370.5 60t-302 173t-199 258t-70.5 308zM1876 717
q3 140 -61 269.5t-174 224t-267 150t-330 52.5q-173 3 -329.5 -52.5t-267 -150t-174 -224t-60.5 -269.5q-3 -140 60.5 -269.5t174 -224.5t267 -150.5t329.5 -52.5q173 -3 330 52.5t267 150.5t174 224.5t61 269.5zM1012 322v649l-281 -193v127l320 225h77v-808h-116z" />
    <glyph glyph-name="uni2461" unicode="&#x2461;" horiz-adv-x="2088" 
d="M102 717q-2 107 30.5 210t92.5 191.5t147 163t191 126.5t227.5 80.5t253.5 27.5q194 2 370.5 -62t302.5 -172t199.5 -256.5t70.5 -308.5q3 -159 -70.5 -308t-199.5 -258t-302.5 -173t-370.5 -60q-194 -4 -370.5 60t-302 173t-199 258t-70.5 308zM1876 717
q3 140 -61 269.5t-174 224t-267 150t-330 52.5q-173 3 -329.5 -52.5t-267 -150t-174 -224t-60.5 -269.5q-3 -140 60.5 -269.5t174 -224.5t267 -150.5t329.5 -52.5q173 -3 330 52.5t267 150.5t174 224.5t61 269.5zM743 322v141l299 217q124 90 155.5 126t35.5 99q0 59 -48 96
t-122 37h-10q-67 0 -123 -37.5t-56 -93.5h-126q0 101 92 167.5t221 66.5q130 0 215.5 -64.5t85.5 -171.5q-4 -60 -28 -105.5t-59 -77.5t-106 -83l-297 -215h498v-102h-627z" />
    <glyph glyph-name="uni2462" unicode="&#x2462;" horiz-adv-x="2088" 
d="M102 717q-2 107 30.5 210t92.5 191.5t147 163t191 126.5t227.5 80.5t253.5 27.5q194 2 370.5 -62t302.5 -172t199.5 -256.5t70.5 -308.5q3 -159 -70.5 -308t-199.5 -258t-302.5 -173t-370.5 -60q-194 -4 -370.5 60t-302 173t-199 258t-70.5 308zM1876 717
q3 140 -61 269.5t-174 224t-267 150t-330 52.5q-173 3 -329.5 -52.5t-267 -150t-174 -224t-60.5 -269.5q-3 -140 60.5 -269.5t174 -224.5t267 -150.5t329.5 -52.5q173 -3 330 52.5t267 150.5t174 224.5t61 269.5zM719 535h125q6 -54 56 -87.5t128 -33.5h10q87 0 142 38
t55 103q0 57 -50 92t-128 35h-131v96h135q79 0 123.5 32.5t44.5 92.5q0 65 -49 100t-136 35h-10q-77 0 -125 -31t-53 -81h-125q0 97 91 156t222 59t220.5 -61.5t89.5 -164.5q0 -62 -42 -111.5t-112 -74.5q75 -23 117.5 -73t42.5 -113q0 -103 -97 -167.5t-229 -64.5
q-130 0 -222.5 62t-92.5 162z" />
    <glyph glyph-name="uni2463" unicode="&#x2463;" horiz-adv-x="2088" 
d="M102 717q-2 107 30.5 210t92.5 191.5t147 163t191 126.5t227.5 80.5t253.5 27.5q194 2 370.5 -62t302.5 -172t199.5 -256.5t70.5 -308.5q3 -159 -70.5 -308t-199.5 -258t-302.5 -173t-370.5 -60q-194 -4 -370.5 60t-302 173t-199 258t-70.5 308zM1876 717
q3 140 -61 269.5t-174 224t-267 150t-330 52.5q-173 3 -329.5 -52.5t-267 -150t-174 -224t-60.5 -269.5q-3 -140 60.5 -269.5t174 -224.5t267 -150.5t329.5 -52.5q173 -3 330 52.5t267 150.5t174 224.5t61 269.5zM1083 322v196h-471v115l459 497h127v-509h141v-103h-141
v-196h-115zM731 621h352v360z" />
    <glyph glyph-name="uni2464" unicode="&#x2464;" horiz-adv-x="2088" 
d="M102 717q-2 107 30.5 210t92.5 191.5t147 163t191 126.5t227.5 80.5t253.5 27.5q194 2 370.5 -62t302.5 -172t199.5 -256.5t70.5 -308.5q3 -159 -70.5 -308t-199.5 -258t-302.5 -173t-370.5 -60q-194 -4 -370.5 60t-302 173t-199 258t-70.5 308zM1876 717
q3 140 -61 269.5t-174 224t-267 150t-330 52.5q-173 3 -329.5 -52.5t-267 -150t-174 -224t-60.5 -269.5q-3 -140 60.5 -269.5t174 -224.5t267 -150.5t329.5 -52.5q173 -3 330 52.5t267 150.5t174 224.5t61 269.5zM690 528h125q7 -53 63.5 -83.5t135.5 -30.5h8q83 0 136.5 46
t53.5 118q0 69 -51 109t-137 40h-6q-101 0 -184 -59h-109l90 462h510v-102h-420l-53 -254q76 55 192 55q132 0 212.5 -70t80.5 -177q0 -122 -91.5 -196.5t-229.5 -74.5q-141 0 -228.5 57.5t-97.5 159.5z" />
    <glyph glyph-name="uni2465" unicode="&#x2465;" horiz-adv-x="2088" 
d="M102 717q-2 107 30.5 210t92.5 191.5t147 163t191 126.5t227.5 80.5t253.5 27.5q194 2 370.5 -62t302.5 -172t199.5 -256.5t70.5 -308.5q3 -159 -70.5 -308t-199.5 -258t-302.5 -173t-370.5 -60q-194 -4 -370.5 60t-302 173t-199 258t-70.5 308zM1876 717
q3 140 -61 269.5t-174 224t-267 150t-330 52.5q-173 3 -329.5 -52.5t-267 -150t-174 -224t-60.5 -269.5q-3 -140 60.5 -269.5t174 -224.5t267 -150.5t329.5 -52.5q173 -3 330 52.5t267 150.5t174 224.5t61 269.5zM686 702q0 196 105.5 317.5t265.5 121.5q140 0 221.5 -65
t91.5 -150h-121q-14 48 -65 79t-123 31h-12q-100 0 -170 -78t-82 -208q29 51 100.5 82.5t159.5 31.5q125 0 213 -73.5t88 -190.5q0 -128 -90.5 -208.5t-243.5 -80.5q-158 0 -248 103t-90 288zM1024 414h6q87 0 147 50t60 124q0 75 -57 124.5t-146 49.5h-6
q-88 0 -146.5 -49.5t-58.5 -124.5q0 -76 56 -125t145 -49z" />
    <glyph glyph-name="uni2466" unicode="&#x2466;" horiz-adv-x="2088" 
d="M102 717q-2 107 30.5 210t92.5 191.5t147 163t191 126.5t227.5 80.5t253.5 27.5q194 2 370.5 -62t302.5 -172t199.5 -256.5t70.5 -308.5q3 -159 -70.5 -308t-199.5 -258t-302.5 -173t-370.5 -60q-194 -4 -370.5 60t-302 173t-199 258t-70.5 308zM1876 717
q3 140 -61 269.5t-174 224t-267 150t-330 52.5q-173 3 -329.5 -52.5t-267 -150t-174 -224t-60.5 -269.5q-3 -140 60.5 -269.5t174 -224.5t267 -150.5t329.5 -52.5q173 -3 330 52.5t267 150.5t174 224.5t61 269.5zM903 322v73q0 210 94 365t222 268h-474v102h617v-108
q-86 -71 -158 -152q-77 -89 -126.5 -210.5t-49.5 -264.5v-73h-125z" />
    <glyph glyph-name="uni2467" unicode="&#x2467;" horiz-adv-x="2088" 
d="M102 717q-2 107 30.5 210t92.5 191.5t147 163t191 126.5t227.5 80.5t253.5 27.5q194 2 370.5 -62t302.5 -172t199.5 -256.5t70.5 -308.5q3 -159 -70.5 -308t-199.5 -258t-302.5 -173t-370.5 -60q-194 -4 -370.5 60t-302 173t-199 258t-70.5 308zM1876 717
q3 140 -61 269.5t-174 224t-267 150t-330 52.5q-173 3 -329.5 -52.5t-267 -150t-174 -224t-60.5 -269.5q-3 -140 60.5 -269.5t174 -224.5t267 -150.5t329.5 -52.5q173 -3 330 52.5t267 150.5t174 224.5t61 269.5zM748 528q0 67 42 117t115 74q-74 20 -122 74.5t-48 121.5
q0 104 85 165t222 61t223.5 -61t86.5 -165q0 -67 -47.5 -121.5t-122.5 -74.5q69 -24 109 -74.5t40 -116.5q0 -101 -85 -159t-208 -58t-206.5 57.5t-83.5 159.5zM1034 776h10q77 0 130 35t53 94q0 61 -50.5 97t-127.5 36h-11q-77 0 -127.5 -36t-50.5 -97q0 -60 49.5 -94.5
t124.5 -34.5zM1034 414h10q70 0 116 36t46 97q0 56 -48 93.5t-114 37.5h-10q-67 0 -114.5 -37.5t-47.5 -93.5q0 -61 46 -97t116 -36z" />
    <glyph glyph-name="uni2468" unicode="&#x2468;" horiz-adv-x="2088" 
d="M102 717q-2 107 30.5 210t92.5 191.5t147 163t191 126.5t227.5 80.5t253.5 27.5q194 2 370.5 -62t302.5 -172t199.5 -256.5t70.5 -308.5q3 -159 -70.5 -308t-199.5 -258t-302.5 -173t-370.5 -60q-194 -4 -370.5 60t-302 173t-199 258t-70.5 308zM1876 717
q3 140 -61 269.5t-174 224t-267 150t-330 52.5q-173 3 -329.5 -52.5t-267 -150t-174 -224t-60.5 -269.5q-3 -140 60.5 -269.5t174 -224.5t267 -150.5t329.5 -52.5q173 -3 330 52.5t267 150.5t174 224.5t61 269.5zM709 516h120q14 -43 66 -71.5t123 -28.5h12q98 0 169 78
t83 208q-31 -51 -102 -82.5t-158 -31.5l-21 -2q-117 0 -198.5 75.5t-81.5 190.5q0 126 91 207.5t243 81.5q157 0 247.5 -105t90.5 -286q0 -197 -105.5 -318t-265.5 -121q-140 0 -223 64.5t-90 140.5zM1044 690h7q90 0 147 48t57 126q0 76 -55.5 125t-144.5 49h-6
q-87 0 -147 -50t-60 -124q0 -77 57 -125.5t145 -48.5z" />
    <glyph glyph-name="uni24EA" unicode="&#x24ea;" horiz-adv-x="2088" 
d="M102 717q-2 107 30.5 210t92.5 191.5t147 163t191 126.5t227.5 80.5t253.5 27.5q194 2 370.5 -62t302.5 -172t199.5 -256.5t70.5 -308.5q3 -159 -70.5 -308t-199.5 -258t-302.5 -173t-370.5 -60q-194 -4 -370.5 60t-302 173t-199 258t-70.5 308zM1876 717
q3 140 -61 269.5t-174 224t-267 150t-330 52.5q-173 3 -329.5 -52.5t-267 -150t-174 -224t-60.5 -269.5q-3 -140 60.5 -269.5t174 -224.5t267 -150.5t329.5 -52.5q173 -3 330 52.5t267 150.5t174 224.5t61 269.5zM670 725q0 186 103 301t274 115q170 0 271 -115t101 -301
q0 -188 -100.5 -301t-271.5 -113q-172 0 -274.5 113t-102.5 301zM1042 414h9q115 0 178 90.5t63 220.5q0 129 -63 221t-178 92h-9q-77 0 -133.5 -45.5t-83 -115.5t-26.5 -152q0 -129 64.5 -220t178.5 -91z" />
    <glyph glyph-name="uni24FF" unicode="&#x24ff;" horiz-adv-x="2088" 
d="M1987 717q3 -159 -70.5 -308t-199.5 -258t-302.5 -173t-370.5 -60q-194 -4 -370.5 60t-302 173t-199 258t-70.5 308q-2 107 30.5 210t92.5 191.5t147 163t191 126.5t227.5 80.5t253.5 27.5q194 2 370.5 -62t302.5 -172t199.5 -256.5t70.5 -308.5zM670 725
q0 -188 102.5 -301t274.5 -113q171 0 271.5 113t100.5 301q0 186 -101 301t-271 115q-171 0 -274 -115t-103 -301zM1051 414h-9q-114 0 -178.5 91t-64.5 220q0 82 26.5 152t83 115.5t133.5 45.5h9q115 0 178 -92t63 -221q0 -130 -63 -220.5t-178 -90.5z" />
    <glyph glyph-name="triagup" unicode="&#x25b2;" horiz-adv-x="1720" 
d="M31 0l829 1475l830 -1475h-1659z" />
    <glyph glyph-name="lozenge" unicode="&#x25ca;" horiz-adv-x="1382" 
d="M625 0l-553 717l553 717h143l543 -717l-543 -717h-143zM696 139l461 578l-461 588l-460 -588z" />
    <glyph glyph-name="uni2776" unicode="&#x2776;" horiz-adv-x="2088" 
d="M1987 717q3 -159 -70.5 -308t-199.5 -258t-302.5 -173t-370.5 -60q-194 -4 -370.5 60t-302 173t-199 258t-70.5 308q-2 107 30.5 210t92.5 191.5t147 163t191 126.5t227.5 80.5t253.5 27.5q194 2 370.5 -62t302.5 -172t199.5 -256.5t70.5 -308.5zM1012 971v-649h116v808
h-77l-320 -225v-127z" />
    <glyph glyph-name="uni2777" unicode="&#x2777;" horiz-adv-x="2088" 
d="M1987 717q3 -159 -70.5 -308t-199.5 -258t-302.5 -173t-370.5 -60q-194 -4 -370.5 60t-302 173t-199 258t-70.5 308q-2 107 30.5 210t92.5 191.5t147 163t191 126.5t227.5 80.5t253.5 27.5q194 2 370.5 -62t302.5 -172t199.5 -256.5t70.5 -308.5zM743 463v-141h627v102
h-498l297 215q71 51 106 83t59 77.5t28 105.5q0 107 -85.5 171.5t-215.5 64.5q-129 0 -221 -66.5t-92 -167.5h126q0 56 56 93.5t123 37.5h10q74 0 122 -37t48 -96q-4 -63 -35.5 -99t-155.5 -126z" />
    <glyph glyph-name="uni2778" unicode="&#x2778;" horiz-adv-x="2088" 
d="M1987 717q3 -159 -70.5 -308t-199.5 -258t-302.5 -173t-370.5 -60q-194 -4 -370.5 60t-302 173t-199 258t-70.5 308q-2 107 30.5 210t92.5 191.5t147 163t191 126.5t227.5 80.5t253.5 27.5q194 2 370.5 -62t302.5 -172t199.5 -256.5t70.5 -308.5zM719 535
q0 -100 92.5 -162t222.5 -62q132 0 229 64.5t97 167.5q0 63 -42.5 113t-117.5 73q70 25 112 74.5t42 111.5q0 103 -89.5 164.5t-220.5 61.5t-222 -59t-91 -156h125q5 50 53 81t125 31h10q87 0 136 -35t49 -100q0 -60 -44.5 -92.5t-123.5 -32.5h-135v-96h131q78 0 128 -35
t50 -92q0 -65 -55 -103t-142 -38h-10q-78 0 -128 33.5t-56 87.5h-125z" />
    <glyph glyph-name="uni2779" unicode="&#x2779;" horiz-adv-x="2088" 
d="M1987 717q3 -159 -70.5 -308t-199.5 -258t-302.5 -173t-370.5 -60q-194 -4 -370.5 60t-302 173t-199 258t-70.5 308q-2 107 30.5 210t92.5 191.5t147 163t191 126.5t227.5 80.5t253.5 27.5q194 2 370.5 -62t302.5 -172t199.5 -256.5t70.5 -308.5zM1083 518v-196h115v196
h141v103h-141v509h-127l-459 -497v-115h471zM1083 621h-352l352 360v-360z" />
    <glyph glyph-name="uni277A" unicode="&#x277a;" horiz-adv-x="2088" 
d="M1987 717q3 -159 -70.5 -308t-199.5 -258t-302.5 -173t-370.5 -60q-194 -4 -370.5 60t-302 173t-199 258t-70.5 308q-2 107 30.5 210t92.5 191.5t147 163t191 126.5t227.5 80.5t253.5 27.5q194 2 370.5 -62t302.5 -172t199.5 -256.5t70.5 -308.5zM690 528
q10 -102 97.5 -159.5t228.5 -57.5q138 0 229.5 74.5t91.5 196.5q0 107 -80.5 177t-212.5 70q-116 0 -192 -55l53 254h420v102h-510l-90 -462h109q83 59 184 59h6q86 0 137 -40t51 -109q0 -72 -53.5 -118t-136.5 -46h-8q-79 0 -135.5 30.5t-63.5 83.5h-125z" />
    <glyph glyph-name="uni277B" unicode="&#x277b;" horiz-adv-x="2088" 
d="M1987 717q3 -159 -70.5 -308t-199.5 -258t-302.5 -173t-370.5 -60q-194 -4 -370.5 60t-302 173t-199 258t-70.5 308q-2 107 30.5 210t92.5 191.5t147 163t191 126.5t227.5 80.5t253.5 27.5q194 2 370.5 -62t302.5 -172t199.5 -256.5t70.5 -308.5zM686 702q0 -185 90 -288
t248 -103q153 0 243.5 80.5t90.5 208.5q0 117 -88 190.5t-213 73.5q-88 0 -159.5 -31.5t-100.5 -82.5q12 130 82 208t170 78h12q72 0 123 -31t65 -79h121q-10 85 -91.5 150t-221.5 65q-160 0 -265.5 -121.5t-105.5 -317.5zM1030 414h-6q-89 0 -145 49t-56 125
q0 75 58.5 124.5t146.5 49.5h6q89 0 146 -49.5t57 -124.5q0 -74 -60 -124t-147 -50z" />
    <glyph glyph-name="uni277C" unicode="&#x277c;" horiz-adv-x="2088" 
d="M1987 717q3 -159 -70.5 -308t-199.5 -258t-302.5 -173t-370.5 -60q-194 -4 -370.5 60t-302 173t-199 258t-70.5 308q-2 107 30.5 210t92.5 191.5t147 163t191 126.5t227.5 80.5t253.5 27.5q194 2 370.5 -62t302.5 -172t199.5 -256.5t70.5 -308.5zM903 395v-73h125v73
q0 143 49.5 264.5t126.5 210.5q72 81 158 152v108h-617v-102h474q-128 -113 -222 -268t-94 -365z" />
    <glyph glyph-name="uni277D" unicode="&#x277d;" horiz-adv-x="2088" 
d="M1987 717q3 -159 -70.5 -308t-199.5 -258t-302.5 -173t-370.5 -60q-194 -4 -370.5 60t-302 173t-199 258t-70.5 308q-2 107 30.5 210t92.5 191.5t147 163t191 126.5t227.5 80.5t253.5 27.5q194 2 370.5 -62t302.5 -172t199.5 -256.5t70.5 -308.5zM748 528
q0 -102 83.5 -159.5t206.5 -57.5t208 58t85 159q0 66 -40 116.5t-109 74.5q75 20 122.5 74.5t47.5 121.5q0 104 -86.5 165t-223.5 61t-222 -61t-85 -165q0 -67 48 -121.5t122 -74.5q-73 -24 -115 -74t-42 -117zM1044 776h-10q-75 0 -124.5 34.5t-49.5 94.5q0 61 50.5 97
t127.5 36h11q77 0 127.5 -36t50.5 -97q0 -59 -53 -94t-130 -35zM1044 414h-10q-70 0 -116 36t-46 97q0 56 47.5 93.5t114.5 37.5h10q66 0 114 -37.5t48 -93.5q0 -61 -46 -97t-116 -36z" />
    <glyph glyph-name="uni277E" unicode="&#x277e;" horiz-adv-x="2088" 
d="M1987 717q3 -159 -70.5 -308t-199.5 -258t-302.5 -173t-370.5 -60q-194 -4 -370.5 60t-302 173t-199 258t-70.5 308q-2 107 30.5 210t92.5 191.5t147 163t191 126.5t227.5 80.5t253.5 27.5q194 2 370.5 -62t302.5 -172t199.5 -256.5t70.5 -308.5zM709 516
q7 -76 90 -140.5t223 -64.5q160 0 265.5 121t105.5 318q0 181 -90.5 286t-247.5 105q-152 0 -243 -81.5t-91 -207.5q0 -115 81.5 -190.5t198.5 -75.5l21 2q87 0 158 31.5t102 82.5q-12 -130 -83 -208t-169 -78h-12q-71 0 -123 28.5t-66 71.5h-120zM1051 690h-7
q-88 0 -145 48.5t-57 125.5q0 74 60 124t147 50h6q89 0 144.5 -49t55.5 -125q0 -78 -57 -126t-147 -48z" />
    <glyph glyph-name="uni300A" unicode="&#x300a;" horiz-adv-x="1206" 
d="M596 -174l-557 891l557 891h154l-551 -887l551 -895h-154zM1020 -174l-557 891l557 891h151l-550 -887l550 -895h-151z" />
    <glyph glyph-name="uni300B" unicode="&#x300b;" horiz-adv-x="1206" 
d="M610 1608l557 -891l-557 -891h-153l551 887l-551 895h153zM186 1608l557 -891l-557 -891h-151l551 887l-551 895h151z" />
    <glyph glyph-name="uni300C" unicode="&#x300c;" horiz-adv-x="669" 
d="M133 791v940h496v-117h-363v-823h-133z" />
    <glyph glyph-name="uni300D" unicode="&#x300d;" horiz-adv-x="710" 
d="M584 643v-940h-496v117h363v823h133z" />
    <glyph glyph-name="uni300E" unicode="&#x300e;" horiz-adv-x="911" 
d="M123 682v1051h747v-340h-352v-711h-395zM256 797h129v708h352v113h-481v-821z" />
    <glyph glyph-name="uni300F" unicode="&#x300f;" horiz-adv-x="952" 
d="M815 752v-1051h-747v340h352v711h395zM682 637h-129v-709h-352v-112h481v821z" />
    <glyph glyph-name="uni3010" unicode="&#x3010;" horiz-adv-x="800" 
d="M203 -297v2028h588q-225 -207 -340 -469t-115 -543q0 -279 114.5 -542.5t340.5 -473.5h-588z" />
    <glyph glyph-name="uni3011" unicode="&#x3011;" horiz-adv-x="800" 
d="M598 1733v-2028h-588q225 207 340 469t115 543q0 279 -114.5 542.5t-340.5 473.5h588z" />
    <glyph glyph-name="uni3014" unicode="&#x3014;" horiz-adv-x="690" 
d="M481 -297l-317 299v1430l321 299h191l-379 -359v-1304l383 -365h-199z" />
    <glyph glyph-name="uni3015" unicode="&#x3015;" horiz-adv-x="690" 
d="M209 1733l317 -299v-1430l-321 -299h-191l379 358v1305l-383 365h199z" />
    <glyph glyph-name="uniE000" unicode="&#xe000;" horiz-adv-x="1105" 
d="M143 307v819h820v-819h-820zM297 461h512v512h-512v-512z" />
    <glyph glyph-name="uniE001" unicode="&#xe001;" horiz-adv-x="1413" 
d="M143 154v1126h1127v-1126h-1127zM297 307h819v819h-819v-819z" />
    <glyph glyph-name="uniE002" unicode="&#xe002;" horiz-adv-x="1802" 
d="M184 0v1434h1434v-1434h-1434zM338 154h1126v1126h-1126v-1126z" />
    <glyph glyph-name="uniE003" unicode="&#xe003;" horiz-adv-x="1105" 
d="M143 307v819h820v-819h-820zM297 461h512v512h-512v-512zM451 614v205h204v-205h-204z" />
    <glyph glyph-name="uniE004" unicode="&#xe004;" horiz-adv-x="1413" 
d="M143 154v1126h1127v-1126h-1127zM297 307h819v819h-819v-819zM451 461v512h512v-512h-512zM604 614h205v205h-205v-205z" />
    <glyph glyph-name="uniE005" unicode="&#xe005;" horiz-adv-x="1802" 
d="M184 0v1434h1434v-1434h-1434zM338 154h1126v1126h-1126v-1126zM492 307v819h819v-819h-819zM645 461h512v512h-512v-512zM799 614v205h205v-205h-205z" />
    <glyph glyph-name="uniE006" unicode="&#xe006;" horiz-adv-x="1105" 
d="M143 307v819h820v-819h-820z" />
    <glyph glyph-name="uniE007" unicode="&#xe007;" horiz-adv-x="1413" 
d="M143 154v1126h1127v-1126h-1127z" />
    <glyph glyph-name="uniE008" unicode="&#xe008;" horiz-adv-x="1802" 
d="M184 0v1434h1434v-1434h-1434z" />
    <glyph glyph-name="uniE00A" unicode="&#xe00a;" horiz-adv-x="833" 
d="M227 -41q0 90 78 174q-170 38 -170 234v700q0 198 170 233q-78 84 -78 175q0 110 80 183t191 73h266v-117h-252q-67 0 -107 -35.5t-40 -95.5v-17q0 -60 40 -96.5t107 -36.5h98v-116h-159q-179 0 -179 -179v-643q0 -91 44 -134.5t135 -43.5h159v-117h-98q-67 0 -107 -36.5
t-40 -96.5v-16q0 -60 40 -95.5t107 -35.5h252v-117h-266q-111 0 -191 73t-80 183z" />
    <glyph glyph-name="uniE00B" unicode="&#xe00b;" horiz-adv-x="833" 
d="M606 1475q0 -91 -78 -175q170 -38 170 -233v-700q0 -199 -170 -234q78 -84 78 -174q0 -110 -79.5 -183t-190.5 -73h-266v117h252q67 0 107 35.5t40 95.5v16q0 60 -40 96.5t-107 36.5h-99v117h160q178 0 178 178v643q0 91 -43.5 135t-134.5 44h-160v116h99q67 0 107 36.5
t40 96.5v17q0 60 -40 95.5t-107 35.5h-252v117h266q111 0 190.5 -73t79.5 -183z" />
    <glyph glyph-name="uniE010" unicode="&#xe010;" horiz-adv-x="1187" 
d="M102 717q0 132 66.5 245t180 179.5t245.5 66.5t245 -66.5t179.5 -179.5t66.5 -245t-66.5 -245.5t-179.5 -180t-245 -66.5q-99 0 -190 39.5t-157 105.5t-105.5 157t-39.5 190zM932 717q0 139 -100 238.5t-238 99.5t-238 -99.5t-100 -238.5t99 -238.5t239 -99.5t239 99.5
t99 238.5z" />
    <glyph glyph-name="uniE011" unicode="&#xe011;" horiz-adv-x="1495" 
d="M102 717q-3 127 49.5 247.5t140.5 208.5t208.5 140t247.5 49q127 3 247.5 -49t208.5 -140t140 -208.5t49 -247.5q3 -127 -49 -247.5t-140 -208.5t-208.5 -140t-247.5 -49q-127 -3 -247.5 49t-208.5 140t-140.5 208.5t-49.5 247.5zM1239 717q0 132 -66.5 245t-179.5 179.5
t-245 66.5t-245.5 -66.5t-180 -179.5t-66.5 -245q0 -99 39.5 -190t105.5 -157t157 -105.5t190 -39.5q132 0 245 66.5t179.5 180t66.5 245.5z" />
    <glyph glyph-name="uniE012" unicode="&#xe012;" horiz-adv-x="1802" 
d="M102 717q-4 158 61 307t174 257.5t258 173t306 61.5q157 3 306 -61.5t258 -173t174 -257.5t61 -307q4 -157 -61 -306t-174 -258t-258 -174t-306 -61q-157 -4 -306 61t-258 174t-174 258t-61 306zM1546 717q3 127 -49 247.5t-140 208.5t-208.5 140t-247.5 49
q-127 3 -247.5 -49t-208.5 -140t-140 -208.5t-49 -247.5q-3 -127 49 -247.5t140 -208.5t208.5 -140t247.5 -49q127 -3 247.5 49t208.5 140t140 208.5t49 247.5z" />
    <glyph glyph-name="uniE013" unicode="&#xe013;" horiz-adv-x="1187" 
d="M102 717q0 132 66.5 245t180 179.5t245.5 66.5t245 -66.5t179.5 -179.5t66.5 -245t-66.5 -245.5t-179.5 -180t-245 -66.5q-99 0 -190 39.5t-157 105.5t-105.5 157t-39.5 190zM932 717q0 139 -100 238.5t-238 99.5t-238 -99.5t-100 -238.5t99 -238.5t239 -99.5t239 99.5
t99 238.5zM410 717q0 76 55 130t129 54q75 0 129.5 -54t54.5 -130q0 -75 -54.5 -130t-129.5 -55q-74 0 -129 55t-55 130z" />
    <glyph glyph-name="uniE014" unicode="&#xe014;" horiz-adv-x="1495" 
d="M102 717q-3 127 49.5 247.5t140.5 208.5t208.5 140t247.5 49q127 3 247.5 -49t208.5 -140t140 -208.5t49 -247.5q3 -127 -49 -247.5t-140 -208.5t-208.5 -140t-247.5 -49q-127 -3 -247.5 49t-208.5 140t-140.5 208.5t-49.5 247.5zM1239 717q0 132 -66.5 245t-179.5 179.5
t-245 66.5t-245.5 -66.5t-180 -179.5t-66.5 -245q0 -99 39.5 -190t105.5 -157t157 -105.5t190 -39.5q132 0 245 66.5t179.5 180t66.5 245.5zM410 717q0 139 100 238.5t238 99.5t237.5 -99.5t99.5 -238.5t-99.5 -238.5t-237.5 -99.5t-238 99.5t-100 238.5zM932 717
q0 77 -54 130.5t-130 53.5q-75 0 -130 -54t-55 -130q0 -75 55 -130t130 -55q76 0 130 55t54 130z" />
    <glyph glyph-name="uniE015" unicode="&#xe015;" horiz-adv-x="1802" 
d="M102 717q-4 158 61 307t174 257.5t258 173t306 61.5q157 3 306 -61.5t258 -173t174 -257.5t61 -307q4 -157 -61 -306t-174 -258t-258 -174t-306 -61q-157 -4 -306 61t-258 174t-174 258t-61 306zM1546 717q3 127 -49 247.5t-140 208.5t-208.5 140t-247.5 49
q-127 3 -247.5 -49t-208.5 -140t-140 -208.5t-49 -247.5q-3 -127 49 -247.5t140 -208.5t208.5 -140t247.5 -49q127 -3 247.5 49t208.5 140t140 208.5t49 247.5zM410 717q0 132 66.5 245t179.5 179.5t245 66.5t245.5 -66.5t180 -179.5t66.5 -245q0 -99 -39.5 -190
t-105.5 -157t-157 -105.5t-190 -39.5q-132 0 -245 66.5t-179.5 180t-66.5 245.5zM1239 717q0 139 -100 238.5t-238 99.5t-238 -99.5t-100 -238.5t99.5 -238.5t238.5 -99.5t238.5 99.5t99.5 238.5zM717 717q0 76 55 130t129 54q77 0 130.5 -53.5t53.5 -130.5q0 -75 -54 -130
t-130 -55q-74 0 -129 55t-55 130z" />
    <glyph glyph-name="uniE016" unicode="&#xe016;" horiz-adv-x="1310" 
d="M164 717q0 132 66.5 245t179.5 179.5t245 66.5t245.5 -66.5t180 -179.5t66.5 -245q0 -99 -39.5 -190t-105.5 -157t-157 -105.5t-190 -39.5q-132 0 -245 66.5t-179.5 180t-66.5 245.5z" />
    <glyph glyph-name="uniE017" unicode="&#xe017;" horiz-adv-x="1433" 
d="M102 717q-3 121 46.5 235.5t133.5 198t199 133t236 47.5q121 2 235.5 -47.5t198 -133t133 -198t47.5 -235.5q2 -121 -47.5 -236t-133 -199t-198 -133.5t-235.5 -46.5q-121 -3 -236 46.5t-199 133.5t-133.5 199t-46.5 236z" />
    <glyph glyph-name="uniE018" unicode="&#xe018;" horiz-adv-x="1679" 
d="M102 717q-3 145 56.5 282.5t160 238t238 160t283.5 56.5q97 2 192 -24.5t176.5 -75t151 -118t118 -151t75 -176.5t24.5 -192q2 -117 -35.5 -229.5t-107 -204t-161.5 -161.5t-204.5 -107t-228.5 -35q-146 -3 -283.5 56.5t-238 159.5t-160 237.5t-56.5 283.5z" />
    <glyph glyph-name="uniF8FF" unicode="&#xf8ff;" horiz-adv-x="1961" 
d="M1942 1448q56 0 108 -13t76 -32q0 -49 -8 -57q-15 -15 -64 -15q-43 0 -67 8q3 -90 -37.5 -155.5t-120.5 -57.5q-34 -109 -135 -155q-101 -43 -217 -43q-36 0 -56 2q0 -3 35 -119q34 -112 55 -279l29 -32q87 -100 137 -144q42 -37 76.5 -82t46.5 -77q4 -12 4 -23
q0 -28 -39 -37q-40 23 -73 54t-93 98q-65 74 -96 102v-29q0 -83 31 -212q19 -82 22 -115q-28 -25 -59 -25q-24 0 -27 19q-27 47 -42 128.5t-29 221.5q-3 54 -8 70q-21 3 -177 -13q-192 -19 -315 -35q-154 -20 -252 -43q-3 -63 22.5 -112t84.5 -121q36 -49 52.5 -72.5
t32.5 -55t25 -63.5q-18 -22 -43 -22q-18 0 -33 12q-21 11 -39.5 33t-62.5 84l-37 53q-34 50 -51 92q-21 50 -35 58q-99 -294 -129 -291h-16q-48 0 -45 41q3 54 39 164q40 115 88 196l-82 8q-120 9 -194.5 25.5t-121.5 54.5q-8 8 -20 29q25 26 74 59q3 1 6.5 3.5t8.5 6t9 5.5
q17 24 36 41t67 53q46 35 69.5 56t42.5 50q-18 15 -59 33q-64 33 -93.5 54.5t-39.5 48.5l18 39q14 14 187 -70q1 4 1.5 11t1 19t1.5 21q3 71 16 94q3 10 34 18.5t42 8.5q7 -4 14.5 -14.5t7.5 -16.5q3 -16 -10 -71q0 -5 -5 -41.5t-5 -55.5v-18q75 8 223 59q146 48 283 84
q140 36 315 56q-41 71 -41 157q0 74 35 115q130 3 201 -47t71 -129q0 -34 -12 -68q41 1 84 27t49 51q-16 16 -55 39q-28 15 -42.5 29t-21.5 39q-32 35 -32 79q0 35 23.5 65.5t64.5 47.5q38 10 57 10q62 0 100.5 -48t38.5 -124q0 -23 -2 -37q49 24 49 170q0 37 -2 64
q32 4 50 4zM1757 1239q0 33 -20.5 60.5t-55.5 37.5q-12 -18 -12 -41q0 -32 25.5 -59.5t56.5 -32.5q6 15 6 35zM1513 1112q-57 57 -116 57q-8 -21 -8 -51q0 -54 24 -78q6 -6 21 -6q20 0 51 8q0 -2 7 4.5t14 24t7 41.5zM872 494q357 57 527 57q-5 38 -23 94q-3 8 -7.5 29.5
t-8.5 34.5q-8 50 -10 77q-5 40 -12 61.5t-25 43.5q-122 -10 -252 -35q-94 -18 -182 -47q-61 -18 -164 -57q-93 -37 -152 -52q26 -102 47 -202l8 -39q46 5 254 35zM473 461q23 0 37 2q-27 83 -27 84q-20 78 -32 102l-62 -53q-5 -5 -20 -18.5t-19.5 -17.5t-15.5 -14.5
t-15.5 -16t-12 -14t-13 -16t-10.5 -16.5q146 -22 190 -22z" />
    <glyph glyph-name="NULL" horiz-adv-x="1228" 
 />
    <glyph glyph-name="G.ss02" horiz-adv-x="1720" 
d="M119 717q-2 158 53 295t155 235t246 153t318 54q309 0 490 -133.5t196 -347.5h-164q-22 163 -152 253.5t-354 90.5h-33q-271 0 -437.5 -161.5t-166.5 -438.5q0 -280 171.5 -440t463.5 -160h19q252 0 383 104.5t131 274.5v71h-545v138h696v-183q0 -259 -177.5 -400.5
t-498.5 -141.5q-181 0 -331 55t-251 152.5t-156.5 233t-55.5 296.5z" />
    <glyph glyph-name="Gbreve.ss02" horiz-adv-x="1720" 
d="M119 717q-2 158 53 295t155 235t246 153t318 54q309 0 490 -133.5t196 -347.5h-164q-22 163 -152 253.5t-354 90.5h-33q-271 0 -437.5 -161.5t-166.5 -438.5q0 -280 171.5 -440t463.5 -160h19q252 0 383 104.5t131 274.5v71h-545v138h696v-183q0 -259 -177.5 -400.5
t-498.5 -141.5q-181 0 -331 55t-251 152.5t-156.5 233t-55.5 296.5zM567 1843h123q12 -78 70.5 -121t152.5 -43t155.5 44.5t68.5 119.5h123q-3 -121 -102.5 -198.5t-244.5 -77.5q-144 0 -242 77t-104 199z" />
    <glyph glyph-name="Gcircumflex.ss02" horiz-adv-x="1720" 
d="M119 717q-2 158 53 295t155 235t246 153t318 54q309 0 490 -133.5t196 -347.5h-164q-22 163 -152 253.5t-354 90.5h-33q-271 0 -437.5 -161.5t-166.5 -438.5q0 -280 171.5 -440t463.5 -160h19q252 0 383 104.5t131 274.5v71h-545v138h696v-183q0 -259 -177.5 -400.5
t-498.5 -141.5q-181 0 -331 55t-251 152.5t-156.5 233t-55.5 296.5zM516 1567l297 256h201l297 -256h-148l-250 153l-249 -153h-148z" />
    <glyph glyph-name="uni0122.ss02" horiz-adv-x="1720" 
d="M119 717q-2 158 53 295t155 235t246 153t318 54q309 0 490 -133.5t196 -347.5h-164q-22 163 -152 253.5t-354 90.5h-33q-271 0 -437.5 -161.5t-166.5 -438.5q0 -280 171.5 -440t463.5 -160h19q252 0 383 104.5t131 274.5v71h-545v138h696v-183q0 -259 -177.5 -400.5
t-498.5 -141.5q-181 0 -331 55t-251 152.5t-156.5 233t-55.5 296.5zM795 -512v76h36q44 0 63 18.5t19 59.5v20h-84v154h168v-174q0 -69 -44 -111.5t-117 -42.5h-41z" />
    <glyph glyph-name="Gdotaccent.ss02" horiz-adv-x="1720" 
d="M119 717q-2 158 53 295t155 235t246 153t318 54q309 0 490 -133.5t196 -347.5h-164q-22 163 -152 253.5t-354 90.5h-33q-271 0 -437.5 -161.5t-166.5 -438.5q0 -280 171.5 -440t463.5 -160h19q252 0 383 104.5t131 274.5v71h-545v138h696v-183q0 -259 -177.5 -400.5
t-498.5 -141.5q-181 0 -331 55t-251 152.5t-156.5 233t-55.5 296.5zM834 1597v175h159v-175h-159z" />
    <glyph glyph-name="R.ss02" horiz-adv-x="1636" 
d="M217 0v1434h744q223 0 351 -115t128 -287q0 -127 -72.5 -225t-161.5 -125q30 -3 49.5 -7t37 -16t27 -21t23 -37t22 -49.5t26.5 -70.5l168 -481h-164l-146 424q-44 118 -72 141.5t-135 30.5h-675v-596h-150zM367 733h583q157 0 247.5 78.5t90.5 210.5q0 125 -91 199.5
t-247 74.5h-583v-563z" />
    <glyph glyph-name="Racute.ss02" horiz-adv-x="1636" 
d="M217 0v1434h744q223 0 351 -115t128 -287q0 -127 -72.5 -225t-161.5 -125q30 -3 49.5 -7t37 -16t27 -21t23 -37t22 -49.5t26.5 -70.5l168 -481h-164l-146 424q-44 118 -72 141.5t-135 30.5h-675v-596h-150zM367 733h583q157 0 247.5 78.5t90.5 210.5q0 125 -91 199.5
t-247 74.5h-583v-563zM719 1567l160 256h192l-221 -256h-131z" />
    <glyph glyph-name="Rcaron.ss02" horiz-adv-x="1636" 
d="M217 0v1434h744q223 0 351 -115t128 -287q0 -127 -72.5 -225t-161.5 -125q30 -3 49.5 -7t37 -16t27 -21t23 -37t22 -49.5t26.5 -70.5l168 -481h-164l-146 424q-44 118 -72 141.5t-135 30.5h-675v-596h-150zM367 733h583q157 0 247.5 78.5t90.5 210.5q0 125 -91 199.5
t-247 74.5h-583v-563zM666 1567l-277 256h148l229 -152l229 152h148l-277 -256h-200z" />
    <glyph glyph-name="uni0156.ss02" horiz-adv-x="1636" 
d="M217 0v1434h744q223 0 351 -115t128 -287q0 -127 -72.5 -225t-161.5 -125q30 -3 49.5 -7t37 -16t27 -21t23 -37t22 -49.5t26.5 -70.5l168 -481h-164l-146 424q-44 118 -72 141.5t-135 30.5h-675v-596h-150zM367 733h583q157 0 247.5 78.5t90.5 210.5q0 125 -91 199.5
t-247 74.5h-583v-563zM764 -512v76h37q44 0 63 18.5t19 59.5v20h-84v154h168v-174q0 -69 -44.5 -111.5t-117.5 -42.5h-41z" />
    <glyph glyph-name="i.locl" horiz-adv-x="495" 
d="M178 0v1024h139v-1024h-139zM166 1208v174h160v-174h-160z" />
    <glyph glyph-name="a.salt" horiz-adv-x="1390" 
d="M109 512q0 248 149.5 390t398.5 142q138 0 245.5 -51t176.5 -139v170h133v-1024h-133v174q-153 -194 -422 -194q-249 0 -398.5 142t-149.5 390zM649 96h21q108 0 199.5 46.5t150.5 143t59 226.5t-59 226.5t-150.5 143t-199.5 46.5h-21q-177 0 -288 -108.5t-111 -307.5
t111 -307.5t288 -108.5z" />
    <glyph glyph-name="aacute.salt" horiz-adv-x="1390" 
d="M109 512q0 248 149.5 390t398.5 142q138 0 245.5 -51t176.5 -139v170h133v-1024h-133v174q-153 -194 -422 -194q-249 0 -398.5 142t-149.5 390zM649 96h21q108 0 199.5 46.5t150.5 143t59 226.5t-59 226.5t-150.5 143t-199.5 46.5h-21q-177 0 -288 -108.5t-111 -307.5
t111 -307.5t288 -108.5zM616 1167l158 267h174l-221 -267h-111z" />
    <glyph glyph-name="abreve.salt" horiz-adv-x="1390" 
d="M109 512q0 248 149.5 390t398.5 142q138 0 245.5 -51t176.5 -139v170h133v-1024h-133v174q-153 -194 -422 -194q-249 0 -398.5 142t-149.5 390zM649 96h21q108 0 199.5 46.5t150.5 143t59 226.5t-59 226.5t-150.5 143t-199.5 46.5h-21q-177 0 -288 -108.5t-111 -307.5
t111 -307.5t288 -108.5zM315 1456h111q9 -79 77.5 -130.5t168.5 -51.5q99 0 166.5 51t79.5 131h110q-3 -118 -105.5 -202.5t-250.5 -84.5q-149 0 -251.5 84t-105.5 203z" />
    <glyph glyph-name="acircumflex.salt" horiz-adv-x="1390" 
d="M109 512q0 248 149.5 390t398.5 142q138 0 245.5 -51t176.5 -139v170h133v-1024h-133v174q-153 -194 -422 -194q-249 0 -398.5 142t-149.5 390zM649 96h21q108 0 199.5 46.5t150.5 143t59 226.5t-59 226.5t-150.5 143t-199.5 46.5h-21q-177 0 -288 -108.5t-111 -307.5
t111 -307.5t288 -108.5zM272 1167l322 267h158l321 -267h-141l-260 160l-260 -160h-140z" />
    <glyph glyph-name="adieresis.salt" horiz-adv-x="1390" 
d="M109 512q0 248 149.5 390t398.5 142q138 0 245.5 -51t176.5 -139v170h133v-1024h-133v174q-153 -194 -422 -194q-249 0 -398.5 142t-149.5 390zM649 96h21q108 0 199.5 46.5t150.5 143t59 226.5t-59 226.5t-150.5 143t-199.5 46.5h-21q-177 0 -288 -108.5t-111 -307.5
t111 -307.5t288 -108.5zM371 1208v164h157v-164h-157zM815 1208v164h158v-164h-158z" />
    <glyph glyph-name="uni0227.salt" horiz-adv-x="1390" 
d="M109 512q0 248 149.5 390t398.5 142q138 0 245.5 -51t176.5 -139v170h133v-1024h-133v174q-153 -194 -422 -194q-249 0 -398.5 142t-149.5 390zM649 96h21q108 0 199.5 46.5t150.5 143t59 226.5t-59 226.5t-150.5 143t-199.5 46.5h-21q-177 0 -288 -108.5t-111 -307.5
t111 -307.5t288 -108.5zM590 1208v174h160v-174h-160z" />
    <glyph glyph-name="uni1EA1.salt" horiz-adv-x="1390" 
d="M109 512q0 248 149.5 390t398.5 142q138 0 245.5 -51t176.5 -139v170h133v-1024h-133v174q-153 -194 -422 -194q-249 0 -398.5 142t-149.5 390zM649 96h21q108 0 199.5 46.5t150.5 143t59 226.5t-59 226.5t-150.5 143t-199.5 46.5h-21q-177 0 -288 -108.5t-111 -307.5
t111 -307.5t288 -108.5zM594 -338v154h158v-154h-158z" />
    <glyph glyph-name="agrave.salt" horiz-adv-x="1390" 
d="M109 512q0 248 149.5 390t398.5 142q138 0 245.5 -51t176.5 -139v170h133v-1024h-133v174q-153 -194 -422 -194q-249 0 -398.5 142t-149.5 390zM649 96h21q108 0 199.5 46.5t150.5 143t59 226.5t-59 226.5t-150.5 143t-199.5 46.5h-21q-177 0 -288 -108.5t-111 -307.5
t111 -307.5t288 -108.5zM616 1167l-221 267h174l158 -267h-111z" />
    <glyph glyph-name="amacron.salt" horiz-adv-x="1390" 
d="M109 512q0 248 149.5 390t398.5 142q138 0 245.5 -51t176.5 -139v170h133v-1024h-133v174q-153 -194 -422 -194q-249 0 -398.5 142t-149.5 390zM649 96h21q108 0 199.5 46.5t150.5 143t59 226.5t-59 226.5t-150.5 143t-199.5 46.5h-21q-177 0 -288 -108.5t-111 -307.5
t111 -307.5t288 -108.5zM324 1208v113h632v-113h-632z" />
    <glyph glyph-name="aogonek.salt" horiz-adv-x="1390" 
d="M109 512q0 248 149.5 390t398.5 142q138 0 245.5 -51t176.5 -139v170h133v-1024h-133v174q-153 -194 -422 -194q-249 0 -398.5 142t-149.5 390zM649 96h21q108 0 199.5 46.5t150.5 143t59 226.5t-59 226.5t-150.5 143t-199.5 46.5h-21q-177 0 -288 -108.5t-111 -307.5
t111 -307.5t288 -108.5zM915 -240q0 75 63 144t177 116l57 -20q-190 -107 -190 -205q0 -78 125 -78h92v-116h-92q-116 0 -174 41t-58 118z" />
    <glyph glyph-name="aring.salt" horiz-adv-x="1390" 
d="M109 512q0 248 149.5 390t398.5 142q138 0 245.5 -51t176.5 -139v170h133v-1024h-133v174q-153 -194 -422 -194q-249 0 -398.5 142t-149.5 390zM649 96h21q108 0 199.5 46.5t150.5 143t59 226.5t-59 226.5t-150.5 143t-199.5 46.5h-21q-177 0 -288 -108.5t-111 -307.5
t111 -307.5t288 -108.5zM451 1360q0 75 65.5 132.5t155.5 57.5q89 0 156 -58t67 -132q0 -78 -66.5 -134.5t-156.5 -56.5q-91 0 -156 56.5t-65 134.5zM788 1360q0 43 -31.5 69.5t-82.5 26.5t-84 -26.5t-33 -69.5t33 -69.5t84 -26.5t82.5 26.5t31.5 69.5z" />
    <glyph glyph-name="aringacute.salt" horiz-adv-x="1390" 
d="M109 512q0 248 149.5 390t398.5 142q138 0 245.5 -51t176.5 -139v170h133v-1024h-133v174q-153 -194 -422 -194q-249 0 -398.5 142t-149.5 390zM649 96h21q108 0 199.5 46.5t150.5 143t59 226.5t-59 226.5t-150.5 143t-199.5 46.5h-21q-177 0 -288 -108.5t-111 -307.5
t111 -307.5t288 -108.5zM625 1614l116 266h170l-180 -266h-106zM455 1360q0 75 65.5 132.5t155.5 57.5q89 0 156 -58t67 -132q0 -78 -66.5 -134.5t-156.5 -56.5q-91 0 -156 56.5t-65 134.5zM793 1360q0 43 -32 69.5t-83 26.5t-84 -26.5t-33 -69.5t33 -69.5t84 -26.5t83 26.5
t32 69.5z" />
    <glyph glyph-name="atilde.salt" horiz-adv-x="1390" 
d="M109 512q0 248 149.5 390t398.5 142q138 0 245.5 -51t176.5 -139v170h133v-1024h-133v174q-153 -194 -422 -194q-249 0 -398.5 142t-149.5 390zM649 96h21q108 0 199.5 46.5t150.5 143t59 226.5t-59 226.5t-150.5 143t-199.5 46.5h-21q-177 0 -288 -108.5t-111 -307.5
t111 -307.5t288 -108.5zM666 1239l-66 43q-61 39 -115 39q-47 0 -73.5 -34t-26.5 -97h-113v27q0 99 58.5 159t152.5 60q88 0 164 -52l70 -45q6 -2 16 -12q66 -35 94 -40q16 -3 33 -3q47 0 71.5 34t24.5 97h113v-26q0 -97 -59.5 -158.5t-145.5 -61.5q-49 0 -94 15t-104 55z
" />
    <glyph glyph-name="y.ss03" horiz-adv-x="1212" 
d="M1028 1024h156l-617 -1239q-36 -71 -82 -97t-127 -26h-286v117h243q61 0 89.5 18.5t54.5 77.5l84 168l-514 981h159l430 -829z" />
    <glyph glyph-name="yacute.ss03" horiz-adv-x="1212" 
d="M1028 1024h156l-617 -1239q-36 -71 -82 -97t-127 -26h-286v117h243q61 0 89.5 18.5t54.5 77.5l84 168l-514 981h159l430 -829zM551 1167l158 267h174l-221 -267h-111z" />
    <glyph glyph-name="ycircumflex.ss03" horiz-adv-x="1212" 
d="M1028 1024h156l-617 -1239q-36 -71 -82 -97t-127 -26h-286v117h243q61 0 89.5 18.5t54.5 77.5l84 168l-514 981h159l430 -829zM207 1167l321 267h158l322 -267h-142l-260 160l-260 -160h-139z" />
    <glyph glyph-name="ydieresis.ss03" horiz-adv-x="1212" 
d="M1028 1024h156l-617 -1239q-36 -71 -82 -97t-127 -26h-286v117h243q61 0 89.5 18.5t54.5 77.5l84 168l-514 981h159l430 -829zM305 1208v164h158v-164h-158zM750 1208v164h157v-164h-157z" />
    <glyph glyph-name="ygrave.ss03" horiz-adv-x="1212" 
d="M1028 1024h156l-617 -1239q-36 -71 -82 -97t-127 -26h-286v117h243q61 0 89.5 18.5t54.5 77.5l84 168l-514 981h159l430 -829zM551 1167l-221 267h174l158 -267h-111z" />
    <glyph glyph-name="uni0233.ss03" horiz-adv-x="1212" 
d="M1028 1024h156l-617 -1239q-36 -71 -82 -97t-127 -26h-286v117h243q61 0 89.5 18.5t54.5 77.5l84 168l-514 981h159l430 -829zM258 1208v113h633v-113h-633z" />
    <glyph glyph-name="I_S_B_N" horiz-adv-x="5226" 
d="M5028 872v-872h-150v856q0 221 -120 341t-324 120h-33q-220 0 -332 -117t-112 -344v-856h-150v872q0 282 153 432t458 150q303 0 456.5 -151.5t153.5 -430.5zM3461 389q0 -117 -60 -206.5t-159.5 -136t-222.5 -46.5h-778v801h722q148 0 230 66t82 184q0 113 -84 179
t-228 66h-1730q-359 0 -359 -241q0 -102 77.5 -158t252.5 -84l230 -37q228 -37 344 -136t116 -253q0 -188 -131.5 -287.5t-369.5 -99.5h-1176v1434h139v-1297h1030q367 0 367 242q0 100 -88.5 165t-275.5 95l-224 37q-231 37 -331.5 122t-100.5 253q0 80 27 147t84 121
t156 84.5t233 30.5h1761q185 0 308.5 -103.5t123.5 -269.5q0 -121 -61.5 -207t-169.5 -123q108 -30 187 -122t79 -220zM3310 403q0 121 -89.5 191t-242.5 70h-588v-527h588q157 0 244.5 69t87.5 197z" />
    <glyph glyph-name="w_w_w" horiz-adv-x="4841" 
d="M4678 1024h149l-383 -1024h-166l-303 850l-305 -850h-164l-307 823l-309 -823h-166l-303 850l-305 -850h-164l-307 825l-310 -825h-166l-303 850l-305 -850h-164l-383 1024h150l321 -864l312 864h137l326 -881l309 881h149l322 -864l311 864h137l326 -881l309 881h150
l321 -864l312 864h137l325 -881z" />
    <glyph glyph-name="a.sups_salt" horiz-adv-x="825" 
d="M68 1143q0 129 82.5 215t218.5 86q76 0 133 -29t90 -76v95h117v-584h-117v92q-82 -102 -232 -102q-136 0 -214 86t-78 217zM588 1143q0 95 -52.5 150t-148.5 55q-93 0 -146 -55.5t-53 -149.5q0 -93 54 -150t145 -57q95 0 148 56.5t53 150.5z" />
    <glyph glyph-name="y.sups_ss03" horiz-adv-x="690" 
d="M23 614v97h149q29 0 45 14.5t35 56.5l45 97l-291 555h129l223 -422l195 422h129l-315 -672q-29 -64 -46.5 -90t-43.5 -40t-74 -18h-180z" />
    <glyph glyph-name="a.sups" horiz-adv-x="743" 
d="M72 1014q0 82 59.5 128.5t163.5 57.5l221 21v18q0 50 -43.5 79.5t-110.5 29.5h-6q-64 0 -109.5 -27.5t-45.5 -73.5h-121q6 91 87.5 144t194.5 53q114 0 194.5 -57.5t80.5 -151.5v-258q0 -83 6 -127h-111q-10 52 -10 84q-30 -40 -94 -67t-137 -27q-95 0 -157 48t-62 126z
M322 936h6q84 0 136 35.5t52 101.5v62l-188 -17q-135 -14 -135 -96q0 -40 35.5 -63t93.5 -23z" />
    <glyph glyph-name="b.sups" horiz-adv-x="835" 
d="M242 940v-90h-125v809h125v-326q28 45 89.5 78t133.5 33q138 0 220.5 -85t82.5 -214q0 -131 -82.5 -218t-226.5 -87q-65 0 -125.5 27t-91.5 73zM643 1145q0 94 -53 148.5t-148 54.5t-146.5 -55t-51.5 -150q0 -96 51.5 -151.5t146.5 -55.5t148 57t53 152z" />
    <glyph glyph-name="c.sups" horiz-adv-x="737" 
d="M70 1135q0 142 87 225.5t226 83.5q115 0 197 -55.5t94 -147.5h-127q-10 49 -54 78t-106 29h-6q-90 0 -138 -58.5t-48 -154.5q0 -93 47 -146t139 -53h6q60 0 102.5 27.5t55.5 76.5h125q-12 -92 -95 -146t-196 -54q-143 0 -226 77t-83 218z" />
    <glyph glyph-name="d.sups" horiz-adv-x="835" 
d="M68 1145q0 129 84 214t223 85q74 0 130.5 -29t88.5 -74v318h125v-809h-125v90q-31 -46 -91.5 -73t-125.5 -27q-144 0 -226.5 87t-82.5 218zM592 1143q0 95 -52 150t-147 55t-147.5 -54.5t-52.5 -148.5q0 -96 52.5 -152.5t147.5 -56.5t147 56t52 151z" />
    <glyph glyph-name="e.sups" horiz-adv-x="743" 
d="M68 1137q0 131 86 219t223 88q136 0 216.5 -84.5t80.5 -218.5q0 -31 -2 -41h-492q11 -80 60.5 -122t134.5 -42h10q59 0 106 24.5t64 67.5h109q-20 -86 -99.5 -137t-189.5 -51q-139 0 -223 81.5t-84 215.5zM182 1190h377q-5 71 -50 114.5t-128 43.5h-10
q-78 0 -127.5 -41.5t-61.5 -116.5z" />
    <glyph glyph-name="f.sups" horiz-adv-x="483" 
d="M176 850v491h-151v93h151v73q0 68 41 110t109 42h180v-88h-141q-37 0 -52.5 -15.5t-15.5 -56.5v-65h164v-93h-164v-491h-121z" />
    <glyph glyph-name="g.sups" horiz-adv-x="833" 
d="M70 791h118q21 -48 66 -69.5t131 -21.5h6q103 0 157 48.5t54 156.5v33q-69 -98 -235 -98q-134 0 -216.5 87t-82.5 214q0 132 82 217.5t227 85.5q68 0 127.5 -24t97.5 -68v82h117v-545q0 -132 -86.5 -208.5t-245.5 -76.5q-141 0 -225 50.5t-92 136.5zM379 936h18
q94 0 150.5 56.5t56.5 150.5q0 92 -56.5 148.5t-146.5 56.5h-14q-90 0 -146.5 -56.5t-56.5 -148.5q0 -94 53.5 -150.5t141.5 -56.5z" />
    <glyph glyph-name="h.sups" horiz-adv-x="811" 
d="M117 850v809h125v-322q32 49 87 78t122 29q119 0 186.5 -65t67.5 -171v-358h-125v338q0 77 -40 118.5t-110 41.5h-12q-74 0 -125 -54.5t-51 -136.5v-307h-125z" />
    <glyph glyph-name="i.sups" horiz-adv-x="354" 
d="M111 1530v129h133v-129h-133zM117 850v584h121v-584h-121z" />
    <glyph glyph-name="j.sups" horiz-adv-x="354" 
d="M111 1530v129h133v-129h-133zM-98 614v97h151q35 0 49.5 15t14.5 52v656h121v-672q0 -66 -41.5 -107t-110.5 -41h-184z" />
    <glyph glyph-name="k.sups" horiz-adv-x="757" 
d="M117 850v809h121v-483l309 258h166l-287 -238l303 -346h-151l-238 274l-102 -84v-190h-121z" />
    <glyph glyph-name="l.sups" horiz-adv-x="354" 
d="M117 850v809h121v-809h-121z" />
    <glyph glyph-name="m.sups" horiz-adv-x="1224" 
d="M117 850v584h125v-84q21 40 75 67t121 27q148 0 207 -109q37 53 98 81t129 28q117 0 181.5 -67t64.5 -179v-348h-125v338q0 83 -30.5 121.5t-106.5 38.5h-6q-69 0 -119.5 -58t-50.5 -133v-307h-125v338q0 76 -35 118t-102 42h-6q-77 0 -123.5 -57t-46.5 -138v-303h-125z
" />
    <glyph glyph-name="n.sups" horiz-adv-x="811" 
d="M117 850v584h125v-97q32 49 87 78t122 29q119 0 186.5 -65t67.5 -171v-358h-125v338q0 77 -40 118.5t-110 41.5h-12q-74 0 -125 -54.5t-51 -136.5v-307h-125z" />
    <glyph glyph-name="o.sups" horiz-adv-x="794" 
d="M68 1141q0 137 90 220t239 83t239.5 -83t90.5 -220q0 -136 -90.5 -218.5t-239.5 -82.5t-239 82t-90 219zM393 936h10q92 0 145.5 56t53.5 149q0 94 -54.5 150.5t-146.5 56.5h-8q-92 0 -146 -57t-54 -150t53.5 -149t146.5 -56z" />
    <glyph glyph-name="p.sups" horiz-adv-x="835" 
d="M117 625v809h125v-91q31 48 91 74.5t126 26.5q143 0 226 -87t83 -218q0 -127 -85 -213t-222 -86q-73 0 -130 28t-89 70v-313h-125zM643 1139q0 95 -53 152t-148 57q-96 0 -147 -55.5t-51 -151.5t51 -150.5t147 -54.5q95 0 148 54.5t53 148.5z" />
    <glyph glyph-name="q.sups" horiz-adv-x="835" 
d="M594 625v317q-31 -45 -88 -73.5t-131 -28.5q-137 0 -222 86t-85 213q0 131 83 218t226 87q66 0 126 -26.5t91 -74.5v91h125v-809h-125zM592 1141q0 95 -52 151t-147 56t-147.5 -56.5t-52.5 -152.5q0 -94 52.5 -148.5t147.5 -54.5t147 55t52 150z" />
    <glyph glyph-name="r.sups" horiz-adv-x="520" 
d="M117 850v584h121v-127q20 61 70.5 94t119.5 33h68v-109h-93q-82 0 -123.5 -60.5t-41.5 -158.5v-256h-121z" />
    <glyph glyph-name="s.sups" horiz-adv-x="692" 
d="M66 1040h120q0 -51 42.5 -77.5t121.5 -26.5h12q140 0 140 76q0 66 -113 80l-117 14q-192 22 -192 162q0 82 71 129t193 47q121 0 194.5 -53.5t73.5 -143.5h-120q0 49 -39.5 75t-106.5 26h-12q-63 0 -99 -18t-36 -50q0 -34 22 -50.5t98 -27.5l99 -14q99 -17 151 -60
t52 -106q0 -87 -71.5 -134.5t-195.5 -47.5q-134 0 -211 53.5t-77 146.5z" />
    <glyph glyph-name="t.sups" horiz-adv-x="532" 
d="M168 993v348h-143v93h143v184h123v-184h176v-93h-176v-319q0 -39 18.5 -57.5t61.5 -18.5h108v-96h-155q-71 0 -113.5 40t-42.5 103z" />
    <glyph glyph-name="u.sups" horiz-adv-x="792" 
d="M106 1073v361h125v-340q0 -75 37.5 -118.5t100.5 -43.5h12q69 0 119.5 56.5t50.5 135.5v310h125v-584h-125v92q-25 -44 -81 -73t-134 -29q-107 0 -168.5 64t-61.5 169z" />
    <glyph glyph-name="v.sups" horiz-adv-x="684" 
d="M276 850l-262 584h125l205 -484l205 484h121l-262 -584h-132z" />
    <glyph glyph-name="w.sups" horiz-adv-x="1052" 
d="M266 850l-237 584h129l161 -435l154 435h117l143 -453l164 453h121l-225 -584h-111l-156 457l-149 -457h-111z" />
    <glyph glyph-name="x.sups" horiz-adv-x="724" 
d="M43 850l254 293l-250 291h143l175 -217l176 217h139l-250 -289l252 -295h-145l-175 217l-178 -217h-141z" />
    <glyph glyph-name="y.sups" horiz-adv-x="698" 
d="M61 614v97h160q34 0 48 15.5t14 47.5v127l-279 533h125l217 -418l223 418h127l-288 -533v-143q0 -61 -42 -102.5t-110 -41.5h-195z" />
    <glyph glyph-name="z.sups" horiz-adv-x="679" 
d="M68 850v63l370 428h-364v93h520v-80l-363 -408h383v-96h-546z" />
    <glyph glyph-name="zero.onum" horiz-adv-x="1417" 
d="M119 512q-3 146 75.5 269.5t215.5 194.5t299 68q166 0 301.5 -70t211.5 -191.5t76 -270.5t-76 -270.5t-211.5 -191.5t-301.5 -70q-162 -3 -299 68t-215.5 194.5t-75.5 269.5zM705 96h14q186 0 312 119.5t126 296.5t-126 296.5t-312 119.5h-21q-186 0 -312 -119.5
t-126 -296.5t128 -296.5t317 -119.5z" />
    <glyph glyph-name="one.onum" horiz-adv-x="870" 
d="M530 0v852l-440 -328v152l471 348h103v-1024h-134z" />
    <glyph glyph-name="two.onum" horiz-adv-x="1103" 
d="M756 434l-484 -311h682v-123h-817v186l514 330q102 66 145.5 112.5t43.5 110.5q0 80 -74 134.5t-199 54.5h-16q-115 0 -197 -63.5t-82 -153.5h-139q0 138 125.5 235.5t300.5 97.5q188 0 305 -81.5t117 -223.5q0 -85 -52 -156t-173 -149z" />
    <glyph glyph-name="three.onum" horiz-adv-x="1325" 
d="M104 -45h148q12 -121 122.5 -194.5t268.5 -73.5h27q170 0 278.5 83.5t108.5 211.5q0 123 -99 196.5t-274 73.5h-188v115h188q171 0 267 78t96 200q0 127 -103 205t-274 78h-27q-150 0 -256 -80.5t-115 -192.5h-143q6 168 153.5 278.5t376.5 110.5q238 0 383.5 -109.5
t145.5 -277.5q0 -132 -71.5 -219t-186.5 -127q113 -33 190.5 -120.5t77.5 -213.5q0 -188 -147 -297.5t-392 -109.5q-241 0 -393.5 104.5t-161.5 280.5z" />
    <glyph glyph-name="four.onum" horiz-adv-x="1417" 
d="M930 -410v410h-846v166l821 858h164v-907h287v-117h-287v-410h-139zM197 117h733v766z" />
    <glyph glyph-name="five.onum" horiz-adv-x="1298" 
d="M1194 37q0 -209 -155 -338t-402 -129q-229 0 -384.5 109.5t-174.5 289.5h143q24 -128 135.5 -205t264.5 -77h28q178 0 291 100t113 250q0 143 -109 236.5t-285 93.5h-28q-102 0 -203 -52.5t-152 -140.5h-147l174 850h852v-123h-752l-112 -555q66 66 168.5 101.5
t210.5 35.5q229 0 376.5 -127t147.5 -319z" />
    <glyph glyph-name="six.onum" horiz-adv-x="1429" 
d="M1288 471q0 -107 -44.5 -199t-120.5 -156t-179 -100t-217 -36q-283 0 -440.5 177.5t-157.5 512.5q-3 165 49 312.5t142 251.5t215 163.5t264 56.5q203 0 344 -96t174 -262h-139q-31 114 -126.5 177.5t-240.5 63.5h-20q-146 0 -263 -77.5t-190.5 -226.5t-87.5 -351
q59 120 189 192t292 72q240 0 398.5 -132.5t158.5 -342.5zM1147 461q0 161 -115 264.5t-295 103.5h-20q-183 0 -300.5 -103t-117.5 -263t117.5 -263.5t300.5 -103.5h20q179 0 294.5 102.5t115.5 262.5z" />
    <glyph glyph-name="seven.onum" horiz-adv-x="1212" 
d="M39 1024h1116v-139q-661 -361 -661 -1192v-103h-140v103q0 425 164.5 735t458.5 473h-938v123z" />
    <glyph glyph-name="eight.onum" horiz-adv-x="1327" 
d="M174 371q0 117 66 204t157 121q-52 20 -97.5 51t-85.5 74.5t-63.5 104t-23.5 129.5q0 171 152.5 285t384.5 114q233 0 384.5 -113t151.5 -286q0 -69 -23.5 -129.5t-63.5 -104t-85 -74.5t-96 -51q88 -35 155.5 -123t67.5 -202q0 -171 -141.5 -281t-349.5 -110
q-209 0 -349.5 110t-140.5 281zM649 762h29q170 0 275.5 79.5t105.5 205.5q0 130 -105 210t-276 80h-29q-171 0 -276 -80t-105 -210q0 -126 105.5 -205.5t275.5 -79.5zM649 96h29q146 0 241 78.5t95 198.5t-94.5 196t-241.5 76h-29q-145 0 -239.5 -77t-94.5 -195
q0 -120 94.5 -198.5t239.5 -78.5z" />
    <glyph glyph-name="nine.onum" horiz-adv-x="1398" 
d="M123 555q0 142 76 255.5t204 175t281 61.5q283 0 440.5 -178t157.5 -513q2 -165 -50 -312.5t-142 -251.5t-215 -163.5t-263 -56.5q-203 0 -344 96t-174 262h139q31 -114 126.5 -177.5t240.5 -63.5h21q146 0 263 77.5t190 226.5t87 351q-59 -120 -189 -192t-292 -72
q-240 0 -398.5 132.5t-158.5 342.5zM264 565q0 -161 115 -264.5t295 -103.5h20q183 0 300.5 103t117.5 263t-117.5 263.5t-300.5 103.5h-20q-179 0 -294.5 -102.5t-115.5 -262.5z" />
    <glyph glyph-name="zero.onum_zero" horiz-adv-x="1417" 
d="M1298 512q0 -149 -76 -270.5t-211.5 -191.5t-301.5 -70q-162 -3 -299 68t-215.5 194.5t-75.5 269.5q-3 146 75.5 269.5t215.5 194.5t299 68q166 0 301.5 -70t211.5 -191.5t76 -270.5zM352 252l619 604q-110 72 -252 72h-21q-186 0 -312 -119.5t-126 -296.5
q0 -148 92 -260zM1157 512q0 154 -92 260l-619 -602q112 -74 259 -74h14q186 0 312 119.5t126 296.5z" />
    <glyph glyph-name="zero.tnum" 
d="M137 717q0 178 46.5 320t128 232t190 137.5t235.5 47.5t235.5 -47.5t190 -137.5t128 -232t46.5 -320t-46.5 -320t-128 -232t-190 -137.5t-235.5 -47.5q-128 0 -236.5 47.5t-190 137.5t-127.5 232t-46 320zM723 117h29q66 0 126.5 18.5t118.5 63t100.5 111.5t68.5 171.5
t26 235.5t-26 235.5t-68.5 171.5t-100.5 111.5t-118.5 63t-126.5 18.5h-29q-65 0 -125.5 -18.5t-118.5 -63.5t-101 -111.5t-69 -171.5t-26 -235t26 -235t69 -171.5t101 -111.5t118.5 -63.5t125.5 -18.5z" />
    <glyph glyph-name="one.tnum" 
d="M909 133h428v-133h-1171v133h604v1096l-420 -328v172l461 361h98v-1301z" />
    <glyph glyph-name="two.tnum" 
d="M350 139h924v-139h-1077v197l655 512q71 53 152 125q112 104 112 225q0 116 -101.5 187t-260.5 71h-29q-159 0 -256.5 -85.5t-103.5 -215.5h-154q6 193 155 315.5t373 122.5q231 0 378 -106t147 -285q0 -96 -39 -170q-35 -70 -94.5 -130t-176.5 -151z" />
    <glyph glyph-name="three.tnum" 
d="M166 365h153q12 -77 68 -134t141 -85.5t187 -28.5h28q175 0 286.5 76.5t111.5 197.5t-101.5 189.5t-281.5 68.5h-185v137h185q175 0 273.5 76t98.5 195q0 122 -103.5 191t-283.5 69h-28q-145 0 -251 -73.5t-118 -178.5h-153q3 166 156 277.5t384 111.5
q248 0 396.5 -107.5t148.5 -283.5q0 -123 -69 -208.5t-183 -131.5q111 -33 186.5 -119t75.5 -205q0 -193 -151 -306t-404 -113q-245 0 -401.5 105.5t-165.5 279.5z" />
    <glyph glyph-name="four.tnum" 
d="M1032 477h291v-135h-291v-342h-139v342h-746v168l709 924h176v-957zM283 477h610v799z" />
    <glyph glyph-name="five.tnum" 
d="M1280 455q0 -216 -152 -345.5t-403 -129.5q-153 0 -272.5 44.5t-195 133t-91.5 211.5h153q30 -119 137 -185.5t255 -66.5h28q181 0 287.5 91.5t106.5 240.5q0 139 -106 223t-277 84h-29q-110 0 -206.5 -42t-145.5 -120h-152l174 840h852v-142h-754l-110 -530
q137 131 391 131q220 0 365 -123t145 -315z" />
    <glyph glyph-name="six.tnum" 
d="M1274 471q0 -222 -151.5 -356.5t-387.5 -134.5q-258 0 -403.5 167.5t-145.5 501.5q-3 223 78 408.5t227.5 292.5t325.5 104q195 0 327 -98t154 -260h-153q-20 90 -104 155.5t-210 65.5h-28q-195 0 -325.5 -161.5t-149.5 -422.5q62 103 174 157t254 54q143 0 259.5 -55.5
t187.5 -164.5t71 -253zM1124 461q0 161 -105.5 253.5t-260.5 92.5h-29q-158 0 -267.5 -92.5t-109.5 -251.5q0 -161 108 -253.5t269 -92.5h29q155 0 260.5 91.5t105.5 252.5z" />
    <glyph glyph-name="seven.tnum" 
d="M117 1434h1218v-160q-247 -125 -403 -290.5t-236 -398t-80 -544.5v-41h-147v59q0 431 180 751t486 480h-1018v144z" />
    <glyph glyph-name="eight.tnum" 
d="M240 371q0 115 70 203t163 122q-52 13 -101 42t-90.5 72t-66.5 105t-25 132q0 177 154 292t393 115q240 0 393.5 -113.5t153.5 -293.5q0 -70 -25 -132t-66.5 -105t-90.5 -72t-101 -42q93 -34 163.5 -122t70.5 -203q0 -173 -140 -282t-358 -109t-357.5 109t-139.5 282z
M723 772h29q182 0 283.5 68.5t101.5 197.5q0 130 -103.5 204.5t-281.5 74.5h-29q-178 0 -281.5 -74.5t-103.5 -204.5q0 -129 101.5 -197.5t283.5 -68.5zM723 117h29q150 0 242.5 72.5t92.5 189.5t-91 187.5t-244 70.5h-29q-153 0 -244.5 -70.5t-91.5 -187.5
q0 -118 91.5 -190t244.5 -72z" />
    <glyph glyph-name="nine.tnum" 
d="M201 963q0 222 151 356.5t387 134.5q258 0 403.5 -168t145.5 -502q2 -167 -45.5 -316.5t-130.5 -257.5t-202 -170t-253 -60q-195 0 -327 98t-154 260h154q20 -91 103.5 -156t209.5 -65h29q195 0 325.5 161t149.5 422q-62 -103 -174 -157t-254 -54q-143 0 -259.5 55.5
t-187.5 165t-71 253.5zM350 973q0 -161 106 -253.5t261 -92.5h28q158 0 267.5 92.5t109.5 251.5q0 161 -108 253.5t-269 92.5h-28q-155 0 -261 -91.5t-106 -252.5z" />
    <glyph glyph-name="zero.tnum_zero" 
d="M1337 717q0 -178 -46.5 -320t-128 -232t-190 -137.5t-235.5 -47.5q-128 0 -236.5 47.5t-190 137.5t-127.5 232t-46 320t46.5 320t128 232t190 137.5t235.5 47.5t235.5 -47.5t190 -137.5t128 -232t46.5 -320zM283 717q0 -180 49 -311l753 737q-60 88 -147 131t-186 43h-29
q-65 0 -125.5 -18.5t-118.5 -63.5t-101 -111.5t-69 -171.5t-26 -235zM1192 717q0 174 -43 299l-750 -735q60 -83 145.5 -123.5t178.5 -40.5h29q66 0 126.5 18.5t118.5 63t100.5 111.5t68.5 171.5t26 235.5z" />
    <glyph glyph-name="zero.zero" horiz-adv-x="1525" 
d="M1397 717q0 -178 -48.5 -319.5t-135 -232t-201 -138t-250.5 -47.5t-250.5 47.5t-200 138t-134 232t-48.5 319.5t48.5 320t134.5 232t200.5 137.5t249.5 47.5q136 0 250.5 -47.5t201 -138t135 -232t48.5 -319.5zM276 717q0 -216 74 -361l754 824q-128 136 -328 133h-28
q-58 1 -112.5 -12t-108.5 -40.5t-99 -75.5t-79 -112t-53.5 -155.5t-19.5 -200.5zM1249 717q0 205 -65 344l-752 -819q125 -125 316 -125h28q71 0 136.5 18.5t128 63t108 111.5t73 171.5t27.5 235.5z" />
    <glyph glyph-name="zero.subs" horiz-adv-x="917" 
d="M84 168q0 186 103 301t274 115q170 0 271.5 -115t101.5 -301q0 -188 -101 -301t-272 -113q-172 0 -274.5 113t-102.5 301zM457 -143h8q115 0 178.5 90.5t63.5 220.5q0 129 -63.5 221t-178.5 92h-8q-115 0 -179.5 -92t-64.5 -221q0 -83 26.5 -152.5t83 -114t134.5 -44.5z
" />
    <glyph glyph-name="one.subs" horiz-adv-x="583" 
d="M330 -236v650l-281 -193v127l320 225h77v-809h-116z" />
    <glyph glyph-name="two.subs" horiz-adv-x="796" 
d="M86 -236v142l299 217q124 89 155 125t35 100q0 59 -47.5 96t-121.5 37h-11q-67 0 -122.5 -37.5t-55.5 -93.5h-127q0 101 92 167.5t221 66.5q131 0 216.5 -64.5t85.5 -171.5q-4 -60 -28 -105.5t-59 -77.5t-106 -83l-297 -215h498v-103h-627z" />
    <glyph glyph-name="three.subs" horiz-adv-x="806" 
d="M76 -23h125q6 -54 56 -87t128 -33h10q87 0 142 38t55 103q0 57 -50 92t-128 35h-131v96h135q79 0 123.5 32.5t44.5 92.5q0 65 -49 100t-136 35h-10q-77 0 -125 -31t-53 -81h-125q0 97 91 156t222 59t220.5 -61.5t89.5 -164.5q0 -62 -42 -111.5t-112 -74.5
q75 -23 117.5 -73t42.5 -113q0 -103 -97 -167.5t-229 -64.5q-131 0 -223 61.5t-92 161.5z" />
    <glyph glyph-name="four.subs" horiz-adv-x="829" 
d="M518 -236v197h-471v115l459 497h127v-510h141v-102h-141v-197h-115zM166 63h352v361z" />
    <glyph glyph-name="five.subs" horiz-adv-x="790" 
d="M61 -29h125q7 -54 62.5 -84t136.5 -30h8q84 0 137.5 45.5t53.5 117.5q0 69 -52 109.5t-137 40.5h-6q-101 0 -184 -59h-109l90 462h510v-102h-420l-53 -254q76 55 193 55q132 0 212.5 -70t80.5 -177q0 -122 -92 -196.5t-230 -74.5q-141 0 -228.5 57.5t-97.5 159.5z" />
    <glyph glyph-name="six.subs" horiz-adv-x="845" 
d="M82 145q0 196 105.5 317.5t265.5 121.5q140 0 221.5 -65t91.5 -150h-121q-14 48 -65 79t-123 31h-13q-98 0 -168.5 -78t-82.5 -208q29 51 100.5 82.5t159.5 31.5q125 0 213 -73.5t88 -190.5q0 -127 -90.5 -208t-243.5 -81q-158 0 -248 103t-90 288zM420 -143h6
q87 0 147 50t60 124q0 75 -57 124.5t-146 49.5h-6q-88 0 -146.5 -49.5t-58.5 -124.5q0 -76 56 -125t145 -49z" />
    <glyph glyph-name="seven.subs" horiz-adv-x="686" 
d="M193 -236v74q0 210 94 365q95 157 221 268h-473v102h616v-108q-83 -68 -157 -152q-77 -89 -127 -210.5t-50 -264.5v-74h-124z" />
    <glyph glyph-name="eight.subs" horiz-adv-x="788" 
d="M100 -29q0 67 42.5 117t115.5 74q-74 20 -122 74.5t-48 121.5q0 104 85 165t222 61t223.5 -61t86.5 -165q0 -67 -47.5 -121.5t-122.5 -74.5q69 -24 109 -74.5t40 -116.5q0 -101 -85 -159t-208 -58t-207 57.5t-84 159.5zM387 219h10q77 0 130 35t53 94q0 61 -51 97
t-128 36h-10q-77 0 -127.5 -36t-50.5 -97q0 -60 49.5 -94.5t124.5 -34.5zM387 -143h10q70 0 116 36t46 97q0 56 -48 93.5t-114 37.5h-10q-67 0 -114.5 -37.5t-47.5 -93.5q0 -61 46 -97t116 -36z" />
    <glyph glyph-name="nine.subs" horiz-adv-x="845" 
d="M78 -41h121q14 -44 65.5 -72t122.5 -28h12q98 0 169 78t83 208q-31 -51 -102 -82.5t-158 -31.5l-20 -2q-117 0 -199 75.5t-82 190.5q0 126 91 207.5t243 81.5q157 0 247.5 -105t90.5 -286q0 -197 -105.5 -318t-265.5 -121q-140 0 -223 64.5t-90 140.5zM414 133h6
q89 0 147 48.5t58 125.5q0 76 -56 125t-145 49h-6q-87 0 -147 -50t-60 -124q0 -78 56.5 -126t146.5 -48z" />
    <glyph glyph-name="zero.dnom" horiz-adv-x="917" 
d="M84 403q0 188 103 302t274 114t272 -114t101 -302t-101 -300.5t-272 -112.5q-172 0 -274.5 112.5t-102.5 300.5zM457 92h8q115 0 178.5 90.5t63.5 220.5q0 129 -63.5 221.5t-178.5 92.5h-8q-115 0 -179.5 -92.5t-64.5 -221.5t64.5 -220t179.5 -91z" />
    <glyph glyph-name="one.dnom" horiz-adv-x="583" 
d="M328 0v649l-281 -192v127l320 225h77v-809h-116z" />
    <glyph glyph-name="two.dnom" horiz-adv-x="796" 
d="M86 0v141l299 217q123 90 154.5 127t35.5 99q0 59 -47.5 96t-121.5 37h-11q-67 0 -122.5 -37.5t-55.5 -93.5h-127q0 102 92 167.5t221 65.5q133 0 217.5 -62.5t84.5 -172.5q-4 -60 -28 -105.5t-59 -78t-106 -83.5l-297 -215h498v-102h-627z" />
    <glyph glyph-name="three.dnom" horiz-adv-x="806" 
d="M76 213h125q6 -54 56 -87.5t128 -33.5h10q87 0 142 38t55 103q0 59 -49.5 93t-128.5 34h-131v97h135q79 0 123.5 32.5t44.5 92.5q0 65 -49 100t-136 35h-10q-77 0 -125 -31.5t-53 -81.5h-125q0 98 91 156.5t222 58.5q132 0 221 -60t89 -165q0 -62 -42 -111.5t-112 -74.5
q75 -23 117.5 -72t42.5 -115q0 -103 -97 -167t-229 -64q-131 0 -223 61.5t-92 161.5z" />
    <glyph glyph-name="four.dnom" horiz-adv-x="829" 
d="M518 0v197h-471v114l459 498h127v-510h141v-102h-141v-197h-115zM166 299h352v360z" />
    <glyph glyph-name="five.dnom" horiz-adv-x="790" 
d="M61 207h125q7 -54 62.5 -84.5t136.5 -30.5h8q83 0 137 46t54 118q0 71 -51.5 110.5t-137.5 39.5h-6q-99 0 -184 -60h-109l90 463h510v-102h-420l-53 -254q76 55 193 55q132 0 212.5 -69.5t80.5 -178.5q0 -122 -92 -196t-230 -74q-141 0 -228.5 57.5t-97.5 159.5z" />
    <glyph glyph-name="six.dnom" horiz-adv-x="845" 
d="M84 381q0 197 105.5 317.5t265.5 120.5q140 0 221.5 -65t91.5 -150h-121q-14 48 -65 79.5t-123 31.5h-13q-98 0 -168.5 -78.5t-82.5 -208.5q29 51 101 83t159 32q125 0 213 -73.5t88 -190.5q0 -126 -91 -207.5t-243 -81.5q-157 0 -247.5 104t-90.5 287zM422 92h6
q87 0 147 50t60 124q0 75 -57 124.5t-146 49.5h-6q-88 0 -146.5 -49.5t-58.5 -124.5q0 -76 56 -125t145 -49z" />
    <glyph glyph-name="seven.dnom" horiz-adv-x="686" 
d="M195 0v74q0 211 94 366q98 161 221 267h-473v102h616v-109q-86 -71 -157 -151q-77 -89 -127 -210.5t-50 -264.5v-74h-124z" />
    <glyph glyph-name="eight.dnom" horiz-adv-x="788" 
d="M100 207q0 67 42.5 116.5t115.5 73.5q-75 24 -122.5 77.5t-47.5 119.5q0 104 85 164.5t222 60.5q138 0 224 -60.5t86 -164.5q0 -67 -47 -120t-123 -77q68 -20 108.5 -71.5t40.5 -118.5q0 -100 -85 -158.5t-208 -58.5t-207 58.5t-84 158.5zM387 455h10q77 0 130 35t53 94
q0 61 -51 97t-128 36h-10q-77 0 -127.5 -36t-50.5 -97q0 -60 49.5 -94.5t124.5 -34.5zM387 92h10q69 0 115.5 36.5t46.5 96.5q0 57 -48 94t-114 37h-10q-68 0 -115 -37t-47 -94q0 -60 46.5 -96.5t115.5 -36.5z" />
    <glyph glyph-name="nine.dnom" horiz-adv-x="845" 
d="M78 195h121q14 -43 66 -72t122 -29h12q97 0 168.5 79t83.5 208q-31 -51 -102 -83t-158 -32l-20 -2q-117 0 -199 76.5t-82 189.5q0 126 91 207.5t243 81.5q157 0 247.5 -104t90.5 -287q0 -197 -105.5 -317.5t-265.5 -120.5q-72 0 -132.5 19.5t-97.5 51t-58.5 66
t-24.5 68.5zM414 369h6q88 0 146.5 49.5t58.5 124.5q0 76 -56 125t-145 49h-6q-87 0 -147 -50t-60 -124q0 -75 57 -124.5t146 -49.5z" />
    <glyph glyph-name="zero.numr" horiz-adv-x="917" 
d="M84 1028q0 188 103 302t274 114t272 -114t101 -302t-101 -301t-272 -113q-172 0 -274.5 113t-102.5 301zM457 717h8q115 0 178.5 90.5t63.5 220.5q0 129 -63.5 221t-178.5 92h-8q-115 0 -179.5 -92t-64.5 -221t64.5 -220t179.5 -91z" />
    <glyph glyph-name="one.numr" horiz-adv-x="583" 
d="M330 625v649l-281 -193v127l320 226h77v-809h-116z" />
    <glyph glyph-name="two.numr" horiz-adv-x="796" 
d="M86 625v141l299 217q123 90 154.5 127t35.5 98q0 59 -47.5 96t-121.5 37h-11q-68 0 -123 -36.5t-55 -94.5h-127q0 103 91.5 168.5t221.5 65.5q133 0 217.5 -63t84.5 -173q-6 -85 -47 -137t-146 -129l-297 -215h498v-102h-627z" />
    <glyph glyph-name="three.numr" horiz-adv-x="806" 
d="M76 838h125q6 -54 56 -87.5t128 -33.5h10q87 0 142 38t55 103q0 59 -49.5 93t-128.5 34h-131v96h135q79 0 123.5 32.5t44.5 92.5q0 66 -48.5 100.5t-136.5 34.5h-10q-77 0 -125 -31t-53 -81h-125q0 98 91 156.5t222 58.5q132 0 221 -60t89 -165q0 -62 -41.5 -111
t-112.5 -76q76 -23 118 -71.5t42 -114.5q0 -103 -97 -167.5t-229 -64.5q-130 0 -222.5 62.5t-92.5 161.5z" />
    <glyph glyph-name="four.numr" horiz-adv-x="829" 
d="M518 625v196h-471v115l459 498h127v-510h141v-103h-141v-196h-115zM166 924h352v360z" />
    <glyph glyph-name="five.numr" horiz-adv-x="790" 
d="M61 831h125q7 -54 62.5 -84t136.5 -30h8q83 0 137 46.5t54 117.5t-51.5 110t-137.5 39h-6q-101 0 -184 -59h-109l90 463h510v-103h-420l-53 -254q77 56 193 56q132 0 212.5 -69.5t80.5 -178.5q0 -120 -92.5 -195.5t-229.5 -75.5q-141 0 -228.5 57.5t-97.5 159.5z" />
    <glyph glyph-name="six.numr" horiz-adv-x="845" 
d="M84 1006q0 197 105.5 317.5t265.5 120.5q140 0 221.5 -65t91.5 -150h-121q-14 48 -65 79t-123 31h-13q-98 0 -168.5 -78t-82.5 -208q29 51 100.5 82.5t159.5 31.5q125 0 213 -73.5t88 -190.5q0 -126 -91 -207.5t-243 -81.5q-157 0 -247.5 104.5t-90.5 287.5zM422 717h6
q87 0 147 50t60 124q0 75 -57 124.5t-146 49.5h-6q-88 0 -146.5 -49.5t-58.5 -124.5q0 -76 56 -125t145 -49z" />
    <glyph glyph-name="seven.numr" horiz-adv-x="686" 
d="M195 625v73q0 212 94 367q96 159 221 266h-473v103h616v-109q-86 -71 -157 -151q-77 -87 -127 -210t-50 -266v-73h-124z" />
    <glyph glyph-name="eight.numr" horiz-adv-x="788" 
d="M100 831q0 67 42.5 117t115.5 74q-75 24 -122.5 77.5t-47.5 119.5q0 104 85 164.5t222 60.5q138 0 224 -60.5t86 -164.5q0 -67 -47 -120t-123 -77q68 -20 108.5 -72t40.5 -119q0 -100 -85 -158.5t-208 -58.5t-207 58.5t-84 158.5zM387 1079h10q77 0 130 35t53 94
q0 61 -51 97t-128 36h-10q-77 0 -127.5 -36t-50.5 -97q0 -60 49.5 -94.5t124.5 -34.5zM387 717h10q69 0 115.5 36.5t46.5 96.5q0 57 -48 94t-114 37h-10q-68 0 -115 -37t-47 -94q0 -60 46.5 -96.5t115.5 -36.5z" />
    <glyph glyph-name="nine.numr" horiz-adv-x="845" 
d="M78 819h121q14 -42 66 -71t122 -29h12q97 0 168.5 79t83.5 208q-31 -51 -102 -83t-158 -32l-20 -2q-117 0 -199 76.5t-82 189.5q0 126 91 207.5t243 81.5q157 0 247.5 -104t90.5 -287q0 -197 -105.5 -318t-265.5 -121q-72 0 -132.5 19.5t-97.5 51t-58.5 66t-24.5 68.5z
M414 993h6q88 0 146.5 49.5t58.5 124.5q0 76 -56 125t-145 49h-6q-87 0 -147 -50t-60 -124q0 -75 57 -124.5t146 -49.5z" />
    <glyph glyph-name="zero.subs_zero" horiz-adv-x="915" 
d="M831 168q0 -188 -100.5 -301t-271.5 -113q-172 0 -274.5 113t-102.5 301t103 302t274 114t271.5 -113.5t100.5 -302.5zM211 168q0 -70 18 -129l404 364q-66 78 -170 78h-8q-115 0 -179.5 -92t-64.5 -221zM705 168q0 66 -19 131l-401 -362q64 -80 170 -80h8
q115 0 178.5 90.5t63.5 220.5z" />
    <glyph glyph-name="zero.dnom_zero" horiz-adv-x="915" 
d="M831 403q0 -188 -100.5 -300.5t-271.5 -112.5q-172 0 -274.5 112.5t-102.5 300.5t103 302t274 114t271.5 -113.5t100.5 -302.5zM211 403q0 -71 18 -129l404 365q-66 78 -170 78h-8q-115 0 -179.5 -92.5t-64.5 -221.5zM705 403q0 67 -19 132l-401 -363q64 -80 170 -80h8
q115 0 178.5 90.5t63.5 220.5z" />
    <glyph glyph-name="zero.numr_zero" horiz-adv-x="915" 
d="M831 1028q0 -188 -100.5 -301t-271.5 -113q-172 0 -274.5 113t-102.5 301t103 302t274 114t271.5 -113.5t100.5 -302.5zM211 1028q0 -70 18 -129l404 365q-65 77 -170 77h-8q-115 0 -179.5 -92t-64.5 -221zM705 1028q0 66 -19 131l-401 -362q64 -80 170 -80h8
q115 0 178.5 90.5t63.5 220.5z" />
    <glyph glyph-name="uni2070.zero" horiz-adv-x="917" 
d="M834 1253q0 -188 -101 -300.5t-272 -112.5q-172 0 -274.5 112.5t-102.5 300.5t103 302t274 114t272 -114t101 -302zM213 1253q0 -71 18 -129l404 365q-66 78 -170 78h-8q-115 0 -179.5 -92.5t-64.5 -221.5zM707 1253q0 66 -19 131l-401 -362q64 -80 170 -80h8
q115 0 178.5 90.5t63.5 220.5z" />
    </font>
</defs>
</svg>
