<svg width="46" height="46" viewBox="0 0 46 46" fill="none" xmlns="http://www.w3.org/2000/svg">
<path d="M37.8365 0.587192C36.1868 0.938898 35.0479 1.55857 33.8588 2.75605C33.1387 3.47621 32.9544 3.71905 32.6195 4.39734C32.1338 5.38547 32.0166 5.84604 31.8491 7.53758C31.5058 10.9709 30.9028 13.6757 30.1408 15.1914C29.8393 15.7776 29.8142 16.1376 30.0487 16.3721C30.2832 16.6066 30.6432 16.5815 31.2043 16.2967C32.7284 15.5347 35.5085 14.915 38.967 14.5717C39.7039 14.4963 40.5664 14.3624 40.893 14.2702C43.3549 13.5417 45.2809 11.331 45.8336 8.5927C46.0262 7.66319 45.9676 6.13076 45.708 5.23474C45.3647 4.02889 44.544 2.76442 43.6145 1.99402C42.9781 1.46646 41.7722 0.855159 41.0186 0.670932C40.2482 0.478331 38.5231 0.436461 37.8365 0.587192Z" fill="white"/>
<path d="M6.18262 2.27887C5.53783 2.32911 4.9349 2.50496 4.23149 2.86504C3.67043 3.15813 3.38572 3.36748 3.00052 3.79455C1.57694 5.34374 1.27548 7.51259 2.22174 9.42186C2.5567 10.1169 2.11288 9.63121 8.73668 16.4141C15.7122 23.5487 15.1679 22.9626 15.5531 23.7497C16.9599 26.6304 15.6033 30.5326 12.6557 32.0567C11.274 32.7685 11.006 32.8187 8.31798 32.8271C5.66343 32.8271 5.52108 32.8522 4.25661 33.5054C2.67393 34.3176 1.4932 35.8333 1.0745 37.5751C0.764667 38.8815 0.907024 40.4725 1.44296 41.6867C2.16312 43.328 3.75417 44.6762 5.56295 45.1954C6.40872 45.4383 7.94115 45.4466 8.77855 45.2205C10.8553 44.6595 12.5301 43.1187 13.1665 41.1676C13.5266 40.0957 13.5852 39.4341 13.468 38.0943C13.3005 36.2855 13.4931 35.1383 14.1798 33.7398C15.7624 30.5242 20.2844 29.1509 23.0896 31.0434C23.3157 31.1942 25.7023 33.4719 28.3904 36.0929C36.3707 43.8975 36.1279 43.6797 36.7978 44.0231C38.7322 45.0363 41.0685 44.7097 42.5759 43.2108C44.192 41.603 44.4851 39.208 43.3044 37.3072C43.1285 37.0308 42.1823 36.0176 40.8927 34.7531C33.2724 27.25 31.5641 25.5836 31.472 25.5836C31.2459 25.5836 31.0533 25.7678 31.0533 25.9939C31.0533 26.1195 31.4887 27.451 32.0247 28.9416C32.8621 31.2695 33.0044 31.7468 33.0379 32.3079C33.0798 32.9025 33.0714 32.9778 32.8621 33.2877C31.9577 34.6526 29.8977 33.899 27.3101 31.2695C25.8447 29.7706 25.1999 28.9164 23.8935 26.7225C22.3862 24.1852 22.1015 23.9004 19.4805 22.3345C17.5461 21.1789 16.0806 20.0819 14.9418 18.9263C12.9739 16.9249 12.0611 15.292 12.3626 14.2871C12.5887 13.5335 13.3089 13.1148 14.1714 13.232C14.4059 13.2655 15.394 13.5753 16.357 13.9187C20.3011 15.3255 20.4184 15.359 20.6026 15.0827C20.8036 14.7896 20.9459 14.9487 11.4582 5.31862C9.72481 3.56008 9.22237 3.09951 8.77855 2.86504C7.94953 2.41285 7.07026 2.22025 6.18262 2.27887Z" fill="white"/>
<path d="M25.1331 17.5784C24.2706 17.8547 23.6342 18.4325 23.249 19.2699C23.0983 19.5965 23.0564 19.831 23.0564 20.392C23.0564 21.0284 23.0815 21.1708 23.3327 21.6649C23.6509 22.3097 24.1031 22.7535 24.7647 23.0633C25.175 23.2559 25.3425 23.281 26.071 23.281C26.8665 23.281 26.9335 23.2643 27.436 22.9963C28.064 22.653 28.4827 22.2092 28.7842 21.5727C28.9684 21.1792 29.0019 20.9866 29.0019 20.392C29.0019 19.7975 28.9684 19.6049 28.7842 19.2113C28.4744 18.5497 28.0305 18.0976 27.3941 17.7793C26.9419 17.5616 26.7326 17.5114 26.1715 17.4863C25.7444 17.4695 25.3509 17.503 25.1331 17.5784Z" fill="white"/>
</svg>
