<?xml version="1.0" standalone="no"?>
<!DOCTYPE svg PUBLIC "-//W3C//DTD SVG 1.1//EN" "http://www.w3.org/Graphics/SVG/1.1/DTD/svg11.dtd" >
<svg xmlns="http://www.w3.org/2000/svg" xmlns:xlink="http://www.w3.org/1999/xlink" version="1.1">
<metadata>
Created by FontForge 20170731 at Fri Apr 21 13:14:31 2023
 By Aleksey,,,
Copyright 2017 Dinamo (Johannes Breyer, Fabian Harb). |DCNT
</metadata>
<defs>
<font id="Favorit-ExtendedBold" horiz-adv-x="1474" >
  <font-face 
    font-family="Favorit Extended"
    font-weight="700"
    font-stretch="semi-expanded"
    units-per-em="2048"
    panose-1="2 0 0 6 3 0 0 2 0 4"
    ascent="1536"
    descent="-512"
    x-height="1024"
    cap-height="1434"
    bbox="-1808 -633 5077 2204"
    underline-thickness="49"
    underline-position="-148"
    unicode-range="U+000D-FB02"
  />
<missing-glyph horiz-adv-x="1536" 
d="M164 0v1434h1208v-1434h-1208zM389 209h758v1016h-758v-1016z" />
    <glyph glyph-name="fi" unicode="fi" horiz-adv-x="1443" 
d="M303 0v805h-262v219h262v174q0 110 66 173t186 63h295v-226h-184q-51 0 -71 -16t-20 -59v-109h723v-1024h-272v805h-451v-805h-272zM1014 1149v285h293v-285h-293z" />
    <glyph glyph-name="fl" unicode="fl" horiz-adv-x="1433" 
d="M303 0v805h-262v219h262v174q0 110 66 173t186 63h733v-1434h-272v1208h-350q-51 0 -71 -16t-20 -59v-109h254v-219h-254v-805h-272z" />
    <glyph glyph-name="f_f" unicode="ff" horiz-adv-x="1720" 
d="M303 0v805h-262v219h262v174q0 110 66 173t186 63h356v-226h-245q-51 0 -71 -16t-20 -59v-109h533v174q0 110 66 173t186 63h377v-226h-267q-50 0 -70 -16t-20 -59v-109h295v-219h-295v-805h-272v805h-533v-805h-272z" />
    <glyph glyph-name="f_f_i" unicode="ffi" horiz-adv-x="2330" 
d="M303 0v805h-262v219h262v174q0 110 66 173t186 63h377v-226h-266q-51 0 -71 -16t-20 -59v-109h533v174q0 110 66 173t186 63h377v-226h-267q-50 0 -70 -16t-20 -59v-109h805v-1024h-272v805h-533v-805h-272v805h-533v-805h-272zM1901 1149v285h292v-285h-292z" />
    <glyph glyph-name="f_f_l" unicode="ffl" horiz-adv-x="2330" 
d="M303 0v805h-262v219h262v174q0 110 66 173t186 63h377v-226h-266q-51 0 -71 -16t-20 -59v-109h533v174q0 110 66 173t186 63h825v-1434h-272v1208h-443q-50 0 -70 -16t-20 -59v-109h295v-219h-295v-805h-272v805h-533v-805h-272z" />
    <glyph glyph-name=".notdef" horiz-adv-x="1536" 
d="M164 0v1434h1208v-1434h-1208zM389 209h758v1016h-758v-1016z" />
    <glyph glyph-name=".null" horiz-adv-x="0" 
 />
    <glyph glyph-name="nonmarkingreturn" horiz-adv-x="682" 
 />
    <glyph glyph-name="CR" unicode="&#xd;" horiz-adv-x="499" 
 />
    <glyph glyph-name="space" unicode=" " horiz-adv-x="536" 
 />
    <glyph glyph-name="exclam" unicode="!" horiz-adv-x="620" 
d="M240 389l-70 563v482h283v-482l-70 -563h-143zM145 0v301h328v-301h-328z" />
    <glyph glyph-name="quotedbl" unicode="&#x22;" horiz-adv-x="823" 
d="M186 942l-65 277v215h235v-215l-65 -277h-105zM532 942l-65 277v215h235v-215l-65 -277h-105z" />
    <glyph glyph-name="numbersign" unicode="#" horiz-adv-x="1687" 
d="M1595 866h-303l-78 -303h295v-239h-358l-82 -324h-252l82 324h-315l-84 -324h-252l84 324h-242v239h301l78 303h-291v240h354l84 328h252l-84 -328h318l84 328h252l-84 -328h241v-240zM963 563l77 303h-317l-80 -303h320z" />
    <glyph glyph-name="dollar" unicode="$" horiz-adv-x="1517" 
d="M1399 403q0 -205 -162 -314t-463 -109q-43 0 -53 2l-47 -228h-240l53 256q-196 48 -301.5 167t-109.5 304h297q9 -156 168 -219l71 348q-242 43 -349 139.5t-107 280.5q0 87 38 162.5t111 134.5t191 93t268 34h22l48 225h239l-53 -256q182 -44 286 -157.5t121 -282.5
h-297q-21 137 -161 191l-70 -332q500 -82 500 -439zM668 879l67 325q-137 -3 -216 -46t-79 -109q0 -73 52.5 -111.5t175.5 -58.5zM1114 393q0 70 -62 112.5t-200 65.5h-8l-72 -342h16q162 0 244 43.5t82 120.5z" />
    <glyph glyph-name="percent" unicode="%" horiz-adv-x="2058" 
d="M74 1028q0 84 23.5 157.5t69.5 132t121.5 92.5t172.5 34t172.5 -34t121.5 -92.5t69.5 -132t23.5 -157.5q0 -85 -23.5 -158.5t-69.5 -131t-121.5 -91t-172.5 -33.5t-172.5 33.5t-121.5 91t-69.5 131t-23.5 158.5zM391 0l1024 1434h260l-1024 -1434h-260zM457 803h8
q79 0 120.5 58t41.5 167t-41.5 168t-120.5 59h-8q-78 0 -120 -59t-42 -168t41.5 -167t120.5 -58zM1210 403q0 83 23.5 156.5t69.5 132.5t122 93t172 34t172 -34t122 -93t70 -132.5t24 -156.5t-24 -156.5t-70 -131.5t-121.5 -91.5t-172.5 -33.5t-172.5 33.5t-121.5 92
t-69.5 131.5t-23.5 156zM1593 178h9q79 0 120 58t41 167q0 110 -41 169t-120 59h-9q-79 0 -120 -59t-41 -169q0 -109 41 -167t120 -58z" />
    <glyph glyph-name="ampersand" unicode="&#x26;" horiz-adv-x="1576" 
d="M102 379q0 126 73.5 217.5t199.5 130.5q-122 42 -192 129.5t-70 208.5q0 167 120 268t297 101h404v-215h-322q-109 0 -171 -47.5t-62 -139.5q0 -95 63 -145.5t170 -50.5h377v247h266v-247h275v-215h-275v-621h-720q-86 0 -164.5 27t-138 75.5t-95 120.5t-35.5 156z
M612 215h377v406h-377q-112 0 -177.5 -51t-65.5 -148q0 -100 67 -153.5t176 -53.5z" />
    <glyph glyph-name="quotesingle" unicode="'" horiz-adv-x="477" 
d="M186 942l-65 277v215h235v-215l-65 -277h-105z" />
    <glyph glyph-name="parenleft" unicode="(" horiz-adv-x="903" 
d="M92 717q-1 151 27 290.5t88 265.5t147 222t212.5 159t277.5 77v-224q-258 -53 -371 -262q-111 -211 -111 -528t111 -529q113 -209 371 -262v-223q-153 10 -279.5 71t-213.5 157.5t-146.5 224t-86.5 268.5t-26 293z" />
    <glyph glyph-name="parenright" unicode=")" horiz-adv-x="903" 
d="M811 717q1 -151 -27 -290.5t-88 -265.5t-147 -222t-212.5 -159t-277.5 -77v223q259 53 369 262q113 210 113 529q0 318 -113 528q-110 209 -369 262v224q153 -10 279.5 -71t213.5 -157.5t146.5 -224t86.5 -268.5t26 -293z" />
    <glyph glyph-name="asterisk" unicode="*" horiz-adv-x="974" 
d="M352 834l-166 110l111 158h-195v188h195l-111 158l166 111l133 -189l131 189l166 -111l-110 -158h202v-188h-202l110 -158l-166 -110l-131 188z" />
    <glyph glyph-name="plus" unicode="+" horiz-adv-x="1312" 
d="M520 31v379h-430v235h430v379h273v-379h430v-235h-430v-379h-273z" />
    <glyph glyph-name="comma" unicode="," horiz-adv-x="618" 
d="M70 -307v157h114q123 0 123 130v20h-160v301h328v-332q0 -115 -75.5 -195.5t-204.5 -80.5h-125z" />
    <glyph glyph-name="hyphen" unicode="-" horiz-adv-x="950" 
d="M137 508v223h676v-223h-676z" />
    <glyph glyph-name="period" unicode="." horiz-adv-x="606" 
d="M139 0v301h328v-301h-328z" />
    <glyph glyph-name="slash" unicode="/" horiz-adv-x="1058" 
d="M66 0l643 1434h282l-643 -1434h-282z" />
    <glyph glyph-name="zero" unicode="0" horiz-adv-x="1570" 
d="M111 717q0 178 51.5 319.5t142.5 232t213 138t266 47.5q145 0 267.5 -47.5t214 -138t143 -232t51.5 -319.5q0 -179 -51.5 -320.5t-143 -232t-214 -137.5t-267.5 -47q-146 0 -268 47t-212.5 137.5t-141.5 232t-51 320.5zM770 219h29q73 0 138 26.5t121 82.5t89 156t33 233
t-33 233t-89 155.5t-121 82t-138 26.5h-29q-56 0 -108.5 -15.5t-102.5 -53t-86.5 -93t-59 -142t-22.5 -193.5t22.5 -193.5t59 -142.5t86.5 -93.5t102.5 -53t108.5 -15.5z" />
    <glyph glyph-name="one" unicode="1" horiz-adv-x="911" 
d="M489 1434h232v-1434h-272v1100l-379 -326v299z" />
    <glyph glyph-name="two" unicode="2" horiz-adv-x="1392" 
d="M403 250h873v-250h-1159v365l604 376q149 94 206.5 155.5t57.5 135.5q0 82 -74.5 132t-195.5 50h-29q-119 0 -190.5 -65t-77.5 -164h-287q6 210 163.5 339.5t405.5 129.5q165 0 292.5 -48t200.5 -141t73 -218q-2 -83 -26.5 -149.5t-78 -127.5t-121.5 -113t-176 -120z" />
    <glyph glyph-name="three" unicode="3" horiz-adv-x="1421" 
d="M96 395h287q13 -83 97 -129.5t206 -46.5h29q136 0 220.5 53t84.5 142q0 82 -79 133t-212 51h-205v240h205q133 0 207 51.5t74 140.5q0 81 -81 132.5t-214 51.5h-29q-111 0 -187.5 -51t-88.5 -129h-287q6 181 167.5 300.5t414.5 119.5q266 0 425.5 -107.5t159.5 -283.5
q0 -123 -68.5 -207.5t-183.5 -130.5q111 -33 186.5 -119t75.5 -207q0 -193 -162 -306t-433 -113q-264 0 -432 113.5t-177 301.5z" />
    <glyph glyph-name="four" unicode="4" horiz-adv-x="1492" 
d="M1161 528h264v-237h-264v-291h-272v291h-823v272l776 871h319v-906zM350 528h539v602z" />
    <glyph glyph-name="five" unicode="5" horiz-adv-x="1374" 
d="M1268 455q0 -217 -161 -346t-431 -129q-257 0 -418.5 108.5t-185.5 310.5h286q23 -85 104 -132.5t195 -47.5h29q136 0 218.5 65t82.5 165q0 104 -81.5 169.5t-209.5 65.5h-28q-82 0 -155 -31.5t-110 -89.5h-286l180 871h934v-250h-723l-72 -338q125 78 295 78
q246 0 391.5 -129.5t145.5 -339.5z" />
    <glyph glyph-name="six" unicode="6" horiz-adv-x="1488" 
d="M1362 483q0 -226 -171 -364.5t-446 -138.5q-306 0 -470 167.5t-164 501.5q-3 223 88 408.5t256 292.5t368 104q231 0 383 -104.5t180 -284.5h-286q-16 62 -86 105.5t-176 43.5h-29q-148 0 -259 -100.5t-157 -271.5q148 133 389 133q119 0 223.5 -33t184.5 -94.5
t126 -155.5t46 -209zM1079 473q0 125 -89.5 193.5t-225.5 68.5h-29q-140 0 -232.5 -67t-92.5 -193q0 -115 93.5 -185.5t231.5 -70.5h29q132 0 223.5 70t91.5 184z" />
    <glyph glyph-name="seven" unicode="7" horiz-adv-x="1316" 
d="M53 1434h1198v-267q-321 -157 -477 -430.5t-156 -695.5v-41h-280v59q0 373 144 662t397 463h-826v250z" />
    <glyph glyph-name="eight" unicode="8" horiz-adv-x="1392" 
d="M158 369q0 118 75 208t179 119q-57 13 -109.5 42.5t-96.5 73t-70.5 105.5t-26.5 132q0 115 74.5 207.5t209 145t303.5 52.5q258 0 423 -113t165 -292q0 -136 -90 -231t-213 -122q104 -29 179 -119t75 -208q0 -173 -151 -281t-388 -108q-235 0 -386.5 108t-151.5 281z
M682 823h29q134 0 213.5 54.5t79.5 144.5q0 92 -77.5 142t-215.5 50h-29q-138 0 -215.5 -50t-77.5 -142q0 -90 80 -144.5t213 -54.5zM682 219h29q111 0 177 50.5t66 131.5q0 82 -65.5 132.5t-177.5 50.5h-29q-112 0 -178 -50.5t-66 -132.5q0 -81 66.5 -131.5t177.5 -50.5z
" />
    <glyph glyph-name="nine" unicode="9" horiz-adv-x="1488" 
d="M127 950q0 226 170.5 365t445.5 139q306 0 470.5 -168t164.5 -502q2 -167 -51.5 -316.5t-147.5 -257.5t-227.5 -170t-285.5 -60q-231 0 -383.5 105t-180.5 284h287q16 -62 86 -106t176 -44h29q148 0 259 101t157 272q-148 -133 -389 -133q-160 0 -290 56t-210 169.5
t-80 265.5zM410 961q0 -125 89.5 -194t225.5 -69h29q140 0 232.5 67t92.5 193q0 115 -93.5 185.5t-231.5 70.5h-29q-132 0 -223.5 -69.5t-91.5 -183.5z" />
    <glyph glyph-name="colon" unicode=":" horiz-adv-x="606" 
d="M139 0v301h328v-301h-328zM139 723v301h328v-301h-328z" />
    <glyph glyph-name="semicolon" unicode=";" horiz-adv-x="655" 
d="M172 723v301h328v-301h-328zM94 -307v157h115q123 0 123 130v20h-160v301h328v-332q0 -115 -76 -195.5t-205 -80.5h-125z" />
    <glyph glyph-name="less" unicode="&#x3c;" horiz-adv-x="1263" 
d="M1124 995v-266l-661 -201l661 -202v-273l-1034 348v246z" />
    <glyph glyph-name="equal" unicode="=" 
d="M150 614v236h1175v-236h-1175zM150 205v235h1175v-235h-1175z" />
    <glyph glyph-name="greater" unicode="&#x3e;" horiz-adv-x="1263" 
d="M139 997l1035 -348v-246l-1035 -348v267l662 202l-662 201v272z" />
    <glyph glyph-name="question" unicode="?" horiz-adv-x="1159" 
d="M272 410v219q0 260 240 260h125q78 0 125 41.5t47 109.5q0 64 -47.5 104t-132.5 40h-541v250h559q199 0 319.5 -107.5t120.5 -284.5q0 -174 -126 -283.5t-334 -109.5q-49 0 -69.5 -16.5t-20.5 -54.5v-168h-265zM240 0v301h327v-301h-327z" />
    <glyph glyph-name="at" unicode="@" horiz-adv-x="2201" 
d="M100 625q-4 193 76 358.5t218.5 277.5t325 174t394.5 60q209 2 393 -57t313.5 -160.5t203.5 -242.5t71 -298q2 -101 -25.5 -190t-75.5 -152.5t-109.5 -109.5t-127 -68.5t-127.5 -21.5h-293v112q-44 -60 -130.5 -96.5t-184.5 -36.5q-122 0 -222.5 59.5t-156 159.5
t-55.5 217q0 116 55.5 215t156 159t222.5 60q98 0 184.5 -36.5t130.5 -96.5v113h236v-645h39q37 0 77 21.5t76.5 62.5t60 112.5t23.5 161.5q0 119 -48.5 218t-140 171.5t-231.5 113t-315 40.5q-346 0 -557 -179.5t-211 -475.5q0 -203 99.5 -352.5t276.5 -226.5t411 -77h645
v-225h-664q-225 0 -410 56.5t-320 165t-209.5 277t-74.5 382.5zM1079 377h17q103 0 167 69.5t64 163.5q0 91 -64 161.5t-167 70.5h-17q-102 0 -165.5 -65t-63.5 -167q0 -105 63 -169t166 -64z" />
    <glyph glyph-name="A" unicode="A" horiz-adv-x="1656" 
d="M1350 0l-156 336h-739l-154 -336h-299l670 1434h315l668 -1434h-305zM569 586h512l-256 555z" />
    <glyph glyph-name="B" unicode="B" horiz-adv-x="1593" 
d="M182 0v1434h815q196 0 324.5 -104.5t128.5 -274.5q0 -114 -64.5 -202.5t-162.5 -123.5q117 -25 189.5 -116.5t72.5 -223.5q0 -115 -62 -204.5t-167 -137t-234 -47.5h-840zM465 852h502q198 0 198 172q0 73 -53.5 116.5t-144.5 43.5h-502v-332zM465 250h516
q100 0 159.5 48t59.5 130q0 85 -57 129.5t-162 44.5h-516v-352z" />
    <glyph glyph-name="C" unicode="C" horiz-adv-x="1681" 
d="M94 717q0 157 57.5 293t160 234t252.5 154t327 56q297 0 486.5 -139.5t221.5 -351.5h-296q-27 113 -135.5 177t-260.5 64h-33q-225 0 -360 -138t-135 -349q0 -138 59 -248.5t172.5 -175t263.5 -64.5h33q157 0 263.5 63t132.5 179h296q-34 -220 -224.5 -355.5
t-483.5 -135.5q-179 -2 -330 53.5t-253.5 154t-158.5 235t-55 294.5z" />
    <glyph glyph-name="D" unicode="D" horiz-adv-x="1716" 
d="M182 0v1434h686q347 0 548.5 -191t201.5 -526t-201.5 -526t-548.5 -191h-686zM465 250h383q239 0 362 119t123 348t-123 348t-362 119h-383v-934z" />
    <glyph glyph-name="E" unicode="E" horiz-adv-x="1562" 
d="M465 250h1005v-250h-1288v1434h1268v-250h-985v-322h862v-250h-862v-362z" />
    <glyph glyph-name="F" unicode="F" horiz-adv-x="1462" 
d="M182 0v1434h1227v-250h-944v-363h829v-250h-829v-571h-283z" />
    <glyph glyph-name="G" unicode="G" horiz-adv-x="1773" 
d="M94 717q0 160 57 296t161.5 233.5t257.5 152.5t337 55q328 0 520 -141.5t207 -370.5h-297q-6 51 -32 96t-73.5 83t-126.5 60.5t-181 22.5h-33q-233 0 -372.5 -129.5t-139.5 -357.5q0 -227 140.5 -357.5t371.5 -130.5h33q206 0 333 78.5t127 177.5v17h-471v250h547
q94 0 144.5 -51.5t50.5 -145.5v-555h-271v160q-57 -72 -179 -126t-300 -54q-186 0 -339 54t-256 151t-159.5 233t-56.5 299z" />
    <glyph glyph-name="H" unicode="H" horiz-adv-x="1746" 
d="M182 0v1434h283v-590h817v590h283v-1434h-283v594h-817v-594h-283z" />
    <glyph glyph-name="I" unicode="I" horiz-adv-x="647" 
d="M182 0v1434h283v-1434h-283z" />
    <glyph glyph-name="J" unicode="J" horiz-adv-x="993" 
d="M61 0v260h334q78 0 111 32.5t33 110.5v1031h282v-1076q0 -184 -92 -271t-287 -87h-381z" />
    <glyph glyph-name="K" unicode="K" horiz-adv-x="1613" 
d="M1255 0l-585 645l-205 -172v-473h-283v1434h283v-633l739 633h391l-716 -611l749 -823h-373z" />
    <glyph glyph-name="L" unicode="L" horiz-adv-x="1466" 
d="M182 0v1434h283v-1184h960v-250h-1243z" />
    <glyph glyph-name="M" unicode="M" horiz-adv-x="2136" 
d="M1540 1434h414v-1434h-283v1065l-436 -1065h-336l-434 1059v-1059h-283v1434h416l471 -1149z" />
    <glyph glyph-name="N" unicode="N" horiz-adv-x="1740" 
d="M1276 1434h283v-1434h-349l-745 1071v-1071h-283v1434h361l733 -1053v1053z" />
    <glyph glyph-name="O" unicode="O" horiz-adv-x="1812" 
d="M94 717q-3 221 103.5 390.5t292 259t417.5 87.5q173 1 323 -51t258.5 -146.5t170 -234t59.5 -305.5q2 -166 -59.5 -305.5t-170 -234t-258.5 -146.5t-323 -51q-173 -1 -323.5 51t-259.5 147t-170.5 234.5t-59.5 304.5zM891 229h33q142 0 257.5 58.5t184 170.5t68.5 259
q0 220 -146 353.5t-364 133.5h-33q-141 0 -257 -58t-185.5 -170.5t-69.5 -258.5t69.5 -258.5t185.5 -171t257 -58.5z" />
    <glyph glyph-name="P" unicode="P" horiz-adv-x="1531" 
d="M182 0v1434h760q229 0 376.5 -126t147.5 -327q0 -221 -143 -340t-381 -119h-477v-522h-283zM465 772h446q271 0 271 207q0 100 -69 152.5t-202 52.5h-446v-412z" />
    <glyph glyph-name="Q" unicode="Q" horiz-adv-x="1812" 
d="M768 -215v201q-300 31 -487 228.5t-187 502.5q-3 221 103.5 390.5t292 259t417.5 87.5q173 1 323 -51t258.5 -146.5t170 -234t59.5 -305.5q0 -311 -190 -509.5t-496 -223.5v-101q0 -35 14.5 -49t47.5 -14h403v-230h-524q-87 0 -143 52t-62 143zM891 229h33
q142 0 257.5 58.5t184 170.5t68.5 259q0 220 -146 353.5t-364 133.5h-33q-141 0 -257 -58t-185.5 -170.5t-69.5 -258.5t69.5 -258.5t185.5 -171t257 -58.5z" />
    <glyph glyph-name="R" unicode="R" horiz-adv-x="1611" 
d="M182 0v1434h799q213 0 351 -111.5t138 -280.5q0 -127 -66 -222.5t-163 -127.5q109 0 155 -49.5t46 -161.5v-481h-283v420q0 72 -26.5 97.5t-98.5 25.5h-569v-543h-283zM465 793h485q103 0 159 51t56 145q0 88 -58 141.5t-157 53.5h-485v-391z" />
    <glyph glyph-name="S" unicode="S" horiz-adv-x="1505" 
d="M68 481h297q6 -123 105 -187.5t278 -64.5h32q162 0 244 43.5t82 120.5q0 70 -62 112.5t-200 65.5l-223 37q-253 43 -363.5 138.5t-110.5 283.5q0 87 38 162.5t111 134.5t191.5 93t268.5 34q294 0 467.5 -125.5t195.5 -345.5h-297q-14 104 -106 162.5t-244 58.5h-33
q-143 0 -225 -43.5t-82 -111.5q0 -73 52 -111.5t175 -58.5l230 -37q502 -83 502 -439q0 -205 -162 -314t-463 -109q-328 0 -510 127.5t-188 373.5z" />
    <glyph glyph-name="T" unicode="T" horiz-adv-x="1519" 
d="M618 0v1184h-577v250h1438v-250h-578v-1184h-283z" />
    <glyph glyph-name="U" unicode="U" horiz-adv-x="1634" 
d="M166 565v869h283v-852q0 -172 90 -262.5t262 -90.5h33q172 0 262 90.5t90 262.5v852h282v-869q0 -273 -168 -429t-483 -156q-318 0 -484.5 155t-166.5 430z" />
    <glyph glyph-name="V" unicode="V" horiz-adv-x="1669" 
d="M1358 1434h309l-670 -1434h-325l-672 1434h313l525 -1135z" />
    <glyph glyph-name="W" unicode="W" horiz-adv-x="2195" 
d="M1872 1434h295l-424 -1434h-344l-299 1065l-307 -1065h-347l-409 1434h295l295 -1051l301 1051h358l293 -1059z" />
    <glyph glyph-name="X" unicode="X" horiz-adv-x="1519" 
d="M1518 0h-338l-420 526l-426 -526h-334l594 733l-563 701h338l393 -492l397 492h334l-563 -699z" />
    <glyph glyph-name="Y" unicode="Y" horiz-adv-x="1497" 
d="M1155 1434h324l-588 -809v-625h-283v623l-590 811h326l408 -572z" />
    <glyph glyph-name="Z" unicode="Z" horiz-adv-x="1480" 
d="M473 250h918v-250h-1301v250l897 934h-876v250h1259v-250z" />
    <glyph glyph-name="bracketleft" unicode="[" horiz-adv-x="819" 
d="M176 -297v2028h580v-220h-307v-1589h307v-219h-580z" />
    <glyph glyph-name="backslash" unicode="\" horiz-adv-x="1058" 
d="M707 0l-639 1434h286l639 -1434h-286z" />
    <glyph glyph-name="bracketright" unicode="]" horiz-adv-x="819" 
d="M643 1731v-2028h-580v219h308v1589h-308v220h580z" />
    <glyph glyph-name="asciicircum" unicode="^" horiz-adv-x="1241" 
d="M1167 584h-284l-265 544l-264 -544h-280l420 850h254z" />
    <glyph glyph-name="underscore" unicode="_" horiz-adv-x="1368" 
d="M121 -215v215h1126v-215h-1126z" />
    <glyph glyph-name="grave" unicode="`" horiz-adv-x="552" 
d="M301 1128l-246 308h312l133 -308h-199z" />
    <glyph glyph-name="a" unicode="a" horiz-adv-x="1251" 
d="M78 283q0 161 112 245.5t314 96.5l348 24v25q0 73 -61.5 112t-172.5 39h-32q-83 0 -139.5 -31.5t-63.5 -86.5h-277q15 147 152.5 242t341.5 95q243 0 378.5 -106.5t135.5 -282.5v-430q0 -107 14 -225h-251q-9 52 -11 88q-1 14 -2 31.5t-1.5 27.5t-0.5 15
q-39 -76 -136 -129t-222 -53q-200 0 -313 84t-113 219zM524 199h29q124 0 211.5 49.5t87.5 140.5v64l-283 -21q-217 -14 -217 -123q0 -110 172 -110z" />
    <glyph glyph-name="b" unicode="b" horiz-adv-x="1419" 
d="M418 129v-129h-273v1434h273v-545q56 72 154.5 113.5t230.5 41.5q113 0 209.5 -35.5t168.5 -101.5t113 -168t41 -227q0 -159 -71.5 -281.5t-192.5 -186.5t-272 -64q-124 0 -225.5 40t-155.5 109zM733 199h29q135 0 217 83t82 230t-82 230t-217 83h-29q-139 0 -227 -83.5
t-88 -229.5t88 -229.5t227 -83.5z" />
    <glyph glyph-name="c" unicode="c" horiz-adv-x="1275" 
d="M84 512q0 232 160 382t430 150q220 0 362.5 -101.5t167.5 -276.5h-276q-17 74 -81.5 116.5t-158.5 42.5h-29q-143 0 -222 -89.5t-79 -223.5t79 -223.5t222 -89.5h29q91 0 156 44.5t84 114.5h276q-25 -165 -170.5 -271.5t-359.5 -106.5q-284 0 -437 144.5t-153 387.5z" />
    <glyph glyph-name="d" unicode="d" horiz-adv-x="1419" 
d="M84 512q0 125 41 227t113 168t168.5 101.5t209.5 35.5q132 0 230.5 -41.5t154.5 -113.5v545h273v-1434h-273v129q-56 -70 -155 -109.5t-225 -39.5q-151 0 -272.5 64t-193 186.5t-71.5 281.5zM657 199h29q139 0 227 83.5t88 229.5t-88 229.5t-227 83.5h-29
q-135 0 -217 -83t-82 -230t82 -230t217 -83z" />
    <glyph glyph-name="e" unicode="e" horiz-adv-x="1286" 
d="M1198 535v-109h-829q24 -108 101.5 -167.5t182.5 -59.5h29q87 0 147 32.5t80 92.5h277q-28 -157 -169.5 -250.5t-344.5 -93.5q-170 0 -301.5 60.5t-209 184.5t-77.5 295q-2 120 46.5 221t130 167t186 102t215.5 34q249 0 392.5 -138t143.5 -371zM373 635h540
q-6 95 -70.5 142.5t-168.5 47.5h-29q-105 0 -175.5 -49.5t-96.5 -140.5z" />
    <glyph glyph-name="f" unicode="f" horiz-adv-x="915" 
d="M303 0v805h-262v219h262v174q0 110 66 173t186 63h377v-226h-266q-51 0 -71 -16t-20 -59v-109h295v-219h-295v-805h-272z" />
    <glyph glyph-name="g" unicode="g" horiz-adv-x="1390" 
d="M55 -113h281q19 -56 94.5 -87t192.5 -31h28q143 0 232.5 72t89.5 206v107q-130 -154 -357 -154q-108 0 -203 33t-169 96t-117 164.5t-43 228.5t42.5 228t116.5 164t168.5 96.5t202.5 33.5q237 0 359 -149v129h272v-1001q0 -209 -160.5 -341.5t-447.5 -132.5
q-254 0 -408.5 92.5t-173.5 245.5zM641 219h29q121 0 212 86t91 217q0 134 -86 218.5t-207 84.5h-29q-130 0 -211.5 -76.5t-81.5 -226.5q0 -151 77.5 -227t205.5 -76z" />
    <glyph glyph-name="h" unicode="h" horiz-adv-x="1353" 
d="M145 0v1434h273v-560q118 170 362 170q209 0 324 -115.5t115 -305.5v-623h-273v573q0 119 -52.5 185.5t-154.5 66.5h-28q-119 0 -206 -88t-87 -221v-516h-273z" />
    <glyph glyph-name="i" unicode="i" horiz-adv-x="563" 
d="M145 0v1024h273v-1024h-273zM135 1149v285h293v-285h-293z" />
    <glyph glyph-name="j" unicode="j" horiz-adv-x="583" 
d="M-246 -410v230h330q44 0 63 19t19 63v1122h272v-1198q0 -101 -65.5 -168.5t-169.5 -67.5h-449zM156 1149v285h293v-285h-293z" />
    <glyph glyph-name="k" unicode="k" horiz-adv-x="1261" 
d="M145 0v1434h273v-787l463 377h364l-536 -424l557 -600h-340l-410 449l-98 -78v-371h-273z" />
    <glyph glyph-name="l" unicode="l" horiz-adv-x="563" 
d="M145 0v1434h273v-1434h-273z" />
    <glyph glyph-name="m" unicode="m" horiz-adv-x="2148" 
d="M145 0v1024h273v-123q105 143 325 143q136 0 235.5 -46.5t149.5 -137.5q120 184 410 184q239 0 357 -118t118 -318v-608h-272v580q0 115 -55 180t-162 65h-29q-124 0 -202.5 -87.5t-78.5 -229.5v-508h-272v580q0 115 -59 180t-174 65h-29q-117 0 -189.5 -87.5
t-72.5 -229.5v-508h-273z" />
    <glyph glyph-name="n" unicode="n" horiz-adv-x="1353" 
d="M145 0v1024h273v-150q54 78 145.5 124t216.5 46q212 0 325.5 -114t113.5 -307v-623h-273v573q0 119 -52.5 185.5t-154.5 66.5h-28q-119 0 -206 -88t-87 -221v-516h-273z" />
    <glyph glyph-name="o" unicode="o" horiz-adv-x="1368" 
d="M82 512q0 240 167 386t435 146q175 0 311.5 -65.5t213.5 -186.5t77 -280t-77 -280t-213.5 -186.5t-311.5 -65.5q-268 0 -435 146t-167 386zM670 199h28q138 0 226 86t88 227t-88 227t-226 86h-28q-138 0 -226 -86t-88 -227t88 -227t226 -86z" />
    <glyph glyph-name="p" unicode="p" horiz-adv-x="1419" 
d="M145 -410v1434h273v-129q54 69 155.5 109t225.5 40q151 0 272 -64t192.5 -186.5t71.5 -281.5q0 -125 -41 -227t-113 -168t-168.5 -101.5t-209.5 -35.5q-132 0 -230.5 41.5t-154.5 113.5v-545h-273zM733 199h29q135 0 217 83t82 230t-82 230t-217 83h-29
q-139 0 -227 -83.5t-88 -229.5t88 -229.5t227 -83.5z" />
    <glyph glyph-name="q" unicode="q" horiz-adv-x="1419" 
d="M1001 -410v545q-56 -72 -154.5 -113.5t-230.5 -41.5q-113 0 -209.5 35.5t-168.5 101.5t-113 168t-41 227q0 159 71.5 281.5t193 186.5t272.5 64q126 0 225 -39.5t155 -109.5v129h273v-1434h-273zM657 199h29q139 0 227 83.5t88 229.5t-88 229.5t-227 83.5h-29
q-135 0 -217 -83t-82 -230t82 -230t217 -83z" />
    <glyph glyph-name="r" unicode="r" horiz-adv-x="903" 
d="M145 0v1024h263v-195q36 102 99.5 148.5t174.5 46.5h178v-244h-192q-122 0 -186 -68t-64 -198v-514h-273z" />
    <glyph glyph-name="s" unicode="s" horiz-adv-x="1175" 
d="M68 338h276q6 -67 66.5 -103t156.5 -36h29q205 0 205 84q0 33 -33 53t-117 37l-170 33q-188 38 -276 112t-88 207q0 148 131 233.5t334 85.5q242 0 372 -93.5t142 -264.5h-277q-6 63 -65.5 101t-157.5 38h-29q-84 0 -130 -21.5t-46 -58.5q0 -32 31 -51t121 -37l159 -30
q187 -33 280 -112.5t93 -217.5q0 -148 -127 -232.5t-366 -84.5q-236 0 -370.5 96t-143.5 262z" />
    <glyph glyph-name="t" unicode="t" horiz-adv-x="964" 
d="M276 225v580h-247v219h247v332h273v-332h315v-219h-315v-498q0 -46 18.5 -64t63.5 -18h278v-225h-370q-263 0 -263 225z" />
    <glyph glyph-name="u" unicode="u" horiz-adv-x="1335" 
d="M135 385v639h273v-592q0 -118 48 -175.5t150 -57.5h29q117 0 200 83.5t83 215.5v526h272v-1024h-272v166q-44 -82 -140.5 -134t-216.5 -52q-208 0 -317 106t-109 299z" />
    <glyph glyph-name="v" unicode="v" horiz-adv-x="1241" 
d="M946 1024h287l-471 -1024h-283l-467 1024h293l318 -715z" />
    <glyph glyph-name="w" unicode="w" horiz-adv-x="1822" 
d="M1522 1024h282l-372 -1024h-283l-238 688l-239 -688h-281l-373 1024h283l236 -676l227 676h293l237 -688z" />
    <glyph glyph-name="x" unicode="x" horiz-adv-x="1206" 
d="M1184 0h-330l-254 315l-256 -315h-321l417 516l-407 508h329l244 -303l246 303h322l-408 -504z" />
    <glyph glyph-name="y" unicode="y" horiz-adv-x="1280" 
d="M78 -414v234h360q47 0 64.5 17.5t17.5 64.5v174l-495 948h299l338 -655l315 655h299l-483 -946v-242q0 -130 -61 -190t-189 -60h-465z" />
    <glyph glyph-name="z" unicode="z" horiz-adv-x="1193" 
d="M88 0v225l617 559h-607v240h985v-225l-616 -559h647v-240h-1026z" />
    <glyph glyph-name="braceleft" unicode="{" horiz-adv-x="864" 
d="M274 20v461q0 50 -17 70t-64 20h-119v291h119q47 0 64 20t17 70v461q0 166 65 242t212 76h246v-220h-185q-43 0 -54 -16t-11 -72v-512q0 -96 -41 -135t-123 -39h-53v-41h53q164 0 164 -174v-512q0 -57 11 -72.5t54 -15.5h185v-219h-246q-147 0 -212 75.5t-65 241.5z" />
    <glyph glyph-name="bar" unicode="|" horiz-adv-x="622" 
d="M176 -174v1782h270v-1782h-270z" />
    <glyph glyph-name="braceright" unicode="}" horiz-adv-x="864" 
d="M590 1415v-461q0 -50 17.5 -70t64.5 -20h119v-291h-119q-47 0 -64.5 -20t-17.5 -70v-460q0 -166 -65 -242t-212 -76h-245v219h184q43 0 54 16t11 72v512q0 96 41 135t123 39h54v41h-54q-164 0 -164 174v512q0 57 -11 72.5t-54 15.5h-184v220h245q147 0 212 -76t65 -242z
" />
    <glyph glyph-name="asciitilde" unicode="~" horiz-adv-x="1157" 
d="M653 729l-22 8l-70 23q-121 39 -149 39q-33 0 -48.5 -19t-15.5 -63h-194v53q0 97 59 165.5t147 68.5q66 0 172 -33l25 -8l78 -27l31 -8q79 -27 104 -27q30 0 45.5 22t15.5 60h195v-53q0 -98 -60 -166t-155 -68q-39 0 -69 6.5t-89 26.5z" />
    <glyph glyph-name="uni00A0" unicode="&#xa0;" horiz-adv-x="536" 
 />
    <glyph glyph-name="exclamdown" unicode="&#xa1;" horiz-adv-x="593" 
d="M369 635l69 -563v-482h-282v482l69 563h144zM463 1024v-301h-328v301h328z" />
    <glyph glyph-name="cent" unicode="&#xa2;" horiz-adv-x="1312" 
d="M942 358h277q-25 -165 -171 -271.5t-360 -106.5h-14l-45 -226h-213l51 254q-178 49 -273.5 181t-95.5 323q0 227 155.5 376.5t416.5 155.5l45 226h213l-49 -248q143 -38 232 -130.5t108 -225.5h-277q-14 83 -106 133l-119 -600q85 4 146.5 48t78.5 111zM512 240l115 581
q-121 -15 -187.5 -100t-66.5 -209q0 -87 36 -159t103 -113z" />
    <glyph glyph-name="sterling" unicode="&#xa3;" horiz-adv-x="1382" 
d="M518 240h785v-240h-1205v240h107q65 0 94 27.5t35 94.5l18 177l-254 -54v226l277 57l24 236q25 241 125.5 335.5t331.5 94.5h344v-240h-350q-91 0 -129.5 -41.5t-50.5 -159.5l-17 -166l295 62v-225l-319 -66l-21 -195q-8 -63 -26.5 -98t-63.5 -65z" />
    <glyph glyph-name="currency" unicode="&#xa4;" horiz-adv-x="1642" 
d="M1343 354l191 -180l-184 -184l-193 182q-155 -90 -340 -90q-186 0 -334 88l-188 -180l-184 184l184 174q-82 125 -82 277q0 143 74 264l-176 176l184 184l184 -178q153 86 338 86q187 0 342 -90l191 182l184 -184l-182 -182q69 -115 69 -258t-78 -271zM1145 625
q0 133 -87.5 213t-232.5 80h-16q-145 0 -232.5 -80t-87.5 -213q0 -136 87.5 -219.5t232.5 -83.5h16q145 0 232.5 83.5t87.5 219.5z" />
    <glyph glyph-name="yen" unicode="&#xa5;" horiz-adv-x="1587" 
d="M1528 1434l-395 -543l194 37v-226l-387 -75v-2v-127l326 63v-225l-326 -64v-272h-283v217l-327 -63v225l327 63v127l-389 -75v225l279 55l-479 660h325l408 -570l403 570h324z" />
    <glyph glyph-name="brokenbar" unicode="&#xa6;" horiz-adv-x="630" 
d="M180 850v758h271v-758h-271zM180 -174v778h271v-778h-271z" />
    <glyph glyph-name="section" unicode="&#xa7;" horiz-adv-x="1249" 
d="M174 -123v215h539q110 0 110 88q0 66 -96 92l-367 95q-268 70 -268 286q0 75 46.5 143t131.5 115q-110 79 -110 228q0 131 95.5 213t293.5 82h491v-215h-497q-53 0 -82 -23.5t-29 -65.5q0 -67 96 -92l385 -102q126 -32 188 -98.5t62 -161.5q0 -87 -46 -158t-132 -119
q111 -82 111 -227q0 -131 -95.5 -213t-293.5 -82h-533zM891 635q0 83 -121 110l-291 72q-57 -19 -85.5 -57t-28.5 -84q0 -82 120 -111l291 -71q57 19 86 58t29 83z" />
    <glyph glyph-name="dieresis" unicode="&#xa8;" horiz-adv-x="854" 
d="M59 1155v268h271v-268h-271zM524 1155v268h271v-268h-271z" />
    <glyph glyph-name="copyright" unicode="&#xa9;" horiz-adv-x="2140" 
d="M98 719q-2 134 45.5 257.5t137 221.5t209.5 171t270 112t311 37q135 1 262.5 -26t235 -77.5t197 -124t151 -161.5t94.5 -193t31 -217q4 -167 -71 -316.5t-205 -256t-311.5 -168t-383.5 -58.5q-201 -3 -382.5 58.5t-312 168t-206 256t-72.5 316.5zM1853 719
q4 171 -103.5 315.5t-288.5 226t-390 78.5q-210 3 -392 -78.5t-289 -226t-103 -315.5q-3 -129 59.5 -246t169.5 -199.5t252.5 -130t302.5 -45.5q156 -2 301 45.5t251.5 130t169.5 199.5t60 246zM633 729q0 84 26 157.5t76.5 132t133 92.5t188.5 34q186 0 289.5 -82
t121.5 -223h-231q-12 56 -57.5 86t-118.5 30h-8q-90 0 -143.5 -57t-53.5 -170t53.5 -170t143.5 -57h8q74 0 120 31.5t58 91.5h229q-20 -142 -121 -227t-290 -85q-106 0 -188.5 34t-133 92.5t-76.5 132t-26 157.5z" />
    <glyph glyph-name="ordfeminine" unicode="&#xaa;" horiz-adv-x="858" 
d="M104 1012q0 76 56 124.5t155 55.5l205 20v17q0 32 -25.5 49.5t-70.5 17.5h-8q-87 0 -101 -45h-190q5 89 83 141t216 52q139 0 216 -60.5t77 -177.5v-227q0 -80 8 -129h-182q-6 36 -8 74q-77 -84 -224 -84q-86 0 -146.5 47.5t-60.5 124.5zM367 987h8q65 0 107 27t42 73v17
l-159 -19q-27 -5 -45.5 -18t-18.5 -31q0 -23 18 -36t48 -13z" />
    <glyph glyph-name="guillemotleft" unicode="&#xab;" horiz-adv-x="1294" 
d="M713 1024l-330 -438l334 -443h-309l-338 441l338 440h305zM885 586l332 -443h-310l-338 441l338 440h305z" />
    <glyph glyph-name="logicalnot" unicode="&#xac;" horiz-adv-x="1366" 
d="M934 236v276h-787v236h1059v-512h-272z" />
    <glyph glyph-name="uni00AD" unicode="&#xad;" horiz-adv-x="950" 
d="M137 508v223h676v-223h-676z" />
    <glyph glyph-name="registered" unicode="&#xae;" horiz-adv-x="2140" 
d="M98 719q-2 134 45.5 257.5t137 221.5t209.5 171t270 112t311 37q135 1 262.5 -26t235 -77.5t197 -124t151 -161.5t94.5 -193t31 -217q4 -167 -71 -316.5t-205 -256t-311.5 -168t-383.5 -58.5q-201 -3 -382.5 58.5t-312 168t-206 256t-72.5 316.5zM1853 719
q4 171 -103.5 315.5t-288.5 226t-390 78.5q-210 3 -392 -78.5t-289 -226t-103 -315.5q-3 -129 59.5 -246t169.5 -199.5t252.5 -130t302.5 -45.5q156 -2 301 45.5t251.5 130t169.5 199.5t60 246zM725 334v790h420q127 0 200.5 -63t73.5 -164q0 -79 -44.5 -129t-121.5 -68
q81 0 118.5 -28.5t37.5 -93.5v-244h-213v203q0 41 -15 56t-57 15h-186v-274h-213zM938 784h172q45 0 70.5 21t25.5 59q0 37 -26.5 57.5t-73.5 20.5h-168v-158z" />
    <glyph glyph-name="macron" unicode="&#xaf;" horiz-adv-x="849" 
d="M61 1157v215h727v-215h-727z" />
    <glyph glyph-name="degree" unicode="&#xb0;" horiz-adv-x="937" 
d="M90 1075q0 160 109.5 269.5t269.5 109.5t269.5 -109.5t109.5 -269.5t-109.5 -269.5t-269.5 -109.5t-269.5 109.5t-109.5 269.5zM614 1075q0 62 -42 105t-103 43t-103 -43t-42 -105q0 -67 41.5 -112t103.5 -45t103.5 45t41.5 112z" />
    <glyph glyph-name="plusminus" unicode="&#xb1;" horiz-adv-x="1417" 
d="M571 348v215h-430v236h430v225h273v-225h432v-236h-432v-215h-273zM141 0v233h1135v-233h-1135z" />
    <glyph glyph-name="twosuperior" unicode="&#xb2;" horiz-adv-x="843" 
d="M86 850v172l342 274q56 44 73 63.5t23 55.5q0 33 -28.5 53.5t-77.5 20.5h-8q-44 0 -75.5 -25.5t-33.5 -62.5h-219q9 122 105.5 195t244.5 73q142 0 233 -73t91 -162q0 -74 -38.5 -126t-135.5 -130l-185 -146l357 2v-184h-668z" />
    <glyph glyph-name="threesuperior" unicode="&#xb3;" horiz-adv-x="845" 
d="M70 1079h221q1 -26 36.5 -43.5t80.5 -17.5h10q55 0 88 22t33 58q0 35 -31.5 54t-87.5 19h-107v172h107q112 0 112 74q0 33 -28 53.5t-80 20.5h-10q-41 0 -72.5 -17t-36.5 -40h-221q0 109 96 172t240 63q140 0 237 -63.5t97 -167.5q0 -134 -129 -178q135 -51 135 -191
q0 -106 -102.5 -167.5t-247.5 -61.5q-144 0 -242 64t-98 175z" />
    <glyph glyph-name="acute" unicode="&#xb4;" horiz-adv-x="552" 
d="M53 1128l133 308h312l-246 -308h-199z" />
    <glyph glyph-name="mu" unicode="&#xb5;" horiz-adv-x="1406" 
d="M176 -410v1434h266v-588q0 -120 63.5 -180.5t160.5 -60.5h16q141 0 212 76.5t71 220.5v532h266v-1024h-266v137q-121 -157 -351 -157q-86 0 -172 22v-412h-266z" />
    <glyph glyph-name="paragraph" unicode="&#xb6;" horiz-adv-x="1593" 
d="M547 -410v971h-53q-182 0 -305 127.5t-123 308.5q0 182 124.5 309.5t311.5 127.5h995v-215h-194v-1629h-271v1629h-215v-1629h-270z" />
    <glyph glyph-name="periodcentered" unicode="&#xb7;" horiz-adv-x="606" 
d="M139 563v301h328v-301h-328z" />
    <glyph glyph-name="cedilla" unicode="&#xb8;" horiz-adv-x="555" 
d="M61 -502v154h199q40 0 64 15.5t24 45.5q0 26 -21.5 44t-56.5 18h-116v256h147v-123q85 0 143 -51.5t58 -143.5q0 -98 -71 -156.5t-181 -58.5h-189z" />
    <glyph glyph-name="onesuperior" unicode="&#xb9;" horiz-adv-x="686" 
d="M344 850v551l-285 -182v229l318 211h182v-809h-215z" />
    <glyph glyph-name="ordmasculine" unicode="&#xba;" horiz-adv-x="876" 
d="M92 1141q0 131 95 217t251 86t251 -86t95 -217q0 -129 -95.5 -215t-250.5 -86t-250.5 86t-95.5 215zM434 1004h8q62 0 97.5 36t35.5 101q0 66 -35.5 102.5t-97.5 36.5h-8q-62 0 -97.5 -36.5t-35.5 -102.5q0 -65 35.5 -101t97.5 -36z" />
    <glyph glyph-name="guillemotright" unicode="&#xbb;" horiz-adv-x="1294" 
d="M387 1024l338 -440l-338 -441h-305l328 439l-332 442h309zM887 1024l338 -440l-338 -441h-305l327 439l-331 442h309z" />
    <glyph glyph-name="onequarter" unicode="&#xbc;" horiz-adv-x="1959" 
d="M344 625v551l-285 -183v230l318 211h182v-809h-215zM297 0l948 1434h211l-948 -1434h-211zM1505 0v127h-442v223l397 459h244v-510h129v-172h-129v-127h-199zM1249 299h256v281z" />
    <glyph glyph-name="onehalf" unicode="&#xbd;" horiz-adv-x="1947" 
d="M344 625v551l-285 -183v230l318 211h182v-809h-215zM297 0l948 1434h211l-948 -1434h-211zM1151 0v172l342 274q56 44 73 63.5t23 55.5q0 33 -28.5 53.5t-77.5 20.5h-8q-44 0 -75.5 -25.5t-33.5 -62.5h-219q9 122 105.5 195t244.5 73q142 0 233 -73t91 -162
q0 -74 -38.5 -126t-135.5 -130l-185 -146l357 2v-184h-668z" />
    <glyph glyph-name="threequarters" unicode="&#xbe;" horiz-adv-x="2078" 
d="M70 854h221q1 -26 36.5 -43.5t80.5 -17.5h10q55 0 88 22t33 57t-31.5 54.5t-87.5 19.5h-107v172h107q112 0 112 74q0 33 -28 53.5t-80 20.5h-10q-41 0 -73 -16.5t-36 -41.5h-221q0 109 96.5 172.5t239.5 63.5q140 0 237 -64t97 -168q0 -134 -129 -178q135 -48 135 -190
q0 -106 -102.5 -168t-247.5 -62q-144 0 -242 65t-98 175zM457 0l948 1434h211l-948 -1434h-211zM1665 0v127h-442v223l397 459h244v-510h129v-172h-129v-127h-199zM1409 299h256v281z" />
    <glyph glyph-name="questiondown" unicode="&#xbf;" horiz-adv-x="1140" 
d="M881 614v-219q0 -260 -240 -260h-125q-78 0 -125 -41.5t-47 -109.5q0 -64 47.5 -104t132.5 -40h541v-250h-559q-199 0 -319.5 107.5t-120.5 284.5q0 174 126 283.5t334 109.5q49 0 69.5 16.5t20.5 54.5v168h265zM913 1024v-301h-327v301h327z" />
    <glyph glyph-name="Agrave" unicode="&#xc0;" horiz-adv-x="1656" 
d="M1350 0l-156 336h-739l-154 -336h-299l670 1434h315l668 -1434h-305zM569 586h512l-256 555zM737 1526l-235 297h321l103 -297h-189z" />
    <glyph glyph-name="Aacute" unicode="&#xc1;" horiz-adv-x="1656" 
d="M1350 0l-156 336h-739l-154 -336h-299l670 1434h315l668 -1434h-305zM569 586h512l-256 555zM737 1526l103 297h321l-235 -297h-189z" />
    <glyph glyph-name="Acircumflex" unicode="&#xc2;" horiz-adv-x="1656" 
d="M1350 0l-156 336h-739l-154 -336h-299l670 1434h315l668 -1434h-305zM569 586h512l-256 555zM416 1526l266 297h295l266 -297h-229l-185 123l-184 -123h-229z" />
    <glyph glyph-name="Atilde" unicode="&#xc3;" horiz-adv-x="1656" 
d="M1350 0l-156 336h-739l-154 -336h-299l670 1434h315l668 -1434h-305zM569 586h512l-256 555zM846 1575l-74 29l-35 14q-56 18 -73 18q-42 0 -65.5 -25.5t-23.5 -64.5h-196v58q0 94 77 165.5t179 71.5q71 0 145 -31l29 -12l70 -26l32 -15q68 -26 86 -26q41 0 63.5 25
t22.5 65h197v-58q0 -101 -62.5 -169t-168.5 -68q-47 0 -89.5 10.5t-113.5 38.5z" />
    <glyph glyph-name="Adieresis" unicode="&#xc4;" horiz-adv-x="1656" 
d="M1350 0l-156 336h-739l-154 -336h-299l670 1434h315l668 -1434h-305zM569 586h512l-256 555zM457 1567v245h270v-245h-270zM932 1567v245h270v-245h-270z" />
    <glyph glyph-name="Aring" unicode="&#xc5;" horiz-adv-x="1656" 
d="M1350 0l-156 336h-739l-154 -336h-299l670 1434h315l668 -1434h-305zM569 586h512l-256 555zM573 1751q0 89 75 157t181 68t181 -68t75 -157q0 -95 -74 -160t-182 -65t-182 65t-74 160zM930 1751q0 33 -30 57.5t-71 24.5q-42 0 -72 -24.5t-30 -57.5t30 -57.5t72 -24.5
q41 0 71 24.5t30 57.5z" />
    <glyph glyph-name="AE" unicode="&#xc6;" horiz-adv-x="2394" 
d="M1491 246h846v-246h-1084l-47 338h-698l-240 -338h-299l1012 1434h1233v-246h-852l45 -328h745v-246h-710zM682 588h489l-79 579z" />
    <glyph glyph-name="Ccedilla" unicode="&#xc7;" horiz-adv-x="1681" 
d="M94 717q0 157 57.5 293t160 234t252.5 154t327 56q297 0 486.5 -139.5t221.5 -351.5h-296q-27 113 -135.5 177t-260.5 64h-33q-225 0 -360 -138t-135 -349q0 -138 59 -248.5t172.5 -175t263.5 -64.5h33q157 0 263.5 63t132.5 179h296q-34 -220 -224.5 -355.5
t-483.5 -135.5q-179 -2 -330 53.5t-253.5 154t-158.5 235t-55 294.5zM725 -502v154h199q40 0 64 15.5t24 45.5q0 26 -21.5 44t-56.5 18h-117v256h148v-123q84 0 142 -51.5t58 -143.5q0 -98 -71 -156.5t-181 -58.5h-188z" />
    <glyph glyph-name="Egrave" unicode="&#xc8;" horiz-adv-x="1562" 
d="M465 250h1005v-250h-1288v1434h1268v-250h-985v-322h862v-250h-862v-362zM725 1526l-236 297h322l102 -297h-188z" />
    <glyph glyph-name="Eacute" unicode="&#xc9;" horiz-adv-x="1562" 
d="M465 250h1005v-250h-1288v1434h1268v-250h-985v-322h862v-250h-862v-362zM725 1526l102 297h322l-236 -297h-188z" />
    <glyph glyph-name="Ecircumflex" unicode="&#xca;" horiz-adv-x="1562" 
d="M465 250h1005v-250h-1288v1434h1268v-250h-985v-322h862v-250h-862v-362zM403 1526l267 297h295l266 -297h-230l-184 123l-184 -123h-230z" />
    <glyph glyph-name="Edieresis" unicode="&#xcb;" horiz-adv-x="1562" 
d="M465 250h1005v-250h-1288v1434h1268v-250h-985v-322h862v-250h-862v-362zM444 1567v245h271v-245h-271zM920 1567v245h270v-245h-270z" />
    <glyph glyph-name="Igrave" unicode="&#xcc;" horiz-adv-x="647" 
d="M182 0v1434h283v-1434h-283zM238 1526l-236 297h322l102 -297h-188z" />
    <glyph glyph-name="Iacute" unicode="&#xcd;" horiz-adv-x="647" 
d="M182 0v1434h283v-1434h-283zM238 1526l102 297h322l-236 -297h-188z" />
    <glyph glyph-name="Icircumflex" unicode="&#xce;" horiz-adv-x="647" 
d="M182 0v1434h283v-1434h-283zM-84 1526l266 297h295l266 -297h-229l-184 123l-185 -123h-229z" />
    <glyph glyph-name="Idieresis" unicode="&#xcf;" horiz-adv-x="647" 
d="M182 0v1434h283v-1434h-283zM-43 1567v245h270v-245h-270zM432 1567v245h270v-245h-270z" />
    <glyph glyph-name="Eth" unicode="&#xd0;" horiz-adv-x="1796" 
d="M262 0v1434h686q347 0 548.5 -191t201.5 -526t-201.5 -526t-548.5 -191h-686zM545 250h383q239 0 362 119t123 348t-123 348t-362 119h-383v-934zM39 594v246h874v-246h-874z" />
    <glyph glyph-name="Ntilde" unicode="&#xd1;" horiz-adv-x="1740" 
d="M1276 1434h283v-1434h-349l-745 1071v-1071h-283v1434h361l733 -1053v1053zM887 1575l-74 29l-35 14q-56 18 -73 18q-42 0 -65.5 -25.5t-23.5 -64.5h-196v58q0 94 77 165.5t179 71.5q71 0 145 -31l29 -12l70 -26l32 -15q68 -26 86 -26q41 0 63.5 25t22.5 65h197v-58
q0 -101 -62.5 -169t-168.5 -68q-47 0 -89.5 10.5t-113.5 38.5z" />
    <glyph glyph-name="Ograve" unicode="&#xd2;" horiz-adv-x="1812" 
d="M94 717q-3 221 103.5 390.5t292 259t417.5 87.5q173 1 323 -51t258.5 -146.5t170 -234t59.5 -305.5q2 -166 -59.5 -305.5t-170 -234t-258.5 -146.5t-323 -51q-173 -1 -323.5 51t-259.5 147t-170.5 234.5t-59.5 304.5zM891 229h33q142 0 257.5 58.5t184 170.5t68.5 259
q0 220 -146 353.5t-364 133.5h-33q-141 0 -257 -58t-185.5 -170.5t-69.5 -258.5t69.5 -258.5t185.5 -171t257 -58.5zM815 1526l-235 297h321l103 -297h-189z" />
    <glyph glyph-name="Oacute" unicode="&#xd3;" horiz-adv-x="1812" 
d="M94 717q-3 221 103.5 390.5t292 259t417.5 87.5q173 1 323 -51t258.5 -146.5t170 -234t59.5 -305.5q2 -166 -59.5 -305.5t-170 -234t-258.5 -146.5t-323 -51q-173 -1 -323.5 51t-259.5 147t-170.5 234.5t-59.5 304.5zM891 229h33q142 0 257.5 58.5t184 170.5t68.5 259
q0 220 -146 353.5t-364 133.5h-33q-141 0 -257 -58t-185.5 -170.5t-69.5 -258.5t69.5 -258.5t185.5 -171t257 -58.5zM815 1526l103 297h321l-235 -297h-189z" />
    <glyph glyph-name="Ocircumflex" unicode="&#xd4;" horiz-adv-x="1812" 
d="M94 717q-3 221 103.5 390.5t292 259t417.5 87.5q173 1 323 -51t258.5 -146.5t170 -234t59.5 -305.5q2 -166 -59.5 -305.5t-170 -234t-258.5 -146.5t-323 -51q-173 -1 -323.5 51t-259.5 147t-170.5 234.5t-59.5 304.5zM891 229h33q142 0 257.5 58.5t184 170.5t68.5 259
q0 220 -146 353.5t-364 133.5h-33q-141 0 -257 -58t-185.5 -170.5t-69.5 -258.5t69.5 -258.5t185.5 -171t257 -58.5zM494 1526l266 297h295l266 -297h-229l-185 123l-184 -123h-229z" />
    <glyph glyph-name="Otilde" unicode="&#xd5;" horiz-adv-x="1812" 
d="M94 717q-3 221 103.5 390.5t292 259t417.5 87.5q173 1 323 -51t258.5 -146.5t170 -234t59.5 -305.5q2 -166 -59.5 -305.5t-170 -234t-258.5 -146.5t-323 -51q-173 -1 -323.5 51t-259.5 147t-170.5 234.5t-59.5 304.5zM891 229h33q142 0 257.5 58.5t184 170.5t68.5 259
q0 220 -146 353.5t-364 133.5h-33q-141 0 -257 -58t-185.5 -170.5t-69.5 -258.5t69.5 -258.5t185.5 -171t257 -58.5zM924 1575l-74 29l-35 14q-56 18 -74 18q-42 0 -65 -25.5t-23 -64.5h-196v58q0 94 77 165.5t179 71.5q71 0 145 -31l29 -12l69 -26l33 -15q68 -26 86 -26
q41 0 63.5 25t22.5 65h197v-58q0 -101 -63 -169t-169 -68q-47 0 -88.5 10.5t-113.5 38.5z" />
    <glyph glyph-name="Odieresis" unicode="&#xd6;" horiz-adv-x="1812" 
d="M94 717q-3 221 103.5 390.5t292 259t417.5 87.5q173 1 323 -51t258.5 -146.5t170 -234t59.5 -305.5q2 -166 -59.5 -305.5t-170 -234t-258.5 -146.5t-323 -51q-173 -1 -323.5 51t-259.5 147t-170.5 234.5t-59.5 304.5zM891 229h33q142 0 257.5 58.5t184 170.5t68.5 259
q0 220 -146 353.5t-364 133.5h-33q-141 0 -257 -58t-185.5 -170.5t-69.5 -258.5t69.5 -258.5t185.5 -171t257 -58.5zM535 1567v245h270v-245h-270zM1010 1567v245h270v-245h-270z" />
    <glyph glyph-name="multiply" unicode="&#xd7;" horiz-adv-x="1236" 
d="M1128 238l-157 -183l-355 307l-350 -305l-155 179l327 284l-329 287l157 180l355 -307l352 305l153 -178l-325 -285z" />
    <glyph glyph-name="Oslash" unicode="&#xd8;" horiz-adv-x="1837" 
d="M106 717q-3 221 104 390.5t292.5 259t417.5 87.5q173 1 323 -51t258.5 -146.5t170 -234t59.5 -305.5q2 -166 -59.5 -305.5t-170 -234t-258.5 -146.5t-323 -51q-173 -1 -324 51t-260 147t-170.5 234.5t-59.5 304.5zM903 229h33q142 0 257.5 58.5t184 170.5t68.5 259
q0 220 -146 353.5t-364 133.5h-33q-141 0 -257 -58t-185.5 -170.5t-69.5 -258.5t69.5 -258.5t185.5 -171t257 -58.5zM264 -100l-178 184l1489 1450l178 -184z" />
    <glyph glyph-name="Ugrave" unicode="&#xd9;" horiz-adv-x="1634" 
d="M166 565v869h283v-852q0 -172 90 -262.5t262 -90.5h33q172 0 262 90.5t90 262.5v852h282v-869q0 -273 -168 -429t-483 -156q-318 0 -484.5 155t-166.5 430zM725 1526l-236 297h322l102 -297h-188z" />
    <glyph glyph-name="Uacute" unicode="&#xda;" horiz-adv-x="1634" 
d="M166 565v869h283v-852q0 -172 90 -262.5t262 -90.5h33q172 0 262 90.5t90 262.5v852h282v-869q0 -273 -168 -429t-483 -156q-318 0 -484.5 155t-166.5 430zM725 1526l102 297h322l-236 -297h-188z" />
    <glyph glyph-name="Ucircumflex" unicode="&#xdb;" horiz-adv-x="1634" 
d="M166 565v869h283v-852q0 -172 90 -262.5t262 -90.5h33q172 0 262 90.5t90 262.5v852h282v-869q0 -273 -168 -429t-483 -156q-318 0 -484.5 155t-166.5 430zM403 1526l267 297h295l266 -297h-230l-184 123l-184 -123h-230z" />
    <glyph glyph-name="Udieresis" unicode="&#xdc;" horiz-adv-x="1634" 
d="M166 565v869h283v-852q0 -172 90 -262.5t262 -90.5h33q172 0 262 90.5t90 262.5v852h282v-869q0 -273 -168 -429t-483 -156q-318 0 -484.5 155t-166.5 430zM444 1567v245h271v-245h-271zM920 1567v245h270v-245h-270z" />
    <glyph glyph-name="Yacute" unicode="&#xdd;" horiz-adv-x="1497" 
d="M1155 1434h324l-588 -809v-625h-283v623l-590 811h326l408 -572zM659 1526l103 297h321l-235 -297h-189z" />
    <glyph glyph-name="Thorn" unicode="&#xde;" horiz-adv-x="1554" 
d="M182 0v1434h283v-252h477q232 0 377 -125.5t145 -339.5q0 -219 -143.5 -343t-378.5 -124h-477v-250h-283zM465 500h446q133 0 202 55.5t69 161.5q0 105 -69 160t-202 55h-446v-432z" />
    <glyph glyph-name="germandbls" unicode="&#xdf;" horiz-adv-x="1294" 
d="M145 -379v1366q0 203 141 335t380 132q236 0 365.5 -105.5t129.5 -265.5q0 -118 -66 -203.5t-151 -113.5q44 -12 88 -39t85 -68.5t67 -104t26 -134.5q0 -198 -139 -309t-360 -111h-187v229h158q119 0 186.5 54.5t67.5 150.5q0 93 -64 148t-176 55h-172v240h162
q107 0 159 49.5t52 132.5q0 78 -60 127t-161 49h-21q-111 0 -177 -67.5t-66 -192.5v-1354h-267z" />
    <glyph glyph-name="agrave" unicode="&#xe0;" horiz-adv-x="1251" 
d="M78 283q0 161 112 245.5t314 96.5l348 24v25q0 73 -61.5 112t-172.5 39h-32q-83 0 -139.5 -31.5t-63.5 -86.5h-277q15 147 152.5 242t341.5 95q243 0 378.5 -106.5t135.5 -282.5v-430q0 -107 14 -225h-251q-9 52 -11 88q-1 14 -2 31.5t-1.5 27.5t-0.5 15
q-39 -76 -136 -129t-222 -53q-200 0 -313 84t-113 219zM524 199h29q124 0 211.5 49.5t87.5 140.5v64l-283 -21q-217 -14 -217 -123q0 -110 172 -110zM506 1128l-246 308h311l134 -308h-199z" />
    <glyph glyph-name="aacute" unicode="&#xe1;" horiz-adv-x="1251" 
d="M78 283q0 161 112 245.5t314 96.5l348 24v25q0 73 -61.5 112t-172.5 39h-32q-83 0 -139.5 -31.5t-63.5 -86.5h-277q15 147 152.5 242t341.5 95q243 0 378.5 -106.5t135.5 -282.5v-430q0 -107 14 -225h-251q-9 52 -11 88q-1 14 -2 31.5t-1.5 27.5t-0.5 15
q-39 -76 -136 -129t-222 -53q-200 0 -313 84t-113 219zM524 199h29q124 0 211.5 49.5t87.5 140.5v64l-283 -21q-217 -14 -217 -123q0 -110 172 -110zM502 1128l133 308h311l-246 -308h-198z" />
    <glyph glyph-name="acircumflex" unicode="&#xe2;" horiz-adv-x="1251" 
d="M78 283q0 161 112 245.5t314 96.5l348 24v25q0 73 -61.5 112t-172.5 39h-32q-83 0 -139.5 -31.5t-63.5 -86.5h-277q15 147 152.5 242t341.5 95q243 0 378.5 -106.5t135.5 -282.5v-430q0 -107 14 -225h-251q-9 52 -11 88q-1 14 -2 31.5t-1.5 27.5t-0.5 15
q-39 -76 -136 -129t-222 -53q-200 0 -313 84t-113 219zM524 199h29q124 0 211.5 49.5t87.5 140.5v64l-283 -21q-217 -14 -217 -123q0 -110 172 -110zM154 1128l317 308h256l320 -308h-230l-215 144l-219 -144h-229z" />
    <glyph glyph-name="atilde" unicode="&#xe3;" horiz-adv-x="1251" 
d="M78 283q0 161 112 245.5t314 96.5l348 24v25q0 73 -61.5 112t-172.5 39h-32q-83 0 -139.5 -31.5t-63.5 -86.5h-277q15 147 152.5 242t341.5 95q243 0 378.5 -106.5t135.5 -282.5v-430q0 -107 14 -225h-251q-9 52 -11 88q-1 14 -2 31.5t-1.5 27.5t-0.5 15
q-39 -76 -136 -129t-222 -53q-200 0 -313 84t-113 219zM524 199h29q124 0 211.5 49.5t87.5 140.5v64l-283 -21q-217 -14 -217 -123q0 -110 172 -110zM616 1178l-73 28l-31 13q-44 20 -78 20q-31 0 -49 -25.5t-18 -64.5h-197v57q0 95 70.5 166.5t165.5 71.5q74 0 143 -31
l31 -12l69 -27q7 -2 39 -16q60 -25 80 -25q31 0 48.5 25t17.5 65h196v-57q0 -103 -58.5 -170.5t-164.5 -67.5q-60 0 -191 50z" />
    <glyph glyph-name="adieresis" unicode="&#xe4;" horiz-adv-x="1251" 
d="M78 283q0 161 112 245.5t314 96.5l348 24v25q0 73 -61.5 112t-172.5 39h-32q-83 0 -139.5 -31.5t-63.5 -86.5h-277q15 147 152.5 242t341.5 95q243 0 378.5 -106.5t135.5 -282.5v-430q0 -107 14 -225h-251q-9 52 -11 88q-1 14 -2 31.5t-1.5 27.5t-0.5 15
q-39 -76 -136 -129t-222 -53q-200 0 -313 84t-113 219zM524 199h29q124 0 211.5 49.5t87.5 140.5v64l-283 -21q-217 -14 -217 -123q0 -110 172 -110zM231 1155v268h271v-268h-271zM696 1155v268h271v-268h-271z" />
    <glyph glyph-name="aring" unicode="&#xe5;" horiz-adv-x="1251" 
d="M78 283q0 161 112 245.5t314 96.5l348 24v25q0 73 -61.5 112t-172.5 39h-32q-83 0 -139.5 -31.5t-63.5 -86.5h-277q15 147 152.5 242t341.5 95q243 0 378.5 -106.5t135.5 -282.5v-430q0 -107 14 -225h-251q-9 52 -11 88q-1 14 -2 31.5t-1.5 27.5t-0.5 15
q-39 -76 -136 -129t-222 -53q-200 0 -313 84t-113 219zM524 199h29q124 0 211.5 49.5t87.5 140.5v64l-283 -21q-217 -14 -217 -123q0 -110 172 -110zM336 1360q0 92 76 161.5t188 69.5t188 -69.5t76 -161.5q0 -99 -74 -165.5t-190 -66.5q-115 0 -189.5 66.5t-74.5 165.5z
M707 1360q0 37 -30.5 62.5t-74.5 25.5q-43 0 -74.5 -26.5t-31.5 -61.5t31.5 -61.5t74.5 -26.5q44 0 74.5 25.5t30.5 62.5z" />
    <glyph glyph-name="ae" unicode="&#xe6;" horiz-adv-x="2093" 
d="M78 283q0 161 112 245.5t314 96.5l348 24v25q0 73 -61.5 112t-172.5 39h-32q-83 0 -139.5 -31.5t-63.5 -86.5h-277q15 147 152.5 242t341.5 95q302 0 430 -170q81 81 196.5 125.5t241.5 44.5q249 0 393 -138t144 -371v-109h-829q24 -108 101.5 -167.5t182.5 -59.5h29
q88 0 147.5 32.5t79.5 92.5h277q-28 -156 -169.5 -250t-344.5 -94q-152 0 -274.5 50t-200.5 144q-145 -194 -500 -194q-200 0 -313 84t-113 219zM1180 635h540q-6 95 -70.5 142.5t-168.5 47.5h-29q-105 0 -175.5 -49.5t-96.5 -140.5zM524 199h29q124 0 211.5 49.5
t87.5 140.5v64l-283 -21q-217 -14 -217 -123q0 -110 172 -110z" />
    <glyph glyph-name="ccedilla" unicode="&#xe7;" horiz-adv-x="1275" 
d="M84 512q0 232 160 382t430 150q220 0 362.5 -101.5t167.5 -276.5h-276q-17 74 -81.5 116.5t-158.5 42.5h-29q-143 0 -222 -89.5t-79 -223.5t79 -223.5t222 -89.5h29q91 0 156 44.5t84 114.5h276q-25 -165 -170.5 -271.5t-359.5 -106.5q-284 0 -437 144.5t-153 387.5z
M481 -502v154h199q40 0 64 15.5t24 45.5q0 26 -21.5 44t-56.5 18h-117v256h148v-123q85 0 143 -51.5t58 -143.5q0 -98 -71 -156.5t-181 -58.5h-189z" />
    <glyph glyph-name="egrave" unicode="&#xe8;" horiz-adv-x="1286" 
d="M1198 535v-109h-829q24 -108 101.5 -167.5t182.5 -59.5h29q87 0 147 32.5t80 92.5h277q-28 -157 -169.5 -250.5t-344.5 -93.5q-170 0 -301.5 60.5t-209 184.5t-77.5 295q-2 120 46.5 221t130 167t186 102t215.5 34q249 0 392.5 -138t143.5 -371zM373 635h540
q-6 95 -70.5 142.5t-168.5 47.5h-29q-105 0 -175.5 -49.5t-96.5 -140.5zM569 1128l-245 308h311l133 -308h-199z" />
    <glyph glyph-name="eacute" unicode="&#xe9;" horiz-adv-x="1286" 
d="M1198 535v-109h-829q24 -108 101.5 -167.5t182.5 -59.5h29q87 0 147 32.5t80 92.5h277q-28 -157 -169.5 -250.5t-344.5 -93.5q-170 0 -301.5 60.5t-209 184.5t-77.5 295q-2 120 46.5 221t130 167t186 102t215.5 34q249 0 392.5 -138t143.5 -371zM373 635h540
q-6 95 -70.5 142.5t-168.5 47.5h-29q-105 0 -175.5 -49.5t-96.5 -140.5zM565 1128l133 308h312l-246 -308h-199z" />
    <glyph glyph-name="ecircumflex" unicode="&#xea;" horiz-adv-x="1286" 
d="M1198 535v-109h-829q24 -108 101.5 -167.5t182.5 -59.5h29q87 0 147 32.5t80 92.5h277q-28 -157 -169.5 -250.5t-344.5 -93.5q-170 0 -301.5 60.5t-209 184.5t-77.5 295q-2 120 46.5 221t130 167t186 102t215.5 34q249 0 392.5 -138t143.5 -371zM373 635h540
q-6 95 -70.5 142.5t-168.5 47.5h-29q-105 0 -175.5 -49.5t-96.5 -140.5zM217 1128l318 308h256l319 -308h-229l-215 144l-220 -144h-229z" />
    <glyph glyph-name="edieresis" unicode="&#xeb;" horiz-adv-x="1286" 
d="M1198 535v-109h-829q24 -108 101.5 -167.5t182.5 -59.5h29q87 0 147 32.5t80 92.5h277q-28 -157 -169.5 -250.5t-344.5 -93.5q-170 0 -301.5 60.5t-209 184.5t-77.5 295q-2 120 46.5 221t130 167t186 102t215.5 34q249 0 392.5 -138t143.5 -371zM373 635h540
q-6 95 -70.5 142.5t-168.5 47.5h-29q-105 0 -175.5 -49.5t-96.5 -140.5zM295 1155v268h270v-268h-270zM760 1155v268h270v-268h-270z" />
    <glyph glyph-name="igrave" unicode="&#xec;" horiz-adv-x="563" 
d="M145 0v1024h273v-1024h-273zM188 1128l-245 308h311l133 -308h-199z" />
    <glyph glyph-name="iacute" unicode="&#xed;" horiz-adv-x="563" 
d="M145 0v1024h273v-1024h-273zM184 1128l133 308h312l-246 -308h-199z" />
    <glyph glyph-name="icircumflex" unicode="&#xee;" horiz-adv-x="563" 
d="M145 0v1024h273v-1024h-273zM-164 1128l318 308h256l319 -308h-229l-215 144l-219 -144h-230z" />
    <glyph glyph-name="idieresis" unicode="&#xef;" horiz-adv-x="563" 
d="M145 0v1024h273v-1024h-273zM-86 1155v268h270v-268h-270zM379 1155v268h270v-268h-270z" />
    <glyph glyph-name="eth" unicode="&#xf0;" horiz-adv-x="1406" 
d="M1307 649q0 -334 -160.5 -501.5t-460.5 -167.5q-268 0 -435 138.5t-167 364.5q0 115 45 209t122.5 155.5t179.5 94.5t218 33q211 0 348 -107q-59 162 -188 242l-164 -104l-90 135l66 43q-87 20 -213 20q-41 0 -76 -2v232q306 0 528 -95l232 152l90 -141l-160 -103
q140 -102 212.5 -255t72.5 -343zM1014 475q0 135 -86.5 205t-231.5 70h-28q-135 0 -221.5 -69.5t-86.5 -207.5q0 -122 89.5 -195t218.5 -73h28q138 0 228 73t90 197z" />
    <glyph glyph-name="ntilde" unicode="&#xf1;" horiz-adv-x="1353" 
d="M145 0v1024h273v-150q54 78 145.5 124t216.5 46q212 0 325.5 -114t113.5 -307v-623h-273v573q0 119 -52.5 185.5t-154.5 66.5h-28q-119 0 -206 -88t-87 -221v-516h-273zM715 1178l-74 28l-31 13q-44 20 -78 20q-31 0 -49 -25.5t-18 -64.5h-197v57q0 95 70.5 166.5
t165.5 71.5q74 0 143 -31l31 -12l70 -27q5 -1 38 -16q60 -25 80 -25q31 0 48.5 25t17.5 65h196v-57q0 -103 -58.5 -170.5t-164.5 -67.5q-59 0 -190 50z" />
    <glyph glyph-name="ograve" unicode="&#xf2;" horiz-adv-x="1368" 
d="M82 512q0 240 167 386t435 146q175 0 311.5 -65.5t213.5 -186.5t77 -280t-77 -280t-213.5 -186.5t-311.5 -65.5q-268 0 -435 146t-167 386zM670 199h28q138 0 226 86t88 227t-88 227t-226 86h-28q-138 0 -226 -86t-88 -227t88 -227t226 -86zM590 1128l-246 308h311
l133 -308h-198z" />
    <glyph glyph-name="oacute" unicode="&#xf3;" horiz-adv-x="1368" 
d="M82 512q0 240 167 386t435 146q175 0 311.5 -65.5t213.5 -186.5t77 -280t-77 -280t-213.5 -186.5t-311.5 -65.5q-268 0 -435 146t-167 386zM670 199h28q138 0 226 86t88 227t-88 227t-226 86h-28q-138 0 -226 -86t-88 -227t88 -227t226 -86zM586 1128l133 308h311
l-246 -308h-198z" />
    <glyph glyph-name="ocircumflex" unicode="&#xf4;" horiz-adv-x="1368" 
d="M82 512q0 240 167 386t435 146q175 0 311.5 -65.5t213.5 -186.5t77 -280t-77 -280t-213.5 -186.5t-311.5 -65.5q-268 0 -435 146t-167 386zM670 199h28q138 0 226 86t88 227t-88 227t-226 86h-28q-138 0 -226 -86t-88 -227t88 -227t226 -86zM238 1128l317 308h256
l319 -308h-229l-215 144l-219 -144h-229z" />
    <glyph glyph-name="otilde" unicode="&#xf5;" horiz-adv-x="1368" 
d="M82 512q0 240 167 386t435 146q175 0 311.5 -65.5t213.5 -186.5t77 -280t-77 -280t-213.5 -186.5t-311.5 -65.5q-268 0 -435 146t-167 386zM670 199h28q138 0 226 86t88 227t-88 227t-226 86h-28q-138 0 -226 -86t-88 -227t88 -227t226 -86zM700 1178l-73 28l-31 13
q-44 20 -78 20q-31 0 -49 -25.5t-18 -64.5h-197v57q0 96 70 167t165 71q75 0 144 -31l31 -12l69 -27q7 -2 39 -16q60 -25 80 -25q31 0 48.5 25t17.5 65h196v-57q0 -103 -58.5 -170.5t-164.5 -67.5q-60 0 -191 50z" />
    <glyph glyph-name="odieresis" unicode="&#xf6;" horiz-adv-x="1368" 
d="M82 512q0 240 167 386t435 146q175 0 311.5 -65.5t213.5 -186.5t77 -280t-77 -280t-213.5 -186.5t-311.5 -65.5q-268 0 -435 146t-167 386zM670 199h28q138 0 226 86t88 227t-88 227t-226 86h-28q-138 0 -226 -86t-88 -227t88 -227t226 -86zM315 1155v268h271v-268h-271z
M780 1155v268h271v-268h-271z" />
    <glyph glyph-name="divide" unicode="&#xf7;" horiz-adv-x="1359" 
d="M537 737v277h286v-277h-286zM113 410v235h1134v-235h-1134zM537 41v276h286v-276h-286z" />
    <glyph glyph-name="oslash" unicode="&#xf8;" horiz-adv-x="1380" 
d="M86 512q0 240 167 386t435 146q175 0 311.5 -65.5t213.5 -186.5t77 -280t-77 -280t-213.5 -186.5t-311.5 -65.5q-268 0 -435 146t-167 386zM674 199h28q138 0 226 86t88 227t-88 227t-226 86h-28q-138 0 -226 -86t-88 -227t88 -227t226 -86zM236 -74l-148 176l1073 996
l148 -176z" />
    <glyph glyph-name="ugrave" unicode="&#xf9;" horiz-adv-x="1335" 
d="M135 385v639h273v-592q0 -118 48 -175.5t150 -57.5h29q117 0 200 83.5t83 215.5v526h272v-1024h-272v166q-44 -82 -140.5 -134t-216.5 -52q-208 0 -317 106t-109 299zM569 1128l-245 308h311l133 -308h-199z" />
    <glyph glyph-name="uacute" unicode="&#xfa;" horiz-adv-x="1335" 
d="M135 385v639h273v-592q0 -118 48 -175.5t150 -57.5h29q117 0 200 83.5t83 215.5v526h272v-1024h-272v166q-44 -82 -140.5 -134t-216.5 -52q-208 0 -317 106t-109 299zM565 1128l133 308h312l-246 -308h-199z" />
    <glyph glyph-name="ucircumflex" unicode="&#xfb;" horiz-adv-x="1335" 
d="M135 385v639h273v-592q0 -118 48 -175.5t150 -57.5h29q117 0 200 83.5t83 215.5v526h272v-1024h-272v166q-44 -82 -140.5 -134t-216.5 -52q-208 0 -317 106t-109 299zM217 1128l318 308h256l319 -308h-229l-215 144l-220 -144h-229z" />
    <glyph glyph-name="udieresis" unicode="&#xfc;" horiz-adv-x="1335" 
d="M135 385v639h273v-592q0 -118 48 -175.5t150 -57.5h29q117 0 200 83.5t83 215.5v526h272v-1024h-272v166q-44 -82 -140.5 -134t-216.5 -52q-208 0 -317 106t-109 299zM295 1155v268h270v-268h-270zM760 1155v268h270v-268h-270z" />
    <glyph glyph-name="yacute" unicode="&#xfd;" horiz-adv-x="1280" 
d="M78 -414v234h360q47 0 64.5 17.5t17.5 64.5v174l-495 948h299l338 -655l315 655h299l-483 -946v-242q0 -130 -61 -190t-189 -60h-465zM553 1128l133 308h311l-245 -308h-199z" />
    <glyph glyph-name="thorn" unicode="&#xfe;" horiz-adv-x="1419" 
d="M145 -410v1844h273v-539q54 69 155.5 109t225.5 40q151 0 272 -64t192.5 -186.5t71.5 -281.5q0 -125 -41 -227t-113 -168t-168.5 -101.5t-209.5 -35.5q-132 0 -230.5 41.5t-154.5 113.5v-545h-273zM733 199h29q135 0 217 83t82 230t-82 230t-217 83h-29
q-139 0 -227 -83.5t-88 -229.5t88 -229.5t227 -83.5z" />
    <glyph glyph-name="ydieresis" unicode="&#xff;" horiz-adv-x="1280" 
d="M78 -414v234h360q47 0 64.5 17.5t17.5 64.5v174l-495 948h299l338 -655l315 655h299l-483 -946v-242q0 -130 -61 -190t-189 -60h-465zM283 1155v268h270v-268h-270zM748 1155v268h270v-268h-270z" />
    <glyph glyph-name="Amacron" unicode="&#x100;" horiz-adv-x="1656" 
d="M1350 0l-156 336h-739l-154 -336h-299l670 1434h315l668 -1434h-305zM569 586h512l-256 555zM465 1567v225h727v-225h-727z" />
    <glyph glyph-name="amacron" unicode="&#x101;" horiz-adv-x="1251" 
d="M78 283q0 161 112 245.5t314 96.5l348 24v25q0 73 -61.5 112t-172.5 39h-32q-83 0 -139.5 -31.5t-63.5 -86.5h-277q15 147 152.5 242t341.5 95q243 0 378.5 -106.5t135.5 -282.5v-430q0 -107 14 -225h-251q-9 52 -11 88q-1 14 -2 31.5t-1.5 27.5t-0.5 15
q-39 -76 -136 -129t-222 -53q-200 0 -313 84t-113 219zM524 199h29q124 0 211.5 49.5t87.5 140.5v64l-283 -21q-217 -14 -217 -123q0 -110 172 -110zM236 1157v215h727v-215h-727z" />
    <glyph glyph-name="Abreve" unicode="&#x102;" horiz-adv-x="1656" 
d="M1350 0l-156 336h-739l-154 -336h-299l670 1434h315l668 -1434h-305zM569 586h512l-256 555zM451 1833h225q7 -55 48 -84t105 -29t105.5 29.5t48.5 83.5h225q-3 -139 -106.5 -223t-272.5 -84t-272 84t-106 223z" />
    <glyph glyph-name="abreve" unicode="&#x103;" horiz-adv-x="1251" 
d="M78 283q0 161 112 245.5t314 96.5l348 24v25q0 73 -61.5 112t-172.5 39h-32q-83 0 -139.5 -31.5t-63.5 -86.5h-277q15 147 152.5 242t341.5 95q243 0 378.5 -106.5t135.5 -282.5v-430q0 -107 14 -225h-251q-9 52 -11 88q-1 14 -2 31.5t-1.5 27.5t-0.5 15
q-39 -76 -136 -129t-222 -53q-200 0 -313 84t-113 219zM524 199h29q124 0 211.5 49.5t87.5 140.5v64l-283 -21q-217 -14 -217 -123q0 -110 172 -110zM213 1448h229q9 -121 158 -121t158 121h229q-3 -148 -109.5 -234t-277.5 -86t-277.5 86t-109.5 234z" />
    <glyph glyph-name="Aogonek" unicode="&#x104;" horiz-adv-x="1656" 
d="M1350 0l-156 336h-739l-154 -336h-299l670 1434h315l668 -1434h-305zM569 586h512l-256 555zM1296 -246q0 94 63.5 164.5t162.5 112.5l133 -31q-86 -49 -130 -91t-44 -93q0 -47 33.5 -75t78.5 -28h93v-164h-134q-108 0 -182 59t-74 146z" />
    <glyph glyph-name="aogonek" unicode="&#x105;" horiz-adv-x="1251" 
d="M78 283q0 161 112 245.5t314 96.5l348 24v25q0 73 -61.5 112t-172.5 39h-32q-83 0 -139.5 -31.5t-63.5 -86.5h-277q15 147 152.5 242t341.5 95q243 0 378.5 -106.5t135.5 -282.5v-430q0 -107 14 -225h-251q-9 52 -11 88q-1 14 -2 31.5t-1.5 27.5t-0.5 15
q-39 -76 -136 -129t-222 -53q-200 0 -313 84t-113 219zM524 199h29q124 0 211.5 49.5t87.5 140.5v64l-283 -21q-217 -14 -217 -123q0 -110 172 -110zM770 -246q0 94 63 164.5t162 112.5l133 -31q-86 -49 -130 -91t-44 -93q0 -47 33.5 -75t79.5 -28h92v-164h-133
q-108 0 -182 59t-74 146z" />
    <glyph glyph-name="Cacute" unicode="&#x106;" horiz-adv-x="1681" 
d="M94 717q0 157 57.5 293t160 234t252.5 154t327 56q297 0 486.5 -139.5t221.5 -351.5h-296q-27 113 -135.5 177t-260.5 64h-33q-225 0 -360 -138t-135 -349q0 -138 59 -248.5t172.5 -175t263.5 -64.5h33q157 0 263.5 63t132.5 179h296q-34 -220 -224.5 -355.5
t-483.5 -135.5q-179 -2 -330 53.5t-253.5 154t-158.5 235t-55 294.5zM799 1526l102 297h322l-236 -297h-188z" />
    <glyph glyph-name="cacute" unicode="&#x107;" horiz-adv-x="1275" 
d="M84 512q0 232 160 382t430 150q220 0 362.5 -101.5t167.5 -276.5h-276q-17 74 -81.5 116.5t-158.5 42.5h-29q-143 0 -222 -89.5t-79 -223.5t79 -223.5t222 -89.5h29q91 0 156 44.5t84 114.5h276q-25 -165 -170.5 -271.5t-359.5 -106.5q-284 0 -437 144.5t-153 387.5z
M575 1128l134 308h311l-246 -308h-199z" />
    <glyph glyph-name="Ccircumflex" unicode="&#x108;" horiz-adv-x="1681" 
d="M94 717q0 157 57.5 293t160 234t252.5 154t327 56q297 0 486.5 -139.5t221.5 -351.5h-296q-27 113 -135.5 177t-260.5 64h-33q-225 0 -360 -138t-135 -349q0 -138 59 -248.5t172.5 -175t263.5 -64.5h33q157 0 263.5 63t132.5 179h296q-34 -220 -224.5 -355.5
t-483.5 -135.5q-179 -2 -330 53.5t-253.5 154t-158.5 235t-55 294.5zM477 1526l266 297h295l267 -297h-230l-184 123l-184 -123h-230z" />
    <glyph glyph-name="ccircumflex" unicode="&#x109;" horiz-adv-x="1275" 
d="M84 512q0 232 160 382t430 150q220 0 362.5 -101.5t167.5 -276.5h-276q-17 74 -81.5 116.5t-158.5 42.5h-29q-143 0 -222 -89.5t-79 -223.5t79 -223.5t222 -89.5h29q91 0 156 44.5t84 114.5h276q-25 -165 -170.5 -271.5t-359.5 -106.5q-284 0 -437 144.5t-153 387.5z
M227 1128l318 308h256l319 -308h-229l-215 144l-219 -144h-230z" />
    <glyph glyph-name="Cdotaccent" unicode="&#x10a;" horiz-adv-x="1681" 
d="M94 717q0 157 57.5 293t160 234t252.5 154t327 56q297 0 486.5 -139.5t221.5 -351.5h-296q-27 113 -135.5 177t-260.5 64h-33q-225 0 -360 -138t-135 -349q0 -138 59 -248.5t172.5 -175t263.5 -64.5h33q157 0 263.5 63t132.5 179h296q-34 -220 -224.5 -355.5
t-483.5 -135.5q-179 -2 -330 53.5t-253.5 154t-158.5 235t-55 294.5zM743 1554v285h293v-285h-293z" />
    <glyph glyph-name="cdotaccent" unicode="&#x10b;" horiz-adv-x="1275" 
d="M84 512q0 232 160 382t430 150q220 0 362.5 -101.5t167.5 -276.5h-276q-17 74 -81.5 116.5t-158.5 42.5h-29q-143 0 -222 -89.5t-79 -223.5t79 -223.5t222 -89.5h29q91 0 156 44.5t84 114.5h276q-25 -165 -170.5 -271.5t-359.5 -106.5q-284 0 -437 144.5t-153 387.5z
M526 1149v285h293v-285h-293z" />
    <glyph glyph-name="Ccaron" unicode="&#x10c;" horiz-adv-x="1681" 
d="M94 717q0 157 57.5 293t160 234t252.5 154t327 56q297 0 486.5 -139.5t221.5 -351.5h-296q-27 113 -135.5 177t-260.5 64h-33q-225 0 -360 -138t-135 -349q0 -138 59 -248.5t172.5 -175t263.5 -64.5h33q157 0 263.5 63t132.5 179h296q-34 -220 -224.5 -355.5
t-483.5 -135.5q-179 -2 -330 53.5t-253.5 154t-158.5 235t-55 294.5zM743 1526l-266 297h230l184 -123l184 123h230l-267 -297h-295z" />
    <glyph glyph-name="ccaron" unicode="&#x10d;" horiz-adv-x="1275" 
d="M84 512q0 232 160 382t430 150q220 0 362.5 -101.5t167.5 -276.5h-276q-17 74 -81.5 116.5t-158.5 42.5h-29q-143 0 -222 -89.5t-79 -223.5t79 -223.5t222 -89.5h29q91 0 156 44.5t84 114.5h276q-25 -165 -170.5 -271.5t-359.5 -106.5q-284 0 -437 144.5t-153 387.5z
M545 1128l-318 308h230l219 -144l215 144h229l-319 -308h-256z" />
    <glyph glyph-name="Dcaron" unicode="&#x10e;" horiz-adv-x="1716" 
d="M182 0v1434h686q347 0 548.5 -191t201.5 -526t-201.5 -526t-548.5 -191h-686zM465 250h383q239 0 362 119t123 348t-123 348t-362 119h-383v-934zM672 1526l-266 297h229l184 -123l185 123h229l-266 -297h-295z" />
    <glyph glyph-name="dcaron" unicode="&#x10f;" horiz-adv-x="1695" 
d="M84 512q0 125 41 227t113 168t168.5 101.5t209.5 35.5q132 0 230.5 -41.5t154.5 -113.5v545h273v-1434h-273v129q-56 -70 -155 -109.5t-225 -39.5q-151 0 -272.5 64t-193 186.5t-71.5 281.5zM657 199h29q139 0 227 83.5t88 229.5t-88 229.5t-227 83.5h-29
q-135 0 -217 -83t-82 -230t82 -230t217 -83zM1393 928v153h67q107 0 107 80v2h-123v271h287v-271q0 -103 -73 -169t-188 -66h-77z" />
    <glyph glyph-name="Dcroat" unicode="&#x110;" horiz-adv-x="1796" 
d="M262 0v1434h686q347 0 548.5 -191t201.5 -526t-201.5 -526t-548.5 -191h-686zM545 250h383q239 0 362 119t123 348t-123 348t-362 119h-383v-934zM39 594v246h874v-246h-874z" />
    <glyph glyph-name="dcroat" unicode="&#x111;" horiz-adv-x="1419" 
d="M84 512q0 125 41 227t113 168t168.5 101.5t209.5 35.5q132 0 230.5 -41.5t154.5 -113.5v545h273v-1434h-273v129q-56 -70 -155 -109.5t-225 -39.5q-151 0 -272.5 64t-193 186.5t-71.5 281.5zM657 199h29q139 0 227 83.5t88 229.5t-88 229.5t-227 83.5h-29
q-135 0 -217 -83t-82 -230t82 -230t217 -83zM627 1120v191h835v-191h-835z" />
    <glyph glyph-name="Emacron" unicode="&#x112;" horiz-adv-x="1562" 
d="M465 250h1005v-250h-1288v1434h1268v-250h-985v-322h862v-250h-862v-362zM453 1567v225h727v-225h-727z" />
    <glyph glyph-name="emacron" unicode="&#x113;" horiz-adv-x="1286" 
d="M1198 535v-109h-829q24 -108 101.5 -167.5t182.5 -59.5h29q87 0 147 32.5t80 92.5h277q-28 -157 -169.5 -250.5t-344.5 -93.5q-170 0 -301.5 60.5t-209 184.5t-77.5 295q-2 120 46.5 221t130 167t186 102t215.5 34q249 0 392.5 -138t143.5 -371zM373 635h540
q-6 95 -70.5 142.5t-168.5 47.5h-29q-105 0 -175.5 -49.5t-96.5 -140.5zM299 1157v215h727v-215h-727z" />
    <glyph glyph-name="Ebreve" unicode="&#x114;" horiz-adv-x="1562" 
d="M465 250h1005v-250h-1288v1434h1268v-250h-985v-322h862v-250h-862v-362zM438 1833h226q7 -55 48 -84t105 -29t105.5 29.5t48.5 83.5h225q-3 -139 -106.5 -223t-272.5 -84t-272.5 84t-106.5 223z" />
    <glyph glyph-name="ebreve" unicode="&#x115;" horiz-adv-x="1286" 
d="M1198 535v-109h-829q24 -108 101.5 -167.5t182.5 -59.5h29q87 0 147 32.5t80 92.5h277q-28 -157 -169.5 -250.5t-344.5 -93.5q-170 0 -301.5 60.5t-209 184.5t-77.5 295q-2 120 46.5 221t130 167t186 102t215.5 34q249 0 392.5 -138t143.5 -371zM373 635h540
q-6 95 -70.5 142.5t-168.5 47.5h-29q-105 0 -175.5 -49.5t-96.5 -140.5zM276 1448h230q9 -121 158 -121q148 0 157 121h230q-3 -148 -109.5 -234t-277.5 -86t-278 86.5t-110 233.5z" />
    <glyph glyph-name="Edotaccent" unicode="&#x116;" horiz-adv-x="1562" 
d="M465 250h1005v-250h-1288v1434h1268v-250h-985v-322h862v-250h-862v-362zM670 1554v285h293v-285h-293z" />
    <glyph glyph-name="edotaccent" unicode="&#x117;" horiz-adv-x="1286" 
d="M1198 535v-109h-829q24 -108 101.5 -167.5t182.5 -59.5h29q87 0 147 32.5t80 92.5h277q-28 -157 -169.5 -250.5t-344.5 -93.5q-170 0 -301.5 60.5t-209 184.5t-77.5 295q-2 120 46.5 221t130 167t186 102t215.5 34q249 0 392.5 -138t143.5 -371zM373 635h540
q-6 95 -70.5 142.5t-168.5 47.5h-29q-105 0 -175.5 -49.5t-96.5 -140.5zM516 1149v285h293v-285h-293z" />
    <glyph glyph-name="Eogonek" unicode="&#x118;" horiz-adv-x="1562" 
d="M465 250h1005v-250h-1288v1434h1268v-250h-985v-322h862v-250h-862v-362zM1112 -246q0 94 63 164.5t162 112.5l133 -31q-86 -49 -130 -91t-44 -93q0 -47 33.5 -75t79.5 -28h92v-164h-133q-108 0 -182 59t-74 146z" />
    <glyph glyph-name="eogonek" unicode="&#x119;" horiz-adv-x="1286" 
d="M1198 535v-109h-829q24 -108 101.5 -167.5t182.5 -59.5h29q87 0 147 32.5t80 92.5h277q-28 -157 -169.5 -250.5t-344.5 -93.5q-170 0 -301.5 60.5t-209 184.5t-77.5 295q-2 120 46.5 221t130 167t186 102t215.5 34q249 0 392.5 -138t143.5 -371zM373 635h540
q-6 95 -70.5 142.5t-168.5 47.5h-29q-105 0 -175.5 -49.5t-96.5 -140.5zM487 -246q0 94 63.5 164.5t162.5 112.5l133 -31q-86 -49 -130 -91t-44 -93q0 -47 33.5 -75t78.5 -28h93v-164h-134q-108 0 -182 59t-74 146z" />
    <glyph glyph-name="Ecaron" unicode="&#x11a;" horiz-adv-x="1562" 
d="M465 250h1005v-250h-1288v1434h1268v-250h-985v-322h862v-250h-862v-362zM670 1526l-267 297h230l184 -123l184 123h230l-266 -297h-295z" />
    <glyph glyph-name="ecaron" unicode="&#x11b;" horiz-adv-x="1286" 
d="M1198 535v-109h-829q24 -108 101.5 -167.5t182.5 -59.5h29q87 0 147 32.5t80 92.5h277q-28 -157 -169.5 -250.5t-344.5 -93.5q-170 0 -301.5 60.5t-209 184.5t-77.5 295q-2 120 46.5 221t130 167t186 102t215.5 34q249 0 392.5 -138t143.5 -371zM373 635h540
q-6 95 -70.5 142.5t-168.5 47.5h-29q-105 0 -175.5 -49.5t-96.5 -140.5zM535 1128l-318 308h229l220 -144l215 144h229l-319 -308h-256z" />
    <glyph glyph-name="Gcircumflex" unicode="&#x11c;" horiz-adv-x="1773" 
d="M94 717q0 160 57 296t161.5 233.5t257.5 152.5t337 55q328 0 520 -141.5t207 -370.5h-297q-6 51 -32 96t-73.5 83t-126.5 60.5t-181 22.5h-33q-233 0 -372.5 -129.5t-139.5 -357.5q0 -227 140.5 -357.5t371.5 -130.5h33q206 0 333 78.5t127 177.5v17h-471v250h547
q94 0 144.5 -51.5t50.5 -145.5v-555h-271v160q-57 -72 -179 -126t-300 -54q-186 0 -339 54t-256 151t-159.5 233t-56.5 299zM496 1526l266 297h295l266 -297h-229l-185 123l-184 -123h-229z" />
    <glyph glyph-name="gcircumflex" unicode="&#x11d;" horiz-adv-x="1390" 
d="M55 -113h281q19 -56 94.5 -87t192.5 -31h28q143 0 232.5 72t89.5 206v107q-130 -154 -357 -154q-108 0 -203 33t-169 96t-117 164.5t-43 228.5t42.5 228t116.5 164t168.5 96.5t202.5 33.5q237 0 359 -149v129h272v-1001q0 -209 -160.5 -341.5t-447.5 -132.5
q-254 0 -408.5 92.5t-173.5 245.5zM641 219h29q121 0 212 86t91 217q0 134 -86 218.5t-207 84.5h-29q-130 0 -211.5 -76.5t-81.5 -226.5q0 -151 77.5 -227t205.5 -76zM213 1128l317 308h256l320 -308h-229l-215 144l-220 -144h-229z" />
    <glyph glyph-name="Gbreve" unicode="&#x11e;" horiz-adv-x="1773" 
d="M94 717q0 160 57 296t161.5 233.5t257.5 152.5t337 55q328 0 520 -141.5t207 -370.5h-297q-6 51 -32 96t-73.5 83t-126.5 60.5t-181 22.5h-33q-233 0 -372.5 -129.5t-139.5 -357.5q0 -227 140.5 -357.5t371.5 -130.5h33q206 0 333 78.5t127 177.5v17h-471v250h547
q94 0 144.5 -51.5t50.5 -145.5v-555h-271v160q-57 -72 -179 -126t-300 -54q-186 0 -339 54t-256 151t-159.5 233t-56.5 299zM530 1833h226q7 -55 48 -84t105 -29t105.5 29.5t48.5 83.5h225q-3 -139 -106.5 -223t-272.5 -84t-272.5 84t-106.5 223z" />
    <glyph glyph-name="gbreve" unicode="&#x11f;" horiz-adv-x="1390" 
d="M55 -113h281q19 -56 94.5 -87t192.5 -31h28q143 0 232.5 72t89.5 206v107q-130 -154 -357 -154q-108 0 -203 33t-169 96t-117 164.5t-43 228.5t42.5 228t116.5 164t168.5 96.5t202.5 33.5q237 0 359 -149v129h272v-1001q0 -209 -160.5 -341.5t-447.5 -132.5
q-254 0 -408.5 92.5t-173.5 245.5zM641 219h29q121 0 212 86t91 217q0 134 -86 218.5t-207 84.5h-29q-130 0 -211.5 -76.5t-81.5 -226.5q0 -151 77.5 -227t205.5 -76zM272 1448h230q9 -121 157 -121q149 0 158 121h230q-3 -147 -110 -233.5t-278 -86.5t-277.5 86t-109.5 234
z" />
    <glyph glyph-name="Gdotaccent" unicode="&#x120;" horiz-adv-x="1773" 
d="M94 717q0 160 57 296t161.5 233.5t257.5 152.5t337 55q328 0 520 -141.5t207 -370.5h-297q-6 51 -32 96t-73.5 83t-126.5 60.5t-181 22.5h-33q-233 0 -372.5 -129.5t-139.5 -357.5q0 -227 140.5 -357.5t371.5 -130.5h33q206 0 333 78.5t127 177.5v17h-471v250h547
q94 0 144.5 -51.5t50.5 -145.5v-555h-271v160q-57 -72 -179 -126t-300 -54q-186 0 -339 54t-256 151t-159.5 233t-56.5 299zM762 1554v285h293v-285h-293z" />
    <glyph glyph-name="gdotaccent" unicode="&#x121;" horiz-adv-x="1390" 
d="M55 -113h281q19 -56 94.5 -87t192.5 -31h28q143 0 232.5 72t89.5 206v107q-130 -154 -357 -154q-108 0 -203 33t-169 96t-117 164.5t-43 228.5t42.5 228t116.5 164t168.5 96.5t202.5 33.5q237 0 359 -149v129h272v-1001q0 -209 -160.5 -341.5t-447.5 -132.5
q-254 0 -408.5 92.5t-173.5 245.5zM641 219h29q121 0 212 86t91 217q0 134 -86 218.5t-207 84.5h-29q-130 0 -211.5 -76.5t-81.5 -226.5q0 -151 77.5 -227t205.5 -76zM512 1149v285h293v-285h-293z" />
    <glyph glyph-name="uni0122" unicode="&#x122;" horiz-adv-x="1773" 
d="M94 717q0 160 57 296t161.5 233.5t257.5 152.5t337 55q328 0 520 -141.5t207 -370.5h-297q-6 51 -32 96t-73.5 83t-126.5 60.5t-181 22.5h-33q-233 0 -372.5 -129.5t-139.5 -357.5q0 -227 140.5 -357.5t371.5 -130.5h33q206 0 333 78.5t127 177.5v17h-471v250h547
q94 0 144.5 -51.5t50.5 -145.5v-555h-271v160q-57 -72 -179 -126t-300 -54q-186 0 -339 54t-256 151t-159.5 233t-56.5 299zM715 -633v154h67q107 0 107 80v2h-123v270h287v-270q0 -103 -72.5 -169.5t-187.5 -66.5h-78z" />
    <glyph glyph-name="uni0123" unicode="&#x123;" horiz-adv-x="1390" 
d="M55 -113h281q19 -56 94.5 -87t192.5 -31h28q143 0 232.5 72t89.5 206v107q-130 -154 -357 -154q-108 0 -203 33t-169 96t-117 164.5t-43 228.5t42.5 228t116.5 164t168.5 96.5t202.5 33.5q237 0 359 -149v129h272v-1001q0 -209 -160.5 -341.5t-447.5 -132.5
q-254 0 -408.5 92.5t-173.5 245.5zM641 219h29q121 0 212 86t91 217q0 134 -86 218.5t-207 84.5h-29q-130 0 -211.5 -76.5t-81.5 -226.5q0 -151 77.5 -227t205.5 -76zM848 1671v-153h-68q-106 0 -106 -80v-2h123v-271h-287v271q0 102 73.5 168.5t186.5 66.5h78z" />
    <glyph glyph-name="Hcircumflex" unicode="&#x124;" horiz-adv-x="1746" 
d="M182 0v1434h283v-590h817v590h283v-1434h-283v594h-817v-594h-283zM461 1526l266 297h295l266 -297h-229l-185 123l-184 -123h-229z" />
    <glyph glyph-name="hcircumflex" unicode="&#x125;" horiz-adv-x="1353" 
d="M145 0v1434h273v-560q118 170 362 170q209 0 324 -115.5t115 -305.5v-623h-273v573q0 119 -52.5 185.5t-154.5 66.5h-28q-119 0 -206 -88t-87 -221v-516h-273zM-164 1497l318 307h256l319 -307h-229l-215 143l-219 -143h-230z" />
    <glyph glyph-name="Hbar" unicode="&#x126;" horiz-adv-x="1857" 
d="M238 0v1434h282v-590h817v590h283v-1434h-283v594h-817v-594h-282zM55 1008v235h1747v-235h-1747z" />
    <glyph glyph-name="hbar" unicode="&#x127;" horiz-adv-x="1353" 
d="M145 0v1434h273v-560q118 170 362 170q209 0 324 -115.5t115 -305.5v-623h-273v573q0 119 -52.5 185.5t-154.5 66.5h-28q-119 0 -206 -88t-87 -221v-516h-273zM-43 1120v191h836v-191h-836z" />
    <glyph glyph-name="Itilde" unicode="&#x128;" horiz-adv-x="647" 
d="M182 0v1434h283v-1434h-283zM346 1575l-74 29l-34 14q-56 18 -74 18q-42 0 -65 -25.5t-23 -64.5h-197v58q0 94 77 165.5t179 71.5q72 0 146 -31l28 -12l70 -26l33 -15q68 -26 86 -26q41 0 63.5 25t22.5 65h196v-58q0 -101 -62.5 -169t-168.5 -68q-47 0 -89.5 10.5
t-113.5 38.5z" />
    <glyph glyph-name="itilde" unicode="&#x129;" horiz-adv-x="563" 
d="M145 0v1024h273v-1024h-273zM299 1178l-74 28l-30 13q-44 20 -78 20q-31 0 -49.5 -25.5t-18.5 -64.5h-196v57q0 96 70 167t165 71q74 0 143 -31l31 -12l70 -27q7 -2 39 -16q60 -25 80 -25q31 0 48 25t17 65h197v-57q0 -103 -59 -170.5t-165 -67.5q-59 0 -190 50z" />
    <glyph glyph-name="Imacron" unicode="&#x12a;" horiz-adv-x="647" 
d="M182 0v1434h283v-1434h-283zM-35 1567v225h727v-225h-727z" />
    <glyph glyph-name="imacron" unicode="&#x12b;" horiz-adv-x="563" 
d="M145 0v1024h273v-1024h-273zM-82 1157v215h727v-215h-727z" />
    <glyph glyph-name="Ibreve" unicode="&#x12c;" horiz-adv-x="647" 
d="M182 0v1434h283v-1434h-283zM-49 1833h225q7 -54 48.5 -83.5t105.5 -29.5t105 29t48 84h226q-3 -139 -106.5 -223t-272.5 -84t-272.5 84t-106.5 223z" />
    <glyph glyph-name="ibreve" unicode="&#x12d;" horiz-adv-x="563" 
d="M145 0v1024h273v-1024h-273zM-104 1448h229q9 -121 158 -121q148 0 157 121h230q-3 -148 -109.5 -234t-277.5 -86t-277.5 86t-109.5 234z" />
    <glyph glyph-name="Iogonek" unicode="&#x12e;" horiz-adv-x="647" 
d="M182 0v1434h283v-1434h-283zM106 -246q0 94 63.5 164.5t162.5 112.5l133 -31q-86 -49 -130 -91t-44 -93q0 -47 33.5 -75t78.5 -28h93v-164h-134q-108 0 -182 59t-74 146z" />
    <glyph glyph-name="iogonek" unicode="&#x12f;" horiz-adv-x="563" 
d="M145 0v1024h273v-1024h-273zM135 1149v285h293v-285h-293zM59 -246q0 94 63.5 164.5t162.5 112.5l133 -31q-86 -49 -130 -91t-44 -93q0 -47 33.5 -75t78.5 -28h93v-164h-134q-108 0 -182 59t-74 146z" />
    <glyph glyph-name="Idotaccent" unicode="&#x130;" horiz-adv-x="647" 
d="M182 0v1434h283v-1434h-283zM182 1554v285h293v-285h-293z" />
    <glyph glyph-name="dotlessi" unicode="&#x131;" horiz-adv-x="563" 
d="M145 0v1024h273v-1024h-273z" />
    <glyph glyph-name="IJ" unicode="&#x132;" horiz-adv-x="1384" 
d="M172 0v260h614q78 0 111 32.5t33 110.5v1031h282v-1076q0 -185 -91.5 -271.5t-286.5 -86.5h-662zM172 424v1010h283v-1010h-283z" />
    <glyph glyph-name="ij" unicode="&#x133;" horiz-adv-x="1148" 
d="M135 1149v285h293v-285h-293zM721 1149v285h293v-285h-293zM145 -410v230h504q47 0 64.5 17.5t17.5 64.5v1122h273v-1198q0 -101 -66.5 -168.5t-169.5 -67.5h-623zM145 0v1024h273v-1024h-273z" />
    <glyph glyph-name="Jcircumflex" unicode="&#x134;" horiz-adv-x="993" 
d="M61 0v260h334q78 0 111 32.5t33 110.5v1031h282v-1076q0 -184 -92 -271t-287 -87h-381zM283 1526l266 297h295l266 -297h-229l-185 123l-184 -123h-229z" />
    <glyph glyph-name="jcircumflex" unicode="&#x135;" horiz-adv-x="583" 
d="M-246 -410v230h330q44 0 63 19t19 63v1122h272v-1198q0 -101 -65.5 -168.5t-169.5 -67.5h-449zM-143 1128l317 308h256l320 -308h-230l-215 144l-219 -144h-229z" />
    <glyph glyph-name="uni0136" unicode="&#x136;" horiz-adv-x="1613" 
d="M1255 0l-585 645l-205 -172v-473h-283v1434h283v-633l739 633h391l-716 -611l749 -823h-373zM674 -633v154h67q107 0 107 80v2h-123v270h287v-270q0 -103 -72.5 -169.5t-187.5 -66.5h-78z" />
    <glyph glyph-name="uni0137" unicode="&#x137;" horiz-adv-x="1261" 
d="M145 0v1434h273v-787l463 377h364l-536 -424l557 -600h-340l-410 449l-98 -78v-371h-273zM442 -633v154h68q106 0 106 80v2h-122v270h286v-270q0 -103 -72.5 -169.5t-187.5 -66.5h-78z" />
    <glyph glyph-name="Lacute" unicode="&#x139;" horiz-adv-x="1466" 
d="M182 0v1434h283v-1184h960v-250h-1243zM217 1526l102 297h322l-235 -297h-189z" />
    <glyph glyph-name="lacute" unicode="&#x13a;" horiz-adv-x="563" 
d="M145 0v1434h273v-1434h-273zM188 1538l134 307h311l-246 -307h-199z" />
    <glyph glyph-name="uni013B" unicode="&#x13b;" horiz-adv-x="1466" 
d="M182 0v1434h283v-1184h960v-250h-1243zM610 -633v154h68q106 0 106 80v2h-122v270h286v-270q0 -103 -72.5 -169.5t-187.5 -66.5h-78z" />
    <glyph glyph-name="uni013C" unicode="&#x13c;" horiz-adv-x="563" 
d="M145 0v1434h273v-1434h-273zM88 -633v154h68q106 0 106 80v2h-123v270h287v-270q0 -103 -72.5 -169.5t-187.5 -66.5h-78z" />
    <glyph glyph-name="Lcaron" unicode="&#x13d;" horiz-adv-x="1468" 
d="M182 0v1434h283v-1184h960v-250h-1243zM756 928v153h67q107 0 107 80v2h-123v271h287v-271q0 -103 -72.5 -169t-187.5 -66h-78z" />
    <glyph glyph-name="lcaron" unicode="&#x13e;" horiz-adv-x="821" 
d="M145 0v1434h273v-1434h-273zM518 928v153h68q106 0 106 80v2h-123v271h287v-271q0 -103 -72.5 -169t-187.5 -66h-78z" />
    <glyph glyph-name="Ldot" unicode="&#x13f;" horiz-adv-x="1468" 
d="M182 0v1434h283v-1184h960v-250h-1243zM870 604v301h328v-301h-328z" />
    <glyph glyph-name="ldot" unicode="&#x140;" horiz-adv-x="890" 
d="M145 0v1434h273v-1434h-273zM563 563v301h328v-301h-328z" />
    <glyph glyph-name="Lslash" unicode="&#x141;" horiz-adv-x="1550" 
d="M266 0v1434h283v-1184h960v-250h-1243zM74 377v276l975 459v-274z" />
    <glyph glyph-name="lslash" unicode="&#x142;" horiz-adv-x="737" 
d="M236 0v1434h272v-1434h-272zM66 530v246l624 336v-246z" />
    <glyph glyph-name="Nacute" unicode="&#x143;" horiz-adv-x="1740" 
d="M1276 1434h283v-1434h-349l-745 1071v-1071h-283v1434h361l733 -1053v1053zM778 1526l103 297h321l-235 -297h-189z" />
    <glyph glyph-name="nacute" unicode="&#x144;" horiz-adv-x="1353" 
d="M145 0v1024h273v-150q54 78 145.5 124t216.5 46q212 0 325.5 -114t113.5 -307v-623h-273v573q0 119 -52.5 185.5t-154.5 66.5h-28q-119 0 -206 -88t-87 -221v-516h-273zM600 1128l133 308h311l-245 -308h-199z" />
    <glyph glyph-name="uni0145" unicode="&#x145;" horiz-adv-x="1740" 
d="M1276 1434h283v-1434h-349l-745 1071v-1071h-283v1434h361l733 -1053v1053zM676 -633v154h67q107 0 107 80v2h-123v270h287v-270q0 -103 -72.5 -169.5t-187.5 -66.5h-78z" />
    <glyph glyph-name="uni0146" unicode="&#x146;" horiz-adv-x="1353" 
d="M145 0v1024h273v-150q54 78 145.5 124t216.5 46q212 0 325.5 -114t113.5 -307v-623h-273v573q0 119 -52.5 185.5t-154.5 66.5h-28q-119 0 -206 -88t-87 -221v-516h-273zM483 -633v154h68q106 0 106 80v2h-122v270h286v-270q0 -103 -72.5 -169.5t-187.5 -66.5h-78z" />
    <glyph glyph-name="Ncaron" unicode="&#x147;" horiz-adv-x="1740" 
d="M1276 1434h283v-1434h-349l-745 1071v-1071h-283v1434h361l733 -1053v1053zM723 1526l-266 297h229l184 -123l185 123h229l-266 -297h-295z" />
    <glyph glyph-name="ncaron" unicode="&#x148;" horiz-adv-x="1353" 
d="M145 0v1024h273v-150q54 78 145.5 124t216.5 46q212 0 325.5 -114t113.5 -307v-623h-273v573q0 119 -52.5 185.5t-154.5 66.5h-28q-119 0 -206 -88t-87 -221v-516h-273zM569 1128l-317 308h229l219 -144l215 144h230l-320 -308h-256z" />
    <glyph glyph-name="Eng" unicode="&#x14a;" horiz-adv-x="1740" 
d="M944 -410v230h238q94 0 94 94v104l-811 1065v-1083h-283v1434h348l746 -979v979h283v-1557q0 -127 -79 -207t-208 -80h-328z" />
    <glyph glyph-name="eng" unicode="&#x14b;" horiz-adv-x="1353" 
d="M643 -414v234h221q49 0 65.5 17t16.5 65v671q0 119 -52.5 185.5t-154.5 66.5h-28q-119 0 -206 -88t-87 -221v-516h-273v1024h273v-150q111 170 362 170q212 0 325.5 -114t113.5 -307v-787q0 -250 -236 -250h-340z" />
    <glyph glyph-name="Omacron" unicode="&#x14c;" horiz-adv-x="1812" 
d="M94 717q-3 221 103.5 390.5t292 259t417.5 87.5q173 1 323 -51t258.5 -146.5t170 -234t59.5 -305.5q2 -166 -59.5 -305.5t-170 -234t-258.5 -146.5t-323 -51q-173 -1 -323.5 51t-259.5 147t-170.5 234.5t-59.5 304.5zM891 229h33q142 0 257.5 58.5t184 170.5t68.5 259
q0 220 -146 353.5t-364 133.5h-33q-141 0 -257 -58t-185.5 -170.5t-69.5 -258.5t69.5 -258.5t185.5 -171t257 -58.5zM543 1567v225h727v-225h-727z" />
    <glyph glyph-name="omacron" unicode="&#x14d;" horiz-adv-x="1368" 
d="M82 512q0 240 167 386t435 146q175 0 311.5 -65.5t213.5 -186.5t77 -280t-77 -280t-213.5 -186.5t-311.5 -65.5q-268 0 -435 146t-167 386zM670 199h28q138 0 226 86t88 227t-88 227t-226 86h-28q-138 0 -226 -86t-88 -227t88 -227t226 -86zM319 1157v215h728v-215h-728z
" />
    <glyph glyph-name="Obreve" unicode="&#x14e;" horiz-adv-x="1812" 
d="M94 717q-3 221 103.5 390.5t292 259t417.5 87.5q173 1 323 -51t258.5 -146.5t170 -234t59.5 -305.5q2 -166 -59.5 -305.5t-170 -234t-258.5 -146.5t-323 -51q-173 -1 -323.5 51t-259.5 147t-170.5 234.5t-59.5 304.5zM891 229h33q142 0 257.5 58.5t184 170.5t68.5 259
q0 220 -146 353.5t-364 133.5h-33q-141 0 -257 -58t-185.5 -170.5t-69.5 -258.5t69.5 -258.5t185.5 -171t257 -58.5zM528 1833h226q7 -55 48 -84t105 -29t105.5 29.5t48.5 83.5h225q-3 -139 -106.5 -223t-272.5 -84t-272.5 84t-106.5 223z" />
    <glyph glyph-name="obreve" unicode="&#x14f;" horiz-adv-x="1368" 
d="M82 512q0 240 167 386t435 146q175 0 311.5 -65.5t213.5 -186.5t77 -280t-77 -280t-213.5 -186.5t-311.5 -65.5q-268 0 -435 146t-167 386zM670 199h28q138 0 226 86t88 227t-88 227t-226 86h-28q-138 0 -226 -86t-88 -227t88 -227t226 -86zM297 1448h229
q9 -121 158 -121t158 121h229q-3 -148 -109.5 -234t-277.5 -86t-277.5 86t-109.5 234z" />
    <glyph glyph-name="Ohungarumlaut" unicode="&#x150;" horiz-adv-x="1812" 
d="M94 717q-3 221 103.5 390.5t292 259t417.5 87.5q173 1 323 -51t258.5 -146.5t170 -234t59.5 -305.5q2 -166 -59.5 -305.5t-170 -234t-258.5 -146.5t-323 -51q-173 -1 -323.5 51t-259.5 147t-170.5 234.5t-59.5 304.5zM891 229h33q142 0 257.5 58.5t184 170.5t68.5 259
q0 220 -146 353.5t-364 133.5h-33q-141 0 -257 -58t-185.5 -170.5t-69.5 -258.5t69.5 -258.5t185.5 -171t257 -58.5zM586 1526l102 297h322l-236 -297h-188zM1040 1526l103 297h321l-235 -297h-189z" />
    <glyph glyph-name="ohungarumlaut" unicode="&#x151;" horiz-adv-x="1368" 
d="M82 512q0 240 167 386t435 146q175 0 311.5 -65.5t213.5 -186.5t77 -280t-77 -280t-213.5 -186.5t-311.5 -65.5q-268 0 -435 146t-167 386zM670 199h28q138 0 226 86t88 227t-88 227t-226 86h-28q-138 0 -226 -86t-88 -227t88 -227t226 -86zM385 1128l133 308h311
l-245 -308h-199zM776 1128l133 308h312l-246 -308h-199z" />
    <glyph glyph-name="OE" unicode="&#x152;" horiz-adv-x="2826" 
d="M94 717q-3 221 103.5 390.5t292 259t417.5 87.5q343 0 539 -178v158h1268v-250h-996v-322h873v-250h-873v-362h1016v-250h-1288v164q-196 -184 -539 -184q-173 -1 -323.5 51t-259.5 147t-170.5 234.5t-59.5 304.5zM891 229h33q145 0 262.5 58.5t187.5 170.5t70 259
t-70 259t-187.5 170t-262.5 58h-33q-141 0 -257 -58t-185.5 -170.5t-69.5 -258.5t69.5 -258.5t185.5 -171t257 -58.5z" />
    <glyph glyph-name="oe" unicode="&#x153;" horiz-adv-x="2246" 
d="M82 512q0 240 166.5 386t433.5 146q161 0 284 -55t197 -158q74 101 197 157t262 56q249 0 393 -138t144 -371v-109h-830q24 -108 102 -167.5t183 -59.5h28q86 0 145.5 32.5t82.5 92.5h276q-28 -156 -170 -250t-344 -94q-154 0 -275.5 53.5t-195.5 156.5
q-73 -103 -196 -156.5t-283 -53.5q-267 0 -433.5 146t-166.5 386zM668 197h28q136 0 225 87t89 228q0 140 -89 226.5t-223 86.5h-28q-137 0 -226.5 -86.5t-89.5 -226.5q0 -143 88 -229t226 -86zM1333 635h541q-6 95 -71 142.5t-169 47.5h-28q-108 0 -177 -49t-96 -141z" />
    <glyph glyph-name="Racute" unicode="&#x154;" horiz-adv-x="1611" 
d="M182 0v1434h799q213 0 351 -111.5t138 -280.5q0 -127 -66 -222.5t-163 -127.5q109 0 155 -49.5t46 -161.5v-481h-283v420q0 72 -26.5 97.5t-98.5 25.5h-569v-543h-283zM465 793h485q103 0 159 51t56 145q0 88 -58 141.5t-157 53.5h-485v-391zM696 1526l103 297h321
l-235 -297h-189z" />
    <glyph glyph-name="racute" unicode="&#x155;" horiz-adv-x="903" 
d="M145 0v1024h263v-195q36 102 99.5 148.5t174.5 46.5h178v-244h-192q-122 0 -186 -68t-64 -198v-514h-273zM391 1128l133 308h312l-246 -308h-199z" />
    <glyph glyph-name="uni0156" unicode="&#x156;" horiz-adv-x="1611" 
d="M182 0v1434h799q213 0 351 -111.5t138 -280.5q0 -127 -66 -222.5t-163 -127.5q109 0 155 -49.5t46 -161.5v-481h-283v420q0 72 -26.5 97.5t-98.5 25.5h-569v-543h-283zM465 793h485q103 0 159 51t56 145q0 88 -58 141.5t-157 53.5h-485v-391zM618 -633v154h68
q107 0 107 80v2h-123v270h286v-270q0 -103 -72.5 -169.5t-187.5 -66.5h-78z" />
    <glyph glyph-name="uni0157" unicode="&#x157;" horiz-adv-x="903" 
d="M145 0v1024h263v-195q36 102 99.5 148.5t174.5 46.5h178v-244h-192q-122 0 -186 -68t-64 -198v-514h-273zM88 -633v154h68q106 0 106 80v2h-123v270h287v-270q0 -103 -72.5 -169.5t-187.5 -66.5h-78z" />
    <glyph glyph-name="Rcaron" unicode="&#x158;" horiz-adv-x="1611" 
d="M182 0v1434h799q213 0 351 -111.5t138 -280.5q0 -127 -66 -222.5t-163 -127.5q109 0 155 -49.5t46 -161.5v-481h-283v420q0 72 -26.5 97.5t-98.5 25.5h-569v-543h-283zM465 793h485q103 0 159 51t56 145q0 88 -58 141.5t-157 53.5h-485v-391zM641 1526l-266 297h229
l184 -123l185 123h229l-266 -297h-295z" />
    <glyph glyph-name="rcaron" unicode="&#x159;" horiz-adv-x="903" 
d="M145 0v1024h263v-195q36 102 99.5 148.5t174.5 46.5h178v-244h-192q-122 0 -186 -68t-64 -198v-514h-273zM360 1128l-317 308h229l220 -144l215 144h229l-320 -308h-256z" />
    <glyph glyph-name="Sacute" unicode="&#x15a;" horiz-adv-x="1505" 
d="M68 481h297q6 -123 105 -187.5t278 -64.5h32q162 0 244 43.5t82 120.5q0 70 -62 112.5t-200 65.5l-223 37q-253 43 -363.5 138.5t-110.5 283.5q0 87 38 162.5t111 134.5t191.5 93t268.5 34q294 0 467.5 -125.5t195.5 -345.5h-297q-14 104 -106 162.5t-244 58.5h-33
q-143 0 -225 -43.5t-82 -111.5q0 -73 52 -111.5t175 -58.5l230 -37q502 -83 502 -439q0 -205 -162 -314t-463 -109q-328 0 -510 127.5t-188 373.5zM666 1526l102 297h322l-236 -297h-188z" />
    <glyph glyph-name="sacute" unicode="&#x15b;" horiz-adv-x="1175" 
d="M68 338h276q6 -67 66.5 -103t156.5 -36h29q205 0 205 84q0 33 -33 53t-117 37l-170 33q-188 38 -276 112t-88 207q0 148 131 233.5t334 85.5q242 0 372 -93.5t142 -264.5h-277q-6 63 -65.5 101t-157.5 38h-29q-84 0 -130 -21.5t-46 -58.5q0 -32 31 -51t121 -37l159 -30
q187 -33 280 -112.5t93 -217.5q0 -148 -127 -232.5t-366 -84.5q-236 0 -370.5 96t-143.5 262zM483 1128l133 308h312l-246 -308h-199z" />
    <glyph glyph-name="Scircumflex" unicode="&#x15c;" horiz-adv-x="1505" 
d="M68 481h297q6 -123 105 -187.5t278 -64.5h32q162 0 244 43.5t82 120.5q0 70 -62 112.5t-200 65.5l-223 37q-253 43 -363.5 138.5t-110.5 283.5q0 87 38 162.5t111 134.5t191.5 93t268.5 34q294 0 467.5 -125.5t195.5 -345.5h-297q-14 104 -106 162.5t-244 58.5h-33
q-143 0 -225 -43.5t-82 -111.5q0 -73 52 -111.5t175 -58.5l230 -37q502 -83 502 -439q0 -205 -162 -314t-463 -109q-328 0 -510 127.5t-188 373.5zM344 1526l266 297h295l266 -297h-229l-184 123l-185 -123h-229z" />
    <glyph glyph-name="scircumflex" unicode="&#x15d;" horiz-adv-x="1175" 
d="M68 338h276q6 -67 66.5 -103t156.5 -36h29q205 0 205 84q0 33 -33 53t-117 37l-170 33q-188 38 -276 112t-88 207q0 148 131 233.5t334 85.5q242 0 372 -93.5t142 -264.5h-277q-6 63 -65.5 101t-157.5 38h-29q-84 0 -130 -21.5t-46 -58.5q0 -32 31 -51t121 -37l159 -30
q187 -33 280 -112.5t93 -217.5q0 -148 -127 -232.5t-366 -84.5q-236 0 -370.5 96t-143.5 262zM135 1128l318 308h256l319 -308h-229l-215 144l-219 -144h-230z" />
    <glyph glyph-name="Scedilla" unicode="&#x15e;" horiz-adv-x="1505" 
d="M68 481h297q6 -123 105 -187.5t278 -64.5h32q162 0 244 43.5t82 120.5q0 70 -62 112.5t-200 65.5l-223 37q-253 43 -363.5 138.5t-110.5 283.5q0 87 38 162.5t111 134.5t191.5 93t268.5 34q294 0 467.5 -125.5t195.5 -345.5h-297q-14 104 -106 162.5t-244 58.5h-33
q-143 0 -225 -43.5t-82 -111.5q0 -73 52 -111.5t175 -58.5l230 -37q502 -83 502 -439q0 -205 -162 -314t-463 -109q-328 0 -510 127.5t-188 373.5zM586 -502v154h198q40 0 64 15.5t24 45.5q0 26 -21 44t-56 18h-117v256h147v-123q85 0 143 -51.5t58 -143.5q0 -98 -71 -156.5
t-181 -58.5h-188z" />
    <glyph glyph-name="scedilla" unicode="&#x15f;" horiz-adv-x="1175" 
d="M68 338h276q6 -67 66.5 -103t156.5 -36h29q205 0 205 84q0 33 -33 53t-117 37l-170 33q-188 38 -276 112t-88 207q0 148 131 233.5t334 85.5q242 0 372 -93.5t142 -264.5h-277q-6 63 -65.5 101t-157.5 38h-29q-84 0 -130 -21.5t-46 -58.5q0 -32 31 -51t121 -37l159 -30
q187 -33 280 -112.5t93 -217.5q0 -148 -127 -232.5t-366 -84.5q-236 0 -370.5 96t-143.5 262zM406 -502v154h198q40 0 64 15.5t24 45.5q0 26 -21.5 44t-56.5 18h-116v256h147v-123q85 0 143 -51.5t58 -143.5q0 -98 -71 -156.5t-181 -58.5h-188z" />
    <glyph glyph-name="Scaron" unicode="&#x160;" horiz-adv-x="1505" 
d="M68 481h297q6 -123 105 -187.5t278 -64.5h32q162 0 244 43.5t82 120.5q0 70 -62 112.5t-200 65.5l-223 37q-253 43 -363.5 138.5t-110.5 283.5q0 87 38 162.5t111 134.5t191.5 93t268.5 34q294 0 467.5 -125.5t195.5 -345.5h-297q-14 104 -106 162.5t-244 58.5h-33
q-143 0 -225 -43.5t-82 -111.5q0 -73 52 -111.5t175 -58.5l230 -37q502 -83 502 -439q0 -205 -162 -314t-463 -109q-328 0 -510 127.5t-188 373.5zM610 1526l-266 297h229l185 -123l184 123h229l-266 -297h-295z" />
    <glyph glyph-name="scaron" unicode="&#x161;" horiz-adv-x="1175" 
d="M68 338h276q6 -67 66.5 -103t156.5 -36h29q205 0 205 84q0 33 -33 53t-117 37l-170 33q-188 38 -276 112t-88 207q0 148 131 233.5t334 85.5q242 0 372 -93.5t142 -264.5h-277q-6 63 -65.5 101t-157.5 38h-29q-84 0 -130 -21.5t-46 -58.5q0 -32 31 -51t121 -37l159 -30
q187 -33 280 -112.5t93 -217.5q0 -148 -127 -232.5t-366 -84.5q-236 0 -370.5 96t-143.5 262zM453 1128l-318 308h230l219 -144l215 144h229l-319 -308h-256z" />
    <glyph glyph-name="uni0162" unicode="&#x162;" horiz-adv-x="1519" 
d="M618 0v1184h-577v250h1438v-250h-578v-1184h-283zM594 -502v154h199q40 0 64 15.5t24 45.5q0 26 -21.5 44t-56.5 18h-117v256h148v-123q84 0 142 -51.5t58 -143.5q0 -98 -71 -156.5t-181 -58.5h-188z" />
    <glyph glyph-name="uni0163" unicode="&#x163;" horiz-adv-x="964" 
d="M276 225v580h-247v219h247v332h273v-332h315v-219h-315v-498q0 -46 18.5 -64t63.5 -18h278v-225h-370q-263 0 -263 225zM338 -502v154h199q40 0 64 15.5t24 45.5q0 26 -21.5 44t-56.5 18h-117v256h148v-123q84 0 142 -51.5t58 -143.5q0 -98 -71 -156.5t-181 -58.5h-188z
" />
    <glyph glyph-name="Tcaron" unicode="&#x164;" horiz-adv-x="1519" 
d="M618 0v1184h-577v250h1438v-250h-578v-1184h-283zM612 1526l-266 297h229l185 -123l184 123h230l-267 -297h-295z" />
    <glyph glyph-name="tcaron" unicode="&#x165;" horiz-adv-x="1171" 
d="M276 225v580h-247v219h247v332h273v-332h315v-219h-315v-498q0 -46 18.5 -64t63.5 -18h278v-225h-370q-263 0 -263 225zM954 928v153h68q106 0 106 80v2h-122v271h286v-271q0 -103 -72.5 -169t-187.5 -66h-78z" />
    <glyph glyph-name="Tbar" unicode="&#x166;" horiz-adv-x="1581" 
d="M649 0v1184h-577v250h1437v-250h-577v-1184h-283zM203 659v236h1175v-236h-1175z" />
    <glyph glyph-name="tbar" unicode="&#x167;" horiz-adv-x="989" 
d="M297 225v580h-248v219h248v332h272v-332h316v-219h-316v-498q0 -46 18.5 -64t63.5 -18h279v-225h-371q-134 0 -198 56.5t-64 168.5zM49 473v191h836v-191h-836z" />
    <glyph glyph-name="Utilde" unicode="&#x168;" horiz-adv-x="1634" 
d="M166 565v869h283v-852q0 -172 90 -262.5t262 -90.5h33q172 0 262 90.5t90 262.5v852h282v-869q0 -273 -168 -429t-483 -156q-318 0 -484.5 155t-166.5 430zM834 1575l-74 29l-35 14q-56 18 -74 18q-42 0 -65 -25.5t-23 -64.5h-196v58q0 94 77 165.5t179 71.5
q71 0 145 -31l29 -12l69 -26l33 -15q68 -26 86 -26q41 0 63.5 25t22.5 65h197v-58q0 -101 -63 -169t-169 -68q-47 0 -88.5 10.5t-113.5 38.5z" />
    <glyph glyph-name="utilde" unicode="&#x169;" horiz-adv-x="1335" 
d="M135 385v639h273v-592q0 -118 48 -175.5t150 -57.5h29q117 0 200 83.5t83 215.5v526h272v-1024h-272v166q-44 -82 -140.5 -134t-216.5 -52q-208 0 -317 106t-109 299zM680 1178l-74 28l-31 13q-44 20 -77 20q-31 0 -49.5 -25.5t-18.5 -64.5h-197v57q0 95 70.5 166.5
t165.5 71.5q74 0 143 -31l31 -12l70 -27q7 -2 39 -16q60 -25 79 -25q31 0 48.5 25t17.5 65h197v-57q0 -103 -59 -170.5t-165 -67.5q-59 0 -190 50z" />
    <glyph glyph-name="Umacron" unicode="&#x16a;" horiz-adv-x="1634" 
d="M166 565v869h283v-852q0 -172 90 -262.5t262 -90.5h33q172 0 262 90.5t90 262.5v852h282v-869q0 -273 -168 -429t-483 -156q-318 0 -484.5 155t-166.5 430zM453 1567v225h727v-225h-727z" />
    <glyph glyph-name="umacron" unicode="&#x16b;" horiz-adv-x="1335" 
d="M135 385v639h273v-592q0 -118 48 -175.5t150 -57.5h29q117 0 200 83.5t83 215.5v526h272v-1024h-272v166q-44 -82 -140.5 -134t-216.5 -52q-208 0 -317 106t-109 299zM299 1157v215h727v-215h-727z" />
    <glyph glyph-name="Ubreve" unicode="&#x16c;" horiz-adv-x="1634" 
d="M166 565v869h283v-852q0 -172 90 -262.5t262 -90.5h33q172 0 262 90.5t90 262.5v852h282v-869q0 -273 -168 -429t-483 -156q-318 0 -484.5 155t-166.5 430zM438 1833h226q7 -55 48 -84t105 -29t105.5 29.5t48.5 83.5h225q-3 -139 -106.5 -223t-272.5 -84t-272.5 84
t-106.5 223z" />
    <glyph glyph-name="ubreve" unicode="&#x16d;" horiz-adv-x="1335" 
d="M135 385v639h273v-592q0 -118 48 -175.5t150 -57.5h29q117 0 200 83.5t83 215.5v526h272v-1024h-272v166q-44 -82 -140.5 -134t-216.5 -52q-208 0 -317 106t-109 299zM276 1448h230q9 -121 158 -121q148 0 157 121h230q-3 -148 -109.5 -234t-277.5 -86t-278 86.5
t-110 233.5z" />
    <glyph glyph-name="Uring" unicode="&#x16e;" horiz-adv-x="1634" 
d="M166 565v869h283v-852q0 -172 90 -262.5t262 -90.5h33q172 0 262 90.5t90 262.5v852h282v-869q0 -273 -168 -429t-483 -156q-318 0 -484.5 155t-166.5 430zM561 1751q0 89 75 157t181 68t181 -68t75 -157q0 -95 -74 -160t-182 -65t-182 65t-74 160zM918 1751
q0 33 -30 57.5t-71 24.5q-42 0 -72 -24.5t-30 -57.5t30 -57.5t72 -24.5q41 0 71 24.5t30 57.5z" />
    <glyph glyph-name="uring" unicode="&#x16f;" horiz-adv-x="1335" 
d="M135 385v639h273v-592q0 -118 48 -175.5t150 -57.5h29q117 0 200 83.5t83 215.5v526h272v-1024h-272v166q-44 -82 -140.5 -134t-216.5 -52q-208 0 -317 106t-109 299zM399 1360q0 92 76 161.5t189 69.5q112 0 188 -69.5t76 -161.5q0 -99 -74 -165.5t-190 -66.5
q-115 0 -190 66.5t-75 165.5zM770 1360q0 37 -30 62.5t-74 25.5q-43 0 -75 -26.5t-32 -61.5t32 -61.5t75 -26.5q44 0 74 25.5t30 62.5z" />
    <glyph glyph-name="Uhungarumlaut" unicode="&#x170;" horiz-adv-x="1634" 
d="M166 565v869h283v-852q0 -172 90 -262.5t262 -90.5h33q172 0 262 90.5t90 262.5v852h282v-869q0 -273 -168 -429t-483 -156q-318 0 -484.5 155t-166.5 430zM496 1526l102 297h322l-236 -297h-188zM950 1526l103 297h321l-235 -297h-189z" />
    <glyph glyph-name="uhungarumlaut" unicode="&#x171;" horiz-adv-x="1335" 
d="M135 385v639h273v-592q0 -118 48 -175.5t150 -57.5h29q117 0 200 83.5t83 215.5v526h272v-1024h-272v166q-44 -82 -140.5 -134t-216.5 -52q-208 0 -317 106t-109 299zM365 1128l133 308h311l-246 -308h-198zM756 1128l133 308h311l-246 -308h-198z" />
    <glyph glyph-name="Uogonek" unicode="&#x172;" horiz-adv-x="1634" 
d="M166 565v869h283v-852q0 -172 90 -262.5t262 -90.5h33q172 0 262 90.5t90 262.5v852h282v-869q0 -273 -168 -429t-483 -156q-318 0 -484.5 155t-166.5 430zM666 -246q0 94 63 164.5t162 112.5l133 -31q-86 -49 -130 -91t-44 -93q0 -47 33.5 -75t79.5 -28h92v-164h-133
q-108 0 -182 59t-74 146z" />
    <glyph glyph-name="uogonek" unicode="&#x173;" horiz-adv-x="1335" 
d="M135 385v639h273v-592q0 -118 48 -175.5t150 -57.5h29q117 0 200 83.5t83 215.5v526h272v-1024h-272v166q-44 -82 -140.5 -134t-216.5 -52q-208 0 -317 106t-109 299zM831 -246q0 94 63.5 164.5t162.5 112.5l133 -31q-86 -49 -130 -91t-44 -93q0 -47 33.5 -75t78.5 -28
h93v-164h-134q-108 0 -182 59t-74 146z" />
    <glyph glyph-name="Wcircumflex" unicode="&#x174;" horiz-adv-x="2195" 
d="M1872 1434h295l-424 -1434h-344l-299 1065l-307 -1065h-347l-409 1434h295l295 -1051l301 1051h358l293 -1059zM688 1526l266 297h295l267 -297h-230l-184 123l-184 -123h-230z" />
    <glyph glyph-name="wcircumflex" unicode="&#x175;" horiz-adv-x="1822" 
d="M1522 1024h282l-372 -1024h-283l-238 688l-239 -688h-281l-373 1024h283l236 -676l227 676h293l237 -688zM465 1128l317 308h256l320 -308h-230l-215 144l-219 -144h-229z" />
    <glyph glyph-name="Ycircumflex" unicode="&#x176;" horiz-adv-x="1497" 
d="M1155 1434h324l-588 -809v-625h-283v623l-590 811h326l408 -572zM338 1526l266 297h295l266 -297h-229l-184 123l-185 -123h-229z" />
    <glyph glyph-name="ycircumflex" unicode="&#x177;" horiz-adv-x="1280" 
d="M78 -414v234h360q47 0 64.5 17.5t17.5 64.5v174l-495 948h299l338 -655l315 655h299l-483 -946v-242q0 -130 -61 -190t-189 -60h-465zM205 1128l317 308h256l320 -308h-230l-215 144l-219 -144h-229z" />
    <glyph glyph-name="Ydieresis" unicode="&#x178;" horiz-adv-x="1497" 
d="M1155 1434h324l-588 -809v-625h-283v623l-590 811h326l408 -572zM379 1567v245h270v-245h-270zM854 1567v245h270v-245h-270z" />
    <glyph glyph-name="Zacute" unicode="&#x179;" horiz-adv-x="1480" 
d="M473 250h918v-250h-1301v250l897 934h-876v250h1259v-250zM649 1526l103 297h321l-235 -297h-189z" />
    <glyph glyph-name="zacute" unicode="&#x17a;" horiz-adv-x="1193" 
d="M88 0v225l617 559h-607v240h985v-225l-616 -559h647v-240h-1026zM494 1128l133 308h311l-246 -308h-198z" />
    <glyph glyph-name="Zdotaccent" unicode="&#x17b;" horiz-adv-x="1480" 
d="M473 250h918v-250h-1301v250l897 934h-876v250h1259v-250zM594 1554v285h293v-285h-293z" />
    <glyph glyph-name="zdotaccent" unicode="&#x17c;" horiz-adv-x="1193" 
d="M88 0v225l617 559h-607v240h985v-225l-616 -559h647v-240h-1026zM444 1149v285h293v-285h-293z" />
    <glyph glyph-name="Zcaron" unicode="&#x17d;" horiz-adv-x="1480" 
d="M473 250h918v-250h-1301v250l897 934h-876v250h1259v-250zM594 1526l-266 297h229l184 -123l185 123h229l-266 -297h-295z" />
    <glyph glyph-name="zcaron" unicode="&#x17e;" horiz-adv-x="1193" 
d="M88 0v225l617 559h-607v240h985v-225l-616 -559h647v-240h-1026zM463 1128l-318 308h230l219 -144l215 144h229l-319 -308h-256z" />
    <glyph glyph-name="florin" unicode="&#x192;" horiz-adv-x="1040" 
d="M655 1055l-16 -97h303v-233h-338l-112 -745q-34 -210 -124.5 -300t-277.5 -90h-207v240h166q83 0 118.5 30.5t47.5 108.5l117 756h-223v233h260l12 86q34 215 119 302.5t268 87.5h231v-240h-188q-82 0 -113 -29t-43 -110z" />
    <glyph glyph-name="uni01E2" unicode="&#x1e2;" horiz-adv-x="2394" 
d="M1491 246h846v-246h-1084l-47 338h-698l-240 -338h-299l1012 1434h1233v-246h-852l45 -328h745v-246h-710zM682 588h489l-79 579zM1137 1567v225h727v-225h-727z" />
    <glyph glyph-name="uni01E3" unicode="&#x1e3;" horiz-adv-x="2093" 
d="M78 283q0 161 112 245.5t314 96.5l348 24v25q0 73 -61.5 112t-172.5 39h-32q-83 0 -139.5 -31.5t-63.5 -86.5h-277q15 147 152.5 242t341.5 95q302 0 430 -170q81 81 196.5 125.5t241.5 44.5q249 0 393 -138t144 -371v-109h-829q24 -108 101.5 -167.5t182.5 -59.5h29
q88 0 147.5 32.5t79.5 92.5h277q-28 -156 -169.5 -250t-344.5 -94q-152 0 -274.5 50t-200.5 144q-145 -194 -500 -194q-200 0 -313 84t-113 219zM1180 635h540q-6 95 -70.5 142.5t-168.5 47.5h-29q-105 0 -175.5 -49.5t-96.5 -140.5zM524 199h29q124 0 211.5 49.5
t87.5 140.5v64l-283 -21q-217 -14 -217 -123q0 -110 172 -110zM680 1157v215h727v-215h-727z" />
    <glyph glyph-name="Aringacute" unicode="&#x1fa;" horiz-adv-x="1656" 
d="M1350 0l-156 336h-739l-154 -336h-299l670 1434h315l668 -1434h-305zM569 586h512l-256 555zM752 2023l53 181h256l-148 -181h-161zM575 1751q0 89 75 157t181 68t181 -68t75 -157q0 -95 -74 -160t-182 -65t-182 65t-74 160zM932 1751q0 33 -29.5 57.5t-71.5 24.5
q-41 0 -71.5 -25t-30.5 -57t30.5 -57t71.5 -25q42 0 71.5 24.5t29.5 57.5z" />
    <glyph glyph-name="aringacute" unicode="&#x1fb;" horiz-adv-x="1251" 
d="M78 283q0 161 112 245.5t314 96.5l348 24v25q0 73 -61.5 112t-172.5 39h-32q-83 0 -139.5 -31.5t-63.5 -86.5h-277q15 147 152.5 242t341.5 95q243 0 378.5 -106.5t135.5 -282.5v-430q0 -107 14 -225h-251q-9 52 -11 88q-1 14 -2 31.5t-1.5 27.5t-0.5 15
q-39 -76 -136 -129t-222 -53q-200 0 -313 84t-113 219zM524 199h29q124 0 211.5 49.5t87.5 140.5v64l-283 -21q-217 -14 -217 -123q0 -110 172 -110zM524 1649l72 268h307l-217 -268h-162zM334 1360q0 92 76 161.5t188 69.5t188 -69.5t76 -161.5q0 -100 -73.5 -166
t-190.5 -66t-190.5 66t-73.5 166zM705 1360q0 37 -31 62.5t-74 25.5t-74.5 -26.5t-31.5 -61.5t31.5 -61.5t74.5 -26.5t74 25.5t31 62.5z" />
    <glyph glyph-name="AEacute" unicode="&#x1fc;" horiz-adv-x="2394" 
d="M1491 246h846v-246h-1084l-47 338h-698l-240 -338h-299l1012 1434h1233v-246h-852l45 -328h745v-246h-710zM682 588h489l-79 579zM1409 1526l102 297h322l-236 -297h-188z" />
    <glyph glyph-name="aeacute" unicode="&#x1fd;" horiz-adv-x="2093" 
d="M78 283q0 161 112 245.5t314 96.5l348 24v25q0 73 -61.5 112t-172.5 39h-32q-83 0 -139.5 -31.5t-63.5 -86.5h-277q15 147 152.5 242t341.5 95q302 0 430 -170q81 81 196.5 125.5t241.5 44.5q249 0 393 -138t144 -371v-109h-829q24 -108 101.5 -167.5t182.5 -59.5h29
q88 0 147.5 32.5t79.5 92.5h277q-28 -156 -169.5 -250t-344.5 -94q-152 0 -274.5 50t-200.5 144q-145 -194 -500 -194q-200 0 -313 84t-113 219zM1180 635h540q-6 95 -70.5 142.5t-168.5 47.5h-29q-105 0 -175.5 -49.5t-96.5 -140.5zM524 199h29q124 0 211.5 49.5
t87.5 140.5v64l-283 -21q-217 -14 -217 -123q0 -110 172 -110zM946 1128l133 308h312l-246 -308h-199z" />
    <glyph glyph-name="Oslashacute" unicode="&#x1fe;" horiz-adv-x="1837" 
d="M106 717q-3 221 104 390.5t292.5 259t417.5 87.5q173 1 323 -51t258.5 -146.5t170 -234t59.5 -305.5q2 -166 -59.5 -305.5t-170 -234t-258.5 -146.5t-323 -51q-173 -1 -324 51t-260 147t-170.5 234.5t-59.5 304.5zM903 229h33q142 0 257.5 58.5t184 170.5t68.5 259
q0 220 -146 353.5t-364 133.5h-33q-141 0 -257 -58t-185.5 -170.5t-69.5 -258.5t69.5 -258.5t185.5 -171t257 -58.5zM264 -100l-178 184l1489 1450l178 -184zM827 1526l103 297h321l-235 -297h-189z" />
    <glyph glyph-name="oslashacute" unicode="&#x1ff;" horiz-adv-x="1380" 
d="M86 512q0 240 167 386t435 146q175 0 311.5 -65.5t213.5 -186.5t77 -280t-77 -280t-213.5 -186.5t-311.5 -65.5q-268 0 -435 146t-167 386zM674 199h28q138 0 226 86t88 227t-88 227t-226 86h-28q-138 0 -226 -86t-88 -227t88 -227t226 -86zM236 -74l-148 176l1073 996
l148 -176zM590 1128l133 308h311l-246 -308h-198z" />
    <glyph glyph-name="uni0218" unicode="&#x218;" horiz-adv-x="1505" 
d="M68 481h297q6 -123 105 -187.5t278 -64.5h32q162 0 244 43.5t82 120.5q0 70 -62 112.5t-200 65.5l-223 37q-253 43 -363.5 138.5t-110.5 283.5q0 87 38 162.5t111 134.5t191.5 93t268.5 34q294 0 467.5 -125.5t195.5 -345.5h-297q-14 104 -106 162.5t-244 58.5h-33
q-143 0 -225 -43.5t-82 -111.5q0 -73 52 -111.5t175 -58.5l230 -37q502 -83 502 -439q0 -205 -162 -314t-463 -109q-328 0 -510 127.5t-188 373.5zM557 -633v154h68q106 0 106 80v2h-123v270h287v-270q0 -103 -72.5 -169.5t-187.5 -66.5h-78z" />
    <glyph glyph-name="uni0219" unicode="&#x219;" horiz-adv-x="1175" 
d="M68 338h276q6 -67 66.5 -103t156.5 -36h29q205 0 205 84q0 33 -33 53t-117 37l-170 33q-188 38 -276 112t-88 207q0 148 131 233.5t334 85.5q242 0 372 -93.5t142 -264.5h-277q-6 63 -65.5 101t-157.5 38h-29q-84 0 -130 -21.5t-46 -58.5q0 -32 31 -51t121 -37l159 -30
q187 -33 280 -112.5t93 -217.5q0 -148 -127 -232.5t-366 -84.5q-236 0 -370.5 96t-143.5 262zM377 -633v154h67q107 0 107 80v2h-123v270h287v-270q0 -103 -72.5 -169.5t-187.5 -66.5h-78z" />
    <glyph glyph-name="uni021A" unicode="&#x21a;" horiz-adv-x="1519" 
d="M618 0v1184h-577v250h1438v-250h-578v-1184h-283zM565 -633v154h68q106 0 106 80v2h-123v270h287v-270q0 -103 -72.5 -169.5t-187.5 -66.5h-78z" />
    <glyph glyph-name="uni021B" unicode="&#x21b;" horiz-adv-x="964" 
d="M276 225v580h-247v219h247v332h273v-332h315v-219h-315v-498q0 -46 18.5 -64t63.5 -18h278v-225h-370q-263 0 -263 225zM309 -633v154h68q106 0 106 80v2h-123v270h287v-270q0 -103 -72.5 -169.5t-187.5 -66.5h-78z" />
    <glyph glyph-name="uni0226" unicode="&#x226;" horiz-adv-x="1656" 
d="M1350 0l-156 336h-739l-154 -336h-299l670 1434h315l668 -1434h-305zM569 586h512l-256 555zM682 1554v285h293v-285h-293z" />
    <glyph glyph-name="uni0227" unicode="&#x227;" horiz-adv-x="1251" 
d="M78 283q0 161 112 245.5t314 96.5l348 24v25q0 73 -61.5 112t-172.5 39h-32q-83 0 -139.5 -31.5t-63.5 -86.5h-277q15 147 152.5 242t341.5 95q243 0 378.5 -106.5t135.5 -282.5v-430q0 -107 14 -225h-251q-9 52 -11 88q-1 14 -2 31.5t-1.5 27.5t-0.5 15
q-39 -76 -136 -129t-222 -53q-200 0 -313 84t-113 219zM524 199h29q124 0 211.5 49.5t87.5 140.5v64l-283 -21q-217 -14 -217 -123q0 -110 172 -110zM453 1149v285h292v-285h-292z" />
    <glyph glyph-name="uni0232" unicode="&#x232;" horiz-adv-x="1497" 
d="M1155 1434h324l-588 -809v-625h-283v623l-590 811h326l408 -572zM387 1567v225h727v-225h-727z" />
    <glyph glyph-name="uni0233" unicode="&#x233;" horiz-adv-x="1280" 
d="M78 -414v234h360q47 0 64.5 17.5t17.5 64.5v174l-495 948h299l338 -655l315 655h299l-483 -946v-242q0 -130 -61 -190t-189 -60h-465zM287 1157v215h727v-215h-727z" />
    <glyph glyph-name="uni0237" unicode="&#x237;" horiz-adv-x="583" 
d="M-246 -410v230h330q44 0 63 19t19 63v1122h272v-1198q0 -101 -65.5 -168.5t-169.5 -67.5h-449z" />
    <glyph glyph-name="circumflex" unicode="&#x2c6;" horiz-adv-x="983" 
d="M45 1128l317 308h256l320 -308h-229l-215 144l-220 -144h-229z" />
    <glyph glyph-name="caron" unicode="&#x2c7;" horiz-adv-x="1015" 
d="M379 1128l-318 308h230l219 -144l215 144h229l-319 -308h-256z" />
    <glyph glyph-name="breve" unicode="&#x2d8;" horiz-adv-x="864" 
d="M45 1448h229q9 -121 158 -121t158 121h229q-3 -148 -109.5 -234t-277.5 -86t-277.5 86t-109.5 234z" />
    <glyph glyph-name="dotaccent" unicode="&#x2d9;" horiz-adv-x="411" 
d="M59 1149v285h293v-285h-293z" />
    <glyph glyph-name="ring" unicode="&#x2da;" horiz-adv-x="647" 
d="M59 1360q0 92 76 161.5t189 69.5q112 0 188 -69.5t76 -161.5q0 -99 -74 -165.5t-190 -66.5q-115 0 -190 66.5t-75 165.5zM430 1360q0 37 -30 62.5t-74 25.5q-43 0 -75 -26.5t-32 -61.5t32 -61.5t75 -26.5q44 0 74 25.5t30 62.5z" />
    <glyph glyph-name="ogonek" unicode="&#x2db;" horiz-adv-x="507" 
d="M57 -246q0 94 63.5 164.5t162.5 112.5l133 -31q-86 -49 -130 -91t-44 -93q0 -47 33.5 -75t78.5 -28h92v-164h-133q-108 0 -182 59t-74 146z" />
    <glyph glyph-name="tilde" unicode="&#x2dc;" horiz-adv-x="958" 
d="M496 1178l-74 28l-31 13q-44 20 -78 20q-31 0 -49 -25.5t-18 -64.5h-197v57q0 95 70.5 166.5t165.5 71.5q74 0 143 -31l31 -12l69 -27q7 -2 39 -16q60 -25 80 -25q31 0 48.5 25t17.5 65h196v-57q0 -103 -58.5 -170.5t-164.5 -67.5q-59 0 -190 50z" />
    <glyph glyph-name="hungarumlaut" unicode="&#x2dd;" horiz-adv-x="976" 
d="M70 1128l133 308h311l-246 -308h-198zM461 1128l133 308h311l-246 -308h-198z" />
    <glyph glyph-name="gravecomb" unicode="&#x300;" horiz-adv-x="0" 
d="M-252 1128l-246 308h312l133 -308h-199z" />
    <glyph glyph-name="acutecomb" unicode="&#x301;" horiz-adv-x="0" 
d="M-500 1128l133 308h312l-246 -308h-199z" />
    <glyph glyph-name="uni0302" unicode="&#x302;" horiz-adv-x="0" 
d="M-938 1128l317 308h256l320 -308h-229l-215 144l-220 -144h-229z" />
    <glyph glyph-name="tildecomb" unicode="&#x303;" horiz-adv-x="0" 
d="M-463 1178l-74 28l-30 13q-44 20 -78 20q-31 0 -49.5 -25.5t-18.5 -64.5h-196v57q0 96 70 167t165 71q75 0 144 -31l30 -12l70 -27q7 -2 39 -16q60 -25 80 -25q31 0 48 25t17 65h197v-57q0 -103 -58.5 -170.5t-164.5 -67.5q-60 0 -191 50z" />
    <glyph glyph-name="uni0304" unicode="&#x304;" horiz-adv-x="0" 
d="M-788 1157v215h727v-215h-727z" />
    <glyph glyph-name="uni0306" unicode="&#x306;" horiz-adv-x="0" 
d="M-819 1448h229q9 -121 158 -121t158 121h229q-3 -148 -109.5 -234t-277.5 -86t-277.5 86t-109.5 234z" />
    <glyph glyph-name="uni0307" unicode="&#x307;" horiz-adv-x="0" 
d="M-352 1149v285h293v-285h-293z" />
    <glyph glyph-name="uni0308" unicode="&#x308;" horiz-adv-x="0" 
d="M-795 1155v268h271v-268h-271zM-330 1155v268h271v-268h-271z" />
    <glyph glyph-name="uni030A" unicode="&#x30a;" horiz-adv-x="0" 
d="M-588 1360q0 92 76 161.5t188 69.5q113 0 189 -69.5t76 -161.5q0 -99 -74.5 -165.5t-190.5 -66.5q-115 0 -189.5 66.5t-74.5 165.5zM-217 1360q0 37 -30.5 62.5t-74.5 25.5q-43 0 -74.5 -26.5t-31.5 -61.5t31.5 -61.5t74.5 -26.5q44 0 74.5 25.5t30.5 62.5z" />
    <glyph glyph-name="uni030B" unicode="&#x30b;" horiz-adv-x="0" 
d="M-907 1128l133 308h311l-246 -308h-198zM-516 1128l133 308h311l-245 -308h-199z" />
    <glyph glyph-name="uni030C" unicode="&#x30c;" horiz-adv-x="0" 
d="M-637 1128l-317 308h229l219 -144l215 144h230l-320 -308h-256z" />
    <glyph glyph-name="uni0312" unicode="&#x312;" horiz-adv-x="0" 
d="M8 1671v-153h-67q-53 0 -80 -21t-27 -59v-2h123v-271h-287v271q0 102 73.5 168.5t186.5 66.5h78z" />
    <glyph glyph-name="dotbelowcomb" unicode="&#x323;" horiz-adv-x="0" 
d="M-360 -399v266h299v-266h-299z" />
    <glyph glyph-name="uni0326" unicode="&#x326;" horiz-adv-x="0" 
d="M-399 -633v154h67q107 0 107 80v2h-123v270h287v-270q0 -103 -73 -169.5t-188 -66.5h-77z" />
    <glyph glyph-name="uni0327" unicode="&#x327;" horiz-adv-x="0" 
d="M-494 -502v154h199q40 0 64 15.5t24 45.5q0 26 -21.5 44t-56.5 18h-116v256h147v-123q85 0 143 -51.5t58 -143.5q0 -98 -71 -156.5t-181 -58.5h-189z" />
    <glyph glyph-name="uni0328" unicode="&#x328;" horiz-adv-x="0" 
d="M-451 -246q0 94 63.5 164.5t162.5 112.5l133 -31q-86 -49 -130 -91t-44 -93q0 -47 33.5 -75t78.5 -28h93v-164h-134q-108 0 -182 59t-74 146z" />
    <glyph glyph-name="uni0335" unicode="&#x335;" horiz-adv-x="0" 
d="M-1237 662v235h1176v-235h-1176z" />
    <glyph glyph-name="uni0336" unicode="&#x336;" horiz-adv-x="0" 
d="M-1808 1008v235h1747v-235h-1747z" />
    <glyph glyph-name="uni0337" unicode="&#x337;" horiz-adv-x="0" 
d="M-686 528v246l625 336v-246z" />
    <glyph glyph-name="uni0338" unicode="&#x338;" horiz-adv-x="0" 
d="M-1567 -98l-178 184l1489 1450l178 -184z" />
    <glyph glyph-name="uni0394" unicode="&#x394;" horiz-adv-x="1644" 
d="M975 1434l624 -1250v-184h-1554v184l625 1250h305zM823 1169l-473 -929h944z" />
    <glyph glyph-name="uni03A9" unicode="&#x3a9;" horiz-adv-x="1873" 
d="M139 0v240h252q-129 96 -195.5 221.5t-66.5 296.5q-2 147 60.5 277.5t171 223t259 145t318.5 50.5q169 2 320 -50.5t259.5 -145t170.5 -223t59 -277.5q0 -172 -68.5 -297t-203.5 -221h262v-240h-635v240q166 41 265 169t99 316q0 224 -139.5 351.5t-378.5 127.5h-20
q-238 0 -378 -127.5t-140 -351.5q0 -187 100.5 -315.5t263.5 -169.5v-240h-635z" />
    <glyph glyph-name="uni03BC" unicode="&#x3bc;" horiz-adv-x="1345" 
d="M145 -410v1434h267v-588q0 -120 63 -180.5t160 -60.5h16q141 0 212 76.5t71 220.5v532h266v-1024h-266v137q-121 -157 -350 -157q-86 0 -172 22v-412h-267z" />
    <glyph glyph-name="pi" unicode="&#x3c0;" horiz-adv-x="1677" 
d="M299 0v805h-266v219h1548v-219h-268v-504q0 -44 19 -63t63 -19h186v-219h-283q-114 0 -186 57t-72 158v590h-469v-805h-272z" />
    <glyph glyph-name="Wgrave" unicode="&#x1e80;" horiz-adv-x="2195" 
d="M1872 1434h295l-424 -1434h-344l-299 1065l-307 -1065h-347l-409 1434h295l295 -1051l301 1051h358l293 -1059zM1010 1526l-236 297h322l102 -297h-188z" />
    <glyph glyph-name="wgrave" unicode="&#x1e81;" horiz-adv-x="1822" 
d="M1522 1024h282l-372 -1024h-283l-238 688l-239 -688h-281l-373 1024h283l236 -676l227 676h293l237 -688zM817 1128l-246 308h312l133 -308h-199z" />
    <glyph glyph-name="Wacute" unicode="&#x1e82;" horiz-adv-x="2195" 
d="M1872 1434h295l-424 -1434h-344l-299 1065l-307 -1065h-347l-409 1434h295l295 -1051l301 1051h358l293 -1059zM1010 1526l102 297h322l-236 -297h-188z" />
    <glyph glyph-name="wacute" unicode="&#x1e83;" horiz-adv-x="1822" 
d="M1522 1024h282l-372 -1024h-283l-238 688l-239 -688h-281l-373 1024h283l236 -676l227 676h293l237 -688zM813 1128l133 308h311l-245 -308h-199z" />
    <glyph glyph-name="Wdieresis" unicode="&#x1e84;" horiz-adv-x="2195" 
d="M1872 1434h295l-424 -1434h-344l-299 1065l-307 -1065h-347l-409 1434h295l295 -1051l301 1051h358l293 -1059zM729 1567v245h270v-245h-270zM1204 1567v245h271v-245h-271z" />
    <glyph glyph-name="wdieresis" unicode="&#x1e85;" horiz-adv-x="1822" 
d="M1522 1024h282l-372 -1024h-283l-238 688l-239 -688h-281l-373 1024h283l236 -676l227 676h293l237 -688zM543 1155v268h270v-268h-270zM1008 1155v268h270v-268h-270z" />
    <glyph glyph-name="uni1E9E" unicode="&#x1e9e;" horiz-adv-x="1576" 
d="M1485 401q0 -127 -61 -219t-164.5 -137t-237.5 -45h-381v250h340q102 0 160.5 46t58.5 126q0 87 -57.5 133.5t-161.5 46.5h-340v250h268q95 0 147 43t52 127q0 72 -54 117t-145 45h-444v-1184h-283v1434h758q197 0 325 -104t128 -275q0 -101 -49.5 -181t-133.5 -124
q117 -25 196 -122.5t79 -226.5z" />
    <glyph glyph-name="uni1EA0" unicode="&#x1ea0;" horiz-adv-x="1656" 
d="M1350 0l-156 336h-739l-154 -336h-299l670 1434h315l668 -1434h-305zM569 586h512l-256 555zM676 -399v266h299v-266h-299z" />
    <glyph glyph-name="uni1EA1" unicode="&#x1ea1;" horiz-adv-x="1251" 
d="M78 283q0 161 112 245.5t314 96.5l348 24v25q0 73 -61.5 112t-172.5 39h-32q-83 0 -139.5 -31.5t-63.5 -86.5h-277q15 147 152.5 242t341.5 95q243 0 378.5 -106.5t135.5 -282.5v-430q0 -107 14 -225h-251q-9 52 -11 88q-1 14 -2 31.5t-1.5 27.5t-0.5 15
q-39 -76 -136 -129t-222 -53q-200 0 -313 84t-113 219zM524 199h29q124 0 211.5 49.5t87.5 140.5v64l-283 -21q-217 -14 -217 -123q0 -110 172 -110zM451 -399v266h299v-266h-299z" />
    <glyph glyph-name="uni1EB8" unicode="&#x1eb8;" horiz-adv-x="1562" 
d="M465 250h1005v-250h-1288v1434h1268v-250h-985v-322h862v-250h-862v-362zM678 -399v266h299v-266h-299z" />
    <glyph glyph-name="uni1EB9" unicode="&#x1eb9;" horiz-adv-x="1286" 
d="M1198 535v-109h-829q24 -108 101.5 -167.5t182.5 -59.5h29q87 0 147 32.5t80 92.5h277q-28 -157 -169.5 -250.5t-344.5 -93.5q-170 0 -301.5 60.5t-209 184.5t-77.5 295q-2 120 46.5 221t130 167t186 102t215.5 34q249 0 392.5 -138t143.5 -371zM373 635h540
q-6 95 -70.5 142.5t-168.5 47.5h-29q-105 0 -175.5 -49.5t-96.5 -140.5zM514 -399v266h299v-266h-299z" />
    <glyph glyph-name="uni1ECA" unicode="&#x1eca;" horiz-adv-x="647" 
d="M182 0v1434h283v-1434h-283zM180 -399v266h299v-266h-299z" />
    <glyph glyph-name="uni1ECB" unicode="&#x1ecb;" horiz-adv-x="563" 
d="M145 0v1024h273v-1024h-273zM135 1149v285h293v-285h-293zM133 -399v266h299v-266h-299z" />
    <glyph glyph-name="uni1ECC" unicode="&#x1ecc;" horiz-adv-x="1812" 
d="M94 717q-3 221 103.5 390.5t292 259t417.5 87.5q173 1 323 -51t258.5 -146.5t170 -234t59.5 -305.5q2 -166 -59.5 -305.5t-170 -234t-258.5 -146.5t-323 -51q-173 -1 -323.5 51t-259.5 147t-170.5 234.5t-59.5 304.5zM891 229h33q142 0 257.5 58.5t184 170.5t68.5 259
q0 220 -146 353.5t-364 133.5h-33q-141 0 -257 -58t-185.5 -170.5t-69.5 -258.5t69.5 -258.5t185.5 -171t257 -58.5zM758 -399v266h299v-266h-299z" />
    <glyph glyph-name="uni1ECD" unicode="&#x1ecd;" horiz-adv-x="1368" 
d="M82 512q0 240 167 386t435 146q175 0 311.5 -65.5t213.5 -186.5t77 -280t-77 -280t-213.5 -186.5t-311.5 -65.5q-268 0 -435 146t-167 386zM670 199h28q138 0 226 86t88 227t-88 227t-226 86h-28q-138 0 -226 -86t-88 -227t88 -227t226 -86zM535 -399v266h299v-266h-299z
" />
    <glyph glyph-name="uni1EE4" unicode="&#x1ee4;" horiz-adv-x="1634" 
d="M166 565v869h283v-852q0 -172 90 -262.5t262 -90.5h33q172 0 262 90.5t90 262.5v852h282v-869q0 -273 -168 -429t-483 -156q-318 0 -484.5 155t-166.5 430zM668 -399v266h299v-266h-299z" />
    <glyph glyph-name="uni1EE5" unicode="&#x1ee5;" horiz-adv-x="1335" 
d="M135 385v639h273v-592q0 -118 48 -175.5t150 -57.5h29q117 0 200 83.5t83 215.5v526h272v-1024h-272v166q-44 -82 -140.5 -134t-216.5 -52q-208 0 -317 106t-109 299zM518 -399v266h299v-266h-299z" />
    <glyph glyph-name="Ygrave" unicode="&#x1ef2;" horiz-adv-x="1497" 
d="M1155 1434h324l-588 -809v-625h-283v623l-590 811h326l408 -572zM659 1526l-235 297h321l103 -297h-189z" />
    <glyph glyph-name="ygrave" unicode="&#x1ef3;" horiz-adv-x="1280" 
d="M78 -414v234h360q47 0 64.5 17.5t17.5 64.5v174l-495 948h299l338 -655l315 655h299l-483 -946v-242q0 -130 -61 -190t-189 -60h-465zM557 1128l-246 308h312l133 -308h-199z" />
    <glyph glyph-name="uni2002" unicode="&#x2002;" horiz-adv-x="1024" 
 />
    <glyph glyph-name="uni2003" unicode="&#x2003;" horiz-adv-x="2048" 
 />
    <glyph glyph-name="uni2009" unicode="&#x2009;" horiz-adv-x="256" 
 />
    <glyph glyph-name="uni200A" unicode="&#x200a;" horiz-adv-x="153" 
 />
    <glyph glyph-name="endash" unicode="&#x2013;" horiz-adv-x="1400" 
d="M137 508v223h1127v-223h-1127z" />
    <glyph glyph-name="emdash" unicode="&#x2014;" horiz-adv-x="2179" 
d="M137 508v223h1905v-223h-1905z" />
    <glyph glyph-name="quoteleft" unicode="&#x2018;" horiz-adv-x="641" 
d="M541 1454v-158h-115q-123 0 -123 -129v-20h160v-301h-328v332q0 115 76 195.5t205 80.5h125z" />
    <glyph glyph-name="quoteright" unicode="&#x2019;" horiz-adv-x="634" 
d="M115 881v157h114q123 0 123 129v21h-159v301h327v-332q0 -115 -75.5 -195.5t-204.5 -80.5h-125z" />
    <glyph glyph-name="quotesinglbase" unicode="&#x201a;" horiz-adv-x="618" 
d="M70 -307v157h114q123 0 123 130v20h-160v301h328v-332q0 -115 -75.5 -195.5t-204.5 -80.5h-125z" />
    <glyph glyph-name="quotedblleft" unicode="&#x201c;" horiz-adv-x="1153" 
d="M1053 1454v-158h-115q-123 0 -123 -129v-20h160v-301h-328v332q0 115 76 195.5t205 80.5h125zM541 1454v-158h-115q-123 0 -123 -129v-20h160v-301h-328v332q0 115 76 195.5t205 80.5h125z" />
    <glyph glyph-name="quotedblright" unicode="&#x201d;" horiz-adv-x="1146" 
d="M115 881v157h114q123 0 123 129v21h-159v301h327v-332q0 -115 -75.5 -195.5t-204.5 -80.5h-125zM627 881v157h114q123 0 123 129v21h-159v301h327v-332q0 -115 -75.5 -195.5t-204.5 -80.5h-125z" />
    <glyph glyph-name="quotedblbase" unicode="&#x201e;" horiz-adv-x="1130" 
d="M70 -307v157h114q123 0 123 130v20h-160v301h328v-332q0 -115 -75.5 -195.5t-204.5 -80.5h-125zM582 -307v157h114q123 0 123 130v20h-160v301h328v-332q0 -115 -75.5 -195.5t-204.5 -80.5h-125z" />
    <glyph glyph-name="dagger" unicode="&#x2020;" horiz-adv-x="1282" 
d="M508 -174v1106h-399v225h399v451h266v-451h400v-225h-400v-1106h-266z" />
    <glyph glyph-name="daggerdbl" unicode="&#x2021;" horiz-adv-x="1282" 
d="M506 -174v450h-400v226h400v430h-400v225h400v451h270v-451h400v-225h-400v-430h400v-226h-400v-450h-270z" />
    <glyph glyph-name="bullet" unicode="&#x2022;" horiz-adv-x="1196" 
d="M158 717q0 175 126.5 297.5t313.5 122.5t313.5 -122.5t126.5 -297.5t-126.5 -297.5t-313.5 -122.5t-313.5 122.5t-126.5 297.5z" />
    <glyph glyph-name="ellipsis" unicode="&#x2026;" horiz-adv-x="1855" 
d="M139 0v301h328v-301h-328zM764 0v301h328v-301h-328zM1389 0v301h327v-301h-327z" />
    <glyph glyph-name="perthousand" unicode="&#x2030;" horiz-adv-x="2611" 
d="M461 614q-97 0 -172.5 33.5t-121.5 91t-69.5 131t-23.5 158.5q0 84 23.5 157.5t69.5 132t121.5 92.5t172.5 34t172.5 -34t121.5 -92.5t69.5 -132t23.5 -157.5q0 -85 -23.5 -158.5t-69.5 -131t-121.5 -91t-172.5 -33.5zM1415 1434h260l-1024 -1434h-260zM457 803h8
q79 0 120.5 58t41.5 167t-41.5 168t-120.5 59h-8q-78 0 -120 -59t-42 -168t41.5 -167t120.5 -58zM2537 403q0 -83 -23.5 -156t-69.5 -131.5t-121.5 -92t-172.5 -33.5q-176 0 -276 106q-100 -106 -277 -106q-97 0 -172.5 33.5t-121.5 92t-69.5 131.5t-23.5 156t23.5 156.5
t69.5 132.5t122 93t172 34q174 0 277 -106q98 106 276 106q96 0 172 -34t122 -93t69.5 -132.5t23.5 -156.5zM1763 403q0 110 -41 169t-120 59h-9q-79 0 -120 -59t-41 -169q0 -109 41 -167t120 -58h9q79 0 120 58t41 167zM2316 403q0 109 -42 168.5t-120 59.5h-8
q-79 0 -120 -59t-41 -169q0 -109 41 -167t120 -58h8q79 0 120.5 58t41.5 167z" />
    <glyph glyph-name="guilsinglleft" unicode="&#x2039;" horiz-adv-x="794" 
d="M383 586l334 -443h-309l-338 441l338 440h305z" />
    <glyph glyph-name="guilsinglright" unicode="&#x203a;" horiz-adv-x="794" 
d="M387 1024l338 -440l-338 -441h-309l334 443l-330 438h305z" />
    <glyph glyph-name="fraction" unicode="&#x2044;" horiz-adv-x="380" 
d="M-389 0l948 1434h211l-948 -1434h-211z" />
    <glyph glyph-name="uni2070" unicode="&#x2070;" horiz-adv-x="929" 
d="M78 1253q0 83 23.5 156.5t69.5 132.5t122 93t172 34t172 -34t122 -93t69.5 -132.5t23.5 -156.5t-23.5 -156t-69.5 -131.5t-121.5 -92t-172.5 -33.5t-172.5 33.5t-121.5 92t-69.5 131.5t-23.5 156zM461 1028h8q79 0 120.5 58t41.5 167q0 110 -41.5 169t-120.5 59h-8
q-78 0 -120 -59.5t-42 -168.5t41.5 -167t120.5 -58z" />
    <glyph glyph-name="uni2074" unicode="&#x2074;" horiz-adv-x="897" 
d="M504 850v127h-443v223l398 459h243v-510h129v-172h-129v-127h-198zM248 1149h256v281z" />
    <glyph glyph-name="uni2075" unicode="&#x2075;" horiz-adv-x="851" 
d="M61 1096h230q11 -33 46 -54.5t79 -21.5h8q55 0 91 28t36 70t-33.5 68t-89.5 26h-8q-82 0 -109 -34h-221l90 481h578v-180h-418l-29 -138q37 26 74.5 37t95.5 11q117 0 202 -70.5t85 -190.5q0 -133 -98 -210.5t-260 -77.5q-143 0 -241.5 71t-107.5 185z" />
    <glyph glyph-name="uni2076" unicode="&#x2076;" horiz-adv-x="880" 
d="M78 1214q0 207 110 331t289 124q144 0 230.5 -67.5t95.5 -176.5h-213q-11 28 -40.5 46t-70.5 18h-12q-71 0 -123 -57t-61 -138q73 82 211 82q127 0 212 -72t85 -182q0 -122 -95.5 -202t-246.5 -80q-169 0 -270 102t-101 272zM438 1020h8q56 0 91.5 26.5t35.5 67.5
q0 38 -36 63t-91 25h-8q-51 0 -89 -26.5t-38 -63.5q0 -41 35.5 -66.5t91.5 -25.5z" />
    <glyph glyph-name="uni2077" unicode="&#x2077;" horiz-adv-x="763" 
d="M186 850v27q0 192 62 321t233 277h-430v184h674v-160q-178 -145 -242.5 -278.5t-64.5 -333.5v-37h-232z" />
    <glyph glyph-name="uni2078" unicode="&#x2078;" horiz-adv-x="858" 
d="M94 1061q0 68 42.5 117.5t119.5 68.5q-174 52 -174 201q0 95 101.5 158t246.5 63t245.5 -63t100.5 -158q0 -148 -176 -201q78 -18 120 -67.5t42 -118.5q0 -96 -93 -158.5t-239 -62.5t-241 63t-95 158zM424 1337h10q57 0 91 20t34 56q0 35 -34.5 55.5t-90.5 20.5h-10
q-57 0 -91 -20.5t-34 -55.5q0 -36 33.5 -56t91.5 -20zM424 1020h10q49 0 80 20.5t31 51.5q0 32 -31 52.5t-80 20.5h-10q-51 0 -82 -20.5t-31 -52.5t31 -52t82 -20z" />
    <glyph glyph-name="uni2079" unicode="&#x2079;" horiz-adv-x="878" 
d="M76 1085h213q11 -28 39.5 -45.5t70.5 -17.5h13q73 0 124 56.5t60 138.5q-73 -82 -211 -82q-127 0 -212 72t-85 182q0 122 95.5 202t246.5 80q170 0 270.5 -102t100.5 -273q0 -207 -110.5 -330.5t-289.5 -123.5q-145 0 -229 66.5t-96 176.5zM432 1309h8q51 0 89 26.5
t38 63.5q0 41 -35.5 66.5t-91.5 25.5h-8q-56 0 -91.5 -26.5t-35.5 -67.5q0 -38 36 -63t91 -25z" />
    <glyph glyph-name="Euro" unicode="&#x20ac;" horiz-adv-x="1671" 
d="M1282 451h283q-25 -221 -187 -346t-424 -125q-209 0 -360.5 89t-231.5 257l-262 -52v230l197 37q-12 71 -12 135l-185 -35v229l199 37q50 257 222 402t433 145q262 0 424 -125t187 -346h-283q-13 112 -95.5 171.5t-223.5 59.5h-21q-123 0 -211.5 -64.5t-132.5 -186.5
l401 75v-225l-440 -84v-12q0 -73 8 -125l346 65v-225l-270 -51q101 -162 299 -162h21q141 0 223.5 60t95.5 172z" />
    <glyph glyph-name="uni2105" unicode="&#x2105;" horiz-adv-x="1718" 
d="M55 1141q0 145 95.5 224t252.5 79q141 0 217.5 -62.5t94.5 -169.5h-207q-27 68 -111 68h-8q-63 0 -94 -38t-31 -101t31 -100t94 -37h8q90 0 111 61h207q-43 -225 -312 -225q-157 0 -252.5 78t-95.5 223zM276 0l949 1434h211l-949 -1434h-211zM973 291q0 131 95 217
t251 86t251 -86t95 -217q0 -129 -95.5 -215t-250.5 -86t-250.5 86t-95.5 215zM1315 154h8q62 0 97.5 36t35.5 101q0 66 -35.5 102.5t-97.5 36.5h-8q-62 0 -97.5 -36.5t-35.5 -102.5q0 -65 35.5 -101t97.5 -36z" />
    <glyph glyph-name="uni2113" unicode="&#x2113;" horiz-adv-x="1052" 
d="M600 236h268v-236h-399q-219 0 -219 215v137l-154 -92v277l154 92v475q0 167 99 258.5t282 91.5q97 0 169.5 -29.5t115.5 -82t64 -118.5t21 -145q0 -275 -321 -469l-160 -96v-197q0 -47 17.5 -64t62.5 -17zM520 1118v-332q119 77 164 139.5t45 147.5q0 69 -30 107.5
t-81 38.5q-46 0 -72 -28t-26 -73z" />
    <glyph glyph-name="uni2116" unicode="&#x2116;" horiz-adv-x="2498" 
d="M1704 1141q0 131 95.5 217t250.5 86q157 0 251.5 -85.5t94.5 -217.5q0 -129 -95 -215t-251 -86q-154 0 -250 86.5t-96 214.5zM1284 381v1053h283v-1434h-348l-746 1071v-1071h-283v1434h361zM1913 1141q0 -65 35.5 -101t97.5 -36h8q63 0 98 35.5t35 101.5t-35 102.5
t-98 36.5h-8q-62 0 -97.5 -36.5t-35.5 -102.5zM1716 553v164h670v-164h-670z" />
    <glyph glyph-name="uni2117" unicode="&#x2117;" horiz-adv-x="2140" 
d="M98 719q-2 134 45.5 257.5t137 221.5t209.5 171t270 112t311 37q135 1 262.5 -26t235 -77.5t197 -124t151 -161.5t94.5 -193t31 -217q4 -167 -71 -316.5t-205 -256t-311.5 -168t-383.5 -58.5q-201 -3 -382.5 58.5t-312 168t-206 256t-72.5 316.5zM1853 719
q4 171 -103.5 315.5t-288.5 226t-390 78.5q-210 3 -392 -78.5t-289 -226t-103 -315.5q-3 -129 59.5 -246t169.5 -199.5t252.5 -130t302.5 -45.5q156 -2 301 45.5t251.5 130t169.5 199.5t60 246zM770 338v780h404q127 0 206.5 -75t79.5 -189q0 -113 -79 -185.5t-207 -72.5
h-189v-258h-215zM985 772h176q36 0 60 23t24 59t-25.5 59t-62.5 23h-172v-164z" />
    <glyph glyph-name="trademark" unicode="&#x2122;" horiz-adv-x="2322" 
d="M80 1229v205h870v-205h-317v-574h-236v574h-317zM1847 1434h312v-779h-232v465l-237 -465h-131l-246 478v-478h-232v779h312l231 -443z" />
    <glyph glyph-name="Omega" unicode="&#x2126;" horiz-adv-x="1867" 
d="M135 0v240h252q-129 96 -195.5 221.5t-66.5 296.5q-2 147 60.5 277.5t171 223t259 145t318.5 50.5q169 2 320 -50.5t259.5 -145t170.5 -223t59 -277.5q0 -172 -69 -297t-204 -221h263v-240h-635v240q166 41 265 169t99 316q0 224 -139.5 351.5t-378.5 127.5h-20
q-238 0 -378 -127.5t-140 -351.5q0 -187 100.5 -315.5t263.5 -169.5v-240h-635z" />
    <glyph glyph-name="onethird" unicode="&#x2153;" horiz-adv-x="1953" 
d="M344 625v551l-285 -183v230l318 211h182v-809h-215zM297 0l948 1434h211l-948 -1434h-211zM1137 229h221q1 -26 36.5 -43.5t80.5 -17.5h10q55 0 88 22t33 58q0 35 -31.5 54.5t-87.5 19.5h-107v172h107q112 0 112 73q0 33 -28 53.5t-80 20.5h-10q-41 0 -72.5 -17
t-36.5 -40h-221q0 109 96 172t240 63q140 0 237 -63.5t97 -167.5q0 -135 -129 -178q135 -51 135 -191q0 -106 -102.5 -167.5t-247.5 -61.5q-144 0 -242 64t-98 175z" />
    <glyph glyph-name="twothirds" unicode="&#x2154;" horiz-adv-x="2074" 
d="M84 625v172l342 274q56 44 73 63.5t23 55.5q0 33 -28.5 53.5t-77.5 20.5h-8q-44 0 -75.5 -25.5t-33.5 -62.5h-219q9 122 105.5 195t244.5 73q142 0 233 -73.5t91 -162.5q0 -74 -38.5 -126t-135.5 -130l-185 -145l357 2v-184h-668zM455 0l948 1434h211l-948 -1434h-211z
M1294 229h222q1 -26 36 -43.5t80 -17.5h10q55 0 88 22t33 58q0 35 -31 54.5t-87 19.5h-107v172h107q112 0 112 73q0 33 -28 53.5t-80 20.5h-11q-41 0 -72 -17t-36 -40h-221q0 109 96 172t240 63q140 0 236.5 -63.5t96.5 -167.5q0 -135 -129 -178q136 -52 136 -191
q0 -71 -50 -124t-128.5 -79t-172.5 -26q-144 0 -242 64t-98 175z" />
    <glyph glyph-name="uni2155" unicode="&#x2155;" horiz-adv-x="1961" 
d="M344 625v551l-285 -183v230l318 211h182v-809h-215zM297 0l948 1434h211l-948 -1434h-211zM1128 246h230q11 -33 46 -54.5t79 -21.5h8q55 0 91 28t36 70t-33.5 68t-89.5 26h-8q-82 0 -109 -34h-221l90 481h578v-180h-418l-29 -137q36 25 73.5 36t96.5 11q117 0 202 -70
t85 -190q0 -133 -98 -211t-260 -78q-143 0 -241.5 71t-107.5 185z" />
    <glyph glyph-name="uni2156" unicode="&#x2156;" horiz-adv-x="2082" 
d="M84 625v172l342 274q56 44 73 63.5t23 55.5q0 33 -28.5 53.5t-77.5 20.5h-8q-44 0 -75.5 -25.5t-33.5 -62.5h-219q9 122 105.5 195t244.5 73q142 0 233 -73.5t91 -162.5q0 -74 -38.5 -126t-135.5 -130l-185 -145l357 2v-184h-668zM455 0l948 1434h211l-948 -1434h-211z
M1286 246h230q11 -33 45.5 -54.5t78.5 -21.5h9q55 0 91 28t36 70t-33.5 68t-89.5 26h-8q-82 0 -109 -34h-221l90 481h577v-180h-417l-29 -137q36 25 73.5 36t96.5 11q117 0 202 -70t85 -190q0 -133 -98.5 -211t-260.5 -78q-143 0 -241 71t-107 185z" />
    <glyph glyph-name="uni2157" unicode="&#x2157;" horiz-adv-x="2080" 
d="M70 854h221q1 -26 36.5 -43.5t80.5 -17.5h10q55 0 88 22t33 57t-31.5 54.5t-87.5 19.5h-107v172h107q112 0 112 74q0 33 -28 53.5t-80 20.5h-10q-41 0 -73 -16.5t-36 -41.5h-221q0 109 96.5 172.5t239.5 63.5q140 0 237 -64t97 -168q0 -134 -129 -178q135 -48 135 -190
q0 -106 -102.5 -168t-247.5 -62q-144 0 -242 65t-98 175zM457 0l948 1434h211l-948 -1434h-211zM1288 246h230q11 -33 45.5 -54.5t78.5 -21.5h9q55 0 91 28t36 70t-33.5 68t-89.5 26h-8q-82 0 -109 -34h-221l90 481h578v-180h-418l-29 -137q36 25 73.5 36t96.5 11
q117 0 202 -70t85 -190q0 -133 -98.5 -211t-260.5 -78q-143 0 -241 71t-107 185z" />
    <glyph glyph-name="uni2158" unicode="&#x2158;" horiz-adv-x="2113" 
d="M502 625v127h-443v223l398 459h243v-510h129v-172h-129v-127h-198zM246 924h256v280zM508 0l948 1434h211l-948 -1434h-211zM1339 246h230q11 -33 46 -54.5t79 -21.5h8q55 0 91 28t36 70t-33.5 68t-89.5 26h-8q-82 0 -109 -34h-221l90 481h578v-180h-418l-29 -137
q36 25 73.5 36t96.5 11q117 0 202 -70t85 -190q0 -133 -98 -211t-260 -78q-143 0 -241.5 71t-107.5 185z" />
    <glyph glyph-name="uni2159" unicode="&#x2159;" horiz-adv-x="1964" 
d="M344 625v551l-285 -183v230l318 211h182v-809h-215zM297 0l948 1434h211l-948 -1434h-211zM1112 365q0 207 110 330.5t289 123.5q144 0 230.5 -67.5t95.5 -176.5h-213q-11 28 -40.5 46t-70.5 18h-12q-71 0 -123 -57t-61 -138q73 82 211 82q127 0 212 -72t85 -182
q0 -122 -95.5 -202t-246.5 -80q-169 0 -270 102.5t-101 272.5zM1473 170h8q56 0 91.5 26.5t35.5 67.5q0 38 -36 63t-91 25h-8q-51 0 -89 -26.5t-38 -63.5q0 -41 35.5 -66.5t91.5 -25.5z" />
    <glyph glyph-name="uni215A" unicode="&#x215a;" horiz-adv-x="2088" 
d="M59 870h230q11 -31 46.5 -53t78.5 -22h8q55 0 91 28t36 70q0 43 -33 68.5t-90 25.5h-8q-34 0 -65 -9.5t-44 -25.5h-221l90 482h578v-181h-418l-29 -137q36 25 73.5 36t96.5 11q117 0 202 -70t85 -190q0 -133 -98 -211t-260 -78q-143 0 -241.5 71t-107.5 185zM463 0
l948 1434h211l-948 -1434h-211zM1278 365q0 207 110 330.5t289 123.5q144 0 230.5 -67.5t95.5 -176.5h-213q-11 28 -40.5 46t-70.5 18h-12q-71 0 -123 -57t-61 -138q73 82 211 82q127 0 212 -72t85 -182q0 -122 -95.5 -202t-246.5 -80q-169 0 -270 102.5t-101 272.5z
M1638 170h9q56 0 91.5 26.5t35.5 67.5q0 38 -36 63t-91 25h-9q-51 0 -89 -26.5t-38 -63.5q0 -41 35.5 -66.5t91.5 -25.5z" />
    <glyph glyph-name="oneeighth" unicode="&#x215b;" horiz-adv-x="1970" 
d="M344 625v551l-285 -183v230l318 211h182v-809h-215zM297 0l948 1434h211l-948 -1434h-211zM1161 211q0 68 42.5 117.5t119.5 68.5q-174 52 -174 201q0 95 101.5 158t246.5 63t245.5 -63t100.5 -158q0 -148 -176 -201q78 -18 120 -67.5t42 -118.5q0 -96 -93 -158.5
t-239 -62.5t-241 63t-95 158zM1491 487h10q57 0 91 20t34 56q0 35 -34.5 55.5t-90.5 20.5h-10q-57 0 -91 -20.5t-34 -55.5q0 -36 33.5 -56t91.5 -20zM1491 170h10q49 0 80 20.5t31 51.5q0 32 -31 52.5t-80 20.5h-10q-51 0 -82 -20.5t-31 -52.5t31 -52t82 -20z" />
    <glyph glyph-name="threeeighths" unicode="&#x215c;" horiz-adv-x="2088" 
d="M70 854h221q1 -26 36.5 -43.5t80.5 -17.5h10q55 0 88 22t33 57t-31.5 54.5t-87.5 19.5h-107v172h107q112 0 112 74q0 33 -28 53.5t-80 20.5h-10q-41 0 -73 -16.5t-36 -41.5h-221q0 109 96.5 172.5t239.5 63.5q140 0 237 -64t97 -168q0 -134 -129 -178q135 -48 135 -190
q0 -106 -102.5 -168t-247.5 -62q-144 0 -242 65t-98 175zM457 0l948 1434h211l-948 -1434h-211zM1321 211q0 68 42.5 117.5t119.5 68.5q-174 52 -174 201q0 95 101.5 158t246.5 63t245.5 -63t100.5 -158q0 -148 -176 -201q78 -18 120 -67.5t42 -118.5q0 -96 -93 -158.5
t-239 -62.5t-241 63t-95 158zM1651 487h10q57 0 91 20t34 56q0 35 -34.5 55.5t-90.5 20.5h-10q-57 0 -91 -20.5t-34 -55.5q0 -36 33.5 -56t91.5 -20zM1651 170h10q49 0 80 20.5t31 51.5q0 32 -31 52.5t-80 20.5h-10q-51 0 -82 -20.5t-31 -52.5t31 -52t82 -20z" />
    <glyph glyph-name="fiveeighths" unicode="&#x215d;" horiz-adv-x="2095" 
d="M59 870h230q11 -31 46.5 -53t78.5 -22h8q55 0 91 28t36 70q0 43 -33 68.5t-90 25.5h-8q-34 0 -65 -9.5t-44 -25.5h-221l90 482h578v-181h-418l-29 -137q36 25 73.5 36t96.5 11q117 0 202 -70t85 -190q0 -133 -98 -211t-260 -78q-143 0 -241.5 71t-107.5 185zM463 0
l948 1434h211l-948 -1434h-211zM1327 211q0 68 42.5 117.5t119.5 68.5q-174 52 -174 201q0 95 101.5 158t246.5 63t245.5 -63t100.5 -158q0 -148 -176 -201q78 -18 120 -67.5t42 -118.5q0 -96 -93 -158.5t-239 -62.5t-241 63t-95 158zM1657 487h10q57 0 91 20t34 56
q0 35 -34.5 55.5t-90.5 20.5h-10q-57 0 -91 -20.5t-34 -55.5q0 -36 33.5 -56t91.5 -20zM1657 170h10q49 0 80 20.5t31 51.5q0 32 -31 52.5t-80 20.5h-10q-51 0 -82 -20.5t-31 -52.5t31 -52t82 -20z" />
    <glyph glyph-name="seveneighths" unicode="&#x215e;" horiz-adv-x="1863" 
d="M184 625v26q0 192 62 321t233 277h-430v185h674v-160q-178 -145 -242.5 -278.5t-64.5 -333.5v-37h-232zM276 0l949 1434h211l-949 -1434h-211zM1141 211q0 68 42.5 117.5t119.5 68.5q-175 52 -175 201q0 95 102 158t247 63t245.5 -63t100.5 -158q0 -148 -176 -201
q78 -18 119.5 -67.5t41.5 -118.5q0 -96 -93 -158.5t-238 -62.5q-146 0 -241 63t-95 158zM1470 487h11q57 0 91 20t34 56q0 35 -34.5 55.5t-90.5 20.5h-11q-57 0 -90.5 -20.5t-33.5 -55.5q0 -36 33 -56t91 -20zM1470 170h11q49 0 79.5 20.5t30.5 51.5q0 32 -30.5 52.5
t-79.5 20.5h-11q-51 0 -81.5 -20.5t-30.5 -52.5t30.5 -52t81.5 -20z" />
    <glyph glyph-name="uni215F" unicode="&#x215f;" horiz-adv-x="1067" 
d="M344 625v551l-285 -183v230l318 211h182v-809h-215zM297 0l948 1434h211l-948 -1434h-211z" />
    <glyph glyph-name="uni2160" unicode="&#x2160;" horiz-adv-x="1169" 
d="M109 0v215h342v1004h-342v215h952v-215h-344v-1004h344v-215h-952z" />
    <glyph glyph-name="uni2161" unicode="&#x2161;" horiz-adv-x="1875" 
d="M109 0v215h342v1004h-342v215h1658v-215h-344v-1004h344v-215h-1658zM717 215h440v1004h-440v-1004z" />
    <glyph glyph-name="uni2162" unicode="&#x2162;" horiz-adv-x="2582" 
d="M109 0v215h342v1004h-342v215h2365v-215h-344v-1004h344v-215h-2365zM717 215h440v1004h-440v-1004zM1423 215h441v1004h-441v-1004z" />
    <glyph glyph-name="uni2163" unicode="&#x2163;" horiz-adv-x="2625" 
d="M117 0v215h342v1004h-342v215h1382v-215h-235l385 -1008l391 1008h-244v215h758v-215h-256l-391 -1004h319v-215h-2109zM725 215h659l-387 1004h-272v-1004z" />
    <glyph glyph-name="uni2164" unicode="&#x2164;" horiz-adv-x="1953" 
d="M377 0v215h336l-387 1004h-256v215h757v-215h-235l385 -1008l391 1008h-244v215h758v-215h-256l-391 -1004h319v-215h-1177z" />
    <glyph glyph-name="uni2165" unicode="&#x2165;" horiz-adv-x="2621" 
d="M377 0v215h336l-387 1004h-256v215h757v-215h-235l385 -1008l391 1008h-244v215h1381v-215h-344v-1004h344v-215h-2128zM1235 215h659v1004h-268z" />
    <glyph glyph-name="uni2166" unicode="&#x2166;" horiz-adv-x="3328" 
d="M377 0v215h336l-387 1004h-256v215h757v-215h-235l385 -1008l391 1008h-244v215h2087v-215h-344v-1004h344v-215h-2834zM1235 215h659v1004h-268zM2161 215h440v1004h-440v-1004z" />
    <glyph glyph-name="uni2167" unicode="&#x2167;" horiz-adv-x="4034" 
d="M377 0v215h336l-387 1004h-256v215h757v-215h-235l385 -1008l391 1008h-244v215h2794v-215h-344v-1004h344v-215h-3541zM1235 215h659v1004h-268zM2161 215h440v1004h-440v-1004zM2867 215h441v1004h-441v-1004z" />
    <glyph glyph-name="uni2168" unicode="&#x2168;" horiz-adv-x="2500" 
d="M109 0v215h342v1004h-342v215h2271v-215h-273l-397 -494l412 -510h278v-215h-2291zM717 215h268l408 504l-404 500h-272v-1004zM1552 920l242 299h-481zM1298 215h500l-250 309z" />
    <glyph glyph-name="uni2169" unicode="&#x2169;" horiz-adv-x="1902" 
d="M100 0v215h287l408 504l-404 500h-270v215h1661v-215h-273l-397 -494l412 -510h278v-215h-1702zM956 920l240 299h-481zM700 215h500l-250 309z" />
    <glyph glyph-name="uni216C" unicode="&#x216c;" horiz-adv-x="1705" 
d="M109 0v215h323v1004h-323v215h911v-215h-322v-1004h660v338h266v-553h-1515z" />
    <glyph glyph-name="uni216D" unicode="&#x216d;" horiz-adv-x="1771" 
d="M106 717q-3 163 57 303.5t165 235.5t247.5 147.5t301.5 50.5q301 0 485 -147v127h266v-471h-254q-29 85 -103.5 148.5t-164.5 93.5t-184 30h-21q-243 0 -383.5 -137t-140.5 -373q0 -251 136.5 -388.5t383.5 -137.5h21q149 0 267.5 70.5t178.5 201.5h254v-471h-266v139
q-87 -75 -232.5 -117t-273.5 -42q-216 0 -383 88.5t-262 257t-95 391.5z" />
    <glyph glyph-name="uni216E" unicode="&#x216e;" horiz-adv-x="1904" 
d="M109 0v215h321v1004h-321v215h866q239 0 425 -86t292 -248.5t106 -376.5q0 -166 -61.5 -302.5t-170.5 -228.5t-260.5 -142t-330.5 -50h-866zM696 215h258q286 0 431 125.5t145 384.5q0 494 -576 494h-258v-1004z" />
    <glyph glyph-name="uni216F" unicode="&#x216f;" horiz-adv-x="2605" 
d="M109 0v215h321v1004h-321v215h749l455 -1123l446 1123h738v-215h-322v-1004h322v-215h-750v215h166v950l-471 -1165h-271l-479 1165v-950h168v-215h-751z" />
    <glyph glyph-name="arrowleft" unicode="&#x2190;" horiz-adv-x="1939" 
d="M678 84l-637 637l637 633l178 -180l-328 -320h1350v-270h-1350l328 -320z" />
    <glyph glyph-name="arrowup" unicode="&#x2191;" horiz-adv-x="1617" 
d="M674 0v1026l-320 -328l-180 179l637 636l633 -636l-180 -179l-320 328v-1026h-270z" />
    <glyph glyph-name="arrowright" unicode="&#x2192;" horiz-adv-x="1939" 
d="M1262 1356l636 -637l-636 -633l-179 180l328 320h-1350v270h1350l-328 320z" />
    <glyph glyph-name="arrowdown" unicode="&#x2193;" horiz-adv-x="1617" 
d="M944 1434v-1026l320 327l180 -178l-637 -637l-633 637l180 178l320 -327v1026h270z" />
    <glyph glyph-name="uni2196" unicode="&#x2196;" horiz-adv-x="1376" 
d="M1081 266l-725 725l6 -456h-253v899l897 -2v-254l-459 6l727 -725z" />
    <glyph glyph-name="uni2197" unicode="&#x2197;" horiz-adv-x="1376" 
d="M100 459l725 725l-456 -6v254h899l-2 -897h-254l6 458l-725 -725z" />
    <glyph glyph-name="uni2198" unicode="&#x2198;" horiz-adv-x="1376" 
d="M293 1165l725 -727l-6 459h254v-899l-897 2v254l458 -6l-725 727z" />
    <glyph glyph-name="uni2199" unicode="&#x2199;" horiz-adv-x="1378" 
d="M1276 975l-725 -727l457 6v-254h-899l2 897h254l-7 -459l727 727z" />
    <glyph glyph-name="uni21A4" unicode="&#x21a4;" horiz-adv-x="2072" 
d="M698 84l-637 637l637 633l179 -180l-328 -320h1079v379h270v-1028h-270v379h-1079l328 -320z" />
    <glyph glyph-name="uni21A5" unicode="&#x21a5;" horiz-adv-x="1751" 
d="M360 0v272h379v754l-319 -328l-180 179l637 636l632 -636l-180 -179l-319 328v-754h379v-272h-1029z" />
    <glyph glyph-name="uni21A6" unicode="&#x21a6;" horiz-adv-x="2072" 
d="M1374 1358l637 -637l-637 -633l-178 180l328 320h-1080v-379h-270v1028h270v-379h1080l-328 320z" />
    <glyph glyph-name="uni21A7" unicode="&#x21a7;" horiz-adv-x="1751" 
d="M1391 1434v-273h-379v-753l319 327l180 -178l-637 -637l-632 637l180 178l319 -327v753h-379v273h1029z" />
    <glyph glyph-name="uni21B0" unicode="&#x21b0;" horiz-adv-x="2052" 
d="M1608 0v584h-1080l328 -320l-178 -180l-637 637l637 633l178 -180l-328 -320h1350v-854h-270z" />
    <glyph glyph-name="uni21B1" unicode="&#x21b1;" horiz-adv-x="2052" 
d="M174 0v850h1350l-328 319l178 185l637 -637l-637 -637l-178 180l328 320h-1080v-580h-270z" />
    <glyph glyph-name="uni21B2" unicode="&#x21b2;" horiz-adv-x="2052" 
d="M1878 1434v-850h-1350l328 -320l-178 -184l-637 637l637 637l178 -180l-328 -320h1080v580h270z" />
    <glyph glyph-name="uni21B3" unicode="&#x21b3;" horiz-adv-x="2052" 
d="M444 1434v-584h1080l-328 319l178 181l637 -637l-637 -633l-178 180l328 320h-1350v854h270z" />
    <glyph glyph-name="partialdiff" unicode="&#x2202;" horiz-adv-x="1366" 
d="M1260 618q0 -302 -160.5 -470t-429.5 -168q-265 0 -426.5 141t-161.5 373q-2 104 43.5 198.5t121 160t175 103.5t203.5 37q228 0 344 -116q-13 88 -55 155.5t-103 107.5t-132.5 59.5t-150.5 19.5q-148 0 -292 -35v235q47 14 134 24.5t175 10.5q140 0 256.5 -41
t200.5 -115t142.5 -178t87 -230.5t28.5 -271.5zM991 492q0 121 -88.5 194.5t-224.5 73.5h-21q-131 0 -217 -71t-86 -195q0 -126 91 -198.5t223 -72.5h10q135 0 224 69.5t89 199.5z" />
    <glyph glyph-name="Delta" unicode="&#x2206;" horiz-adv-x="1701" 
d="M1004 1434l624 -1250v-184h-1554v184l624 1250h306zM852 1169l-473 -929h944z" />
    <glyph glyph-name="product" unicode="&#x220f;" horiz-adv-x="1738" 
d="M324 0v1194h-252v240h1595v-240h-252v-1194h-270v1194h-551v-1194h-270z" />
    <glyph glyph-name="summation" unicode="&#x2211;" horiz-adv-x="1339" 
d="M1223 1434v-240h-752l422 -477l-428 -477h758v-240h-1117v205l451 512l-451 522v195h1117z" />
    <glyph glyph-name="minus" unicode="&#x2212;" horiz-adv-x="1429" 
d="M147 410v235h1135v-235h-1135z" />
    <glyph glyph-name="uni2215" unicode="&#x2215;" horiz-adv-x="1048" 
d="M66 0l643 1434h282l-643 -1434h-282z" />
    <glyph glyph-name="uni2219" unicode="&#x2219;" horiz-adv-x="1294" 
d="M207 717q0 175 126.5 297.5t313.5 122.5t313.5 -122.5t126.5 -297.5t-126.5 -297.5t-313.5 -122.5t-313.5 122.5t-126.5 297.5z" />
    <glyph glyph-name="radical" unicode="&#x221a;" horiz-adv-x="1617" 
d="M1581 1434v-240h-502l-297 -1194h-350l-389 1024h270l283 -768l274 1178h711z" />
    <glyph glyph-name="infinity" unicode="&#x221e;" horiz-adv-x="1986" 
d="M109 737q0 167 122 278t308 111q151 0 257 -49.5t199 -156.5q90 107 196 156.5t257 49.5q186 0 308 -111t122 -278t-122 -278t-308 -111q-151 0 -257.5 50t-199.5 157q-90 -107 -196 -157t-256 -50q-185 0 -307.5 111t-122.5 278zM557 563h10q142 0 275 170
q-75 96 -138 137t-137 41h-10q-78 0 -135 -48t-57 -126q0 -80 57 -127t135 -47zM1419 563h11q80 0 136 47t56 127q0 79 -56 126.5t-136 47.5h-11q-141 0 -274 -170q75 -97 137.5 -137.5t136.5 -40.5z" />
    <glyph glyph-name="integral" unicode="&#x222b;" horiz-adv-x="974" 
d="M37 -205v236h151q92 0 128 36t36 128v870q0 194 96.5 281.5t301.5 87.5h188v-236h-152q-92 0 -127.5 -36t-35.5 -128v-870q0 -194 -97.5 -281.5t-302.5 -87.5h-186z" />
    <glyph glyph-name="approxequal" unicode="&#x2248;" horiz-adv-x="1390" 
d="M674 629q-133 39 -172 39t-60.5 -20t-21.5 -58h-266v82q0 105 82 178.5t198 73.5q96 0 301 -62q123 -37 158 -37q39 0 60.5 20t21.5 58h266v-82q0 -106 -80 -179t-196 -73q-89 0 -291 60zM674 182q-133 39 -172 39q-38 0 -60 -20.5t-22 -57.5h-266v82q0 105 82 178.5
t198 73.5q59 0 124.5 -14t176.5 -47q123 -37 158 -37q38 0 60 20.5t22 57.5h266v-82q0 -107 -80 -179.5t-196 -72.5q-81 0 -291 59z" />
    <glyph glyph-name="notequal" unicode="&#x2260;" 
d="M1325 614h-418l-76 -174h494v-235h-598l-76 -174h-264l76 174h-313v235h417l76 174h-493v236h598l75 174h264l-75 -174h313v-236z" />
    <glyph glyph-name="lessequal" unicode="&#x2264;" horiz-adv-x="1449" 
d="M1307 1075v-256l-799 -145l799 -146v-260l-1176 240v328zM131 0v231h1176v-231h-1176z" />
    <glyph glyph-name="greaterequal" unicode="&#x2265;" horiz-adv-x="1449" 
d="M143 1075l1176 -239v-328l-1176 -240v256l799 146l-799 145v260zM143 0v231h1176v-231h-1176z" />
    <glyph glyph-name="angleleft" unicode="&#x2329;" horiz-adv-x="868" 
d="M563 -174l-538 891l538 891h285l-533 -887l533 -895h-285z" />
    <glyph glyph-name="angleright" unicode="&#x232a;" horiz-adv-x="868" 
d="M305 1608l539 -891l-539 -891h-285l533 887l-533 895h285z" />
    <glyph glyph-name="uni2460" unicode="&#x2460;" horiz-adv-x="2148" 
d="M102 719q-2 134 45.5 257.5t137 221.5t209.5 171t270 112t311 37q161 2 310.5 -37t269.5 -112t209 -171t136.5 -221.5t45.5 -257.5q3 -167 -72.5 -316.5t-205.5 -256t-311 -168t-382 -58.5q-201 -3 -382.5 58.5t-312 168t-206 256t-72.5 316.5zM1849 719
q3 128 -58.5 244.5t-166.5 199.5t-249 130.5t-300 45.5q-210 3 -389.5 -78.5t-284.5 -225.5t-102 -316q-3 -172 102 -316.5t284.5 -226t389.5 -78.5q208 -3 387.5 78t285 226t101.5 317zM1001 322v550l-284 -182v230l317 210h183v-808h-216z" />
    <glyph glyph-name="uni2461" unicode="&#x2461;" horiz-adv-x="2148" 
d="M102 719q-2 134 45.5 257.5t137 221.5t209.5 171t270 112t311 37q161 2 310.5 -37t269.5 -112t209 -171t136.5 -221.5t45.5 -257.5q3 -167 -72.5 -316.5t-205.5 -256t-311 -168t-382 -58.5q-201 -3 -382.5 58.5t-312 168t-206 256t-72.5 316.5zM1849 719
q3 128 -58.5 244.5t-166.5 199.5t-249 130.5t-300 45.5q-210 3 -389.5 -78.5t-284.5 -225.5t-102 -316q-3 -172 102 -316.5t284.5 -226t389.5 -78.5q208 -3 387.5 78t285 226t101.5 317zM733 324v172l342 274q8 7 24 20t22 18t16 14.5t14 15t9 14.5t7.5 17.5t3.5 19.5
q0 33 -28.5 53.5t-77.5 20.5h-8q-44 0 -75.5 -26t-33.5 -63h-219q6 122 104 195.5t246 73.5q142 0 233 -73.5t91 -162.5q0 -74 -38.5 -126t-135.5 -130l-185 -145l357 2v-184h-668z" />
    <glyph glyph-name="uni2462" unicode="&#x2462;" horiz-adv-x="2148" 
d="M102 719q-2 134 45.5 257.5t137 221.5t209.5 171t270 112t311 37q161 2 310.5 -37t269.5 -112t209 -171t136.5 -221.5t45.5 -257.5q3 -167 -72.5 -316.5t-205.5 -256t-311 -168t-382 -58.5q-201 -3 -382.5 58.5t-312 168t-206 256t-72.5 316.5zM1849 719
q3 128 -58.5 244.5t-166.5 199.5t-249 130.5t-300 45.5q-210 3 -389.5 -78.5t-284.5 -225.5t-102 -316q-3 -172 102 -316.5t284.5 -226t389.5 -78.5q208 -3 387.5 78t285 226t101.5 317zM721 553h221q0 -26 35.5 -43.5t81.5 -17.5h10q55 0 88 22t33 57t-31.5 54.5
t-87.5 19.5h-106v172h106q113 0 113 74q0 33 -28.5 53.5t-80.5 20.5h-10q-41 0 -73 -16.5t-36 -41.5h-221q0 109 96.5 172.5t239.5 63.5q139 0 236.5 -64t97.5 -168q0 -135 -129 -178q135 -48 135 -190q0 -106 -102.5 -168t-247.5 -62q-144 0 -242 65t-98 175z" />
    <glyph glyph-name="uni2463" unicode="&#x2463;" horiz-adv-x="2148" 
d="M102 719q-2 134 45.5 257.5t137 221.5t209.5 171t270 112t311 37q161 2 310.5 -37t269.5 -112t209 -171t136.5 -221.5t45.5 -257.5q3 -167 -72.5 -316.5t-205.5 -256t-311 -168t-382 -58.5q-201 -3 -382.5 58.5t-312 168t-206 256t-72.5 316.5zM1849 719
q3 128 -58.5 244.5t-166.5 199.5t-249 130.5t-300 45.5q-210 3 -389.5 -78.5t-284.5 -225.5t-102 -316q-3 -172 102 -316.5t284.5 -226t389.5 -78.5q208 -3 387.5 78t285 226t101.5 317zM1075 322v127h-442v223l397 458h244v-509h129v-172h-129v-127h-199zM819 621h256v280z
" />
    <glyph glyph-name="uni2464" unicode="&#x2464;" horiz-adv-x="2148" 
d="M102 719q-2 134 45.5 257.5t137 221.5t209.5 171t270 112t311 37q161 2 310.5 -37t269.5 -112t209 -171t136.5 -221.5t45.5 -257.5q3 -167 -72.5 -316.5t-205.5 -256t-311 -168t-382 -58.5q-201 -3 -382.5 58.5t-312 168t-206 256t-72.5 316.5zM1849 719
q3 128 -58.5 244.5t-166.5 199.5t-249 130.5t-300 45.5q-210 3 -389.5 -78.5t-284.5 -225.5t-102 -316q-3 -172 102 -316.5t284.5 -226t389.5 -78.5q208 -3 387.5 78t285 226t101.5 317zM690 567h230q12 -33 46 -54t78 -21h9q56 0 91.5 28t35.5 70t-33 67t-90 25h-8
q-83 0 -109 -33h-221l90 481h577v-180h-417l-29 -137q36 25 73.5 36t96.5 11q117 0 202 -70t85 -190q0 -133 -98 -211t-261 -78q-143 0 -241 70.5t-107 185.5z" />
    <glyph glyph-name="uni2465" unicode="&#x2465;" horiz-adv-x="2148" 
d="M102 719q-2 134 45.5 257.5t137 221.5t209.5 171t270 112t311 37q161 2 310.5 -37t269.5 -112t209 -171t136.5 -221.5t45.5 -257.5q3 -167 -72.5 -316.5t-205.5 -256t-311 -168t-382 -58.5q-201 -3 -382.5 58.5t-312 168t-206 256t-72.5 316.5zM1849 719
q3 128 -58.5 244.5t-166.5 199.5t-249 130.5t-300 45.5q-210 3 -389.5 -78.5t-284.5 -225.5t-102 -316q-3 -172 102 -316.5t284.5 -226t389.5 -78.5q208 -3 387.5 78t285 226t101.5 317zM678 686q0 205 110.5 330t288.5 125q144 0 230.5 -68t95.5 -178h-213q-11 30 -40 48
t-71 18h-12q-73 0 -124 -57t-60 -138q73 82 211 82q127 0 212 -72t85 -182q0 -125 -95 -204t-247 -79q-169 0 -270 102t-101 273zM1038 492h9q56 0 91.5 26.5t35.5 67.5q0 38 -36 63t-91 25h-9q-51 0 -89 -26.5t-38 -63.5q0 -41 35.5 -66.5t91.5 -25.5z" />
    <glyph glyph-name="uni2466" unicode="&#x2466;" horiz-adv-x="2148" 
d="M102 719q-2 134 45.5 257.5t137 221.5t209.5 171t270 112t311 37q161 2 310.5 -37t269.5 -112t209 -171t136.5 -221.5t45.5 -257.5q3 -167 -72.5 -316.5t-205.5 -256t-311 -168t-382 -58.5q-201 -3 -382.5 58.5t-312 168t-206 256t-72.5 316.5zM1849 719
q3 128 -58.5 244.5t-166.5 199.5t-249 130.5t-300 45.5q-210 3 -389.5 -78.5t-284.5 -225.5t-102 -316q-3 -172 102 -316.5t284.5 -226t389.5 -78.5q208 -3 387.5 78t285 226t101.5 317zM872 322v26q0 191 62 321t233 277h-430v184h674v-159q-179 -149 -243 -281.5
t-64 -331.5v-36h-232z" />
    <glyph glyph-name="uni2467" unicode="&#x2467;" horiz-adv-x="2148" 
d="M102 719q-2 134 45.5 257.5t137 221.5t209.5 171t270 112t311 37q161 2 310.5 -37t269.5 -112t209 -171t136.5 -221.5t45.5 -257.5q3 -167 -72.5 -316.5t-205.5 -256t-311 -168t-382 -58.5q-201 -3 -382.5 58.5t-312 168t-206 256t-72.5 316.5zM1849 719
q3 128 -58.5 244.5t-166.5 199.5t-249 130.5t-300 45.5q-210 3 -389.5 -78.5t-284.5 -225.5t-102 -316q-3 -172 102 -316.5t284.5 -226t389.5 -78.5q208 -3 387.5 78t285 226t101.5 317zM737 532q0 67 42.5 117t119.5 70q-174 52 -174 201q0 94 102 157.5t246 63.5
t245 -63.5t101 -157.5q0 -148 -176 -201q78 -20 120 -69.5t42 -117.5q0 -96 -93 -158.5t-239 -62.5t-241 63t-95 158zM1067 809h10q57 0 91 20t34 56q0 35 -34.5 55.5t-90.5 20.5h-10q-57 0 -91 -20.5t-34 -55.5q0 -36 33.5 -56t91.5 -20zM1067 492h10q50 0 80.5 19.5
t30.5 51.5t-31 53t-80 21h-10q-51 0 -82 -20.5t-31 -53.5q0 -32 31 -51.5t82 -19.5z" />
    <glyph glyph-name="uni2468" unicode="&#x2468;" horiz-adv-x="2148" 
d="M102 719q-2 134 45.5 257.5t137 221.5t209.5 171t270 112t311 37q161 2 310.5 -37t269.5 -112t209 -171t136.5 -221.5t45.5 -257.5q3 -167 -72.5 -316.5t-205.5 -256t-311 -168t-382 -58.5q-201 -3 -382.5 58.5t-312 168t-206 256t-72.5 316.5zM1849 719
q3 128 -58.5 244.5t-166.5 199.5t-249 130.5t-300 45.5q-210 3 -389.5 -78.5t-284.5 -225.5t-102 -316q-3 -172 102 -316.5t284.5 -226t389.5 -78.5q208 -3 387.5 78t285 226t101.5 317zM721 557h213q23 -63 110 -63h13q73 0 124 56t60 138q-73 -82 -211 -82q-127 0 -212 72
t-85 182q0 121 95.5 202t246.5 81q170 0 270.5 -102t100.5 -273q0 -207 -110 -331t-289 -124q-145 0 -231 67t-95 177zM1077 780h8q52 0 89.5 26t37.5 64q0 39 -36 66t-91 27h-8q-55 0 -91 -28t-36 -67q0 -38 36 -63t91 -25z" />
    <glyph glyph-name="uni24EA" unicode="&#x24ea;" horiz-adv-x="2148" 
d="M102 719q-2 134 45.5 257.5t137 221.5t209.5 171t270 112t311 37q161 2 310.5 -37t269.5 -112t209 -171t136.5 -221.5t45.5 -257.5q3 -167 -72.5 -316.5t-205.5 -256t-311 -168t-382 -58.5q-201 -3 -382.5 58.5t-312 168t-206 256t-72.5 316.5zM1849 719
q3 128 -58.5 244.5t-166.5 199.5t-249 130.5t-300 45.5q-210 3 -389.5 -78.5t-284.5 -225.5t-102 -316q-3 -172 102 -316.5t284.5 -226t389.5 -78.5q208 -3 387.5 78t285 226t101.5 317zM686 725q0 83 23.5 156.5t69.5 132.5t122 93t172 34t171.5 -34t121.5 -93t70 -132.5
t24 -156.5q0 -85 -24 -158.5t-70 -131t-121.5 -91t-171.5 -33.5q-97 0 -172.5 33.5t-121.5 91t-69.5 131t-23.5 158.5zM1069 500h8q78 0 120 58t42 167t-42 168t-120 59h-8q-79 0 -120.5 -59t-41.5 -168t41.5 -167t120.5 -58z" />
    <glyph glyph-name="uni24FF" unicode="&#x24ff;" horiz-adv-x="2121" 
d="M2046 719q3 -167 -72.5 -316.5t-205.5 -256t-311 -168t-382 -58.5q-201 -3 -382.5 58.5t-312 168t-206 256t-72.5 316.5q-2 134 45.5 257.5t137 221.5t209.5 171t270 112t311 37q161 2 310.5 -37t269.5 -112t209 -171t136.5 -221.5t45.5 -257.5zM688 725q0 -83 23.5 -156
t69.5 -131t121.5 -91.5t172.5 -33.5q96 0 171.5 33.5t121.5 91.5t70 131t24 156t-24 157t-70 133t-121.5 93.5t-171.5 34.5t-172 -34.5t-122 -93.5t-69.5 -133t-23.5 -157zM1079 502h-8q-79 0 -120.5 58t-41.5 165q0 111 41.5 170t120.5 59h8q78 0 120 -59.5t42 -169.5
q0 -106 -42 -164.5t-120 -58.5z" />
    <glyph glyph-name="triagup" unicode="&#x25b2;" horiz-adv-x="1720" 
d="M31 0l829 1475l830 -1475h-1659z" />
    <glyph glyph-name="lozenge" unicode="&#x25ca;" horiz-adv-x="1513" 
d="M635 0l-563 717l563 717h254l553 -717l-553 -717h-254zM762 248l368 461l-374 479l-371 -469z" />
    <glyph glyph-name="uni2776" unicode="&#x2776;" horiz-adv-x="2121" 
d="M2046 719q3 -167 -72.5 -316.5t-205.5 -256t-311 -168t-382 -58.5q-201 -3 -382.5 58.5t-312 168t-206 256t-72.5 316.5q-2 134 45.5 257.5t137 221.5t209.5 171t270 112t311 37q161 2 310.5 -37t269.5 -112t209 -171t136.5 -221.5t45.5 -257.5zM1004 874v-550h215v809
h-183l-317 -211v-230z" />
    <glyph glyph-name="uni2777" unicode="&#x2777;" horiz-adv-x="2121" 
d="M2046 719q3 -167 -72.5 -316.5t-205.5 -256t-311 -168t-382 -58.5q-201 -3 -382.5 58.5t-312 168t-206 256t-72.5 316.5q-2 134 45.5 257.5t137 221.5t209.5 171t270 112t311 37q161 2 310.5 -37t269.5 -112t209 -171t136.5 -221.5t45.5 -257.5zM735 498v-172h668v184
l-356 -2l184 145q97 78 135.5 130t38.5 126q0 89 -91 162.5t-233 73.5q-148 0 -246 -73.5t-104 -194.5h219q2 37 33.5 62.5t75.5 25.5h8q49 0 78 -20.5t29 -53.5q-1 -13 -5.5 -23.5t-8 -17.5t-14.5 -18t-16.5 -16t-24.5 -21t-28 -23z" />
    <glyph glyph-name="uni2778" unicode="&#x2778;" horiz-adv-x="2121" 
d="M2046 719q3 -167 -72.5 -316.5t-205.5 -256t-311 -168t-382 -58.5q-201 -3 -382.5 58.5t-312 168t-206 256t-72.5 316.5q-2 134 45.5 257.5t137 221.5t209.5 171t270 112t311 37q161 2 310.5 -37t269.5 -112t209 -171t136.5 -221.5t45.5 -257.5zM723 555q0 -110 98 -175
t242 -65q145 0 247.5 62t102.5 168q0 142 -135 190q129 43 129 178q0 104 -97.5 168t-236.5 64q-143 0 -239.5 -63.5t-96.5 -172.5h221q5 25 35.5 41.5t73.5 16.5h10q52 0 80.5 -20.5t28.5 -53.5q0 -74 -113 -74h-106v-172h106q56 0 87.5 -19.5t31.5 -54.5t-33 -57t-88 -22
h-10q-46 0 -81.5 17.5t-35.5 43.5h-221z" />
    <glyph glyph-name="uni2779" unicode="&#x2779;" horiz-adv-x="2121" 
d="M2046 719q3 -167 -72.5 -316.5t-205.5 -256t-311 -168t-382 -58.5q-201 -3 -382.5 58.5t-312 168t-206 256t-72.5 316.5q-2 134 45.5 257.5t137 221.5t209.5 171t270 112t311 37q161 2 310.5 -37t269.5 -112t209 -171t136.5 -221.5t45.5 -257.5zM1077 451v-127h199v127
h129v172h-129v510h-244l-397 -459v-223h442zM1077 623h-256l256 280v-280z" />
    <glyph glyph-name="uni277A" unicode="&#x277a;" horiz-adv-x="2121" 
d="M2046 719q3 -167 -72.5 -316.5t-205.5 -256t-311 -168t-382 -58.5q-201 -3 -382.5 58.5t-312 168t-206 256t-72.5 316.5q-2 134 45.5 257.5t137 221.5t209.5 171t270 112t311 37q161 2 310.5 -37t269.5 -112t209 -171t136.5 -221.5t45.5 -257.5zM692 569
q9 -115 107 -185.5t241 -70.5q163 0 261 78t98 211q0 120 -85 190t-202 70q-59 0 -96.5 -11t-73.5 -36l29 137h418v181h-578l-90 -482h221q26 33 109 33h8q57 0 90 -25t33 -67t-36 -70t-91 -28h-8q-44 0 -78.5 21t-46.5 54h-230z" />
    <glyph glyph-name="uni277B" unicode="&#x277b;" horiz-adv-x="2121" 
d="M2046 719q3 -167 -72.5 -316.5t-205.5 -256t-311 -168t-382 -58.5q-201 -3 -382.5 58.5t-312 168t-206 256t-72.5 316.5q-2 134 45.5 257.5t137 221.5t209.5 171t270 112t311 37q161 2 310.5 -37t269.5 -112t209 -171t136.5 -221.5t45.5 -257.5zM680 688
q0 -172 100.5 -273.5t270.5 -101.5q152 0 247 79t95 204q0 110 -85 182t-212 72q-138 0 -211 -82q9 81 60 138t124 57h12q42 0 71 -18t40 -48h213q-9 110 -95.5 178t-230.5 68q-178 0 -288.5 -125t-110.5 -330zM1049 494h-9q-56 0 -91.5 25.5t-35.5 66.5q0 37 38 63.5
t89 26.5h9q55 0 91 -25t36 -63q0 -41 -35.5 -67.5t-91.5 -26.5z" />
    <glyph glyph-name="uni277C" unicode="&#x277c;" horiz-adv-x="2121" 
d="M2046 719q3 -167 -72.5 -316.5t-205.5 -256t-311 -168t-382 -58.5q-201 -3 -382.5 58.5t-312 168t-206 256t-72.5 316.5q-2 134 45.5 257.5t137 221.5t209.5 171t270 112t311 37q161 2 310.5 -37t269.5 -112t209 -171t136.5 -221.5t45.5 -257.5zM874 350v-26h232v36
q0 199 64 331.5t243 281.5v160h-674v-185h430q-171 -147 -233 -277t-62 -321z" />
    <glyph glyph-name="uni277D" unicode="&#x277d;" horiz-adv-x="2121" 
d="M2046 719q3 -167 -72.5 -316.5t-205.5 -256t-311 -168t-382 -58.5q-201 -3 -382.5 58.5t-312 168t-206 256t-72.5 316.5q-2 134 45.5 257.5t137 221.5t209.5 171t270 112t311 37q161 2 310.5 -37t269.5 -112t209 -171t136.5 -221.5t45.5 -257.5zM739 535q0 -97 95 -159.5
t241 -62.5t239 62.5t93 159.5q0 68 -42 117t-120 69q176 53 176 201q0 94 -101 157.5t-245 63.5t-246 -63.5t-102 -157.5q0 -149 174 -201q-77 -20 -119.5 -69.5t-42.5 -116.5zM1079 811h-10q-58 0 -91.5 20t-33.5 56q0 35 34 55.5t91 20.5h10q56 0 90.5 -20.5t34.5 -55.5
q0 -36 -34 -56t-91 -20zM1079 494h-10q-51 0 -82 19.5t-31 51.5q0 33 31 53.5t82 20.5h10q49 0 80 -21t31 -53t-30.5 -51.5t-80.5 -19.5z" />
    <glyph glyph-name="uni277E" unicode="&#x277e;" horiz-adv-x="2121" 
d="M2046 719q3 -167 -72.5 -316.5t-205.5 -256t-311 -168t-382 -58.5q-201 -3 -382.5 58.5t-312 168t-206 256t-72.5 316.5q-2 134 45.5 257.5t137 221.5t209.5 171t270 112t311 37q161 2 310.5 -37t269.5 -112t209 -171t136.5 -221.5t45.5 -257.5zM723 559q9 -110 95 -177
t231 -67q178 0 288.5 123.5t110.5 329.5q0 172 -100.5 274.5t-270.5 102.5q-151 0 -246.5 -81t-95.5 -202q0 -110 85 -182t212 -72q138 0 211 82q-9 -82 -60 -138t-124 -56h-12q-88 0 -111 63h-213zM1087 782h-8q-55 0 -91 25t-36 63q0 39 36 67t91 28h8q55 0 91 -27t36 -66
q0 -38 -37.5 -64t-89.5 -26z" />
    <glyph glyph-name="uni300A" unicode="&#x300a;" horiz-adv-x="1318" 
d="M543 -174l-518 891l518 891h282l-512 -887l512 -895h-282zM1014 -174l-518 891l518 891h282l-512 -887l512 -895h-282z" />
    <glyph glyph-name="uni300B" unicode="&#x300b;" horiz-adv-x="1318" 
d="M776 1608l518 -891l-518 -891h-282l512 887l-512 895h282zM305 1608l518 -891l-518 -891h-282l512 887l-512 895h282z" />
    <glyph glyph-name="uni300C" unicode="&#x300c;" horiz-adv-x="761" 
d="M133 791v940h588v-220h-315v-720h-273z" />
    <glyph glyph-name="uni300D" unicode="&#x300d;" horiz-adv-x="802" 
d="M676 643v-940h-588v219h315v721h273z" />
    <glyph glyph-name="uni300E" unicode="&#x300e;" horiz-adv-x="993" 
d="M123 623v1108h829v-412h-352v-696h-477zM297 772h129v696h352v113h-481v-809z" />
    <glyph glyph-name="uni300F" unicode="&#x300f;" horiz-adv-x="1034" 
d="M897 811v-1108h-829v412h352v696h477zM723 662h-129v-697h-352v-112h481v809z" />
    <glyph glyph-name="uni3010" unicode="&#x3010;" horiz-adv-x="894" 
d="M176 -297v2028h725q-224 -207 -339.5 -469.5t-115.5 -542.5q0 -278 115.5 -541.5t339.5 -474.5h-725z" />
    <glyph glyph-name="uni3011" unicode="&#x3011;" horiz-adv-x="894" 
d="M719 1733v-2028h-725q224 207 339.5 469.5t115.5 542.5q0 278 -115.5 541.5t-339.5 474.5h725z" />
    <glyph glyph-name="uni3014" unicode="&#x3014;" horiz-adv-x="811" 
d="M487 -297l-352 328v1372l352 328h330l-411 -392v-1245l411 -391h-330z" />
    <glyph glyph-name="uni3015" unicode="&#x3015;" horiz-adv-x="811" 
d="M324 1733l352 -328v-1372l-352 -328h-330l412 391v1245l-412 392h330z" />
    <glyph glyph-name="uniE000" unicode="&#xe000;" horiz-adv-x="1105" 
d="M143 307v819h820v-819h-820zM297 461h512v512h-512v-512z" />
    <glyph glyph-name="uniE001" unicode="&#xe001;" horiz-adv-x="1413" 
d="M143 154v1126h1127v-1126h-1127zM297 307h819v819h-819v-819z" />
    <glyph glyph-name="uniE002" unicode="&#xe002;" horiz-adv-x="1802" 
d="M184 0v1434h1434v-1434h-1434zM338 154h1126v1126h-1126v-1126z" />
    <glyph glyph-name="uniE003" unicode="&#xe003;" horiz-adv-x="1105" 
d="M143 307v819h820v-819h-820zM297 461h512v512h-512v-512zM451 614v205h204v-205h-204z" />
    <glyph glyph-name="uniE004" unicode="&#xe004;" horiz-adv-x="1413" 
d="M143 154v1126h1127v-1126h-1127zM297 307h819v819h-819v-819zM451 461v512h512v-512h-512zM604 614h205v205h-205v-205z" />
    <glyph glyph-name="uniE005" unicode="&#xe005;" horiz-adv-x="1802" 
d="M184 0v1434h1434v-1434h-1434zM338 154h1126v1126h-1126v-1126zM492 307v819h819v-819h-819zM645 461h512v512h-512v-512zM799 614v205h205v-205h-205z" />
    <glyph glyph-name="uniE006" unicode="&#xe006;" horiz-adv-x="1105" 
d="M143 307v819h820v-819h-820z" />
    <glyph glyph-name="uniE007" unicode="&#xe007;" horiz-adv-x="1413" 
d="M143 154v1126h1127v-1126h-1127z" />
    <glyph glyph-name="uniE008" unicode="&#xe008;" horiz-adv-x="1802" 
d="M184 0v1434h1434v-1434h-1434z" />
    <glyph glyph-name="uniE00A" unicode="&#xe00a;" horiz-adv-x="888" 
d="M211 -41q0 105 74 184q-166 36 -166 224v700q0 197 166 233q-74 77 -74 175q0 116 83 186t204 70h321v-215h-244q-41 0 -67.5 -21t-26.5 -53v-17q0 -32 26.5 -52.5t67.5 -20.5h91v-215h-150q-127 0 -127 -119v-602q0 -119 127 -119h150v-215h-93q-41 0 -66.5 -21
t-25.5 -53v-16q0 -32 25.5 -53t66.5 -21h246v-215h-317q-122 0 -206.5 70t-84.5 186z" />
    <glyph glyph-name="uniE00B" unicode="&#xe00b;" horiz-adv-x="888" 
d="M678 1475q0 -106 -74 -185q166 -36 166 -223v-700q0 -198 -166 -234q74 -77 74 -174q0 -116 -83 -186t-204 -70h-321v215h243q41 0 68 21t27 53v16q0 32 -27 53t-68 21h-90v215h150q127 0 127 119v602q0 119 -127 119h-150v215h92q41 0 67 20.5t26 52.5v17q0 32 -26 53
t-67 21h-245v215h317q122 0 206.5 -70t84.5 -186z" />
    <glyph glyph-name="uniE010" unicode="&#xe010;" horiz-adv-x="1187" 
d="M102 717q0 132 66.5 245t180 179.5t245.5 66.5t245 -66.5t179.5 -179.5t66.5 -245t-66.5 -245.5t-179.5 -180t-245 -66.5q-99 0 -190 39.5t-157 105.5t-105.5 157t-39.5 190zM932 717q0 139 -100 238.5t-238 99.5t-238 -99.5t-100 -238.5t99 -238.5t239 -99.5t239 99.5
t99 238.5z" />
    <glyph glyph-name="uniE011" unicode="&#xe011;" horiz-adv-x="1495" 
d="M102 717q-3 127 49.5 247.5t140.5 208.5t208.5 140t247.5 49q127 3 247.5 -49t208.5 -140t140 -208.5t49 -247.5q3 -127 -49 -247.5t-140 -208.5t-208.5 -140t-247.5 -49q-127 -3 -247.5 49t-208.5 140t-140.5 208.5t-49.5 247.5zM1239 717q0 132 -66.5 245t-179.5 179.5
t-245 66.5t-245.5 -66.5t-180 -179.5t-66.5 -245q0 -99 39.5 -190t105.5 -157t157 -105.5t190 -39.5q132 0 245 66.5t179.5 180t66.5 245.5z" />
    <glyph glyph-name="uniE012" unicode="&#xe012;" horiz-adv-x="1802" 
d="M102 717q-4 158 61 307t174 257.5t258 173t306 61.5q157 3 306 -61.5t258 -173t174 -257.5t61 -307q4 -157 -61 -306t-174 -258t-258 -174t-306 -61q-157 -4 -306 61t-258 174t-174 258t-61 306zM1546 717q3 127 -49 247.5t-140 208.5t-208.5 140t-247.5 49
q-127 3 -247.5 -49t-208.5 -140t-140 -208.5t-49 -247.5q-3 -127 49 -247.5t140 -208.5t208.5 -140t247.5 -49q127 -3 247.5 49t208.5 140t140 208.5t49 247.5z" />
    <glyph glyph-name="uniE013" unicode="&#xe013;" horiz-adv-x="1187" 
d="M102 717q0 132 66.5 245t180 179.5t245.5 66.5t245 -66.5t179.5 -179.5t66.5 -245t-66.5 -245.5t-179.5 -180t-245 -66.5q-99 0 -190 39.5t-157 105.5t-105.5 157t-39.5 190zM932 717q0 139 -100 238.5t-238 99.5t-238 -99.5t-100 -238.5t99 -238.5t239 -99.5t239 99.5
t99 238.5zM410 717q0 76 55 130t129 54q75 0 129.5 -54t54.5 -130q0 -75 -54.5 -130t-129.5 -55q-74 0 -129 55t-55 130z" />
    <glyph glyph-name="uniE014" unicode="&#xe014;" horiz-adv-x="1495" 
d="M102 717q-3 127 49.5 247.5t140.5 208.5t208.5 140t247.5 49q127 3 247.5 -49t208.5 -140t140 -208.5t49 -247.5q3 -127 -49 -247.5t-140 -208.5t-208.5 -140t-247.5 -49q-127 -3 -247.5 49t-208.5 140t-140.5 208.5t-49.5 247.5zM1239 717q0 132 -66.5 245t-179.5 179.5
t-245 66.5t-245.5 -66.5t-180 -179.5t-66.5 -245q0 -99 39.5 -190t105.5 -157t157 -105.5t190 -39.5q132 0 245 66.5t179.5 180t66.5 245.5zM410 717q0 139 100 238.5t238 99.5t237.5 -99.5t99.5 -238.5t-99.5 -238.5t-237.5 -99.5t-238 99.5t-100 238.5zM932 717
q0 77 -54 130.5t-130 53.5q-75 0 -130 -54t-55 -130q0 -75 55 -130t130 -55q76 0 130 55t54 130z" />
    <glyph glyph-name="uniE015" unicode="&#xe015;" horiz-adv-x="1802" 
d="M102 717q-4 158 61 307t174 257.5t258 173t306 61.5q157 3 306 -61.5t258 -173t174 -257.5t61 -307q4 -157 -61 -306t-174 -258t-258 -174t-306 -61q-157 -4 -306 61t-258 174t-174 258t-61 306zM1546 717q3 127 -49 247.5t-140 208.5t-208.5 140t-247.5 49
q-127 3 -247.5 -49t-208.5 -140t-140 -208.5t-49 -247.5q-3 -127 49 -247.5t140 -208.5t208.5 -140t247.5 -49q127 -3 247.5 49t208.5 140t140 208.5t49 247.5zM410 717q0 132 66.5 245t179.5 179.5t245 66.5t245.5 -66.5t180 -179.5t66.5 -245q0 -99 -39.5 -190
t-105.5 -157t-157 -105.5t-190 -39.5q-132 0 -245 66.5t-179.5 180t-66.5 245.5zM1239 717q0 139 -100 238.5t-238 99.5t-238 -99.5t-100 -238.5t99.5 -238.5t238.5 -99.5t238.5 99.5t99.5 238.5zM717 717q0 76 55 130t129 54q77 0 130.5 -53.5t53.5 -130.5q0 -75 -54 -130
t-130 -55q-74 0 -129 55t-55 130z" />
    <glyph glyph-name="uniE016" unicode="&#xe016;" horiz-adv-x="1310" 
d="M164 717q0 132 66.5 245t179.5 179.5t245 66.5t245.5 -66.5t180 -179.5t66.5 -245q0 -99 -39.5 -190t-105.5 -157t-157 -105.5t-190 -39.5q-132 0 -245 66.5t-179.5 180t-66.5 245.5z" />
    <glyph glyph-name="uniE017" unicode="&#xe017;" horiz-adv-x="1433" 
d="M102 717q-3 121 46.5 235.5t133.5 198t199 133t236 47.5q121 2 235.5 -47.5t198 -133t133 -198t47.5 -235.5q2 -121 -47.5 -236t-133 -199t-198 -133.5t-235.5 -46.5q-121 -3 -236 46.5t-199 133.5t-133.5 199t-46.5 236z" />
    <glyph glyph-name="uniE018" unicode="&#xe018;" horiz-adv-x="1679" 
d="M102 717q-3 145 56.5 282.5t160 238t238 160t283.5 56.5q97 2 192 -24.5t176.5 -75t151 -118t118 -151t75 -176.5t24.5 -192q2 -117 -35.5 -229.5t-107 -204t-161.5 -161.5t-204.5 -107t-228.5 -35q-146 -3 -283.5 56.5t-238 159.5t-160 237.5t-56.5 283.5z" />
    <glyph glyph-name="uniF8FF" unicode="&#xf8ff;" horiz-adv-x="1961" 
d="M1942 1448q56 0 108 -13t76 -32q0 -49 -8 -57q-15 -15 -64 -15q-43 0 -67 8q3 -90 -37.5 -155.5t-120.5 -57.5q-34 -109 -135 -155q-101 -43 -217 -43q-36 0 -56 2q0 -3 35 -119q34 -112 55 -279l29 -32q87 -100 137 -144q42 -37 76.5 -82t46.5 -77q4 -12 4 -23
q0 -28 -39 -37q-40 23 -73 54t-93 98q-65 74 -96 102v-29q0 -83 31 -212q19 -82 22 -115q-28 -25 -59 -25q-24 0 -27 19q-27 47 -42 128.5t-29 221.5q-3 54 -8 70q-21 3 -177 -13q-192 -19 -315 -35q-154 -20 -252 -43q-3 -63 22.5 -112t84.5 -121q36 -49 52.5 -72.5
t32.5 -55t25 -63.5q-18 -22 -43 -22q-18 0 -33 12q-21 11 -39.5 33t-62.5 84l-37 53q-34 50 -51 92q-21 50 -35 58q-99 -294 -129 -291h-16q-48 0 -45 41q3 54 39 164q40 115 88 196l-82 8q-120 9 -194.5 25.5t-121.5 54.5q-8 8 -20 29q25 26 74 59q3 1 6.5 3.5t8.5 6t9 5.5
q17 24 36 41t67 53q46 35 69.5 56t42.5 50q-18 15 -59 33q-64 33 -93.5 54.5t-39.5 48.5l18 39q14 14 187 -70q1 4 1.5 11t1 19t1.5 21q3 71 16 94q3 10 34 18.5t42 8.5q7 -4 14.5 -14.5t7.5 -16.5q3 -16 -10 -71q0 -5 -5 -41.5t-5 -55.5v-18q75 8 223 59q146 48 283 84
q140 36 315 56q-41 71 -41 157q0 74 35 115q130 3 201 -47t71 -129q0 -34 -12 -68q41 1 84 27t49 51q-16 16 -55 39q-28 15 -42.5 29t-21.5 39q-32 35 -32 79q0 35 23.5 65.5t64.5 47.5q38 10 57 10q62 0 100.5 -48t38.5 -124q0 -23 -2 -37q49 24 49 170q0 37 -2 64
q32 4 50 4zM1757 1239q0 33 -20.5 60.5t-55.5 37.5q-12 -18 -12 -41q0 -32 25.5 -59.5t56.5 -32.5q6 15 6 35zM1513 1112q-57 57 -116 57q-8 -21 -8 -51q0 -54 24 -78q6 -6 21 -6q20 0 51 8q0 -2 7 4.5t14 24t7 41.5zM872 494q357 57 527 57q-5 38 -23 94q-3 8 -7.5 29.5
t-8.5 34.5q-8 50 -10 77q-5 40 -12 61.5t-25 43.5q-122 -10 -252 -35q-94 -18 -182 -47q-61 -18 -164 -57q-93 -37 -152 -52q26 -102 47 -202l8 -39q46 5 254 35zM473 461q23 0 37 2q-27 83 -27 84q-20 78 -32 102l-62 -53q-5 -5 -20 -18.5t-19.5 -17.5t-15.5 -14.5
t-15.5 -16t-12 -14t-13 -16t-10.5 -16.5q146 -22 190 -22z" />
    <glyph glyph-name="NULL" horiz-adv-x="1228" 
 />
    <glyph glyph-name="G.ss02" horiz-adv-x="1757" 
d="M94 717q-2 158 56 295t163.5 235t259 153t334.5 54q328 0 520 -141.5t207 -370.5h-297q-17 125 -123.5 193.5t-289.5 68.5h-33q-228 0 -370 -131.5t-142 -355.5q0 -228 146.5 -358t396.5 -130h18q207 0 314.5 73.5t107.5 193.5v6h-442v250h727v-230q0 -259 -189 -400.5
t-528 -141.5q-253 0 -443.5 94.5t-291.5 261.5t-101 381z" />
    <glyph glyph-name="Gbreve.ss02" horiz-adv-x="1757" 
d="M94 717q-2 158 56 295t163.5 235t259 153t334.5 54q328 0 520 -141.5t207 -370.5h-297q-17 125 -123.5 193.5t-289.5 68.5h-33q-228 0 -370 -131.5t-142 -355.5q0 -228 146.5 -358t396.5 -130h18q207 0 314.5 73.5t107.5 193.5v6h-442v250h727v-230q0 -259 -189 -400.5
t-528 -141.5q-253 0 -443.5 94.5t-291.5 261.5t-101 381zM551 1833h225q7 -54 48.5 -83.5t105.5 -29.5t105 29t48 84h226q-3 -139 -106.5 -223t-272.5 -84t-272.5 84t-106.5 223z" />
    <glyph glyph-name="Gcircumflex.ss02" horiz-adv-x="1757" 
d="M94 717q-2 158 56 295t163.5 235t259 153t334.5 54q328 0 520 -141.5t207 -370.5h-297q-17 125 -123.5 193.5t-289.5 68.5h-33q-228 0 -370 -131.5t-142 -355.5q0 -228 146.5 -358t396.5 -130h18q207 0 314.5 73.5t107.5 193.5v6h-442v250h727v-230q0 -259 -189 -400.5
t-528 -141.5q-253 0 -443.5 94.5t-291.5 261.5t-101 381zM516 1526l266 297h295l266 -297h-229l-184 123l-185 -123h-229z" />
    <glyph glyph-name="uni0122.ss02" horiz-adv-x="1757" 
d="M94 717q-2 158 56 295t163.5 235t259 153t334.5 54q328 0 520 -141.5t207 -370.5h-297q-17 125 -123.5 193.5t-289.5 68.5h-33q-228 0 -370 -131.5t-142 -355.5q0 -228 146.5 -358t396.5 -130h18q207 0 314.5 73.5t107.5 193.5v6h-442v250h727v-230q0 -259 -189 -400.5
t-528 -141.5q-253 0 -443.5 94.5t-291.5 261.5t-101 381zM735 -633v154h68q106 0 106 80v2h-123v270h287v-270q0 -103 -72.5 -169.5t-187.5 -66.5h-78z" />
    <glyph glyph-name="Gdotaccent.ss02" horiz-adv-x="1757" 
d="M94 717q-2 158 56 295t163.5 235t259 153t334.5 54q328 0 520 -141.5t207 -370.5h-297q-17 125 -123.5 193.5t-289.5 68.5h-33q-228 0 -370 -131.5t-142 -355.5q0 -228 146.5 -358t396.5 -130h18q207 0 314.5 73.5t107.5 193.5v6h-442v250h727v-230q0 -259 -189 -400.5
t-528 -141.5q-253 0 -443.5 94.5t-291.5 261.5t-101 381zM782 1554v285h293v-285h-293z" />
    <glyph glyph-name="R.ss02" horiz-adv-x="1656" 
d="M182 0v1434h826q211 0 345 -110.5t134 -279.5q0 -140 -79.5 -237.5t-188.5 -124.5q38 -3 62 -7t45.5 -15t33.5 -21t26.5 -36.5t24 -50t27.5 -71.5l168 -481h-297l-146 424q-19 39 -28.5 54.5t-27.5 30.5t-41 18t-65 3h-536v-530h-283zM465 780h512q104 0 164.5 57.5
t60.5 155.5q0 85 -60.5 138t-164.5 53h-512v-404z" />
    <glyph glyph-name="Racute.ss02" horiz-adv-x="1656" 
d="M182 0v1434h826q211 0 345 -110.5t134 -279.5q0 -140 -79.5 -237.5t-188.5 -124.5q38 -3 62 -7t45.5 -15t33.5 -21t26.5 -36.5t24 -50t27.5 -71.5l168 -481h-297l-146 424q-19 39 -28.5 54.5t-27.5 30.5t-41 18t-65 3h-536v-530h-283zM465 780h512q104 0 164.5 57.5
t60.5 155.5q0 85 -60.5 138t-164.5 53h-512v-404zM719 1526l102 297h322l-236 -297h-188z" />
    <glyph glyph-name="Rcaron.ss02" horiz-adv-x="1656" 
d="M182 0v1434h826q211 0 345 -110.5t134 -279.5q0 -140 -79.5 -237.5t-188.5 -124.5q38 -3 62 -7t45.5 -15t33.5 -21t26.5 -36.5t24 -50t27.5 -71.5l168 -481h-297l-146 424q-19 39 -28.5 54.5t-27.5 30.5t-41 18t-65 3h-536v-530h-283zM465 780h512q104 0 164.5 57.5
t60.5 155.5q0 85 -60.5 138t-164.5 53h-512v-404zM664 1526l-267 297h230l184 -123l184 123h230l-267 -297h-294z" />
    <glyph glyph-name="uni0156.ss02" horiz-adv-x="1656" 
d="M182 0v1434h826q211 0 345 -110.5t134 -279.5q0 -140 -79.5 -237.5t-188.5 -124.5q38 -3 62 -7t45.5 -15t33.5 -21t26.5 -36.5t24 -50t27.5 -71.5l168 -481h-297l-146 424q-19 39 -28.5 54.5t-27.5 30.5t-41 18t-65 3h-536v-530h-283zM465 780h512q104 0 164.5 57.5
t60.5 155.5q0 85 -60.5 138t-164.5 53h-512v-404zM694 -633v154h68q106 0 106 80v2h-123v270h287v-270q0 -103 -72.5 -169.5t-187.5 -66.5h-78z" />
    <glyph glyph-name="i.locl" horiz-adv-x="563" 
d="M145 0v1024h273v-1024h-273zM135 1149v285h293v-285h-293z" />
    <glyph glyph-name="a.salt" horiz-adv-x="1419" 
d="M84 512q0 125 41 227t113 168t168.5 101.5t209.5 35.5q132 0 230.5 -41.5t154.5 -113.5v135h273v-1024h-273v129q-56 -70 -155 -109.5t-225 -39.5q-151 0 -272.5 64t-193 186.5t-71.5 281.5zM657 199h29q139 0 227 83.5t88 229.5t-88 229.5t-227 83.5h-29
q-135 0 -217 -83t-82 -230t82 -230t217 -83z" />
    <glyph glyph-name="aacute.salt" horiz-adv-x="1419" 
d="M84 512q0 125 41 227t113 168t168.5 101.5t209.5 35.5q132 0 230.5 -41.5t154.5 -113.5v135h273v-1024h-273v129q-56 -70 -155 -109.5t-225 -39.5q-151 0 -272.5 64t-193 186.5t-71.5 281.5zM657 199h29q139 0 227 83.5t88 229.5t-88 229.5t-227 83.5h-29
q-135 0 -217 -83t-82 -230t82 -230t217 -83zM588 1128l133 308h311l-246 -308h-198z" />
    <glyph glyph-name="abreve.salt" horiz-adv-x="1419" 
d="M84 512q0 125 41 227t113 168t168.5 101.5t209.5 35.5q132 0 230.5 -41.5t154.5 -113.5v135h273v-1024h-273v129q-56 -70 -155 -109.5t-225 -39.5q-151 0 -272.5 64t-193 186.5t-71.5 281.5zM657 199h29q139 0 227 83.5t88 229.5t-88 229.5t-227 83.5h-29
q-135 0 -217 -83t-82 -230t82 -230t217 -83zM299 1448h229q9 -121 158 -121t158 121h229q-3 -148 -109.5 -234t-277.5 -86t-277.5 86t-109.5 234z" />
    <glyph glyph-name="acircumflex.salt" horiz-adv-x="1419" 
d="M84 512q0 125 41 227t113 168t168.5 101.5t209.5 35.5q132 0 230.5 -41.5t154.5 -113.5v135h273v-1024h-273v129q-56 -70 -155 -109.5t-225 -39.5q-151 0 -272.5 64t-193 186.5t-71.5 281.5zM657 199h29q139 0 227 83.5t88 229.5t-88 229.5t-227 83.5h-29
q-135 0 -217 -83t-82 -230t82 -230t217 -83zM240 1128l317 308h256l320 -308h-230l-215 144l-219 -144h-229z" />
    <glyph glyph-name="adieresis.salt" horiz-adv-x="1419" 
d="M84 512q0 125 41 227t113 168t168.5 101.5t209.5 35.5q132 0 230.5 -41.5t154.5 -113.5v135h273v-1024h-273v129q-56 -70 -155 -109.5t-225 -39.5q-151 0 -272.5 64t-193 186.5t-71.5 281.5zM657 199h29q139 0 227 83.5t88 229.5t-88 229.5t-227 83.5h-29
q-135 0 -217 -83t-82 -230t82 -230t217 -83zM317 1155v268h271v-268h-271zM782 1155v268h271v-268h-271z" />
    <glyph glyph-name="uni0227.salt" horiz-adv-x="1419" 
d="M84 512q0 125 41 227t113 168t168.5 101.5t209.5 35.5q132 0 230.5 -41.5t154.5 -113.5v135h273v-1024h-273v129q-56 -70 -155 -109.5t-225 -39.5q-151 0 -272.5 64t-193 186.5t-71.5 281.5zM657 199h29q139 0 227 83.5t88 229.5t-88 229.5t-227 83.5h-29
q-135 0 -217 -83t-82 -230t82 -230t217 -83zM539 1149v285h292v-285h-292z" />
    <glyph glyph-name="uni1EA1.salt" horiz-adv-x="1419" 
d="M84 512q0 125 41 227t113 168t168.5 101.5t209.5 35.5q132 0 230.5 -41.5t154.5 -113.5v135h273v-1024h-273v129q-56 -70 -155 -109.5t-225 -39.5q-151 0 -272.5 64t-193 186.5t-71.5 281.5zM657 199h29q139 0 227 83.5t88 229.5t-88 229.5t-227 83.5h-29
q-135 0 -217 -83t-82 -230t82 -230t217 -83zM537 -399v266h299v-266h-299z" />
    <glyph glyph-name="agrave.salt" horiz-adv-x="1419" 
d="M84 512q0 125 41 227t113 168t168.5 101.5t209.5 35.5q132 0 230.5 -41.5t154.5 -113.5v135h273v-1024h-273v129q-56 -70 -155 -109.5t-225 -39.5q-151 0 -272.5 64t-193 186.5t-71.5 281.5zM657 199h29q139 0 227 83.5t88 229.5t-88 229.5t-227 83.5h-29
q-135 0 -217 -83t-82 -230t82 -230t217 -83zM592 1128l-246 308h311l134 -308h-199z" />
    <glyph glyph-name="amacron.salt" horiz-adv-x="1419" 
d="M84 512q0 125 41 227t113 168t168.5 101.5t209.5 35.5q132 0 230.5 -41.5t154.5 -113.5v135h273v-1024h-273v129q-56 -70 -155 -109.5t-225 -39.5q-151 0 -272.5 64t-193 186.5t-71.5 281.5zM657 199h29q139 0 227 83.5t88 229.5t-88 229.5t-227 83.5h-29
q-135 0 -217 -83t-82 -230t82 -230t217 -83zM322 1157v215h727v-215h-727z" />
    <glyph glyph-name="aogonek.salt" horiz-adv-x="1419" 
d="M84 512q0 125 41 227t113 168t168.5 101.5t209.5 35.5q132 0 230.5 -41.5t154.5 -113.5v135h273v-1024h-273v129q-56 -70 -155 -109.5t-225 -39.5q-151 0 -272.5 64t-193 186.5t-71.5 281.5zM657 199h29q139 0 227 83.5t88 229.5t-88 229.5t-227 83.5h-29
q-135 0 -217 -83t-82 -230t82 -230t217 -83zM915 -246q0 94 63.5 164.5t162.5 112.5l133 -31q-86 -49 -130 -91t-44 -93q0 -47 33.5 -75t78.5 -28h93v-164h-134q-108 0 -182 59t-74 146z" />
    <glyph glyph-name="aring.salt" horiz-adv-x="1419" 
d="M84 512q0 125 41 227t113 168t168.5 101.5t209.5 35.5q132 0 230.5 -41.5t154.5 -113.5v135h273v-1024h-273v129q-56 -70 -155 -109.5t-225 -39.5q-151 0 -272.5 64t-193 186.5t-71.5 281.5zM657 199h29q139 0 227 83.5t88 229.5t-88 229.5t-227 83.5h-29
q-135 0 -217 -83t-82 -230t82 -230t217 -83zM422 1360q0 92 76 161.5t188 69.5t188 -69.5t76 -161.5q0 -99 -74 -165.5t-190 -66.5q-115 0 -189.5 66.5t-74.5 165.5zM793 1360q0 37 -30.5 62.5t-74.5 25.5q-43 0 -74.5 -26.5t-31.5 -61.5t31.5 -61.5t74.5 -26.5
q44 0 74.5 25.5t30.5 62.5z" />
    <glyph glyph-name="aringacute.salt" horiz-adv-x="1419" 
d="M84 512q0 125 41 227t113 168t168.5 101.5t209.5 35.5q132 0 230.5 -41.5t154.5 -113.5v135h273v-1024h-273v129q-56 -70 -155 -109.5t-225 -39.5q-151 0 -272.5 64t-193 186.5t-71.5 281.5zM657 199h29q139 0 227 83.5t88 229.5t-88 229.5t-227 83.5h-29
q-135 0 -217 -83t-82 -230t82 -230t217 -83zM610 1649l72 268h307l-217 -268h-162zM420 1360q0 92 76 161.5t188 69.5t188 -69.5t76 -161.5q0 -100 -73.5 -166t-190.5 -66t-190.5 66t-73.5 166zM791 1360q0 37 -31 62.5t-74 25.5t-74.5 -26.5t-31.5 -61.5t31.5 -61.5
t74.5 -26.5t74 25.5t31 62.5z" />
    <glyph glyph-name="atilde.salt" horiz-adv-x="1419" 
d="M84 512q0 125 41 227t113 168t168.5 101.5t209.5 35.5q132 0 230.5 -41.5t154.5 -113.5v135h273v-1024h-273v129q-56 -70 -155 -109.5t-225 -39.5q-151 0 -272.5 64t-193 186.5t-71.5 281.5zM657 199h29q139 0 227 83.5t88 229.5t-88 229.5t-227 83.5h-29
q-135 0 -217 -83t-82 -230t82 -230t217 -83zM702 1178l-73 28l-31 13q-44 20 -78 20q-31 0 -49 -25.5t-18 -64.5h-197v57q0 95 70.5 166.5t165.5 71.5q74 0 143 -31l31 -12l69 -27q7 -2 39 -16q60 -25 80 -25q31 0 48.5 25t17.5 65h196v-57q0 -103 -58.5 -170.5
t-164.5 -67.5q-60 0 -191 50z" />
    <glyph glyph-name="y.ss03" horiz-adv-x="1290" 
d="M985 1024h299l-553 -1161q-33 -66 -54.5 -105.5t-48.5 -73t-48.5 -49.5t-57 -28t-71.5 -15.5t-95 -5.5h-319v234h276q58 0 87 17.5t61 84.5l45 94l-504 1008h307l344 -698z" />
    <glyph glyph-name="yacute.ss03" horiz-adv-x="1290" 
d="M985 1024h299l-553 -1161q-33 -66 -54.5 -105.5t-48.5 -73t-48.5 -49.5t-57 -28t-71.5 -15.5t-95 -5.5h-319v234h276q58 0 87 17.5t61 84.5l45 94l-504 1008h307l344 -698zM547 1128l133 308h311l-246 -308h-198z" />
    <glyph glyph-name="ycircumflex.ss03" horiz-adv-x="1290" 
d="M985 1024h299l-553 -1161q-33 -66 -54.5 -105.5t-48.5 -73t-48.5 -49.5t-57 -28t-71.5 -15.5t-95 -5.5h-319v234h276q58 0 87 17.5t61 84.5l45 94l-504 1008h307l344 -698zM199 1128l317 308h256l320 -308h-230l-215 144l-219 -144h-229z" />
    <glyph glyph-name="ydieresis.ss03" horiz-adv-x="1290" 
d="M985 1024h299l-553 -1161q-33 -66 -54.5 -105.5t-48.5 -73t-48.5 -49.5t-57 -28t-71.5 -15.5t-95 -5.5h-319v234h276q58 0 87 17.5t61 84.5l45 94l-504 1008h307l344 -698zM276 1155v268h271v-268h-271zM741 1155v268h271v-268h-271z" />
    <glyph glyph-name="ygrave.ss03" horiz-adv-x="1290" 
d="M985 1024h299l-553 -1161q-33 -66 -54.5 -105.5t-48.5 -73t-48.5 -49.5t-57 -28t-71.5 -15.5t-95 -5.5h-319v234h276q58 0 87 17.5t61 84.5l45 94l-504 1008h307l344 -698zM551 1128l-246 308h311l134 -308h-199z" />
    <glyph glyph-name="uni0233.ss03" horiz-adv-x="1290" 
d="M985 1024h299l-553 -1161q-33 -66 -54.5 -105.5t-48.5 -73t-48.5 -49.5t-57 -28t-71.5 -15.5t-95 -5.5h-319v234h276q58 0 87 17.5t61 84.5l45 94l-504 1008h307l344 -698zM281 1157v215h727v-215h-727z" />
    <glyph glyph-name="I_S_B_N" horiz-adv-x="5249" 
d="M5077 872v-872h-283v856q0 170 -92.5 259t-269.5 89h-33q-172 0 -262 -89t-90 -259v-856h-283v872q0 278 165 430t486 152q318 0 490 -154t172 -428zM3521 389q0 -174 -129 -281.5t-326 -107.5h-868v852h790q213 0 213 172q0 74 -55.5 117t-157.5 43h-1747
q-142 0 -204 -36.5t-62 -105.5q0 -71 52.5 -106t184.5 -57l230 -37q512 -82 512 -432q0 -410 -520 -410h-1250v1434h283v-1184h956q134 0 190 35.5t56 107.5t-60.5 111.5t-211.5 64.5l-223 37q-271 46 -377.5 143.5t-106.5 301.5q0 78 29.5 145t90 121.5t166 85.5t245.5 31
h1800q200 0 332.5 -104.5t132.5 -274.5q0 -114 -65 -202.5t-163 -123.5q116 -25 189.5 -116.5t73.5 -223.5zM3236 428q0 80 -61 127t-169 47h-526v-352h526q230 0 230 178z" />
    <glyph glyph-name="w_w_w" horiz-adv-x="4849" 
d="M4571 1024h283l-373 -1024h-283l-237 688l-240 -688h-280l-248 682l-248 -682h-283l-237 688l-240 -688h-280l-248 682l-248 -682h-283l-237 688l-240 -688h-280l-373 1024h283l233 -674l229 674h293l238 -688l227 688h316l233 -674l229 674h293l238 -688l227 688h316
l233 -674l229 674h293l238 -688z" />
    <glyph glyph-name="a.sups_salt" horiz-adv-x="878" 
d="M63 1143q0 136 89 218.5t213 82.5q129 0 206 -74v64h203v-584h-209v76q-33 -38 -86.5 -62t-118.5 -24q-121 0 -209 83.5t-88 219.5zM410 1004h14q68 0 107.5 37t39.5 100t-40 102t-107 39h-14q-62 0 -100 -38t-38 -103q0 -63 38 -100t100 -37z" />
    <glyph glyph-name="y.sups_ss03" horiz-adv-x="788" 
d="M29 614v164h180q27 0 43 5t20 9.5t8 16t5 14.5l20 43l-307 568h223l187 -349l163 349h215l-331 -703q-57 -117 -181 -117h-245z" />
    <glyph glyph-name="a.sups" horiz-adv-x="772" 
d="M61 1012q0 76 56 124.5t155 55.5l205 20v17q0 32 -25.5 49.5t-70.5 17.5h-8q-87 0 -101 -45h-190q5 89 83 141t216 52q139 0 216 -60.5t77 -177.5v-227q0 -80 8 -129h-182q-6 36 -8 74q-77 -84 -224 -84q-86 0 -146.5 47.5t-60.5 124.5zM324 987h8q65 0 107 27t42 73v17
l-159 -19q-27 -5 -45.5 -18t-18.5 -31q0 -23 18 -36t48 -13z" />
    <glyph glyph-name="b.sups" horiz-adv-x="878" 
d="M313 922v-72h-209v809h203v-297q75 82 213 82q125 0 210 -82.5t85 -220.5q0 -140 -85 -220.5t-210 -80.5q-134 0 -207 82zM455 1004h12q61 0 100 37.5t39 99.5q0 60 -40.5 99.5t-98.5 39.5h-12q-67 0 -107.5 -38.5t-40.5 -100.5q0 -63 40 -100t108 -37z" />
    <glyph glyph-name="c.sups" horiz-adv-x="782" 
d="M63 1141q0 145 96.5 224t252.5 79q140 0 216.5 -62.5t94.5 -169.5h-207q-27 68 -110 68h-9q-63 0 -94 -38t-31 -101t31 -100t94 -37h9q89 0 110 61h207q-43 -225 -311 -225q-157 0 -253 78t-96 223z" />
    <glyph glyph-name="d.sups" horiz-adv-x="878" 
d="M63 1141q0 138 84.5 220.5t210.5 82.5q141 0 213 -82v297h203v-809h-209v72q-73 -82 -207 -82q-126 0 -210.5 82t-84.5 219zM420 1004h12q61 0 100 37.5t39 99.5q0 60 -40.5 99.5t-98.5 39.5h-12q-67 0 -107.5 -38.5t-40.5 -100.5q0 -63 40 -100t108 -37z" />
    <glyph glyph-name="e.sups" horiz-adv-x="788" 
d="M61 1137q0 136 92.5 221.5t241.5 85.5q148 0 238 -88.5t90 -231.5v-28h-465q6 -51 42 -79t97 -28h9q49 0 80.5 13.5t39.5 37.5h195q-9 -86 -98.5 -143t-221.5 -57q-149 0 -244.5 82.5t-95.5 214.5zM258 1202h266q-9 90 -125 90h-8q-56 0 -91.5 -23t-41.5 -67z" />
    <glyph glyph-name="f.sups" horiz-adv-x="591" 
d="M164 850v416h-125v168h125v43q0 182 182 182h246v-154h-174q-25 0 -35 -12.5t-10 -42.5v-16h188v-168h-188v-416h-209z" />
    <glyph glyph-name="g.sups" horiz-adv-x="856" 
d="M72 793h209q11 -26 40 -41t70 -15h12q74 0 113 31t39 88v92q-57 -90 -205 -90q-127 0 -207 80.5t-80 212.5q0 133 76.5 213t198.5 80q146 0 205 -96v86h209v-572q0 -118 -93 -198t-266 -80q-135 0 -221.5 53.5t-99.5 155.5zM397 1018h15q61 0 96 36t35 99q0 61 -35.5 96
t-95.5 35h-15q-60 0 -92.5 -34t-32.5 -97t32.5 -99t92.5 -36z" />
    <glyph glyph-name="h.sups" horiz-adv-x="862" 
d="M104 850v809h209v-307q29 47 85 69.5t122 22.5q124 0 185 -73.5t61 -205.5v-315h-209v307q0 60 -28 92.5t-78 32.5h-9q-56 0 -92.5 -38.5t-36.5 -100.5v-293h-209z" />
    <glyph glyph-name="i.sups" horiz-adv-x="417" 
d="M98 1505v154h221v-154h-221zM104 850v584h209v-584h-209z" />
    <glyph glyph-name="j.sups" horiz-adv-x="421" 
d="M100 1505v154h222v-154h-222zM-137 614v164h162q54 0 67.5 14t13.5 68v574h209v-641q0 -92 -44.5 -135.5t-137.5 -43.5h-270z" />
    <glyph glyph-name="k.sups" horiz-adv-x="835" 
d="M104 850v809h205v-426l228 201h256l-265 -238l277 -346h-264l-162 211l-70 -64v-147h-205z" />
    <glyph glyph-name="l.sups" horiz-adv-x="417" 
d="M104 850v809h209v-809h-209z" />
    <glyph glyph-name="m.sups" horiz-adv-x="1253" 
d="M104 850v584h209v-78q64 88 201 88q138 0 197 -103q65 103 223 103q105 0 164 -64t59 -168v-362h-209v319q0 53 -26 82t-68 29h-8q-46 0 -78.5 -34t-32.5 -79v-317h-209v319q0 53 -26 82t-68 29h-8q-46 0 -78.5 -34t-32.5 -79v-317h-209z" />
    <glyph glyph-name="n.sups" horiz-adv-x="862" 
d="M104 850v584h209v-82q29 47 85 69.5t122 22.5q124 0 185 -73.5t61 -205.5v-315h-209v307q0 60 -28 92.5t-78 32.5h-9q-56 0 -92.5 -38.5t-36.5 -100.5v-293h-209z" />
    <glyph glyph-name="o.sups" horiz-adv-x="815" 
d="M61 1141q0 131 95.5 217t251.5 86t251 -86t95 -217q0 -129 -95.5 -215t-250.5 -86t-251 86t-96 215zM403 1004h9q62 0 97.5 36t35.5 101q0 66 -35.5 102.5t-97.5 36.5h-9q-62 0 -97.5 -36.5t-35.5 -102.5q0 -65 35.5 -101t97.5 -36z" />
    <glyph glyph-name="p.sups" horiz-adv-x="880" 
d="M106 625v809h209v-72q73 82 207 82q124 0 209.5 -82t85.5 -219q0 -138 -85 -220.5t-210 -82.5q-138 0 -213 82v-297h-203zM459 1004h10q60 0 99.5 39.5t39.5 99.5t-39.5 98.5t-99.5 38.5h-10q-63 0 -106.5 -40t-43.5 -97q0 -60 42 -99.5t108 -39.5z" />
    <glyph glyph-name="q.sups" horiz-adv-x="880" 
d="M571 625v297q-72 -82 -213 -82q-126 0 -210.5 82.5t-84.5 220.5q0 137 84.5 219t210.5 82q134 0 207 -82v72h209v-809h-203zM412 1004h10q63 0 106 39.5t43 99.5t-42.5 98.5t-106.5 38.5h-10q-60 0 -100 -38.5t-40 -98.5t40 -99.5t100 -39.5z" />
    <glyph glyph-name="r.sups" horiz-adv-x="600" 
d="M104 850v584h215v-109q18 56 57.5 84.5t110.5 28.5h78v-176h-131q-121 0 -121 -144v-268h-209z" />
    <glyph glyph-name="s.sups" horiz-adv-x="757" 
d="M57 1047h207q2 -32 31 -51t82 -19h8q92 0 92 41q0 18 -17.5 28.5t-56.5 18.5l-137 29q-92 20 -139 57.5t-47 103.5q0 90 83.5 139.5t213.5 49.5q296 0 317 -203h-202q-3 66 -109 66h-10q-86 0 -86 -37q0 -29 69 -41l148 -33q93 -21 136.5 -60.5t43.5 -111.5
q0 -93 -81.5 -138.5t-219.5 -45.5q-155 0 -235.5 50.5t-90.5 156.5z" />
    <glyph glyph-name="t.sups" horiz-adv-x="636" 
d="M170 1032v234h-135v168h135v184h209v-184h172v-168h-172v-164q0 -54 14 -67t68 -13h108v-172h-217q-182 0 -182 182z" />
    <glyph glyph-name="u.sups" horiz-adv-x="862" 
d="M96 1112v322h209v-314q0 -119 107 -119h8q57 0 93 36t36 98v299h209v-584h-209v82q-60 -92 -207 -92q-246 0 -246 272z" />
    <glyph glyph-name="v.sups" horiz-adv-x="804" 
d="M268 850l-258 584h219l179 -404l180 404h207l-258 -584h-269z" />
    <glyph glyph-name="w.sups" horiz-adv-x="1077" 
d="M252 850l-217 584h205l102 -312l113 312h192l109 -312l98 312h186l-215 -584h-161l-121 332l-109 -332h-182z" />
    <glyph glyph-name="x.sups" horiz-adv-x="796" 
d="M39 850l248 293l-246 291h223l135 -160l136 160h221l-246 -291l248 -293h-223l-138 162l-137 -162h-221z" />
    <glyph glyph-name="y.sups" horiz-adv-x="800" 
d="M74 614v164h172q42 0 57.5 12.5t15.5 45.5v41l-325 557h235l179 -332l178 332h221l-297 -508v-144q0 -88 -40 -128t-128 -40h-268z" />
    <glyph glyph-name="z.sups" horiz-adv-x="776" 
d="M76 850v133l309 283h-303v168h602v-138l-307 -278h325v-168h-626z" />
    <glyph glyph-name="zero.onum" horiz-adv-x="1425" 
d="M102 512q-3 151 81 274.5t225 191.5t305 66q167 0 306 -67t221.5 -189.5t82.5 -275.5t-82.5 -275.5t-221.5 -189.5t-306 -67t-306.5 67t-222 189.5t-82.5 275.5zM709 199h14q139 0 232.5 84.5t93.5 228.5t-93.5 228.5t-232.5 84.5h-21q-136 0 -230.5 -84.5t-94.5 -228.5
t97 -228.5t235 -84.5z" />
    <glyph glyph-name="one.onum" horiz-adv-x="940" 
d="M508 0v715l-420 -326v264l481 371h195v-1024h-256z" />
    <glyph glyph-name="two.onum" horiz-adv-x="1163" 
d="M772 393l-313 -174h565v-219h-899v295l516 285q84 47 109.5 71t25.5 68q0 47 -50 76.5t-132 29.5h-16q-77 0 -131 -42.5t-54 -104.5h-272q0 154 132.5 260t332.5 106q206 0 335.5 -89t129.5 -228q0 -75 -31.5 -131.5t-87 -100t-160.5 -102.5z" />
    <glyph glyph-name="three.onum" horiz-adv-x="1370" 
d="M84 -14h281q10 -91 93 -144t206 -53h26q130 0 212.5 57t82.5 150q0 90 -75.5 144.5t-204.5 54.5h-220v229h220q129 0 199.5 54t70.5 147q0 90 -77.5 145t-207.5 55h-26q-115 0 -194 -57.5t-85 -142.5h-276q6 181 164 300t407 119q259 0 414 -108t155 -283
q0 -123 -71.5 -209t-186.5 -133q114 -34 191.5 -118t77.5 -207q0 -191 -158 -303.5t-422 -112.5q-258 0 -422.5 114t-173.5 302z" />
    <glyph glyph-name="four.onum" horiz-adv-x="1476" 
d="M885 -410v410h-805v260l766 764h307v-805h260v-219h-260v-410h-268zM362 219h523v518z" />
    <glyph glyph-name="five.onum" horiz-adv-x="1351" 
d="M1260 47q0 -217 -161.5 -346t-436.5 -129q-167 0 -297 47t-211 143t-93 230h277q19 -91 105 -146t204 -55h29q142 0 226.5 70.5t84.5 179.5q0 99 -84 162t-217 63h-29q-77 0 -152 -30t-112 -80h-280l174 870h934v-219h-734l-81 -397q129 75 294 75q258 0 409 -121
t151 -317z" />
    <glyph glyph-name="six.onum" 
d="M1350 471q0 -144 -77.5 -256.5t-215.5 -173.5t-314 -61q-295 0 -464.5 182.5t-169.5 507.5q-3 163 54.5 310.5t155 251.5t229 164t271.5 58q224 0 373 -103t186 -286h-272q-25 80 -96 125t-179 45h-20q-163 0 -282 -118.5t-156 -319.5q73 72 180 110.5t229 38.5
q154 2 285 -58t208.5 -170.5t74.5 -246.5zM1075 461q0 118 -92 192t-225 74h-21q-131 0 -228 -77.5t-97 -186.5q0 -110 97.5 -187t227.5 -77h21q132 0 224.5 73.5t92.5 188.5z" />
    <glyph glyph-name="seven.onum" horiz-adv-x="1292" 
d="M39 1024h1198v-240q-330 -163 -482.5 -439t-152.5 -714v-41h-274v60q0 393 152.5 688.5t422.5 466.5h-864v219z" />
    <glyph glyph-name="eight.onum" horiz-adv-x="1372" 
d="M156 371q0 115 75.5 203t176.5 122q-53 13 -104.5 42.5t-96 73.5t-71.5 106t-27 131q0 176 162.5 290.5t414.5 114.5q255 0 416.5 -112.5t161.5 -292.5q0 -70 -26.5 -132t-70 -105.5t-95 -73t-105.5 -42.5q101 -34 176.5 -122t75.5 -203q0 -174 -148.5 -282.5
t-384.5 -108.5q-234 0 -382 108.5t-148 282.5zM672 813h28q135 0 212 56t77 155q0 97 -78 154t-211 57h-28q-133 0 -211 -57t-78 -154q0 -99 77 -155t212 -56zM672 199h28q110 0 177 55t67 137q0 94 -65.5 148.5t-178.5 54.5h-28q-112 0 -177 -54.5t-65 -148.5
q0 -81 67 -136.5t175 -55.5z" />
    <glyph glyph-name="nine.onum" horiz-adv-x="1445" 
d="M106 555q0 144 77.5 256.5t216 174t313.5 61.5q295 0 465 -183t170 -508q3 -163 -54.5 -310.5t-155.5 -251.5t-229.5 -164t-271.5 -58q-224 0 -373 103t-186 286h272q25 -80 96 -125t179 -45h20q163 0 282 118.5t156 319.5q-73 -72 -180 -110.5t-229 -38.5
q-154 -2 -285 58t-208.5 170.5t-74.5 246.5zM381 565q0 -118 92 -192t225 -74h21q131 0 228 76.5t97 187.5q0 109 -98 186.5t-227 77.5h-21q-132 0 -224.5 -73.5t-92.5 -188.5z" />
    <glyph glyph-name="zero.onum_zero" horiz-adv-x="1425" 
d="M1323 512q0 -153 -82.5 -275.5t-221.5 -189.5t-306 -67t-306.5 67t-222 189.5t-82.5 275.5q-3 151 81 274.5t225 191.5t305 66q167 0 306 -67t221.5 -189.5t82.5 -275.5zM377 512q0 -88 39 -156l452 441q-73 28 -145 28h-21q-136 0 -230.5 -84.5t-94.5 -228.5zM1049 512
q0 86 -37 156l-453 -439q71 -30 150 -30h14q139 0 232.5 84.5t93.5 228.5z" />
    <glyph glyph-name="zero.tnum" 
d="M96 717q0 178 50 320t137.5 232t203 137.5t250.5 47.5t250.5 -47.5t203 -137.5t137.5 -232t50 -320t-50 -320t-137.5 -232t-203 -137.5t-250.5 -47.5q-136 0 -252 47.5t-203 137.5t-136.5 232t-49.5 320zM723 219h29q51 0 99 15.5t94 53t80 93.5t54.5 142.5t20.5 193.5
t-20.5 193.5t-54.5 142t-80 93t-94 53t-99 15.5h-29q-51 0 -99 -15.5t-94 -53t-80 -93t-54.5 -142t-20.5 -193.5t20.5 -193.5t54.5 -142.5t80 -93.5t94 -53t99 -15.5z" />
    <glyph glyph-name="one.tnum" 
d="M967 250h407v-250h-1253v250h573v852l-389 -322v293l430 361h232v-1184z" />
    <glyph glyph-name="two.tnum" 
d="M444 250h873v-250h-1159v365l604 376q149 94 206.5 155.5t57.5 135.5q0 82 -74.5 132t-195.5 50h-29q-119 0 -190.5 -65t-77.5 -164h-287q6 210 163.5 339.5t405.5 129.5q165 0 292.5 -48t200.5 -141t73 -218q-2 -83 -26.5 -149.5t-78 -127.5t-121.5 -113t-176 -120z" />
    <glyph glyph-name="three.tnum" 
d="M123 395h287q13 -83 97 -129.5t206 -46.5h28q136 0 221 53.5t85 141.5q0 82 -79 133t-212 51h-205v240h205q133 0 206.5 51.5t73.5 140.5q0 81 -81 132.5t-214 51.5h-28q-111 0 -188 -51t-89 -129h-286q6 181 167 300.5t414 119.5q266 0 426 -107.5t160 -283.5
q0 -123 -68.5 -207.5t-183.5 -130.5q111 -33 186.5 -119t75.5 -207q0 -193 -162.5 -306t-433.5 -113q-264 0 -431.5 113.5t-176.5 301.5z" />
    <glyph glyph-name="four.tnum" 
d="M1102 528h264v-237h-264v-291h-273v291h-720v272l673 871h320v-906zM379 528h450v582z" />
    <glyph glyph-name="five.tnum" 
d="M1319 455q0 -217 -161 -346t-431 -129q-257 0 -418.5 108.5t-185.5 310.5h287q23 -85 104 -132.5t195 -47.5h28q136 0 218.5 65t82.5 165q0 104 -81 169.5t-209 65.5h-29q-82 0 -154.5 -31.5t-109.5 -89.5h-287l180 871h934v-250h-723l-72 -338q125 78 295 78
q246 0 391.5 -129.5t145.5 -339.5z" />
    <glyph glyph-name="six.tnum" 
d="M1313 483q0 -227 -157 -365t-415 -138q-287 0 -443.5 168t-156.5 501q-2 165 50 315.5t141 258.5t212.5 171t258.5 60q229 0 370.5 -103t163.5 -286h-286q-13 66 -73 107.5t-163 41.5h-29q-124 0 -222 -100t-138 -266q139 127 352 127q150 0 270 -56t192.5 -169.5
t72.5 -266.5zM1030 473q0 126 -78.5 194t-201.5 68h-29q-118 0 -199.5 -67.5t-81.5 -192.5q0 -114 83 -185t198 -71h29q121 0 200.5 68.5t79.5 185.5z" />
    <glyph glyph-name="seven.tnum" 
d="M80 1434h1300v-267q-694 -339 -694 -1126v-41h-280v59q0 364 163.5 655.5t436.5 469.5h-926v250z" />
    <glyph glyph-name="eight.tnum" 
d="M199 369q0 118 75 208t179 119q-57 13 -109.5 42.5t-96.5 73t-70.5 105.5t-26.5 132q0 115 74.5 207.5t209 145t303.5 52.5q258 0 423 -113t165 -292q0 -136 -90 -231t-213 -122q104 -29 179 -119t75 -208q0 -173 -151 -281t-388 -108q-235 0 -386.5 108t-151.5 281z
M723 823h29q134 0 213 54.5t79 144.5q0 92 -77.5 142t-214.5 50h-29q-138 0 -215.5 -50t-77.5 -142q0 -90 80 -144.5t213 -54.5zM723 219h29q111 0 177 50.5t66 131.5q0 82 -65.5 132.5t-177.5 50.5h-29q-112 0 -178 -50.5t-66 -132.5q0 -81 66.5 -131.5t177.5 -50.5z" />
    <glyph glyph-name="nine.tnum" 
d="M162 950q0 227 156.5 365.5t414.5 138.5q287 0 443.5 -168t156.5 -502q3 -221 -85.5 -407.5t-241.5 -293.5t-334 -103q-229 0 -371 103t-164 286h287q13 -66 72.5 -108t162.5 -42h29q124 0 222.5 100.5t138.5 266.5q-139 -127 -353 -127q-150 0 -270 56t-192 169t-72 266
zM444 961q0 -126 79 -194.5t202 -68.5h29q118 0 199 67.5t81 192.5q0 114 -82.5 185t-197.5 71h-29q-121 0 -201 -68t-80 -185z" />
    <glyph glyph-name="zero.tnum_zero" 
d="M1378 717q0 -178 -50 -320t-137.5 -232t-203 -137.5t-250.5 -47.5q-136 0 -252 47.5t-203 137.5t-136.5 232t-49.5 320t50 320t137.5 232t203 137.5t250.5 47.5t250.5 -47.5t203 -137.5t137.5 -232t50 -320zM375 717q0 -99 18 -187l592 578q-90 106 -233 106h-29
q-51 0 -99 -15.5t-94 -53t-80 -93t-54.5 -142t-20.5 -193.5zM1100 717q0 83 -17 176l-589 -571q94 -103 229 -103h29q51 0 99 15.5t94 53t80 93.5t54.5 142.5t20.5 193.5z" />
    <glyph glyph-name="zero.zero" horiz-adv-x="1570" 
d="M1460 717q0 -179 -51.5 -320.5t-143 -232t-214 -137.5t-267.5 -47q-146 0 -268 47t-212.5 137.5t-141.5 232t-51 320.5q0 178 51.5 319.5t142.5 232t213 138t266 47.5q145 0 267.5 -47.5t214 -138t143 -232t51.5 -319.5zM391 717q0 -125 31 -223l616 630q-97 90 -239 90
h-29q-56 0 -108.5 -15.5t-102.5 -53t-86.5 -93t-59 -142t-22.5 -193.5zM1180 717q0 121 -27 215l-614 -629q94 -84 231 -84h29q73 0 138 26.5t121 82.5t89 156t33 233z" />
    <glyph glyph-name="zero.subs" horiz-adv-x="929" 
d="M78 168q0 83 23.5 156.5t69.5 132.5t122 93t172 34t172 -34t122 -93t69.5 -132.5t23.5 -156.5t-23.5 -156.5t-69.5 -131.5t-122 -92t-172 -34t-172 34t-122 92t-69.5 131.5t-23.5 156.5zM461 -57h8q79 0 120.5 58t41.5 167t-41.5 168t-120.5 59h-8q-78 0 -120 -59
t-42 -168t41.5 -167t120.5 -58z" />
    <glyph glyph-name="one.subs" horiz-adv-x="686" 
d="M344 -236v551l-285 -182v229l318 211h182v-809h-215z" />
    <glyph glyph-name="two.subs" horiz-adv-x="843" 
d="M84 -233v172l342 274q56 44 73 63.5t23 55.5q0 33 -28.5 53.5t-77.5 20.5h-8q-44 0 -75.5 -26t-33.5 -63h-219q9 122 106 195.5t244 73.5q142 0 233 -73.5t91 -162.5q0 -74 -38.5 -126t-135.5 -130l-185 -145l357 2v-184h-668z" />
    <glyph glyph-name="three.subs" horiz-adv-x="845" 
d="M70 -4h221q1 -26 36.5 -44t80.5 -18h10q55 0 88 22t33 58q0 35 -31.5 54.5t-87.5 19.5h-107v172h107q112 0 112 74q0 33 -28 53.5t-80 20.5h-10q-41 0 -73 -16.5t-36 -41.5h-221q0 110 96 173t240 63q140 0 237 -64t97 -168q0 -135 -129 -178q135 -48 135 -190
q0 -70 -49.5 -123.5t-128.5 -80t-172 -26.5q-144 0 -242 65t-98 175z" />
    <glyph glyph-name="four.subs" horiz-adv-x="897" 
d="M502 -236v127h-443v224l398 458h243v-510h129v-172h-129v-127h-198zM246 63h256v281z" />
    <glyph glyph-name="five.subs" horiz-adv-x="851" 
d="M61 10h230q11 -33 46 -54.5t79 -21.5h8q55 0 91 28.5t36 70.5t-33.5 68t-89.5 26h-8q-34 0 -65 -9.5t-44 -25.5h-221l90 481h578v-180h-418l-29 -137q36 25 73.5 36t96.5 11q117 0 202 -70t85 -190q0 -133 -98 -211t-260 -78q-143 0 -241.5 70.5t-107.5 185.5z" />
    <glyph glyph-name="six.subs" horiz-adv-x="880" 
d="M78 129q0 205 110.5 330t288.5 125q144 0 230.5 -68t95.5 -176h-213q-11 28 -40.5 45.5t-70.5 17.5h-12q-70 0 -122.5 -57t-61.5 -137q73 82 211 82q127 0 212 -72t85 -182q0 -123 -95.5 -203t-246.5 -80q-168 0 -269.5 102t-101.5 273zM438 -66h8q55 0 91 27t36 68
q0 38 -36 63t-91 25h-8q-51 0 -89 -26.5t-38 -63.5q0 -41 35.5 -67t91.5 -26z" />
    <glyph glyph-name="seven.subs" horiz-adv-x="763" 
d="M186 -236v27q0 191 62 321t233 277h-430v184h674v-159q-179 -149 -243 -281.5t-64 -331.5v-37h-232z" />
    <glyph glyph-name="eight.subs" horiz-adv-x="858" 
d="M94 -25q0 68 42.5 117.5t119.5 69.5q-174 52 -174 200q0 94 102 158t246 64t245 -64t101 -158q0 -147 -176 -200q78 -20 120 -69.5t42 -117.5q0 -96 -93 -158.5t-239 -62.5t-241 63t-95 158zM424 252h10q57 0 91 20t34 56q0 35 -34.5 55t-90.5 20h-10q-57 0 -91 -20
t-34 -55q0 -36 33.5 -56t91.5 -20zM424 -66h10q50 0 80.5 20t30.5 52t-31 53t-80 21h-10q-51 0 -82 -20.5t-31 -53.5q0 -32 31 -52t82 -20z" />
    <glyph glyph-name="nine.subs" horiz-adv-x="878" 
d="M76 0h213q23 -63 110 -63h13q73 0 124 56t60 138q-73 -82 -211 -82q-127 0 -212 72t-85 182q0 121 95.5 202t246.5 81q170 0 270.5 -102t100.5 -273q0 -207 -110.5 -331t-289.5 -124q-145 0 -229 66.5t-96 177.5zM432 223h8q52 0 89.5 26t37.5 64q0 39 -36 66t-91 27h-8
q-55 0 -91 -28t-36 -67q0 -38 36 -63t91 -25z" />
    <glyph glyph-name="zero.dnom" horiz-adv-x="929" 
d="M78 403q0 83 23.5 156.5t69.5 132.5t122 93t172 34t172 -34t122 -93t69.5 -132.5t23.5 -156.5t-23.5 -156t-69.5 -131.5t-121.5 -92t-172.5 -33.5t-172.5 33.5t-121.5 92t-69.5 131.5t-23.5 156zM461 178h8q79 0 120.5 58t41.5 167q0 110 -41.5 169t-120.5 59h-8
q-78 0 -120 -59.5t-42 -168.5t41.5 -167t120.5 -58z" />
    <glyph glyph-name="one.dnom" horiz-adv-x="686" 
d="M346 0v551l-285 -182v229l318 211h182v-809h-215z" />
    <glyph glyph-name="two.dnom" horiz-adv-x="843" 
d="M84 0v172l342 274q56 44 73 63.5t23 55.5q0 33 -28.5 53.5t-77.5 20.5h-8q-44 0 -75.5 -25.5t-33.5 -62.5h-219q9 122 105.5 195t244.5 73q142 0 233 -73t91 -162q0 -74 -38.5 -126t-135.5 -130l-185 -146l357 2v-184h-668z" />
    <glyph glyph-name="three.dnom" horiz-adv-x="845" 
d="M70 229h221q1 -26 36.5 -43.5t80.5 -17.5h10q55 0 88 22t33 58q0 35 -31.5 54.5t-87.5 19.5h-107v172h107q112 0 112 73q0 33 -28 53.5t-80 20.5h-10q-41 0 -72.5 -17t-36.5 -40h-221q0 109 96 172t240 63q140 0 237 -63.5t97 -167.5q0 -135 -129 -178q135 -51 135 -191
q0 -106 -102.5 -167.5t-247.5 -61.5q-144 0 -242 64t-98 175z" />
    <glyph glyph-name="four.dnom" horiz-adv-x="897" 
d="M502 0v127h-443v223l398 459h243v-510h129v-172h-129v-127h-198zM246 299h256v281z" />
    <glyph glyph-name="five.dnom" horiz-adv-x="851" 
d="M61 246h230q11 -33 46 -54.5t79 -21.5h8q55 0 91 28t36 70t-33.5 68t-89.5 26h-8q-82 0 -109 -34h-221l90 481h578v-180h-418l-29 -137q36 25 73.5 36t96.5 11q117 0 202 -70t85 -190q0 -133 -98 -211t-260 -78q-143 0 -241.5 71t-107.5 185z" />
    <glyph glyph-name="six.dnom" horiz-adv-x="880" 
d="M80 365q0 207 110 330.5t289 123.5q144 0 230.5 -67.5t95.5 -176.5h-213q-11 28 -40.5 46t-70.5 18h-12q-71 0 -123 -57t-61 -138q73 82 211 82q127 0 212 -72t85 -182q0 -122 -95.5 -202t-246.5 -80q-169 0 -270 102.5t-101 272.5zM440 170h9q55 0 90.5 26.5t35.5 67.5
q0 38 -35.5 63t-90.5 25h-9q-51 0 -89 -26.5t-38 -63.5q0 -41 35.5 -66.5t91.5 -25.5z" />
    <glyph glyph-name="seven.dnom" horiz-adv-x="763" 
d="M184 0v27q0 192 62 321t233 277h-430v184h674v-160q-178 -145 -242.5 -278.5t-64.5 -333.5v-37h-232z" />
    <glyph glyph-name="eight.dnom" horiz-adv-x="858" 
d="M94 211q0 68 42.5 117.5t119.5 68.5q-174 52 -174 201q0 95 101.5 158t246.5 63t245.5 -63t100.5 -158q0 -148 -176 -201q78 -18 120 -67.5t42 -118.5q0 -96 -93 -158.5t-239 -62.5t-241 63t-95 158zM424 487h10q57 0 91 20t34 56q0 35 -34.5 55.5t-90.5 20.5h-10
q-57 0 -91 -20.5t-34 -55.5q0 -36 33.5 -56t91.5 -20zM424 170h10q49 0 80 20.5t31 51.5q0 32 -31 52.5t-80 20.5h-10q-51 0 -82 -20.5t-31 -52.5t31 -52t82 -20z" />
    <glyph glyph-name="nine.dnom" horiz-adv-x="878" 
d="M76 236h213q26 -64 110 -64h13q73 0 124 56.5t60 138.5q-73 -82 -211 -82q-127 0 -212 72t-85 182q0 122 95.5 202t246.5 80q170 0 270.5 -102t100.5 -273q0 -207 -110.5 -330.5t-289.5 -123.5q-144 0 -228.5 67t-96.5 177zM432 459h8q51 0 89 26.5t38 63.5
q0 41 -35.5 66.5t-91.5 25.5h-8q-56 0 -91.5 -26.5t-35.5 -67.5q0 -38 36 -63t91 -25z" />
    <glyph glyph-name="zero.numr" horiz-adv-x="929" 
d="M78 1028q0 83 23.5 156.5t69.5 132.5t122 93t172 34t172 -34t122 -93t69.5 -132.5t23.5 -156.5t-23.5 -156.5t-69.5 -131.5t-122 -92t-172 -34t-172 34t-122 92t-69.5 131.5t-23.5 156.5zM461 803h8q79 0 120.5 58t41.5 167t-41.5 168t-120.5 59h-8q-78 0 -120 -59
t-42 -168t41.5 -167t120.5 -58z" />
    <glyph glyph-name="one.numr" horiz-adv-x="686" 
d="M344 625v551l-285 -183v230l318 211h182v-809h-215z" />
    <glyph glyph-name="two.numr" horiz-adv-x="843" 
d="M84 625v172l342 274q56 44 73 63.5t23 55.5q0 33 -28.5 53.5t-77.5 20.5h-8q-44 0 -75.5 -25.5t-33.5 -62.5h-219q9 122 105.5 195t244.5 73q142 0 233 -73.5t91 -162.5q0 -74 -38.5 -126t-135.5 -130l-185 -145l357 2v-184h-668z" />
    <glyph glyph-name="three.numr" horiz-adv-x="845" 
d="M70 854h221q1 -26 36.5 -43.5t80.5 -17.5h10q55 0 88 22t33 57t-31.5 54.5t-87.5 19.5h-107v172h107q112 0 112 74q0 33 -28 53.5t-80 20.5h-10q-41 0 -73 -16.5t-36 -41.5h-221q0 109 96.5 172.5t239.5 63.5q140 0 237 -64t97 -168q0 -134 -129 -178q135 -48 135 -190
q0 -106 -102.5 -168t-247.5 -62q-144 0 -242 65t-98 175z" />
    <glyph glyph-name="four.numr" horiz-adv-x="897" 
d="M502 625v127h-443v223l398 459h243v-510h129v-172h-129v-127h-198zM246 924h256v280z" />
    <glyph glyph-name="five.numr" horiz-adv-x="851" 
d="M59 870h230q11 -31 46.5 -53t78.5 -22h8q55 0 91 28t36 70q0 43 -33 68.5t-90 25.5h-8q-34 0 -65 -9.5t-44 -25.5h-221l90 482h578v-181h-418l-29 -137q36 25 73.5 36t96.5 11q117 0 202 -70t85 -190q0 -133 -98 -211t-260 -78q-143 0 -241.5 71t-107.5 185z" />
    <glyph glyph-name="six.numr" horiz-adv-x="880" 
d="M78 989q0 207 110 331t289 124q144 0 230.5 -67.5t95.5 -176.5h-213q-11 28 -40.5 46t-70.5 18h-12q-71 0 -123 -57t-61 -138q73 82 211 82q127 0 212 -72t85 -182q0 -123 -95.5 -203t-246.5 -80q-169 0 -270 102.5t-101 272.5zM438 795h8q56 0 91.5 26.5t35.5 67.5
q0 38 -36 63t-91 25h-8q-51 0 -89 -26.5t-38 -63.5q0 -41 35.5 -66.5t91.5 -25.5z" />
    <glyph glyph-name="seven.numr" horiz-adv-x="763" 
d="M184 625v26q0 192 62 321t233 277h-430v185h674v-160q-178 -145 -242.5 -278.5t-64.5 -333.5v-37h-232z" />
    <glyph glyph-name="eight.numr" horiz-adv-x="858" 
d="M94 836q0 68 42.5 117.5t119.5 68.5q-174 52 -174 201q0 95 101.5 158t246.5 63t245.5 -63t100.5 -158q0 -148 -176 -201q78 -18 120 -67.5t42 -118.5q0 -96 -93.5 -159t-238.5 -63q-146 0 -241 63t-95 159zM424 1112h10q57 0 91 20t34 56q0 35 -34.5 55.5t-90.5 20.5
h-10q-57 0 -91 -20.5t-34 -55.5q0 -36 33.5 -56t91.5 -20zM424 795h10q49 0 80 20t31 51q0 32 -31 53t-80 21h-10q-51 0 -82 -20.5t-31 -53.5q0 -32 31 -51.5t82 -19.5z" />
    <glyph glyph-name="nine.numr" horiz-adv-x="878" 
d="M76 860h213q11 -28 39.5 -45.5t70.5 -17.5h13q73 0 124 56t60 138q-73 -82 -211 -82q-127 0 -212 72t-85 182q0 123 95.5 203t246.5 80q170 0 270.5 -102t100.5 -273q0 -207 -110.5 -331t-289.5 -124q-144 0 -228.5 67t-96.5 177zM432 1083h8q51 0 89 27t38 64
q0 41 -35.5 66.5t-91.5 25.5h-8q-55 0 -91 -27t-36 -68q0 -38 36 -63t91 -25z" />
    <glyph glyph-name="zero.subs_zero" horiz-adv-x="929" 
d="M852 168q0 -85 -23.5 -158.5t-69.5 -131t-121.5 -91t-172.5 -33.5t-172.5 33.5t-121.5 91t-69.5 131t-23.5 158.5q0 84 23.5 157.5t69.5 132t121.5 92.5t172.5 34t172.5 -34t121.5 -92.5t69.5 -132t23.5 -157.5zM299 168q0 -37 2 -55l270 243q-39 39 -102 39h-8
q-78 0 -120 -59t-42 -168zM631 168q0 37 -2 53l-269 -241q40 -37 101 -37h8q79 0 120.5 58t41.5 167z" />
    <glyph glyph-name="zero.dnom_zero" horiz-adv-x="929" 
d="M852 403q0 -85 -23.5 -158t-69.5 -131t-121.5 -91t-172.5 -33t-172.5 33t-121.5 91t-69.5 131t-23.5 158q0 84 23.5 157.5t69.5 132t121.5 92.5t172.5 34t172.5 -34t121.5 -92.5t69.5 -132t23.5 -157.5zM299 403q0 -37 2 -55l270 244q-39 39 -102 39h-8q-78 0 -120 -59.5
t-42 -168.5zM631 403q0 38 -2 54l-269 -242q40 -37 101 -37h8q79 0 120.5 58t41.5 167z" />
    <glyph glyph-name="zero.numr_zero" horiz-adv-x="929" 
d="M852 1028q0 -85 -23.5 -158.5t-69.5 -131t-121.5 -91t-172.5 -33.5t-172.5 33.5t-121.5 91t-69.5 131t-23.5 158.5q0 84 23.5 157.5t69.5 132t121.5 92.5t172.5 34t172.5 -34t121.5 -92.5t69.5 -132t23.5 -157.5zM299 1028q0 -37 2 -55l270 244q-38 38 -102 38h-8
q-78 0 -120 -59t-42 -168zM631 1028q0 37 -2 53l-269 -241q40 -37 101 -37h8q79 0 120.5 58t41.5 167z" />
    <glyph glyph-name="uni2070.zero" horiz-adv-x="929" 
d="M852 1253q0 -85 -23.5 -158t-69.5 -131t-121.5 -91t-172.5 -33t-172.5 33t-121.5 91t-69.5 131t-23.5 158q0 84 23.5 157.5t69.5 132t121.5 92.5t172.5 34t172.5 -34t121.5 -92.5t69.5 -132t23.5 -157.5zM299 1253q0 -37 2 -55l270 244q-39 39 -102 39h-8
q-78 0 -120 -59.5t-42 -168.5zM631 1253q0 38 -2 54l-269 -242q40 -37 101 -37h8q79 0 120.5 58t41.5 167z" />
    <glyph glyph-name="exclamdown.case" horiz-adv-x="653" 
d="M397 1044l70 -563v-481h-283v481l70 563h143zM492 1434v-301h-328v301h328z" />
    <glyph glyph-name="questiondown.case" horiz-adv-x="1157" 
d="M887 1026v-219q0 -260 -240 -260h-125q-78 0 -125 -42t-47 -110q0 -64 47.5 -103.5t132.5 -39.5h541v-250h-559q-199 0 -319.5 107t-120.5 284q0 174 126 283.5t334 109.5q49 0 70 17t21 55v168h264zM920 1436v-301h-328v301h328z" />
    <glyph glyph-name="_497" horiz-adv-x="1208" 
d="M840 1024v-176q0 -104 -32.5 -152t-127.5 -88l-160 -67l-39 -21q-70 -36 -99.5 -65.5t-29.5 -81.5q0 -71 64 -112.5t188 -41.5t185.5 40t74.5 130h273q-12 -189 -163.5 -299t-369.5 -110q-239 0 -384.5 104.5t-145.5 282.5q0 73 22.5 132t66.5 102t90.5 72.5t111.5 59.5
l145 66q39 21 48 36.5t9 59.5v129h273zM868 1434v-301h-327v301h327z" />
    <glyph glyph-name="question.ss05" horiz-adv-x="1206" 
d="M367 410v176q0 104 32 151.5t127 87.5l160 68l39 20q69 35 99 65.5t30 82.5q0 71 -64 112t-188 41t-185.5 -40t-74.5 -130h-272q12 189 163 299.5t369 110.5q239 0 385 -104.5t146 -282.5q0 -73 -22.5 -132t-66.5 -102.5t-90.5 -73.5t-111.5 -59l-146 -65
q-39 -21 -48 -36.5t-9 -59.5v-129h-272zM338 0v301h328v-301h-328z" />
    <glyph glyph-name="questiondown.ss05" horiz-adv-x="1193" 
d="M834 614v-176q0 -104 -32.5 -151.5t-127.5 -87.5l-160 -68l-39 -20q-69 -35 -99 -65.5t-30 -82.5q0 -71 64 -112t188 -41t185.5 40t74.5 130h272q-12 -189 -163 -299.5t-369 -110.5q-239 0 -384.5 104.5t-145.5 282.5q0 73 22.5 132t66 102.5t90 73.5t111.5 59l146 65
q39 21 48 36.5t9 59.5v129h273zM862 1024v-301h-327v301h327z" />
    <glyph glyph-name="colon.tnum" 
d="M573 0v301h328v-301h-328zM573 723v301h328v-301h-328z" />
    <glyph glyph-name="comma.tnum" 
d="M498 -307v157h114q123 0 123 130v20h-160v301h328v-332q0 -115 -75.5 -195.5t-204.5 -80.5h-125z" />
    <glyph glyph-name="numbersign.tnum" 
d="M1403 866h-244l-78 -303h236v-239h-297l-84 -324h-252l84 324h-248l-82 -324h-252l82 324h-198v239h262l78 303h-252v240h313l84 328h252l-84 -328h246l84 328h252l-84 -328h182v-240zM829 563l78 303h-245l-78 -303h245z" />
    <glyph glyph-name="period.tnum" 
d="M573 0v301h328v-301h-328z" />
    <glyph glyph-name="semicolon.tnum" 
d="M582 723v301h327v-301h-327zM504 -307v157h114q123 0 123 130v20h-159v301h327v-332q0 -115 -75.5 -195.5t-204.5 -80.5h-125z" />
    <glyph glyph-name="braceleft.case" horiz-adv-x="927" 
d="M281 317v99q0 78 -21.5 105.5t-83.5 27.5h-72v336h72q62 0 83.5 27.5t21.5 105.5v98q0 318 274 318h260v-250h-143q-78 0 -99.5 -23.5t-21.5 -109.5v-140q0 -93 -44 -133.5t-130 -40.5v-39q174 0 174 -176v-139q0 -86 21.5 -109.5t99.5 -23.5h143v-250h-260
q-274 0 -274 317z" />
    <glyph glyph-name="braceright.case" horiz-adv-x="927" 
d="M647 1118v-98q0 -78 21.5 -105.5t83.5 -27.5h71v-336h-71q-62 0 -83.5 -27.5t-21.5 -105.5v-99q0 -317 -274 -317h-260v250h143q78 0 99.5 23.5t21.5 109.5v139q0 93 44 133.5t130 40.5v39q-174 0 -174 176v140q0 86 -21.5 109.5t-99.5 23.5h-143v250h260q274 0 274 -318
z" />
    </font>
</defs>
</svg>
